<?xml version="1.0" encoding="utf-8"?>
<!-- Generator: Adobe Illustrator 19.1.0, SVG Export Plug-In . SVG Version: 6.00 Build 0)  -->
<svg version="1.1" id="Layer_1" xmlns="http://www.w3.org/2000/svg" xmlns:xlink="http://www.w3.org/1999/xlink" x="0px" y="0px"
	 viewBox="0 0 708 494.7" style="enable-background:new 0 0 708 494.7;" xml:space="preserve">
<style type="text/css">
	.st0{fill:#FFFFFF;}
	.st1{fill:#F2BB53;}
</style>
<g>
	<path class="st0" d="M141.7,162.8L141.7,162.8c-1.2,2.5-4.5,3.1-6.4,1.1c-5.3-5.7-15-12.9-22.1,1.8c0,0-8,28.7,17.4,40.8
		c0,0,30.4,14.1,13.1,67c-1.8,5.6-5.2,10.7-10.1,14c-7.1,4.8-18.4,6.9-31.1-11c0,0-5.1-7.7-4.2-12.4c0.3-1.6,2.5-1.9,3.5-0.6
		c3.8,5.5,14.4,19,21.8,14.3c0,0,19.3-12.8,7.6-39.3c-3-6.7-7.9-12.3-14-16.3c-8.2-5.4-21-17.5-19-39.3c0,0,0.3-29.8,14.1-35.2
		C112.3,147.7,127,137.4,141.7,162.8z"/>
	<path class="st0" d="M542.8,162.8L542.8,162.8c-1.2,2.5-4.5,3.1-6.4,1.1c-5.3-5.7-15-12.9-22.1,1.8c0,0-8,28.7,17.4,40.8
		c0,0,30.4,14.1,13.1,67c-1.8,5.6-5.2,10.7-10.1,14c-7.1,4.8-18.4,6.9-31.1-11c0,0-5.1-7.7-4.2-12.4c0.3-1.6,2.5-1.9,3.5-0.6
		c3.8,5.5,14.4,19,21.8,14.3c0,0,19.3-12.8,7.6-39.3c-3-6.7-7.9-12.3-14-16.3c-8.2-5.4-21-17.5-19-39.3c0,0,0.3-29.8,14.1-35.2
		C513.4,147.7,528.1,137.4,542.8,162.8z"/>
	<polygon class="st0" points="213.2,146.9 251.4,146.9 251.4,159.4 230,159.4 230,202.1 244.2,202.1 244.2,212.8 229.7,212.8 
		229.7,276.5 251.4,276.5 251.4,286.4 213.2,286.4 	"/>
	<polygon class="st0" points="388,146.9 426.2,146.9 426.2,159.4 404.8,159.4 404.8,202.1 419,202.1 419,212.8 404.5,212.8 
		404.5,276.5 426.2,276.5 426.2,286.4 388,286.4 	"/>
	<path class="st0" d="M325.5,145.6h14.3v45.2l19.8-40.1c0,0,6.1-14.3,6.3,4.7l-15.9,38.4L385,294.6l-21.1,33.8L341.1,226v60.4h-15.6
		V145.6z"/>
	<polygon class="st0" points="553.1,150.1 560,143.1 575.6,200.8 587.5,145.6 604.7,145.6 569.3,331.3 554.4,284.9 571.3,216.3 	"/>
	<path class="st0" d="M468.7,146.9h-12.4l-23.1,135.9c0,0,1.4,10.4,9.1-2.2l4.7-20.9c0,0,0-6,6.6-4.9l14.8,0.3l11.3,55.7l15.4-13.4
		L468.7,146.9z M448.1,240l9.9-52.7l9.1,52.7H448.1z"/>
	<path class="st0" d="M293.9,146.9h-12.4l-23.1,135.9c0,0,1.4,10.4,9.1-2.2l4.7-20.9c0,0,0-6,6.6-4.9l14.8,0.3l11.3,55.7l15.4-13.4
		L293.9,146.9z M273.3,240l9.9-52.7l9.1,52.7H273.3z"/>
	<path class="st0" d="M188.6,148.2H155v139.2h16V215h17.6C188.6,215,227,177,188.6,148.2z M185,202.1h-12.7v-42.6H185
		C205.7,172.2,185,202.1,185,202.1z"/>
</g>
<g>
	<path class="st1" d="M658,144.1v177.6c0,49.2-39.9,89.2-89.2,89.2H311.5l-186.3,69.7l44.5-69.7h-31.2c-49.2,0-89.2-39.9-89.2-89.2
		V144.1c0-49.2,39.9-89.2,89.2-89.2h430.4C618.1,55,658,94.9,658,144.1z"/>
	<g>
		<path class="st0" d="M143.4,166.2L143.4,166.2c-1.2,2.5-4.5,3.1-6.4,1.1c-5.2-5.7-14.9-12.9-22,1.8c0,0-8,28.6,17.3,40.6
			c0,0,30.3,14.1,13.1,66.7c-1.8,5.6-5.2,10.6-10.1,13.9c-7.1,4.8-18.3,6.9-31-11c0,0-5.1-7.7-4.2-12.3c0.3-1.6,2.5-1.9,3.5-0.6
			c3.8,5.4,14.4,18.9,21.8,14.3c0,0,19.2-12.8,7.5-39.1c-3-6.7-7.8-12.3-13.9-16.3c-8.2-5.4-21-17.4-18.9-39.1
			c0,0,0.3-29.7,14.1-35.1C114.1,151.2,128.8,140.9,143.4,166.2z"/>
		<path class="st0" d="M543.2,166.2L543.2,166.2c-1.2,2.5-4.5,3.1-6.4,1.1c-5.2-5.7-14.9-12.9-22,1.8c0,0-8,28.6,17.3,40.6
			c0,0,30.3,14.1,13.1,66.7c-1.8,5.6-5.2,10.6-10.1,13.9c-7.1,4.8-18.3,6.9-31-11c0,0-5.1-7.7-4.2-12.3c0.3-1.6,2.5-1.9,3.5-0.6
			c3.8,5.4,14.4,18.9,21.8,14.3c0,0,19.2-12.8,7.5-39.1c-3-6.7-7.8-12.3-13.9-16.3c-8.2-5.4-21-17.4-18.9-39.1
			c0,0,0.3-29.7,14.1-35.1C513.9,151.2,528.5,140.9,543.2,166.2z"/>
		<polygon class="st0" points="214.7,150.4 252.7,150.4 252.7,162.9 231.4,162.9 231.4,205.4 245.6,205.4 245.6,216.1 231.1,216.1 
			231.1,279.5 252.7,279.5 252.7,289.4 214.7,289.4 		"/>
		<polygon class="st0" points="388.9,150.4 427,150.4 427,162.9 405.6,162.9 405.6,205.4 419.8,205.4 419.8,216.1 405.3,216.1 
			405.3,279.5 427,279.5 427,289.4 388.9,289.4 		"/>
		<path class="st0" d="M326.6,149.1h14.2v45.1l19.7-39.9c0,0,6.1-14.2,6.3,4.7l-15.9,38.3l35,100.4l-21.1,33.6l-22.7-102v60.2h-15.6
			V149.1z"/>
		<polygon class="st0" points="553.4,153.6 560.4,146.7 575.9,204.1 587.8,149.1 604.9,149.1 569.6,334.2 554.7,287.9 571.6,219.6 
					"/>
		<path class="st0" d="M469.4,150.4H457l-23,135.4c0,0,1.4,10.4,9-2.2l4.7-20.8c0,0,0-6,6.6-4.9l14.8,0.3l11.2,55.5l15.3-13.4
			L469.4,150.4z M448.8,243.2l9.8-52.5l9,52.5H448.8z"/>
		<path class="st0" d="M295.1,150.4h-12.3l-23,135.4c0,0,1.4,10.4,9-2.2l4.7-20.8c0,0,0-6,6.6-4.9l14.8,0.3l11.2,55.5l15.3-13.4
			L295.1,150.4z M274.6,243.2l9.8-52.5l9,52.5H274.6z"/>
		<path class="st0" d="M190.2,151.7h-33.5v138.8h16v-72.2h17.5C190.2,218.3,228.4,180.4,190.2,151.7z M186.6,205.4h-12.7v-42.5h12.7
			C207.2,175.6,186.6,205.4,186.6,205.4z"/>
	</g>
</g>
</svg>
