<?xml version="1.0" encoding="utf-8"?>
<!-- Generator: Adobe Illustrator 19.1.0, SVG Export Plug-In . SVG Version: 6.00 Build 0)  -->
<svg version="1.1" id="Layer_1" xmlns="http://www.w3.org/2000/svg" xmlns:xlink="http://www.w3.org/1999/xlink" x="0px" y="0px"
	 viewBox="0 0 841.9 595.3" style="enable-background:new 0 0 841.9 595.3;" xml:space="preserve">
<style type="text/css">
	.st0{fill:#FFFFFF;}
	.st1{fill:#F2BB53;}
</style>
<g>
	<path class="st0" d="M183.2,195.5L183.2,195.5c-1.3,2.7-4.9,3.4-6.9,1.2c-5.7-6.2-16.2-14-23.9,2c0,0-8.7,31.1,18.8,44.2
		c0,0,32.9,15.3,14.2,72.5c-2,6.1-5.7,11.6-10.9,15.1c-7.7,5.2-19.9,7.5-33.7-11.9c0,0-5.6-8.3-4.6-13.4c0.3-1.7,2.7-2.1,3.8-0.6
		c4.2,5.9,15.6,20.5,23.6,15.5c0,0,20.9-13.9,8.2-42.5c-3.2-7.2-8.5-13.4-15.1-17.7c-8.9-5.8-22.8-18.9-20.6-42.5
		c0,0,0.3-32.3,15.3-38.1C151.3,179.1,167.2,168,183.2,195.5z"/>
	<path class="st0" d="M617.8,195.5L617.8,195.5c-1.3,2.7-4.9,3.4-6.9,1.2c-5.7-6.2-16.2-14-23.9,2c0,0-8.7,31.1,18.8,44.2
		c0,0,32.9,15.3,14.2,72.5c-2,6.1-5.7,11.6-10.9,15.1c-7.7,5.2-19.9,7.5-33.7-11.9c0,0-5.6-8.3-4.6-13.4c0.3-1.7,2.7-2.1,3.8-0.6
		c4.2,5.9,15.6,20.5,23.6,15.5c0,0,20.9-13.9,8.2-42.5c-3.2-7.2-8.5-13.4-15.1-17.7c-8.9-5.8-22.8-18.9-20.6-42.5
		c0,0,0.3-32.3,15.3-38.1C585.9,179.1,601.9,168,617.8,195.5z"/>
	<polygon class="st0" points="260.7,178.3 302,178.3 302,191.8 278.8,191.8 278.8,238 294.3,238 294.3,249.6 278.5,249.6 
		278.5,318.6 302,318.6 302,329.4 260.7,329.4 	"/>
	<polygon class="st0" points="450.1,178.3 491.4,178.3 491.4,191.8 468.2,191.8 468.2,238 483.7,238 483.7,249.6 467.9,249.6 
		467.9,318.6 491.4,318.6 491.4,329.4 450.1,329.4 	"/>
	<path class="st0" d="M382.3,176.9h15.5v49l21.4-43.4c0,0,6.6-15.5,6.9,5.1l-17.3,41.6l38.1,109.2L424,374.9l-24.7-110.9v65.4h-17
		V176.9z"/>
	<polygon class="st0" points="629,181.7 636.5,174.2 653.4,236.6 666.3,176.8 684.9,176.8 646.5,378 630.4,327.8 648.7,253.5 	"/>
	<path class="st0" d="M537.5,178.3h-13.4l-25,147.2c0,0,1.5,11.3,9.8-2.4l5.1-22.6c0,0,0-6.5,7.1-5.4l16.1,0.3l12.2,60.4l16.7-14.6
		L537.5,178.3z M515.2,279.1l10.7-57.1l9.8,57.1H515.2z"/>
	<path class="st0" d="M348.1,178.3h-13.4l-25,147.2c0,0,1.5,11.3,9.8-2.4l5.1-22.6c0,0,0-6.5,7.1-5.4l16.1,0.3l12.2,60.4l16.7-14.6
		L348.1,178.3z M325.8,279.1l10.7-57.1l9.8,57.1H325.8z"/>
	<path class="st0" d="M234,179.6h-36.4v150.9h17.3V252H234C234,252,275.6,210.8,234,179.6z M230.2,238h-13.8v-46.2h13.8
		C252.5,205.6,230.2,238,230.2,238z"/>
</g>
<g>
	<path class="st1" d="M742.7,175.2v192.4c0,53.4-43.3,96.6-96.6,96.6H367.2l-201.8,75.6l48.2-75.6h-33.8
		c-53.4,0-96.6-43.3-96.6-96.6V175.2c0-53.3,43.3-96.6,96.6-96.6h466.4C699.4,78.6,742.7,121.9,742.7,175.2z"/>
	<g>
		<path class="st0" d="M185,199.2L185,199.2c-1.3,2.7-4.9,3.4-6.9,1.2c-5.7-6.2-16.2-13.9-23.9,2c0,0-8.7,31,18.8,44
			c0,0,32.8,15.3,14.2,72.3c-2,6-5.6,11.5-10.9,15.1c-7.7,5.2-19.8,7.5-33.6-11.9c0,0-5.5-8.3-4.6-13.4c0.3-1.7,2.7-2.1,3.7-0.6
			c4.2,5.9,15.6,20.5,23.6,15.4c0,0,20.8-13.8,8.2-42.4c-3.2-7.2-8.5-13.3-15.1-17.7c-8.8-5.8-22.7-18.8-20.5-42.4
			c0,0,0.3-32.2,15.3-38C153.3,182.9,169.2,171.8,185,199.2z"/>
		<path class="st0" d="M618.2,199.2L618.2,199.2c-1.3,2.7-4.9,3.4-6.9,1.2c-5.7-6.2-16.2-13.9-23.9,2c0,0-8.7,31,18.8,44
			c0,0,32.8,15.3,14.2,72.3c-2,6-5.6,11.5-10.9,15.1c-7.7,5.2-19.8,7.5-33.6-11.9c0,0-5.5-8.3-4.6-13.4c0.3-1.7,2.7-2.1,3.7-0.6
			c4.2,5.9,15.6,20.5,23.6,15.4c0,0,20.8-13.8,8.2-42.4c-3.2-7.2-8.5-13.3-15.1-17.7c-8.8-5.8-22.7-18.8-20.5-42.4
			c0,0,0.3-32.2,15.3-38C586.5,182.9,602.3,171.8,618.2,199.2z"/>
		<polygon class="st0" points="262.3,182.1 303.5,182.1 303.5,195.6 280.4,195.6 280.4,241.6 295.8,241.6 295.8,253.2 280.1,253.2 
			280.1,322 303.5,322 303.5,332.6 262.3,332.6 		"/>
		<polygon class="st0" points="451.1,182.1 492.3,182.1 492.3,195.6 469.2,195.6 469.2,241.6 484.6,241.6 484.6,253.2 468.9,253.2 
			468.9,322 492.3,322 492.3,332.6 451.1,332.6 		"/>
		<path class="st0" d="M383.5,180.6h15.4v48.8l21.3-43.3c0,0,6.6-15.4,6.8,5l-17.2,41.5l37.9,108.8L425,378l-24.6-110.6v65.2h-16.9
			V180.6z"/>
		<polygon class="st0" points="629.3,185.5 636.8,178 653.7,240.2 666.5,180.6 685.1,180.6 646.9,381.2 630.8,331.1 649,257 		"/>
		<path class="st0" d="M538.2,182.1h-13.3L500,328.8c0,0,1.5,11.3,9.8-2.4l5-22.5c0,0,0-6.5,7.1-5.3l16,0.3l12.2,60.2l16.6-14.5
			L538.2,182.1z M516,282.5l10.7-56.9l9.8,56.9H516z"/>
		<path class="st0" d="M349.4,182.1h-13.3l-24.9,146.7c0,0,1.5,11.3,9.8-2.4l5-22.5c0,0,0-6.5,7.1-5.3l16,0.3l12.2,60.2l16.6-14.5
			L349.4,182.1z M327.2,282.5l10.7-56.9l9.8,56.9H327.2z"/>
		<path class="st0" d="M235.7,183.4h-36.3v150.4h17.3v-78.2h19C235.7,255.6,277.2,214.5,235.7,183.4z M231.9,241.6h-13.8v-46h13.8
			C254.1,209.3,231.9,241.6,231.9,241.6z"/>
	</g>
</g>
</svg>
