<?xml version="1.0" encoding="utf-8"?>
<!-- Generator: Adobe Illustrator 19.1.0, SVG Export Plug-In . SVG Version: 6.00 Build 0)  -->
<svg version="1.1" id="Layer_1" xmlns="http://www.w3.org/2000/svg" xmlns:xlink="http://www.w3.org/1999/xlink" x="0px" y="0px"
	 viewBox="0 0 841.9 595.3" style="enable-background:new 0 0 841.9 595.3;" xml:space="preserve">
<style type="text/css">
	.st0{fill:#FFFFFF;}
	.st1{fill:#F2BB53;}
</style>
<g>
	<path class="st0" d="M267.1,244.1L267.1,244.1c-0.8,1.7-3.1,2.1-4.4,0.7c-3.6-3.9-10.3-8.9-15.2,1.3c0,0-5.5,19.8,11.9,28
		c0,0,20.9,9.7,9,46c-1.3,3.8-3.6,7.3-6.9,9.6c-4.9,3.3-12.6,4.8-21.4-7.6c0,0-3.5-5.3-2.9-8.5c0.2-1.1,1.7-1.3,2.4-0.4
		c2.6,3.8,9.9,13,15,9.8c0,0,13.3-8.8,5.2-27c-2-4.6-5.4-8.5-9.6-11.2c-5.6-3.7-14.5-12-13-27c0,0,0.2-20.5,9.7-24.2
		C246.9,233.7,257,226.7,267.1,244.1z"/>
	<path class="st0" d="M542.9,244.1L542.9,244.1c-0.8,1.7-3.1,2.1-4.4,0.7c-3.6-3.9-10.3-8.9-15.2,1.3c0,0-5.5,19.8,11.9,28
		c0,0,20.9,9.7,9,46c-1.3,3.8-3.6,7.3-6.9,9.6c-4.9,3.3-12.6,4.8-21.4-7.6c0,0-3.5-5.3-2.9-8.5c0.2-1.1,1.7-1.3,2.4-0.4
		c2.6,3.8,9.9,13,15,9.8c0,0,13.3-8.8,5.2-27c-2-4.6-5.4-8.5-9.6-11.2c-5.6-3.7-14.5-12-13-27c0,0,0.2-20.5,9.7-24.2
		C522.7,233.7,532.8,226.7,542.9,244.1z"/>
	<polygon class="st0" points="316.3,233.2 342.5,233.2 342.5,241.8 327.8,241.8 327.8,271.1 337.6,271.1 337.6,278.5 327.6,278.5 
		327.6,322.3 342.5,322.3 342.5,329.1 316.3,329.1 	"/>
	<polygon class="st0" points="436.5,233.2 462.7,233.2 462.7,241.8 448,241.8 448,271.1 457.8,271.1 457.8,278.5 447.8,278.5 
		447.8,322.3 462.7,322.3 462.7,329.1 436.5,329.1 	"/>
	<path class="st0" d="M393.5,232.3h9.8v31.1l13.6-27.6c0,0,4.2-9.8,4.4,3.2l-11,26.4l24.2,69.3L419.9,358l-15.7-70.4v41.5h-10.8
		V232.3z"/>
	<polygon class="st0" points="550,235.4 554.8,230.6 565.5,270.2 573.7,232.3 585.5,232.3 561.2,360 550.9,328.1 562.5,280.9 	"/>
	<path class="st0" d="M492,233.2h-8.5l-15.9,93.4c0,0,0.9,7.2,6.2-1.5l3.2-14.3c0,0,0-4.2,4.5-3.4l10.2,0.2l7.7,38.3l10.6-9.2
		L492,233.2z M477.8,297.2l6.8-36.2l6.2,36.2H477.8z"/>
	<path class="st0" d="M371.8,233.2h-8.5l-15.9,93.4c0,0,0.9,7.2,6.2-1.5l3.2-14.3c0,0,0-4.2,4.5-3.4l10.2,0.2l7.7,38.3l10.6-9.2
		L371.8,233.2z M357.6,297.2l6.8-36.2l6.2,36.2H357.6z"/>
	<path class="st0" d="M299.3,234.1h-23.1v95.8h11V280h12.1C299.3,280,325.8,253.9,299.3,234.1z M296.9,271.1h-8.8v-29.3h8.8
		C311.1,250.6,296.9,271.1,296.9,271.1z"/>
</g>
<g>
	<path class="st1" d="M622.2,231.3v122.1c0,33.9-27.4,61.3-61.3,61.3h-177l-128.1,48l30.6-48h-21.5c-33.9,0-61.3-27.5-61.3-61.3
		V231.3c0-33.9,27.4-61.3,61.3-61.3h296C594.7,170,622.2,197.4,622.2,231.3z"/>
	<g>
		<path class="st0" d="M268.3,246.5L268.3,246.5c-0.8,1.7-3.1,2.1-4.4,0.7c-3.6-3.9-10.3-8.8-15.1,1.3c0,0-5.5,19.7,11.9,27.9
			c0,0,20.8,9.7,9,45.9c-1.3,3.8-3.6,7.3-6.9,9.6c-4.9,3.3-12.6,4.7-21.3-7.5c0,0-3.5-5.3-2.9-8.5c0.2-1.1,1.7-1.3,2.4-0.4
			c2.6,3.7,9.9,13,15,9.8c0,0,13.2-8.8,5.2-26.9c-2-4.6-5.4-8.4-9.6-11.2c-5.6-3.7-14.4-12-13-26.9c0,0,0.2-20.5,9.7-24.1
			C248.2,236.1,258.2,229.1,268.3,246.5z"/>
		<path class="st0" d="M543.2,246.5L543.2,246.5c-0.8,1.7-3.1,2.1-4.4,0.7c-3.6-3.9-10.3-8.8-15.1,1.3c0,0-5.5,19.7,11.9,27.9
			c0,0,20.8,9.7,9,45.9c-1.3,3.8-3.6,7.3-6.9,9.6c-4.9,3.3-12.6,4.7-21.3-7.5c0,0-3.5-5.3-2.9-8.5c0.2-1.1,1.7-1.3,2.4-0.4
			c2.6,3.7,9.9,13,15,9.8c0,0,13.2-8.8,5.2-26.9c-2-4.6-5.4-8.4-9.6-11.2c-5.6-3.7-14.4-12-13-26.9c0,0,0.2-20.5,9.7-24.1
			C523,236.1,533.1,229.1,543.2,246.5z"/>
		<polygon class="st0" points="317.3,235.6 343.5,235.6 343.5,244.2 328.8,244.2 328.8,273.4 338.6,273.4 338.6,280.8 328.6,280.8 
			328.6,324.4 343.5,324.4 343.5,331.2 317.3,331.2 		"/>
		<polygon class="st0" points="437.1,235.6 463.3,235.6 463.3,244.2 448.6,244.2 448.6,273.4 458.4,273.4 458.4,280.8 448.4,280.8 
			448.4,324.4 463.3,324.4 463.3,331.2 437.1,331.2 		"/>
		<path class="st0" d="M394.3,234.7h9.8v31l13.5-27.5c0,0,4.2-9.8,4.3,3.2L411,267.8l24.1,69l-14.5,23.1L405,289.8v41.4h-10.7V234.7
			z"/>
		<polygon class="st0" points="550.2,237.8 555,233 565.7,272.5 573.9,234.7 585.7,234.7 561.4,362 551.2,330.2 562.7,283.2 		"/>
		<path class="st0" d="M492.4,235.6H484l-15.8,93.1c0,0,0.9,7.1,6.2-1.5l3.2-14.3c0,0,0-4.1,4.5-3.4l10.2,0.2l7.7,38.2l10.5-9.2
			L492.4,235.6z M478.3,299.4l6.8-36.1l6.2,36.1H478.3z"/>
		<path class="st0" d="M372.6,235.6h-8.5l-15.8,93.1c0,0,0.9,7.1,6.2-1.5l3.2-14.3c0,0,0-4.1,4.5-3.4l10.2,0.2l7.7,38.2l10.5-9.2
			L372.6,235.6z M358.5,299.4l6.8-36.1l6.2,36.1H358.5z"/>
		<path class="st0" d="M300.4,236.5h-23v95.4h11v-49.6h12.1C300.4,282.3,326.8,256.2,300.4,236.5z M298,273.4h-8.7v-29.2h8.7
			C312.2,252.9,298,273.4,298,273.4z"/>
	</g>
</g>
</svg>
