<svg xmlns="http://www.w3.org/2000/svg" viewBox="0 0 708 494.7" enable-background="new 0 0 708 494.7"><style type="text/css">.st0{fill:#FFFFFF;} .st1{fill:#F2BB53;}</style><path class="st0" d="M141.7 162.8c-1.2 2.5-4.5 3.1-6.4 1.1-5.3-5.7-15-12.9-22.1 1.8 0 0-8 28.7 17.4 40.8 0 0 30.4 14.1 13.1 67-1.8 5.6-5.2 10.7-10.1 14-7.1 4.8-18.4 6.9-31.1-11 0 0-5.1-7.7-4.2-12.4.3-1.6 2.5-1.9 3.5-.6 3.8 5.5 14.4 19 21.8 14.3 0 0 19.3-12.8 7.6-39.3-3-6.7-7.9-12.3-14-16.3-8.2-5.4-21-17.5-19-39.3 0 0 .3-29.8 14.1-35.2 0 0 14.7-10.3 29.4 15.1zm401.1 0c-1.2 2.5-4.5 3.1-6.4 1.1-5.3-5.7-15-12.9-22.1 1.8 0 0-8 28.7 17.4 40.8 0 0 30.4 14.1 13.1 67-1.8 5.6-5.2 10.7-10.1 14-7.1 4.8-18.4 6.9-31.1-11 0 0-5.1-7.7-4.2-12.4.3-1.6 2.5-1.9 3.5-.6 3.8 5.5 14.4 19 21.8 14.3 0 0 19.3-12.8 7.6-39.3-3-6.7-7.9-12.3-14-16.3-8.2-5.4-21-17.5-19-39.3 0 0 .3-29.8 14.1-35.2 0 0 14.7-10.3 29.4 15.1zm-329.6-15.9h38.2v12.5h-21.4v42.7h14.2v10.7h-14.5v63.7h21.7v9.9h-38.2zm174.8 0h38.2v12.5h-21.4v42.7h14.2v10.7h-14.5v63.7h21.7v9.9h-38.2zm-62.5-1.3h14.3v45.2l19.8-40.1s6.1-14.3 6.3 4.7l-15.9 38.4 35 100.8-21.1 33.8-22.8-102.4v60.4h-15.6v-140.8zm227.6 4.5l6.9-7 15.6 57.7 11.9-55.2h17.2l-35.4 185.7-14.9-46.4 16.9-68.6zm-84.4-3.2h-12.4l-23.1 135.9s1.4 10.4 9.1-2.2l4.7-20.9s0-6 6.6-4.9l14.8.3 11.3 55.7 15.4-13.4-26.4-150.5zm-20.6 93.1l9.9-52.7 9.1 52.7h-19zm-154.2-93.1h-12.4l-23.1 135.9s1.4 10.4 9.1-2.2l4.7-20.9s0-6 6.6-4.9l14.8.3 11.3 55.7 15.4-13.4-26.4-150.5zm-20.6 93.1l9.9-52.7 9.1 52.7h-19zm-84.7-91.8h-33.6v139.2h16v-72.4h17.6s38.4-38 0-66.8zm-3.6 53.9h-12.7v-42.6h12.7c20.7 12.7 0 42.6 0 42.6z"/><path class="st1" d="M658 144.1v177.6c0 49.2-39.9 89.2-89.2 89.2h-257.3l-186.3 69.7 44.5-69.7h-31.2c-49.2 0-89.2-39.9-89.2-89.2v-177.6c0-49.2 39.9-89.2 89.2-89.2h430.4c49.2.1 89.1 40 89.1 89.2z"/><path class="st0" d="M143.4 166.2c-1.2 2.5-4.5 3.1-6.4 1.1-5.2-5.7-14.9-12.9-22 1.8 0 0-8 28.6 17.3 40.6 0 0 30.3 14.1 13.1 66.7-1.8 5.6-5.2 10.6-10.1 13.9-7.1 4.8-18.3 6.9-31-11 0 0-5.1-7.7-4.2-12.3.3-1.6 2.5-1.9 3.5-.6 3.8 5.4 14.4 18.9 21.8 14.3 0 0 19.2-12.8 7.5-39.1-3-6.7-7.8-12.3-13.9-16.3-8.2-5.4-21-17.4-18.9-39.1 0 0 .3-29.7 14.1-35.1-.1.1 14.6-10.2 29.2 15.1zm399.8 0c-1.2 2.5-4.5 3.1-6.4 1.1-5.2-5.7-14.9-12.9-22 1.8 0 0-8 28.6 17.3 40.6 0 0 30.3 14.1 13.1 66.7-1.8 5.6-5.2 10.6-10.1 13.9-7.1 4.8-18.3 6.9-31-11 0 0-5.1-7.7-4.2-12.3.3-1.6 2.5-1.9 3.5-.6 3.8 5.4 14.4 18.9 21.8 14.3 0 0 19.2-12.8 7.5-39.1-3-6.7-7.8-12.3-13.9-16.3-8.2-5.4-21-17.4-18.9-39.1 0 0 .3-29.7 14.1-35.1-.1.1 14.5-10.2 29.2 15.1zm-328.5-15.8h38v12.5h-21.3v42.5h14.2v10.7h-14.5v63.4h21.6v9.9h-38zm174.2 0h38.1v12.5h-21.4v42.5h14.2v10.7h-14.5v63.4h21.7v9.9h-38.1zm-62.3-1.3h14.2v45.1l19.7-39.9s6.1-14.2 6.3 4.7l-15.9 38.3 35 100.4-21.1 33.6-22.7-102v60.2h-15.6v-140.4zm226.8 4.5l7-6.9 15.5 57.4 11.9-55h17.1l-35.3 185.1-14.9-46.3 16.9-68.3zm-84-3.2h-12.4l-23 135.4s1.4 10.4 9-2.2l4.7-20.8s0-6 6.6-4.9l14.8.3 11.2 55.5 15.3-13.4-26.2-149.9zm-20.6 92.8l9.8-52.5 9 52.5h-18.8zm-153.7-92.8h-12.3l-23 135.4s1.4 10.4 9-2.2l4.7-20.8s0-6 6.6-4.9l14.8.3 11.2 55.5 15.3-13.4-26.3-149.9zm-20.5 92.8l9.8-52.5 9 52.5h-18.8zm-84.4-91.5h-33.5v138.8h16v-72.2h17.5s38.2-37.9 0-66.6zm-3.6 53.7h-12.7v-42.5h12.7c20.6 12.7 0 42.5 0 42.5z"/></svg>