<svg xmlns="http://www.w3.org/2000/svg" viewBox="-118 82 554 449" enable-background="new -118 82 554 449"><style type="text/css">.st0{fill:#EF7922;stroke:#EF7922;stroke-miterlimit:10;} .st1{fill:#BB2329;} .st2{fill:none;stroke:#FFFFFF;stroke-miterlimit:10;stroke-dasharray:1.9988,1.9988;} .st3{fill:#CD553D;} .st4{fill:#F1BA53;}</style><path class="st0" d="M247.6 477.8h-179.1c-2.5 0-4.5-2-4.5-4.5v-262.8c0-2.5 2-4.5 4.5-4.5h179.1c2.5 0 4.5 2 4.5 4.5v262.8c0 2.5-2 4.5-4.5 4.5z"/><path class="st1" d="M222.3 439.6h-123.3c-2.5 0-4.5-2-4.5-4.5v-94.9c0-2.5 2-4.5 4.5-4.5h123.4c2.5 0 4.5 2 4.5 4.5v94.8c0 2.6-2 4.6-4.6 4.6z"/><path class="st2" d="M235.5 462.9h-154.4c-2.5 0-4.5-2-4.5-4.5v-235.1c0-2.5 2-4.5 4.5-4.5h154.4c2.5 0 4.5 2 4.5 4.5v235.1c0 2.5-2 4.5-4.5 4.5z"/><path class="st0" d="M101.5 268.3v-97.8s-1.9-21.1 19.7-21.6h82.5s13.4.5 11.5 23.5v95.9h-14.9l-.4-91c-.3-10-2.6-16.4-15.2-17.3 0 0-33.6-.2-53.2.5-8.7.3-15.5 7.4-15.6 16.1l2 91.7h-16.4z"/><path class="st3" d="M92.6 477.8s-1.6 18 6.9 24.4c0 0 7.7-6.1 5.3-24.4h-12.2zM209.8 477.8s-1.6 18 6.9 24.4c0 0 7.7-6.1 5.3-24.4h-12.2z"/><path class="st4" d="M207.2 379s8.5-13.6 36.1-11.7l12.7 40.8s105-124 141.6-132.3c0 0-102.4 114.2-140.1 179.2l-50.3-76z"/><circle class="st4" cx="118.7" cy="283.4" r="14.8"/><circle class="st4" cx="200.9" cy="283.4" r="14.8"/><path class="st4" d="M99.6 335.9h122.2s-16.7 70.9-63 68c-47.6-3-59.2-68-59.2-68z"/></svg>