<?xml version="1.0" encoding="utf-8"?>
<!-- Generator: Adobe Illustrator 19.1.0, SVG Export Plug-In . SVG Version: 6.00 Build 0)  -->
<svg version="1.1" id="Layer_1" xmlns="http://www.w3.org/2000/svg" xmlns:xlink="http://www.w3.org/1999/xlink" x="0px" y="0px"
	 viewBox="0 0 792 612" style="enable-background:new 0 0 792 612;" xml:space="preserve">
<style type="text/css">
	.st0{fill:#F17922;stroke:#F17922;stroke-width:3;stroke-miterlimit:10;}
	.st1{fill:#FFFFFF;}
	.st2{fill:#EEB953;}
	.st3{fill:#231F20;}
	.st4{font-family:'ApolloMTStd-SemiBold';}
	.st5{font-size:63.7676px;}
</style>
<rect x="77.8" y="119.1" class="st0" width="636.9" height="415.8"/>
<path class="st1" d="M589.3,535.8H77.8V179.1c9.9-2.5,19.7-5.1,29.6-7.6c24.8-6.1,49.9-10.5,75.3-12.8c12.3-1.1,24.6-1,36.9-1.5
	c7.9-0.4,15.8-1.5,23.7-1.4c10.5,0.2,21,1.3,31.5,2.1c15.1,1.3,30.3,2,45.3,4.2c43.1,6.2,84.7,18.1,124.6,35.7
	c34.8,15.4,67,35,95.7,60c1.5,1.3,3,2.7,4.6,4.2c39.1,37.5,65.2,86.7,73.8,140.1C625.7,444.4,622.6,493.9,589.3,535.8z"/>
<path d="M77.8,292.6c11.7,2.4,17.1,10.8,14,22.2c-2.2,7.9-6.4,14.5-14,18.4c0-5.7,0-11.4,0-17.1c1.2-3.4,3-6.7,3.3-10.2
	c0.2-2.2-2.1-4.6-3.3-6.9C77.8,296.8,77.8,294.7,77.8,292.6z"/>
<path d="M348.8,342.8c-22.6,16.6-45.2,33.2-67.8,49.8c-6.4,4.7-12.8,9.2-19.1,13.8c-0.2-0.3-0.5-0.6-0.7-0.8
	c46.4-57.3,92.8-114.6,139.5-172.3c-3.6-1.5-6.2-2.5-9.1-3.6c-47.8,58.9-95.4,117.7-143.1,176.5c-0.5-1.3-0.2-1.9,0.2-2.6
	c20.3-39,40.7-77.9,60.9-116.9c1.3-2.4,2.8-2.7,5.1-2.3c4.7,0.9,9.3,1.7,14.2,2.5c0.9-2.3,1.6-4.2,2.3-6.3
	c-5.7-1.3-10.8-2.5-15.9-3.7c1.6-6,5-8.8,10.2-10.5c4.9-1.6,9.7-4,13.8-7.1c4.9-3.7,4.4-10-0.3-13.9c-1.7-1.4-3.5-2.6-5.4-3.9
	c4.2-8.3,8.4-16.4,12.6-24.8c-2.2-0.5-3.8-0.9-5.7-1.3c-4.4,8.4-8.8,16.7-13,24.6c-5.1-0.3-9.5-0.4-14-0.8c-4.4-0.4-6.2,1.7-6.6,6.4
	h17.7c-1.9,3.7-3.5,6.4-4.7,9.3c-2.5,6.3-6.3,10.8-13.5,12.1c-3.3,0.6-6.3,2.8-9.5,4c-4.1,1.6-5.1,4.8-5.8,8.8
	c4.7,0.9,9.2,1.8,14.2,2.8c-26.4,50.5-52.5,100.4-78.3,149.8c3.4,2.2,6.7,4.4,10.2,6.6c41-30.1,82.3-60.3,124-91
	c-3-2.2-5.4-3.5-7.4-5.3C352,341,350.6,341.4,348.8,342.8z M328.9,250.2c0.5,0.3,1,0.6,1.6,0.8c-1.3,2.4-2.7,4.8-4.1,7.3
	c-0.4-0.2-0.9-0.5-1.3-0.7C326.4,255.2,327.6,252.7,328.9,250.2z"/>
<path d="M467.3,371.3c0.2-3.8,2.4-6,6.6-5.3c7.2,1.2,14.4,2.1,21.4,4c4,1.1,7.6,4.2,7.5,9.1c0,5-3,8.5-7.4,10.3
	c-6.7,2.8-13.7,5.1-20.5,7.8c-2.8,1.1-5.4,2.8-8.2,4.2c0.1,0.4,0.2,0.8,0.2,1.2c8,1.6,15.9,3.2,24.4,4.9c-1,2.3-1.8,4.3-2.8,6.6
	c-12.7-2.5-25.1-5-37.8-7.5c1-4.3,2.7-7.4,6.8-9c7.3-2.8,14.5-5.5,21.6-8.6c3.1-1.4,6.2-3.1,8.7-5.4c4.2-4,2.8-9.4-2.9-10.5
	C479.3,371.8,473.2,371.8,467.3,371.3z"/>
<path d="M484.4,486.4c5.1,3.2,10.2,6.2,8.3,12.5c-1.8,6.3-7.2,9-13.4,9.7c-9.9,1.1-19.3-1-28.8-5c0.8-2,1.6-3.9,2.3-5.5
	c5.3,1.6,10.2,3.3,15.2,4.4c2.2,0.5,5.1,0.6,7-0.5c2.4-1.3,4.9-3.7,5.7-6.1c0.5-1.6-1.4-5.1-3.2-6.1c-4-2.2-8.5-3.3-13-5
	c0.1-3.8,2.2-4.3,6.1-3.9c4.2,0.5,8.7,0.4,12.7-0.7c1.9-0.5,4.1-3.8,4.2-5.9c0.1-1.5-2.9-4.1-4.9-4.6c-5.2-1.2-10.5-1.4-16.1-2
	c0.2-3.2,1.5-5.7,5.7-5c7,1.2,14.2,2.1,21,4c3.7,1,7.1,3.7,6.9,8.4c-0.2,4.9-3.6,7.4-7.7,8.9C490,485.2,487.5,485.6,484.4,486.4z"/>
<path d="M277.5,276.9c-4.1-0.7-7.5-1.3-11.5-2c5.1-12.5,10.1-24.6,15.1-36.8c-2.5-0.6-4.7-1.2-7-1.8c-0.2-0.5-0.4-0.9-0.6-1.4
	c1.4-0.9,2.9-2.6,4.2-2.5c5.5,0.4,11,1.3,17.2,2.2C289.1,248.9,283.4,262.8,277.5,276.9z"/>
<path d="M416.2,287.7c-2.5-0.6-4.7-1.1-7.3-1.8c0.4-1.3,0.9-2.6,1.4-4.1c6.6,0.9,13,1.8,19.7,2.7c-5.9,14.3-11.7,28.2-17.5,42.3
	c-3.8-0.8-7.3-1.5-11.3-2.3C406.2,312.1,411.2,300,416.2,287.7z"/>
<path d="M143.5,278.7c-4.1-0.9-7.6-1.6-11.4-2.3c5.1-12.5,10.1-24.5,15.2-36.7c-2.4-0.7-4.7-1.3-7-1.9c0-2.6,0.7-4.2,3.6-3.7
	c5.4,0.8,10.9,1.5,17,2.4C155,250.6,149.3,264.5,143.5,278.7z"/>
<path d="M186.7,247.3c-2.8-0.7-4.9-1.2-7-1.7c-0.1-3.2,1.1-4.3,4.3-3.7c5.3,0.9,10.7,1.3,16.4,2c-4.4,10.7-8.6,20.9-12.8,31.1
	c-0.3,0.7-0.6,1.4-0.9,2.1c-4.1,9.8-4.1,9.8-15,6.9C176.6,271.9,181.6,259.8,186.7,247.3z"/>
<path d="M315.7,225.9c-4.2,0-7.8-2.6-7.9-5.7c-0.1-3.4,3.7-6.1,8.5-6.1c4.3,0,7.9,2.5,7.9,5.6C324.3,222.8,320,225.9,315.7,225.9z"
	/>
<path d="M532.7,388.1c-4.5,0-7.8-2.4-7.9-5.6c-0.1-3.4,3.8-6.2,8.4-6.2c4.3,0,7.9,2.6,8,5.6C541.3,385.2,537.2,388.1,532.7,388.1z"
	/>
<path d="M527.4,507.4c-4.4,0-7.7-2.5-7.8-5.8c-0.1-3.4,3.9-6.3,8.4-6.2c4.1,0,8,2.8,8,5.7C536,504.3,531.8,507.4,527.4,507.4z"/>
<path d="M455.8,273.3c4.4,0,7.9,2.6,7.8,5.8c-0.1,3.1-4.1,6-8.3,6.1c-4.1,0-8-2.7-8.1-5.7C447.1,276.2,451.2,273.3,455.8,273.3z"/>
<path d="M151.8,226.1c-4.3,0.1-8-2.4-8.2-5.5c-0.2-3.3,3.8-6.3,8.4-6.3c4.5,0,7.9,2.4,7.8,5.7C159.9,223.4,156.4,226,151.8,226.1z"
	/>
<path d="M541.3,433.4c-1.7-1.6-2.8-2.6-3.9-3.5c1.3-1,2.5-2.7,3.9-2.8c1.1-0.1,2.5,1.5,3.7,2.4C543.9,430.6,542.9,431.7,541.3,433.4
	z"/>
<path d="M217.3,216.4c-1.5-1.7-2.5-2.8-3.4-3.9c1.4-0.9,2.7-2.4,4.1-2.5c1.1-0.1,2.3,1.6,3.4,2.5
	C220.2,213.6,219.1,214.7,217.3,216.4z"/>
<path d="M256.2,212.2c-2.4,1.5-3.7,2.9-4.9,2.8c-1.4-0.1-2.8-1.4-4.1-2.2c1.2-1,2.4-2.5,3.8-2.8C252.1,209.7,253.5,211,256.2,212.2z
	"/>
<path d="M539.8,478.4c-1.4,0.7-2.9,2.1-4.3,2c-1.2,0-2.4-1.6-3.6-2.5c1.3-0.9,2.5-2.3,3.9-2.6c1.2-0.2,2.6,0.9,3.9,1.5
	C539.7,477.4,539.8,477.9,539.8,478.4z"/>
<path d="M93.3,238.3c-1.5,0.6-3,1.9-4.5,1.7c-1.2-0.1-2.2-1.8-3.2-2.8c1.3-0.8,2.5-2.1,3.9-2.2c1.2-0.1,2.6,1.2,3.9,1.8
	C93.3,237.3,93.3,237.8,93.3,238.3z"/>
<path d="M511.3,333.5c1.6,1.7,2.6,2.7,3.6,3.7c-1.2,1-2.4,2.6-3.7,2.8c-1.1,0.1-2.4-1.6-3.6-2.4
	C508.6,336.4,509.6,335.3,511.3,333.5z"/>
<path d="M188.6,215.9c-1.5,0.6-3,1.8-4.4,1.7c-1.2-0.1-2.3-1.7-3.4-2.6c1.4-0.9,2.7-2.3,4.1-2.4c1.2-0.1,2.5,1.2,3.8,1.9
	C188.7,215,188.6,215.4,188.6,215.9z"/>
<path d="M523.6,363.2c-1.6-1.8-2.6-2.8-3.5-3.8c1.2-1,2.4-2.5,3.8-2.7c1.1-0.1,2.3,1.5,3.5,2.4C526.3,360.3,525.3,361.4,523.6,363.2
	z"/>
<path d="M287.8,215.7c-1.5,0.6-3,1.8-4.4,1.7c-1.2-0.1-2.2-1.7-3.4-2.6c1.4-0.9,2.7-2.2,4.1-2.4c1.1-0.1,2.5,1.2,3.7,1.9
	C287.9,214.8,287.9,215.2,287.8,215.7z"/>
<path d="M545.4,454.3c-2.8,1.1-4.4,2.2-5.8,2c-1.1-0.1-2.1-1.8-3.1-2.8c1.4-0.8,2.8-2,4.3-2.2C541.9,451.2,543.1,452.6,545.4,454.3z
	"/>
<path d="M515.4,519.4c2.6,2.6,3.6,3.7,4.7,4.7c-1.1,0.9-2.3,2.7-3.4,2.6c-1.3,0-3.4-1.4-3.7-2.5C512.8,523,514.3,521.4,515.4,519.4z
	"/>
<path d="M542.8,406.5c-1.4,0.7-2.9,2-4.2,1.9c-1.2-0.1-2.2-1.7-3.3-2.7c1.2-0.8,2.3-2.2,3.6-2.4c1.2-0.1,2.6,1,3.9,1.6
	C542.8,405.4,542.8,406,542.8,406.5z"/>
<path d="M124,228.6c-1.5,0.6-3,1.8-4.5,1.6c-1.2-0.1-2.2-1.8-3.2-2.8c1.3-0.8,2.6-2.1,3.9-2.2c1.2-0.1,2.5,1.2,3.8,1.9
	C124,227.5,124,228.1,124,228.6z"/>
<path d="M500.9,316.2c-2.5,1.5-3.8,2.8-5,2.8c-1.3,0-2.6-1.3-3.9-2c1.2-1.1,2.2-2.8,3.6-3.1C496.7,313.6,498.2,314.9,500.9,316.2z"
	/>
<path d="M476.9,300.8c-1.6-1.5-2.7-2.5-3.7-3.6c1.3-1,2.5-2.5,3.9-2.7c1-0.1,2.3,1.6,3.4,2.5C479.5,298.1,478.5,299.2,476.9,300.8z"
	/>
<path d="M410.6,249.5c-2.8,1.1-4.4,2.3-5.8,2.1c-1.1-0.1-2-1.9-3-3c1.5-0.7,2.9-1.9,4.4-2.1C407.2,246.5,408.3,247.9,410.6,249.5z"
	/>
<path d="M431.4,267c-1.6-1.8-2.5-2.9-3.4-3.9c1.2-0.9,2.3-2.6,3.5-2.6c1.2,0,2.5,1.5,3.7,2.3C434.2,264,433.1,265.1,431.4,267z"/>
<path d="M351.2,228c-1.5,0.7-2.9,1.9-4.3,1.8c-1.2-0.1-2.4-1.7-3.5-2.6c1.3-0.9,2.6-2.4,4-2.5c1.2-0.2,2.5,1.2,3.8,1.9
	C351.2,227.1,351.2,227.6,351.2,228z"/>
<path d="M382.4,236.7c-2.5,1.5-3.8,2.8-5,2.8c-1.3,0-2.6-1.3-3.9-2c1.2-1.1,2.2-2.7,3.6-3C378.2,234.1,379.7,235.4,382.4,236.7z"/>
<path class="st2" d="M589.3,535.8h-12.6c4.2-10.2,8.4-20.4,12.6-30.6c0,0,24.8-68.4-4.8-140.2v0c-14.6-35.7-37.5-65.5-66.4-91.2
	c-27.4-24.4-58.4-43.3-92.1-57.9c-32.1-14-65.5-23.6-99.9-29.9c-22.9-4.2-46-6.7-69.2-7.6c-41-1.6-81.8,1.3-122,9.9
	c-19.3,4.2-38.1,10.1-57.2,15.3v-24.3c9.9-2.5,19.7-5.1,29.6-7.6c24.8-6.1,49.9-10.5,75.3-12.8c12.3-1.1,24.6-1,36.9-1.5
	c7.9-0.4,15.8-1.5,23.7-1.4c10.5,0.2,21,1.3,31.5,2.1c15.1,1.3,30.3,2,45.3,4.2c43.1,6.2,84.7,18.1,124.6,35.7
	c34.8,15.4,67,35,95.7,60c1.5,1.3,3,2.7,4.6,4.2c39.1,37.5,65.2,86.7,73.8,140.1C625.7,444.4,622.6,493.9,589.3,535.8z"/>
<text transform="matrix(1 0 0 1 124.022 501.3842)" class="st3 st4 st5">Learning</text>
</svg>
