<svg xmlns="http://www.w3.org/2000/svg" viewBox="0 0 792 612" enable-background="new 0 0 792 612"><style type="text/css">.st0{fill:#F17922;stroke:#F17922;stroke-width:2;stroke-miterlimit:10;} .st1{fill:#231F20;} .st2{font-family:&apos;ApolloMTStd-SemiBold&apos;;} .st3{font-size:184.1619px;} .st4{fill:#F2BB53;stroke:#F2BB53;stroke-width:2;stroke-miterlimit:10;} .st5{font-size:171.2377px;} .st6{font-size:112.0842px;} .st7{font-size:136.629px;}</style><path class="st0" d="M723 193.4v129.8c0 18.2-14.8 33-33 33h-50.4c-34.3 66.2-92.2 33.2-94 32.2 30.2 15.6 41.4-11 45.6-32.2h-55.4c-18.2 0-33-14.8-33-33v-129.8c0-18.2 14.8-33 33-33h154.2c18.3 0 33 14.7 33 33z"/><text transform="matrix(-1 0 0 -1 659.96 205.859)" class="st1 st2 st3">Z</text><path class="st4" d="M274.9 193.4v129.8c0 18.2-14.8 33-33 33h-50.4c-34.3 66.2-92.2 33.2-94 32.2 30.2 15.6 41.4-11 45.6-32.2h-55.5c-18.2 0-33-14.8-33-33v-129.8c0-18.2 14.8-33 33-33h154.3c18.2 0 33 14.7 33 33z"/><text transform="translate(103.619 295.945)" class="st1 st2 st5">Q</text><path class="st0" d="M433.4 439.2c0 45.5-60.1 82.4-134.3 82.4-74.2 0-134.3-36.9-134.3-82.4 0-43.1 53.9-78.5 122.7-82.1-3.7-37.2-51.2-42.8-51.2-42.8 47.3-6.9 81 22.1 100.2 45.7 55.9 9.9 96.9 41.6 96.9 79.2z"/><text transform="translate(265.731 474.364)" class="st1 st2 st6">U</text><path class="st4" d="M584.1 291.5c0-45.5-60.1-82.4-134.3-82.4-74.2 0-134.3 36.9-134.3 82.4 0 43.1 53.9 78.5 122.7 82.1-3.7 37.2-51.2 42.8-51.2 42.8 47.3 6.9 81-22.1 100.2-45.7 55.9-9.9 96.9-41.6 96.9-79.2z"/><text transform="translate(430.301 331.008)" class="st1 st2 st7">I</text></svg>