<svg xmlns="http://www.w3.org/2000/svg" viewBox="0 0 792 612" enable-background="new 0 0 792 612"><style type="text/css">.st0{fill:#FFFFFF;stroke:#EEB953;stroke-width:2;stroke-miterlimit:10;} .st1{fill:#EEB953;} .st2{fill:none;stroke:#F17922;stroke-width:2;stroke-miterlimit:10;} .st3{fill:#F17922;} .st4{font-family:&apos;ApolloMTStd-SemiBold&apos;;} .st5{font-size:43.9565px;} .st6{fill:none;} .st7{font-size:49.1631px;}</style><path class="st0" d="M583.6 394.7l-22.1-7.2 10.8 14.7h-7.6c-11.9 0-21.6 8.4-21.6 18.8v37.3c0 .9.1 1.7.2 2.6v.2c-29.1 30.5-68.7 50.9-113.1 55.1-5.8.6-11.6.8-17.6.8-4.2 0-8.3-.1-12.4-.4-26.6-1.8-51.7-9.4-73.9-21.5v-.2c.3-1.3.5-2.6.5-3.9v-37.3c0-10.4-9.7-18.8-21.6-18.8h-7.6l10.8-14.7-45.1 14.7h-2.1c-12.7-19.4-21.7-41.5-26-65.1-1-5.6-1.8-11.2-2.3-16.9h.1c17.8-.9 31.8-10.2 31.8-21.5v-41.9c-.5-1.8-.8-3.8-.8-5.7-.1-.4-.3-.8-.5-1.1-2.6-5.8-8.9-10.6-17.3-13.3-.2-.1-.4-.1-.5-.2l-.3-.1c25.3-62.4 84.4-107.4 154.6-112.2 4.2-.3 8.4-.4 12.6-.4 4.6 0 9.1.2 13.6.5 7.2.5 14.3 1.5 21.2 2.9l3 .6 2.3.5 2.5.6 2.1.5c5.3 1.3 10.5 2.9 15.6 4.7v2.7c0 11.9 17.1 21.6 38.1 21.6h7.9c1 .7 2 1.5 2.9 2.2l-.3.3-16.2 14.4 25.7-5.5c.2-.4.3-.8.4-1.3.4.3.8.7 1.1 1 37 33 60.4 81.1 60.4 134.7.2 20.1-3.1 39.6-9.3 57.8z"/><path class="st1" d="M246.2 268.5l-.3.6c.2 0 .4.1.5.2l-.2-.8zm17.9 14h-.4l.5 1.1c-.1-.3-.1-.7-.1-1.1zm321.2 2.1c-1.2-3.9-2.6-7.8-4.1-11.7-.2-.6-1.2-1.1-1.9-1.3-1-.2-2.1 0-3.2 0-5.9.1-9.1-2.7-9.8-8.6-.2-1.4-.4-2.8-.7-4.4-2.9.9-5.1 2-5.5 5.2-.2 2.1-1.1 4.2-1.8 7-3.5-4-8.2-6.3-7.2-12.4.2-.9-.7-2.3-1.5-3.1-2.3-2.2-4.4-4.7-7.2-6.2-2.2-1.1-5-.9-7.9-1.3.6 4.3 1.5 7.6 5.5 9.3 2.5 1.1 4.8 2.7 6.9 3.9-.6 1.8-1.2 3-1.3 4.3-.2 3.5-.7 4.3-4.1 4.9-2.9.5-5-.7-6.1-3.7 2.2-1 5.6 1.8 6.9-2.1-4.5-5-12.3-6-15-13.3-.6.5-1.2 1-1.7 1.5-2.1 2.3-4.3 4-7.8 2.5-.6-.3-2.1.3-2.6.9-3.1 4.3-6 8.8-9 13.2-.4.6-1 1.4-1.6 1.4-5.4.4-10.9 1.9-16-.9-1.1-.6-2.2-2-2.3-3.1-.5-3.5-2.2-7.2 0-10.6.5-.9 1.5-1.7 2.4-2 4.1-1.6 8.4-1.9 12.6-.4 1 .3 2 .4 3.3.6l1.1-4.8c-1.2-.5-2.3-.9-3.8-1.5.4-2.1.6-4.3 1.2-6.4.2-.7 1.5-1.7 2.2-1.7 5.7.2 9.3-2.7 11.7-7.5 2.1-4.2 6.2-3.6 9.8-3.7 2.2-.1 4.5.4 7.3.7-.5-3.1-.8-5.7-1.2-8.5-2.5.9-4.8 1.7-7.4 2.6-.6-1.5-1.3-2.7-1.7-4.1-.5-1.7-1.4-2.5-3.2-2.7-2.4-.3-3.7-3.8-1.9-5.4 1.8-1.7 4-3.3 6.2-4.3 2.4-1.1 5-1.9 6.3-4.8l-25.7 5.5 16.2-14.4c-1.1-.8-2.3-1.7-3.5-2.5h-7.1c-21 0-38.1-9.7-38.1-21.6v-2.6c-3.7-1.3-7.5-2.5-11.4-3.6-1.4-.4-2.8-.8-4.3-1.2-.7-.2-1.4-.4-2.1-.5l-2.5-.6-2.3-.5-3-.6c-6.8-1.3-13.7-2.2-20.7-2.8-.2 0-.4 0-.5-.1-.9-.1-1.9-.3-2.8-.5h-19.6c-1.3.2-2.5.3-3.8.4-4.6.5-9.3 1-13.9 1.7-17.5 2.5-34.4 7.3-50.1 15.3-9.1 4.6-17.8 10.2-26.6 15.3-.6.3-1 .8-1.6 1.2.2.2.3.5.4.5 6.5-1.3 12 2.9 18.1 3.7.5.1 1.2.6 1.2 1 .3 2.7 2.2 2.4 4.1 2.4h8.1c0-2.6-1.2-3.8-3.9-3.6-2.3.2-4.6 0-7.4 0 .8-1.2 1.2-1.7 1.5-2.2.8-1.7-.1-3.3-2-3.3-2.3-.1-4.6 0-7 0 3.5-5.6 13.6-9.7 19.2-7.8 1.1.4 1.9 1.8 2.7 2.8 2.3 3.3 6.2 5 10 4 1.1-.3 2-1.4 2.9-2.2 2.5-2.4 2.5-2.4 5.6-.6-3.2 5.5-7.9 7.9-14.7 6.4.3 2.5.6 4.3.8 6.3h9.8c.4 0 1.1-.3 1.2-.6.7-3.1 3.1-2.5 5.3-2.6 3.8-.1 4-.4 3.9-4.6-.6-.2-1.2-.3-1.9-.5-.6-.1-1.1-.3-1.6-.4.5-4.7 1.2-4.5 4.8-4.9 3.5-.4 7.1.3 11.4.6-1.9 1.7-3.1 3.1-4.6 4.1-1.9 1.3-1.9 3.1-1.1 4.8.5.9 1.9 1.5 3 1.9 1.1.4 2.4.4 3.8.5.1-.9.1-1.6.2-2.4.1-2-.6-4.7.4-5.7 1.7-1.8 4.3-2.8 6.8-3.5 3.1-.8 6.4-1 9.7-1.3.8-.1 1.7.2 2.5.5 4.6 2 9.2 3.9 13.7 6.1.9.4 1.8 1.7 1.9 2.7.4 4.6.3 4.6 4.9 5.8-.6 4.2-1.8 5.5-5.7 5.2-3.1-.2-4.8.7-5.6 3.7-.2.7-1.3 1.8-1.8 1.7-5.1-1-10.2-2.3-15.3-3.5l-.1-.8 12.3-6.8c-2.6-3.8-5.9-4.6-10.3-4-4 .6-7.5 1.3-10.3 4.6-1.2 1.4-3.9 1.5-6.4 2.3.6 1.1 1.3 2.3 2.1 3.6-1.8.7-4.2.5-5.2 3.3-.6 1.5-3.8.3-4.1-1.6-.1-.9-.3-1.8-.6-3.6-4.2 1.8-8.1 3.3-11.8 5.2-3.4 1.7-6.6 3.9-10 5.7-1.6.9-1.8 1.8-1.4 3.5.9 4.9 3.9 7.2 8.6 7.6 1.9.2 3.8.6 6 1v9.7c2.6.5 4.6.2 5.3-2.4 1.3-4.5 4.2-7.1 8.8-7.7 2.8-.4 3.9-2 3.4-4.8-.2-1.2.2-2.5-.1-3.7-.9-4.2 1.6-6.4 4.6-8.3.6-.4 1.5-.5 2.2-.4 3.7.8 7.4 1.8 11.4 2.8-.2 2.5-.5 5-.7 7.7 4.9 1.2 8.1-2.9 12.7-3.9.2 2.3.5 4.5.4 6.7-.1 2.6.8 4.2 3.2 5.4 1.6.8 3.7 1.4 3.8 4.1.1 3.2-.7 5.3-4.2 5.9-.9.2-1.6 1.1-2.4 1.6.8.8 1.4 1.7 2.4 2.2l4.2 1.9c.7.4 1.4 1.3 1.5 2.1.4 3.1-.3 3.7-3.3 2.8-2.4-.7-4.8-1.4-7.1-2.3-.8-.3-1.9-1.1-2-1.9-.1-.9.6-1.9 1.1-2.9.5-1 1.4-2.1 1.3-3.1-.1-.6-1.6-1.2-2.4-1.8-1.3 2.4-6.7 4.6-8.9 3.9-.5-.2-1-.7-1.2-1.2-1-2.5-3-3-5.2-2.5-1.2.3-2.7 1.4-3.2 2.5-.7 1.7.7 2.5 2.3 2.9 1.1.3 2.2.5 3.6.8-1 1.2-1.8 2.2-2.5 3.2-4.6-2.2-4.8-2.4-8.1 1.3-4.1 4.7-9.2 7.9-14.3 11.3-4.6 3-8.1 7.8-12.1 11.8-.2.2-.3.7-.3 1.1.3 3.8-2.5 5.4-5.1 7.2-3.5 2.4-7 5.1-10.2 7.9-1.1 1-1.6 2.9-1.7 4.4-.2 2.6.2 5.3.4 8.5-2.5-1.2-5.1-1.7-6.4-3.2-1.3-1.5-1.3-4.1-1.9-6.5-.3 0-1-.2-1.8-.2-3.5 0-7 .3-10.4-.1-6.2-.7-11.6 1.2-16.9 4.2-4.7 2.7-5.7 7.6-7.8 12-1.7 3.6-1.2 7.1.9 10.3.5.8 1.6 1.6 2.5 1.9 4.1 1.1 8 1 11.5-2.2 2.5-2.3 5.7-3.9 8.7-5.9 3.8 4.9-1.4 7.9-2.1 12.1 2.5.5 5.1 1.1 7.7 1.5 1.9.3 2.5 1.2 2.5 3.1l.6 11.2c0 1.8.6 2.6 2.5 2.8 2.2.2 4.5.4 6.5 1.1 4.4 1.5 7.5.1 9.6-3.7 3.1-5.4 7.3-6.6 13.1-4.5 2.6.9 4.2 2.2 5.8 4.2.8.9 2.2 1.6 3.5 1.7 1.7.2 3.4-.1 5.2-.2 1.8-.1 4 .3 3.5-3 3.5 1.2 6.4 2.1 7.8 5.4 2.4 5.9 6.5 8.9 13.1 7.5 2.2-.5 3.4.7 4.6 2.6 2.1 3.4 3.3 6.9 3.1 10.9-.1 2.2.9 3.1 3 4.1 7.2 3.6 14.7 4.1 22.4 3.7 2.3-.1 3.8.5 4.8 2.7 1.6 3.5 3.9 6.3 8.2 6.7 1.5.1 1.8 1.1 1.6 2.7-.5 4.9-4.1 7.8-6.6 11.5-1 1.5-1.9 3.3-2.2 5.1-.8 5.3-1.2 10.7-1.8 16-.4 3.8-5.6 8.6-9.3 8.6-1.1 0-2.4.2-3.5-.1-3.8-.8-6.3.6-7.4 4.3-.4 1.3-.6 2.8-.4 4 2 8.9 1.9 8.8-3.6 15.9-3 3.9-5.6 8.2-8.4 12.3-.4.6-.9 1.4-1.5 1.7-4.6 2.1-8.7 5.4-14 5.5-.4 0-.8 0-1.1.2-.7.5-1.4 1.2-2.1 1.8.6.7 1.1 1.7 1.9 2 3.1 1.2 3.5 3 1.1 5.3-1 1-2.3 1.8-3 2.4 1.3 4.6 4.3 4.5 8 4.2-.5 2.5-.8 4.7-1.4 6.7-.9 3-1.3 5.6 2 7.4 1.3.7 2.6 1.8 3.5 2.9.6.8.9 2.2.7 3.2-.1.6-1.5 1.3-2.3 1.3-2.4.1-4.8.1-7.2-.1-.9-.1-1.9-.4-2.6-.9-6.6-5-11.8-11-15.6-18.5-1.9-3.6-2.7-7-1.9-10.9 1.1-5.2.5-9.8-3.7-13.6-1.6-1.4-1.9-3.3-1.4-5.5.9-3.6 1.3-7.3 1.9-11.3-3.8-.1-3.7-2.6-3.7-5.2l.1-24.2c0-2-.6-3.2-2.3-4.2l-5.4-3.8c-2.2-1.2-4.6-2.1-6.9-3.2-.8-.4-2-1-2-1.6-.2-5.4-4.3-8.6-7.1-12.5-2-2.7-4.3-5.2-6.2-7.9-.6-.9-1-2.2-.9-3.3.3-4 .7-8 1.4-12 .2-1.3 1.3-2.5 2-3.7.2-.3.6-.6.9-.7 7-2.6 7-8 5.3-13.9-.2-.8-1.3-1.8-2.2-1.9-2.6-.4-5.4-.7-8-.7-2.8 0-4.7-1.1-6.3-3.2-1.1-1.5-2.5-2.7-3.5-4.2-3-4.6-7.4-6.6-12.7-7.4-4.3-.7-4.3-.9-4.1-5-5-1.6-5.7-1.5-6.5 1.2-4.7-1.2-9.5-2.3-14.1-3.5-.8-.2-1.6-1-2.2-1.8-1-1.4-1.8-3-2.9-4.3-2.1-2.4-2.9-4.8-.6-7.6.4-.4 0-1.8-.4-2.5-1.2-2-2.4-3.9-3.9-5.7-2.7-3.3-4.6-6.9-5.7-10.9v8.9c0 .1.1.1.2.2.8.9 1.3 2.2 2 3.1 1.4 1.8 1.3 4.5-.1 5.1-.5.2-1.3.3-2.1.2v24.3c0 11.3-14 20.6-31.8 21.5 2.2 24.8 9.2 48.2 21.3 70.1 2.3 4.1 4.6 8.1 7.2 12h1.9l45.1-14.7-10.8 14.7h7.6c11.9 0 21.6 8.4 21.6 18.8v38.4c0 1.4-.2 2.7-.5 3.9 22.7 12.4 47.1 19.6 73.2 21.6.2 0 .4 0 .6.1.6.1 1.2.3 1.9.4h21.9c2.1-.3 4.1-.6 6.2-.8l10.5-1.5c22.1-3.3 42.7-10.8 62-21.9 15.1-8.7 28.5-19.5 40.5-31.9-.1-.8-.2-1.7-.2-2.6v-24.5c-2.9-3.5-4-7.6-3.4-12.3.6-4.3-.2-7.9-3.9-10.9-2.5-2-2.3-5.4-1-8.2 1.4-3.3 3.1-6.4 4.9-9.5.9-1.5.8-2.8-.1-4.2-3.1-5.4-6.1-10.9-9.3-16.2-1.6-2.8-2.3-5.5-1.7-8.7.6-3.3.7-6.7 1.1-10.4-3.1-.3-6-.5-8.9-1-1.4-.3-2.9-.9-3.9-1.8-3.6-3.4-9.1-3.6-12.8-.4-.9.8-2.3 1.2-3.5 1.4l-5.2.1c-4 .3-8 .9-12.1 1.1-1.2 0-2.8-.8-3.6-1.7-4.9-5.4-9.7-10.9-14.4-16.5-.7-.9-1.3-2.2-1.3-3.3-.1-4.3-.1-8.6-.1-12.9 3.4-2.2 3.5-2.5 3.7-7.2-1.6-.6-3.9.3-4.5-2.7-.6-2.9-.1-4.5 2.4-6.1 5.1-3.4 10-7.1 14.9-10.8.9-.7 1.9-2.4 1.7-3.5-1.1-6.2 1.4-10 7.2-11.8 1.8-.6 3.8-1.2 5.7-1.2 5 .1 10 .5 14.3-2.8.4-.3.9-.5 1.3-.5 6.5-.5 13-1 19.9-1.5 0 2.9.1 5.5 0 8-.1 1.6.5 2.4 2.1 2.8 2.7.6 5.4 1.3 8.1 2.1l8 3c1 .4 2.1.5 3.1.7.3-.5.5-.6.6-.8.8-1.6-1.1-4.5 1.5-4.9 3.3-.5 7.1-2.5 10.1.8 5.7 6.4 13.2 4.7 20.4 4.7 0-.2.9-1.6.7-2.1zm-89.5-63.9c.4-1.3 1.8-2.6 3-3.3 1.2-.7 2.8-.5 4.5-.8 1.2 7 3.1 13.1 9.9 16.1-1.9 5-5.1 5.4-14.8 4.7-.8-4.7-.5-5.3 4.9-7.5-.9-1.3-1.6-2.5-2.6-3.4-1-.9-2.4-1.3-3.3-2.2-.8-1.1-1.8-2.7-1.6-3.6zm-.1 4.4c2.1.9 3.3 3.6 1.6 4.9-3.2 2.4-5.9 6.3-11 5-1.4-5.3 4.6-12.1 9.4-9.9zm-107.6 27.6c-.3.8-2.1 1-3.2 1.4-.3-.3-.6-.6-.8-.9l1.8-3.8 1.2-.1c.3 1.2 1.3 2.6 1 3.4zm12.3-3.6c-.7.6-1.3 1.3-2.1 1.8-1.2.8-2.5 2.1-3.7 2-1 0-2-1.6-3.1-2.5.9-.5 1.7-1.2 2.6-1.3 1.5-.1 2.5-.2 3.5-1.8.5-.8 2.6-.6 4-.9l.4 1.3-1.6 1.4zm129.1-50c.7.6 1.4 1.2 2.2 1.9 0-.1 0-.2.1-.3-.8-.5-1.6-1-2.3-1.6z"/><path class="st2" d="M733.1 126.4v43c0 11.9-17.1 21.6-38.1 21.6h-110l-52.2 11-1.1-1c0-.1 0-.2.1-.3l-2.2-1.6c.7.6 1.4 1.2 2.2 1.9-.1.5-.3.9-.4 1.3l-25.7 5.5 16.2-14.4.3-.3 2.5-2.2h-13.3c-21 0-38.1-9.7-38.1-21.6v-43c0-11.9 17.1-21.6 38.1-21.6h183.6c21 .1 38.1 9.7 38.1 21.7zM531.7 200.7c0 .1 0 .2-.1.3-.7-.6-1.4-1.3-2.2-1.9.8.6 1.6 1.1 2.3 1.6zM531.2 202.3c.2-.4.3-.8.4-1.3.4.3.8.7 1.1 1l-1.5.3zM264.9 289.4v41.9c0 11.3-14 20.6-31.8 21.5h-.1c-.9.1-1.9.1-2.8.1h-12.1l17.2 16.8-72.3-16.9h-99.8c-19.1 0-34.6-9.7-34.6-21.6v-43c0-11.9 15.5-21.6 34.6-21.6h167.1c5.5 0 10.6.8 15.2 2.2l.3.1c.2 0 .4.1.5.2 8.3 2.7 14.7 7.5 17.3 13.3l.5 1.1c.1 2.1.4 4 .8 5.9zM235.5 369.7h-.1zM264.9 288.3v1c-.5-1.8-.8-3.8-.8-5.7.6 1.5.8 3.1.8 4.7zM110.3 151.5v43c0 11.9 9.7 21.6 21.6 21.6h62.3l45.1 16.9-10.8-16.9h7.6c11.9 0 21.6-9.7 21.6-21.6v-43c0-11.9-9.7-21.6-21.6-21.6h-104.2c-11.9 0-21.6 9.7-21.6 21.6zM760.4 309.5v37.3c0 10.4-9.7 18.8-21.6 18.8h-62.3l-45.1 14.7 10.8-14.7h-7.6c-11.9 0-21.6-8.4-21.6-18.8v-37.3c0-10.4 9.7-18.7 21.6-18.7h104.1c12-.1 21.7 8.3 21.7 18.7z"/><text transform="translate(636.433 338.859)" class="st3 st4 st5">¡Hola</text><path class="st6" d="M520.3 128.8h194.8v55.1h-194.8z"/><text transform="translate(520.304 160.512)" class="st3 st4 st7">Bonjour</text><path class="st6" d="M86.6 290.7h194.8v55.1h-194.8z"/><text transform="translate(86.637 322.489)" class="st3 st4 st7">Hallo</text><path class="st6" d="M138.3 153.9h112.7v55.1h-112.7z"/><text transform="translate(138.292 185.673)" class="st3 st4 st7">Ciao</text><path class="st2" d="M690.4 421v37.3c0 10.4-9.7 18.8-21.6 18.8h-104.1c-10.8 0-19.8-7-21.3-16v-.2c-.1-.8-.2-1.7-.2-2.6v-37.3c0-10.4 9.7-18.8 21.6-18.8h7.6l-10.8-14.7 22.1 7.2 23 7.5h62.3c11.8 0 21.4 8.4 21.4 18.8z"/><path class="st6" d="M580.1 425.2h81.1v39.7h-81.1z"/><text transform="translate(580.085 457.005)" class="st3 st4 st7">Olá</text><path class="st2" d="M327 453.6v37.4c0 1.4-.2 2.7-.5 3.9v.2c-2.2 8.4-10.8 14.6-21 14.6h-104.2c-11.9 0-21.6-8.4-21.6-18.8v-37.3c0-10.4 9.7-18.8 21.6-18.8h62.3l45.1-14.7-10.8 14.7h7.6c11.8.1 21.5 8.5 21.5 18.8z"/><path class="st6" d="M218.3 455.6h79.4v39.6h-79.4z"/><text transform="translate(218.319 487.337)" class="st3 st4 st7">Hi</text></svg>