<svg xmlns="http://www.w3.org/2000/svg" viewBox="0 0 792 612" enable-background="new 0 0 792 612"><style type="text/css">.st0{fill:#F17922;stroke:#F17922;stroke-width:3;stroke-miterlimit:10;} .st1{fill:#FFFFFF;} .st2{fill:#EEB953;} .st3{fill:#231F20;} .st4{font-family:&apos;ApolloMTStd-SemiBold&apos;;} .st5{font-size:63.7676px;}</style><path class="st0" d="M77.8 119.1h636.9v415.8h-636.9z"/><path class="st1" d="M589.3 535.8h-511.5v-356.7l29.6-7.6c24.8-6.1 49.9-10.5 75.3-12.8 12.3-1.1 24.6-1 36.9-1.5 7.9-.4 15.8-1.5 23.7-1.4 10.5.2 21 1.3 31.5 2.1 15.1 1.3 30.3 2 45.3 4.2 43.1 6.2 84.7 18.1 124.6 35.7 34.8 15.4 67 35 95.7 60 1.5 1.3 3 2.7 4.6 4.2 39.1 37.5 65.2 86.7 73.8 140.1 6.9 42.3 3.8 91.8-29.5 133.7z"/><path d="M77.8 292.6c11.7 2.4 17.1 10.8 14 22.2-2.2 7.9-6.4 14.5-14 18.4v-17.1c1.2-3.4 3-6.7 3.3-10.2.2-2.2-2.1-4.6-3.3-6.9v-6.4zM348.8 342.8l-67.8 49.8c-6.4 4.7-12.8 9.2-19.1 13.8-.2-.3-.5-.6-.7-.8 46.4-57.3 92.8-114.6 139.5-172.3-3.6-1.5-6.2-2.5-9.1-3.6-47.8 58.9-95.4 117.7-143.1 176.5-.5-1.3-.2-1.9.2-2.6 20.3-39 40.7-77.9 60.9-116.9 1.3-2.4 2.8-2.7 5.1-2.3 4.7.9 9.3 1.7 14.2 2.5.9-2.3 1.6-4.2 2.3-6.3-5.7-1.3-10.8-2.5-15.9-3.7 1.6-6 5-8.8 10.2-10.5 4.9-1.6 9.7-4 13.8-7.1 4.9-3.7 4.4-10-.3-13.9-1.7-1.4-3.5-2.6-5.4-3.9 4.2-8.3 8.4-16.4 12.6-24.8-2.2-.5-3.8-.9-5.7-1.3-4.4 8.4-8.8 16.7-13 24.6-5.1-.3-9.5-.4-14-.8-4.4-.4-6.2 1.7-6.6 6.4h17.7c-1.9 3.7-3.5 6.4-4.7 9.3-2.5 6.3-6.3 10.8-13.5 12.1-3.3.6-6.3 2.8-9.5 4-4.1 1.6-5.1 4.8-5.8 8.8 4.7.9 9.2 1.8 14.2 2.8-26.4 50.5-52.5 100.4-78.3 149.8 3.4 2.2 6.7 4.4 10.2 6.6 41-30.1 82.3-60.3 124-91-3-2.2-5.4-3.5-7.4-5.3-1.8-1.7-3.2-1.3-5 .1zm-19.9-92.6c.5.3 1 .6 1.6.8-1.3 2.4-2.7 4.8-4.1 7.3l-1.3-.7c1.3-2.4 2.5-4.9 3.8-7.4zM467.3 371.3c.2-3.8 2.4-6 6.6-5.3 7.2 1.2 14.4 2.1 21.4 4 4 1.1 7.6 4.2 7.5 9.1 0 5-3 8.5-7.4 10.3-6.7 2.8-13.7 5.1-20.5 7.8-2.8 1.1-5.4 2.8-8.2 4.2.1.4.2.8.2 1.2 8 1.6 15.9 3.2 24.4 4.9l-2.8 6.6-37.8-7.5c1-4.3 2.7-7.4 6.8-9 7.3-2.8 14.5-5.5 21.6-8.6 3.1-1.4 6.2-3.1 8.7-5.4 4.2-4 2.8-9.4-2.9-10.5-5.6-1.3-11.7-1.3-17.6-1.8zM484.4 486.4c5.1 3.2 10.2 6.2 8.3 12.5-1.8 6.3-7.2 9-13.4 9.7-9.9 1.1-19.3-1-28.8-5 .8-2 1.6-3.9 2.3-5.5 5.3 1.6 10.2 3.3 15.2 4.4 2.2.5 5.1.6 7-.5 2.4-1.3 4.9-3.7 5.7-6.1.5-1.6-1.4-5.1-3.2-6.1-4-2.2-8.5-3.3-13-5 .1-3.8 2.2-4.3 6.1-3.9 4.2.5 8.7.4 12.7-.7 1.9-.5 4.1-3.8 4.2-5.9.1-1.5-2.9-4.1-4.9-4.6-5.2-1.2-10.5-1.4-16.1-2 .2-3.2 1.5-5.7 5.7-5 7 1.2 14.2 2.1 21 4 3.7 1 7.1 3.7 6.9 8.4-.2 4.9-3.6 7.4-7.7 8.9-2.4 1.2-4.9 1.6-8 2.4zM277.5 276.9c-4.1-.7-7.5-1.3-11.5-2 5.1-12.5 10.1-24.6 15.1-36.8-2.5-.6-4.7-1.2-7-1.8l-.6-1.4c1.4-.9 2.9-2.6 4.2-2.5 5.5.4 11 1.3 17.2 2.2-5.8 14.3-11.5 28.2-17.4 42.3zM416.2 287.7c-2.5-.6-4.7-1.1-7.3-1.8.4-1.3.9-2.6 1.4-4.1 6.6.9 13 1.8 19.7 2.7-5.9 14.3-11.7 28.2-17.5 42.3-3.8-.8-7.3-1.5-11.3-2.3 5-12.4 10-24.5 15-36.8zM143.5 278.7c-4.1-.9-7.6-1.6-11.4-2.3 5.1-12.5 10.1-24.5 15.2-36.7-2.4-.7-4.7-1.3-7-1.9 0-2.6.7-4.2 3.6-3.7 5.4.8 10.9 1.5 17 2.4-5.9 14.1-11.6 28-17.4 42.2zM186.7 247.3c-2.8-.7-4.9-1.2-7-1.7-.1-3.2 1.1-4.3 4.3-3.7 5.3.9 10.7 1.3 16.4 2-4.4 10.7-8.6 20.9-12.8 31.1l-.9 2.1c-4.1 9.8-4.1 9.8-15 6.9 4.9-12.1 9.9-24.2 15-36.7zM315.7 225.9c-4.2 0-7.8-2.6-7.9-5.7-.1-3.4 3.7-6.1 8.5-6.1 4.3 0 7.9 2.5 7.9 5.6.1 3.1-4.2 6.2-8.5 6.2zM532.7 388.1c-4.5 0-7.8-2.4-7.9-5.6-.1-3.4 3.8-6.2 8.4-6.2 4.3 0 7.9 2.6 8 5.6.1 3.3-4 6.2-8.5 6.2zM527.4 507.4c-4.4 0-7.7-2.5-7.8-5.8-.1-3.4 3.9-6.3 8.4-6.2 4.1 0 8 2.8 8 5.7 0 3.2-4.2 6.3-8.6 6.3zM455.8 273.3c4.4 0 7.9 2.6 7.8 5.8-.1 3.1-4.1 6-8.3 6.1-4.1 0-8-2.7-8.1-5.7-.1-3.3 4-6.2 8.6-6.2zM151.8 226.1c-4.3.1-8-2.4-8.2-5.5-.2-3.3 3.8-6.3 8.4-6.3 4.5 0 7.9 2.4 7.8 5.7.1 3.4-3.4 6-8 6.1zM541.3 433.4c-1.7-1.6-2.8-2.6-3.9-3.5 1.3-1 2.5-2.7 3.9-2.8 1.1-.1 2.5 1.5 3.7 2.4-1.1 1.1-2.1 2.2-3.7 3.9zM217.3 216.4c-1.5-1.7-2.5-2.8-3.4-3.9 1.4-.9 2.7-2.4 4.1-2.5 1.1-.1 2.3 1.6 3.4 2.5-1.2 1.1-2.3 2.2-4.1 3.9zM256.2 212.2c-2.4 1.5-3.7 2.9-4.9 2.8-1.4-.1-2.8-1.4-4.1-2.2 1.2-1 2.4-2.5 3.8-2.8 1.1-.3 2.5 1 5.2 2.2zM539.8 478.4c-1.4.7-2.9 2.1-4.3 2-1.2 0-2.4-1.6-3.6-2.5 1.3-.9 2.5-2.3 3.9-2.6 1.2-.2 2.6.9 3.9 1.5 0 .6.1 1.1.1 1.6zM93.3 238.3c-1.5.6-3 1.9-4.5 1.7-1.2-.1-2.2-1.8-3.2-2.8 1.3-.8 2.5-2.1 3.9-2.2 1.2-.1 2.6 1.2 3.9 1.8-.1.5-.1 1-.1 1.5zM511.3 333.5c1.6 1.7 2.6 2.7 3.6 3.7-1.2 1-2.4 2.6-3.7 2.8-1.1.1-2.4-1.6-3.6-2.4 1-1.2 2-2.3 3.7-4.1zM188.6 215.9c-1.5.6-3 1.8-4.4 1.7-1.2-.1-2.3-1.7-3.4-2.6 1.4-.9 2.7-2.3 4.1-2.4 1.2-.1 2.5 1.2 3.8 1.9l-.1 1.4zM523.6 363.2c-1.6-1.8-2.6-2.8-3.5-3.8 1.2-1 2.4-2.5 3.8-2.7 1.1-.1 2.3 1.5 3.5 2.4-1.1 1.2-2.1 2.3-3.8 4.1zM287.8 215.7c-1.5.6-3 1.8-4.4 1.7-1.2-.1-2.2-1.7-3.4-2.6 1.4-.9 2.7-2.2 4.1-2.4 1.1-.1 2.5 1.2 3.7 1.9.1.5.1.9 0 1.4zM545.4 454.3c-2.8 1.1-4.4 2.2-5.8 2-1.1-.1-2.1-1.8-3.1-2.8 1.4-.8 2.8-2 4.3-2.2 1.1-.1 2.3 1.3 4.6 3zM515.4 519.4c2.6 2.6 3.6 3.7 4.7 4.7-1.1.9-2.3 2.7-3.4 2.6-1.3 0-3.4-1.4-3.7-2.5-.2-1.2 1.3-2.8 2.4-4.8zM542.8 406.5c-1.4.7-2.9 2-4.2 1.9-1.2-.1-2.2-1.7-3.3-2.7 1.2-.8 2.3-2.2 3.6-2.4 1.2-.1 2.6 1 3.9 1.6v1.6zM124 228.6c-1.5.6-3 1.8-4.5 1.6-1.2-.1-2.2-1.8-3.2-2.8 1.3-.8 2.6-2.1 3.9-2.2 1.2-.1 2.5 1.2 3.8 1.9v1.5zM500.9 316.2c-2.5 1.5-3.8 2.8-5 2.8-1.3 0-2.6-1.3-3.9-2 1.2-1.1 2.2-2.8 3.6-3.1 1.1-.3 2.6 1 5.3 2.3zM476.9 300.8c-1.6-1.5-2.7-2.5-3.7-3.6 1.3-1 2.5-2.5 3.9-2.7 1-.1 2.3 1.6 3.4 2.5-1 1.1-2 2.2-3.6 3.8zM410.6 249.5c-2.8 1.1-4.4 2.3-5.8 2.1-1.1-.1-2-1.9-3-3 1.5-.7 2.9-1.9 4.4-2.1 1 0 2.1 1.4 4.4 3zM431.4 267c-1.6-1.8-2.5-2.9-3.4-3.9 1.2-.9 2.3-2.6 3.5-2.6 1.2 0 2.5 1.5 3.7 2.3-1 1.2-2.1 2.3-3.8 4.2zM351.2 228c-1.5.7-2.9 1.9-4.3 1.8-1.2-.1-2.4-1.7-3.5-2.6 1.3-.9 2.6-2.4 4-2.5 1.2-.2 2.5 1.2 3.8 1.9v1.4zM382.4 236.7c-2.5 1.5-3.8 2.8-5 2.8-1.3 0-2.6-1.3-3.9-2 1.2-1.1 2.2-2.7 3.6-3 1.1-.4 2.6.9 5.3 2.2z"/><path class="st2" d="M589.3 535.8h-12.6l12.6-30.6s24.8-68.4-4.8-140.2c-14.6-35.7-37.5-65.5-66.4-91.2-27.4-24.4-58.4-43.3-92.1-57.9-32.1-14-65.5-23.6-99.9-29.9-22.9-4.2-46-6.7-69.2-7.6-41-1.6-81.8 1.3-122 9.9-19.3 4.2-38.1 10.1-57.2 15.3v-24.3l29.6-7.6c24.8-6.1 49.9-10.5 75.3-12.8 12.3-1.1 24.6-1 36.9-1.5 7.9-.4 15.8-1.5 23.7-1.4 10.5.2 21 1.3 31.5 2.1 15.1 1.3 30.3 2 45.3 4.2 43.1 6.2 84.7 18.1 124.6 35.7 34.8 15.4 67 35 95.7 60 1.5 1.3 3 2.7 4.6 4.2 39.1 37.5 65.2 86.7 73.8 140.1 7 42.1 3.9 91.6-29.4 133.5z"/><text transform="translate(124.022 501.384)" class="st3 st4 st5">Learning</text></svg>