<svg xmlns="http://www.w3.org/2000/svg" viewBox="0 0 554 449" enable-background="new 0 0 554 449"><style type="text/css">.st0{fill:none;} .st1{fill:#CE563D;} .st2{fill:#F0EFE5;} .st3{fill:#FFFFFF;} .st4{font-family:&apos;AlexaStd&apos;;} .st5{font-size:39.6956px;} .st6{fill:#F89929;} .st7{font-size:54.1765px;}</style><path class="st0" d="M413.5 194.8"/><path class="st1" d="M444.9 321.8v23.6h-200.7v-30.2s.4-16.3 19-19.8c0 0 50.7-18.5 56-22.9h49.8l60.4 24.7c0-.1 15.9 6.6 15.5 24.6z"/><path class="st2" d="M300.2 194.8s-10.6-1.4-5.7 20.3c0 0 2.6 18.1 10.6 15.4 0 0 3.1 20.7 14.1 25.1v16.8s6.6 18.5 24.7 19.8c0 0 18.1-.9 25.1-17.6v-19.4s9.7-7.1 13.7-24.7c0 0 7.9 4.4 12.1-13.2 0 0 3.1-25.3-5.6-20.6l-11.4-40.7-65.7 4.9-11.9 33.9z"/><path class="st1" d="M382.2 155.1s-6.6-36.1-54-20.9c-4.2 1.4-8.2 3.4-11.7 6.2-10.9 8.5-30.9 29.4-11.9 58.4 0 0 2.2-3.1 4-18.5 0 0 .7-6.1 9.7-2.3 3.8 1.6 7.9 1.9 12 1.2 10.4-1.8 28.6-6 35.6-14.5 0 0 14.6-8.6 16.3 30.2 0 0 1.3 18.5 11-7.5.1-.1 7.6-23.5-11-32.3zm149.4-100.2v38.5c0 10.7-8.6 19.3-19.3 19.3h-55.8l-43.9 29.9 13.2-29.9h-6.8c-10.7 0-19.3-8.6-19.3-19.3v-38.5c0-10.7 8.6-19.3 19.3-19.3h93.2c10.8 0 19.4 8.7 19.4 19.3z"/><text transform="translate(433.045 84.964)" class="st3 st4 st5">Fun!</text><path class="st2" d="M201.3 250.8s-8.4-1.1-7.5 13.4c.3 5.3 1.9 10.4 4.4 15.1 2.4 4.5 5.7 9.8 8.4 10.3 0 0 3.4 22.5 15.3 27.3v18.2s12.6 66 32.3 67.5c0 0 14.2-46.9 21.8-65.1v-21.1s10.5-7.7 14.9-26.8c0 0 .2 2.2 6.9-6.1 4.7-5.8 7.1-13.1 6.8-20.6-.2-6.6-1.7-12.8-6.6-10.1l-12.3-44.2-71.4 5.3-13 36.9z"/><path class="st6" d="M338.6 406.4v10.6h-181.7v-20.9s.4-25.4 17.2-30.9c0 0 20.9-13.2 36-23.8 7.7-5.5 19-2.8 22.9 5.3 3.2 6.7 10.3 35.6 17.1 35.6h.1c6.9-.2 13.5-29.5 16.3-36.4 2.1-5.2 7.4-8.1 12.8-8.1 3 0 6 .9 8.6 2.8l36.7 27.4c0-.1 14.4 10.2 14 38.4zm-108.5-219s-72.8 18.5-23.6 110.5c0 0 2.8 3.5 1.2-4.7 0 0-4.7-18.5-.4-24 0 0 5.1 6.7 7.1 7.1 0 0-11.4-40.9-1.2-37.8 0 0 8.3 29.1 29.5 25.2 0 0-8.7-14.2 0-18.1 0 0 24.8 10.6 30.3 17.3 0 0 1.6 0 0-9.8 0 0 33.8 9.4 5.5 49.9 0 0-4.9 9.8 11.3-5.9 0 0 39.8-47.2 4.4-92.8 0 0-32.3-35-64.1-16.9zm-193-51.2v44.8c0 12.4 10.1 22.5 22.5 22.5h64.9l51.1 34.8-15.4-34.8h7.9c12.4 0 22.5-10.1 22.5-22.5v-44.8c0-12.4-10.1-22.5-22.5-22.5h-108.5c-12.4 0-22.5 10.1-22.5 22.5z"/><text transform="translate(64.41 171.068)" class="st3 st4 st7">Fast!</text></svg>