<svg xmlns="http://www.w3.org/2000/svg" viewBox="0 0 792 612" enable-background="new 0 0 792 612"><style type="text/css">.st0{fill:none;stroke:#F17922;stroke-width:4;stroke-miterlimit:10;} .st1{fill:#F2BB53;}</style><path class="st0" d="M587 176.9v230.2c0 32.3-26.2 58.6-58.6 58.6l-152.5.3c-60.9 117.4-148.8 51.9-152 50 53.6 27.7 69.6-12.7 77-50.3h-46c-32.3 0-58.6-26.2-58.6-58.6v-230.2c0-32.3 26.2-58.6 58.6-58.6h273.6c32.3.1 58.5 26.3 58.5 58.6z"/><path class="st1" d="M253.1 343h28v78h-28zm51-15.9h28v93.9h-28zm50-26.9h28v120.8h-28zm48-37.4h28v158.2h-28zm49-41.2h28v199.4h-28zm51-42.2h28v241.6h-28z"/></svg>