<?xml version="1.0" encoding="utf-8"?>
<!-- Generator: Adobe Illustrator 19.1.0, SVG Export Plug-In . SVG Version: 6.00 Build 0)  -->
<svg version="1.1" id="Layer_1" xmlns="http://www.w3.org/2000/svg" xmlns:xlink="http://www.w3.org/1999/xlink" x="0px" y="0px"
	 viewBox="0 0 792 612" style="enable-background:new 0 0 792 612;" xml:space="preserve">
<style type="text/css">
	.st0{fill:#F17922;stroke:#F17922;stroke-width:2;stroke-miterlimit:10;}
	.st1{fill:#231F20;}
	.st2{font-family:'ApolloMTStd-SemiBold';}
	.st3{font-size:184.1619px;}
	.st4{fill:#F2BB53;stroke:#F2BB53;stroke-width:2;stroke-miterlimit:10;}
	.st5{font-size:171.2377px;}
	.st6{font-size:112.0842px;}
	.st7{font-size:136.629px;}
</style>
<g>
	<path class="st0" d="M723,193.4v129.8c0,18.2-14.8,33-33,33h-50.4c-34.3,66.2-92.2,33.2-94,32.2c30.2,15.6,41.4-11,45.6-32.2h-55.4
		c-18.2,0-33-14.8-33-33V193.4c0-18.2,14.8-33,33-33H690C708.3,160.4,723,175.1,723,193.4z"/>
	<text transform="matrix(-1 0 0 -1 659.96 205.8594)" class="st1 st2 st3">Z</text>
</g>
<g>
	<path class="st4" d="M274.9,193.4v129.8c0,18.2-14.8,33-33,33h-50.4c-34.3,66.2-92.2,33.2-94,32.2c30.2,15.6,41.4-11,45.6-32.2
		H87.6c-18.2,0-33-14.8-33-33V193.4c0-18.2,14.8-33,33-33h154.3C260.1,160.4,274.9,175.1,274.9,193.4z"/>
	<text transform="matrix(1 0 0 1 103.6192 295.9449)" class="st1 st2 st5">Q</text>
</g>
<g>
	<path class="st0" d="M433.4,439.2c0,45.5-60.1,82.4-134.3,82.4c-74.2,0-134.3-36.9-134.3-82.4c0-43.1,53.9-78.5,122.7-82.1
		c-3.7-37.2-51.2-42.8-51.2-42.8c47.3-6.9,81,22.1,100.2,45.7C392.4,369.9,433.4,401.6,433.4,439.2z"/>
	<text transform="matrix(1 0 0 1 265.7315 474.3643)" class="st1 st2 st6">U</text>
</g>
<g>
	<path class="st4" d="M584.1,291.5c0-45.5-60.1-82.4-134.3-82.4c-74.2,0-134.3,36.9-134.3,82.4c0,43.1,53.9,78.5,122.7,82.1
		c-3.7,37.2-51.2,42.8-51.2,42.8c47.3,6.9,81-22.1,100.2-45.7C543.1,360.8,584.1,329.1,584.1,291.5z"/>
	<text transform="matrix(1 0 0 1 430.3012 331.0084)" class="st1 st2 st7">I</text>
</g>
</svg>
