<svg xmlns="http://www.w3.org/2000/svg" viewBox="0 0 792 612" enable-background="new 0 0 792 612"><style type="text/css">.st0{fill:#FFFFFF;stroke:#F17922;stroke-miterlimit:10;} .st1{fill:none;stroke:#F17922;stroke-miterlimit:10;} .st2{fill:#FFFFFF;stroke:#000000;stroke-miterlimit:10;} .st3{fill:none;} .st4{fill:#F2BB53;} .st5{fill:#F0EFE5;} .st6{fill:none;stroke:#F17922;stroke-width:4;stroke-miterlimit:10;}</style><path class="st0" d="M675.1 551.7h-539.1c-3.7 0-5.4-5.2-2.6-7.9l56.5-55.7h428l59.9 55c3.2 2.8 1.4 8.6-2.7 8.6z"/><path class="st1" d="M622.1 488h-428.3c-2.1 0-3.9-1.7-3.9-3.9v-283.6c0-2.1 1.7-3.9 3.9-3.9h428.3c2.1 0 3.9 1.7 3.9 3.9v283.6c0 2.2-1.7 3.9-3.9 3.9z"/><path class="st0" d="M217 217.5h386.5v258.2h-386.5z"/><path class="st2" d="M189.9 488"/><path class="st3" d="M489.8 183.9"/><path class="st4" d="M601.5 443.2v44.8h-382v-57.5s.8-31.1 36.1-37.8c0 0 96.5-35.3 106.6-43.7h94.8l115 47c.1.2 30.3 12.7 29.5 47.2z"/><path class="st5" d="M326.1 201.4s-20.2-2.6-10.9 38.6c0 0 5 34.4 20.2 29.4 0 0 5.9 39.5 26.9 47.9v31.9s12.6 35.3 47 37.8c0 0 34.4-1.7 47.9-33.6v-36.9s18.5-13.4 26-47c0 0 14.9 8.4 23-25.2 0 0 5.9-48.2-10.6-39.2l-21.6-77.5-125.1 9.2-22.8 64.6z"/><path class="st4" d="M482.2 125.8s-12.5-68.6-102.9-39.8c-8 2.6-15.6 6.6-22.3 11.8-20.8 16.2-58.7 56.1-22.7 111.1 0 0 4.2-5.9 7.6-35.3 0 0 1.3-11.6 18.5-4.3 7.2 3 15.1 3.6 22.8 2.2 19.8-3.4 54.4-11.5 67.9-27.6 0 0 27.7-16.5 31.1 57.4 0 0 2.5 35.3 21-14.3 0 .1 14.3-44.4-21-61.2z"/><path class="st6" d="M677.5 66.8v44.3c0 12.3-10 22.3-22.3 22.3h-64.2l-50.6 34.4 15.2-34.4h-7.8c-12.3 0-22.3-10-22.3-22.3v-44.3c0-12.3 10-22.3 22.3-22.3h107.4c12.4.1 22.3 10 22.3 22.3zM551.1 79.2h98.3M551.1 93.2h98.3M551.1 106.2h98.3"/><path class="st1" d="M485.7 538.8h-164l11.2-16.7h141.5zM201.5 496.1h408.8v8.3h-408.8zM201.5 508.2h408.8v8.3h-408.8z"/></svg>