<svg xmlns="http://www.w3.org/2000/svg" viewBox="0 0 792 612" enable-background="new 0 0 792 612"><style type="text/css">.st0{fill:#FFFFFF;stroke:#F17922;stroke-width:2;stroke-miterlimit:10;} .st1{fill:#F17922;} .st2{fill:#EEB953;} .st3{fill:#231F20;} .st4{font-family:&apos;ApolloMTStd-SemiBold&apos;;} .st5{font-size:39.8301px;} .st6{fill:none;} .st7{font-size:44.5479px;}</style><circle class="st0" cx="411.1" cy="314.9" r="163.4"/><path class="st1" d="M403.1 151.4h17.8c1 .2 2 .4 3.1.5 10.7.9 21.2 2.6 31.5 5.6 15.3 4.4 29.8 10.6 43 19.5 7 4.8 13.8 9.9 20.4 14.7-.8 3.9-3.6 4.6-6.1 5.8-2.1 1-4 2.3-5.6 3.9-1.6 1.5-.4 4.7 1.8 4.9 1.6.2 2.4.9 2.9 2.4.4 1.2 1 2.4 1.6 3.7l6.7-2.4c.4 2.6.7 4.9 1.1 7.7-2.5-.3-4.5-.7-6.6-.7-3.3.1-7-.5-8.9 3.3-2.2 4.4-5.4 7-10.6 6.8-.7 0-1.8.8-2 1.5-.6 1.9-.8 3.9-1.1 5.8 1.3.5 2.3.9 3.4 1.3-.4 1.5-.7 2.9-1 4.4-1.1-.2-2.1-.3-3-.6-3.9-1.3-7.7-1.1-11.5.4-.9.3-1.7 1-2.2 1.8-1.9 3.2-.4 6.5 0 9.7.1 1 1.1 2.3 2.1 2.8 4.7 2.6 9.7 1.2 14.5.8.5 0 1.1-.8 1.4-1.3 2.7-4 5.4-8 8.2-11.9.4-.6 1.7-1 2.3-.8 3.1 1.3 5.1-.2 7-2.3.4-.5 1-.9 1.6-1.3 2.5 6.5 9.6 7.5 13.6 12-1.2 3.6-4.2 1-6.2 1.9 1 2.7 2.8 3.9 5.5 3.4 3.1-.6 3.5-1.3 3.7-4.5.1-1.2.7-2.3 1.2-3.9-1.9-1.1-4-2.6-6.2-3.5-3.6-1.5-4.4-4.5-4.9-8.4 2.6.4 5.2.1 7.2 1.2 2.5 1.3 4.5 3.6 6.5 5.6.7.7 1.5 2 1.3 2.8-.9 5.4 3.4 7.6 6.5 11.2.7-2.5 1.4-4.4 1.6-6.3.3-3 2.3-3.9 5-4.8.2 1.4.4 2.7.6 4 .7 5.3 3.5 7.8 8.9 7.8 1 0 1.9-.2 2.9 0 .6.1 1.5.6 1.7 1.2 1.3 3.5 2.6 7 3.7 10.6.1.5-.7 1.7-1 1.7-6.5 0-13.3 1.6-18.5-4.2-2.7-3-6.1-1.1-9.1-.7-2.4.3-.7 3-1.4 4.4l-.5.7c-.8-.2-1.8-.3-2.8-.6-2.4-.9-4.8-1.9-7.2-2.7-2.4-.8-4.9-1.4-7.3-1.9-1.5-.3-2-1-1.9-2.5.1-2.3 0-4.6 0-7.3-6.3.5-12.2.9-18.1 1.3-.4 0-.9.2-1.2.5-3.9 3.1-8.4 2.6-13 2.6-1.7 0-3.5.5-5.2 1.1-5.3 1.6-7.5 5.1-6.6 10.7.2 1-.7 2.5-1.6 3.2-4.4 3.4-8.9 6.7-13.5 9.8-2.2 1.5-2.7 2.9-2.1 5.6.5 2.8 2.6 1.9 4 2.5-.2 4.3-.3 4.5-3.3 6.5 0 3.8-.1 7.7.1 11.6 0 1 .5 2.2 1.2 3 4.3 5 8.6 10 13 14.9.8.8 2.2 1.6 3.3 1.5 3.7-.1 7.3-.7 10.9-1 1.6-.1 3.2.1 4.7-.1 1.1-.2 2.4-.6 3.2-1.3 3.4-2.9 8.4-2.7 11.6.4.9.9 2.3 1.4 3.6 1.7 2.6.5 5.3.6 8.1.9-.3 3.4-.5 6.4-1 9.4-.5 2.9.1 5.4 1.6 7.9 2.9 4.8 5.6 9.8 8.4 14.7.8 1.3.9 2.5.1 3.8-1.6 2.8-3.1 5.6-4.4 8.6-1.1 2.6-1.3 5.6.9 7.5 3.4 2.7 4 6.1 3.5 9.9-.6 4.9.8 9 4.2 12.5 1.6 1.7 2.3 3.8 2.1 6.2-.2 2.4 0 4.8 0 7.3 1.8.1 3.2.2 5.1.4-1.7 2.1-3 3.9-4.5 5.5-11.8 12.9-25.1 24-40.3 32.7-17.5 10.1-36.2 16.8-56.2 19.9-5 .8-10.1 1.4-15.2 2.1h-19.8c-.8-.2-1.5-.4-2.3-.5-27.2-2.1-52.4-10.3-75.5-25-23.8-15.1-42.5-35.1-56.1-59.8-11.6-21-18-43.6-19.6-67.6-1.6-24.2 2.2-47.7 11-70.3.3-.7.7-1.3 1.1-2 .6 1.6.7 3 .5 4.4-.2 1.9.4 3.3 2.3 3.8 4 1 5 3.6 4.6 7.5-.3 2.6-.5 5.6.4 8 1.3 3.5 3.4 6.9 5.8 9.8.9 1.2 3.9 1.7 5.3 1.2 1.3-.5 1.3-3 .1-4.6l-1.8-2.9c-3.5-4.1-4.5-9-4.4-14.5h3.5c0 6.1 2 11.4 5.9 16.1 1.3 1.6 2.5 3.4 3.5 5.2.4.6.7 1.8.4 2.2-2.1 2.6-1.3 4.7.6 6.9 1 1.2 1.7 2.7 2.6 3.9.5.7 1.2 1.4 2 1.6 4.3 1.1 8.6 2.1 12.8 3.2.8-2.4 1.4-2.5 5.9-1.1-.1 3.8-.2 3.9 3.8 4.6 4.8.8 8.7 2.6 11.5 6.7.9 1.4 2.2 2.5 3.2 3.8 1.5 1.9 3.2 2.9 5.7 2.9 2.4 0 4.9.2 7.3.6.7.1 1.8 1 2 1.7 1.5 5.3 1.5 10.2-4.8 12.6-.3.1-.7.3-.8.6-.7 1.1-1.6 2.2-1.8 3.4-.6 3.6-1 7.2-1.2 10.8-.1 1 .2 2.2.8 3 1.8 2.5 3.9 4.7 5.6 7.2 2.6 3.5 6.2 6.4 6.5 11.3 0 .5 1.1 1.1 1.8 1.4 2.1 1 4.3 1.8 6.3 2.9l4.9 3.4c1.5.9 2.1 2.1 2.1 3.8l-.1 21.9c0 2.4-.1 4.7 3.3 4.7-.6 3.6-.9 7-1.7 10.3-.5 2-.1 3.7 1.3 5 3.8 3.4 4.3 7.6 3.4 12.3-.7 3.5.1 6.6 1.7 9.9 3.4 6.7 8.1 12.2 14.1 16.7.6.5 1.5.8 2.4.8 2.2.1 4.4.2 6.5.1.8 0 2-.7 2.1-1.2.2-.9-.1-2.1-.6-2.9-.8-1.1-2-2-3.2-2.7-3-1.7-2.6-4-1.8-6.7.6-1.8.8-3.8 1.2-6.1-3.3.3-6.1.3-7.2-3.8.7-.5 1.8-1.3 2.7-2.1 2.2-2.1 1.8-3.7-1-4.8-.7-.3-1.1-1.2-1.7-1.8.6-.5 1.2-1.1 1.9-1.6.3-.2.7-.2 1-.2 4.8-.1 8.6-3.1 12.7-5 .6-.3 1-1 1.3-1.5 2.5-3.7 4.9-7.6 7.6-11.1 5-6.5 5.1-6.4 3.3-14.4-.3-1.1 0-2.5.3-3.7 1-3.3 3.2-4.7 6.7-3.9 1 .2 2.1.1 3.1.1 3.4 0 8.1-4.4 8.5-7.8.5-4.8.9-9.7 1.6-14.5.2-1.6 1-3.3 2-4.6 2.2-3.3 5.6-6 6-10.4.1-1.4-.1-2.3-1.5-2.4-3.9-.4-5.9-2.9-7.4-6-.9-2-2.3-2.5-4.4-2.4-7 .4-13.8-.1-20.3-3.3-1.8-.9-2.8-1.7-2.7-3.7.2-3.6-.9-6.8-2.8-9.8-1-1.7-2.2-2.7-4.1-2.3-6 1.2-9.7-1.5-11.9-6.8-1.2-3-3.9-3.8-7.1-4.9.5 3-1.5 2.6-3.2 2.7-1.6.1-3.2.4-4.7.2-1.1-.2-2.4-.7-3.1-1.6-1.5-1.8-2.9-3-5.2-3.8-5.3-1.9-9.1-.8-11.9 4.1-1.9 3.4-4.7 4.7-8.7 3.3-1.9-.7-3.9-.8-5.9-1-1.7-.1-2.2-.9-2.2-2.5l-.5-10.2c0-1.7-.6-2.5-2.3-2.8-2.4-.3-4.7-.9-7-1.3.6-3.8 5.3-6.6 1.9-11-2.7 1.8-5.6 3.3-7.9 5.3-3.2 2.8-6.7 2.9-10.4 2-.9-.2-1.8-.9-2.3-1.7-1.9-2.9-2.4-6.1-.9-9.4 1.9-3.9 2.8-8.4 7.1-10.8 4.8-2.8 9.7-4.4 15.3-3.8 3.1.3 6.3 0 9.4.1.7 0 1.3.1 1.6.2.6 2.2.6 4.6 1.7 5.9 1.2 1.4 3.6 1.9 5.8 2.9-.1-2.9-.5-5.3-.3-7.7.1-1.4.6-3.1 1.6-4 2.9-2.6 6-5 9.2-7.2 2.4-1.7 4.9-3.1 4.6-6.5 0-.3.1-.8.3-1 3.6-3.7 6.7-8 10.9-10.7 4.7-3.1 9.3-5.9 13-10.2 2.9-3.4 3.2-3.2 7.3-1.2.7-.9 1.4-1.8 2.3-2.9-1.3-.3-2.3-.5-3.3-.8-1.4-.3-2.7-1.1-2.1-2.6.4-1 1.8-2 2.9-2.3 1.9-.5 3.8 0 4.7 2.2.2.4.6.9 1 1.1 2 .7 6.8-1.3 8-3.5.8.5 2.2 1 2.2 1.6.1.9-.8 1.8-1.2 2.8-.4.9-1.1 1.8-1 2.6.1.6 1.1 1.4 1.8 1.7 2.1.8 4.3 1.5 6.4 2.1 2.7.8 3.4.2 3-2.5-.1-.7-.7-1.5-1.3-1.9l-3.8-1.7c-.8-.5-1.4-1.3-2.1-2 .7-.5 1.4-1.4 2.2-1.5 3.2-.5 3.9-2.4 3.8-5.4-.1-2.5-1.9-3-3.4-3.7-2.2-1.1-3-2.5-2.9-4.9.1-2-.2-4-.4-6.1-4.1.9-7 4.6-11.5 3.5.2-2.5.4-4.7.6-7-3.6-.9-7-1.8-10.4-2.5-.6-.1-1.4 0-2 .3-2.7 1.7-5.1 3.7-4.2 7.5l.1 3.4c.4 2.5-.6 4-3.1 4.3-4.2.6-6.9 2.8-8 7-.6 2.3-2.4 2.6-4.8 2.2v-8.8c-2-.3-3.7-.7-5.4-.9-4.3-.4-7-2.5-7.8-6.9-.3-1.5-.1-2.4 1.3-3.1 3.1-1.7 5.9-3.7 9-5.2 3.4-1.7 6.9-3 10.7-4.7.3 1.6.5 2.4.6 3.2.3 1.7 3.2 2.9 3.7 1.5.9-2.5 3.1-2.3 4.7-3-.7-1.2-1.3-2.3-1.9-3.3 2.3-.8 4.7-.8 5.8-2.1 2.6-3 5.8-3.6 9.4-4.2 3.9-.6 6.9.2 9.3 3.6-3.7 2-7.4 4.1-11.2 6.1l.1.7c4.6 1.1 9.2 2.2 13.9 3.2.4.1 1.4-.9 1.6-1.6.7-2.8 2.3-3.6 5.1-3.4 3.6.3 4.7-1 5.2-4.7-4.1-1.1-4.1-1.1-4.4-5.3-.1-.9-.9-2-1.7-2.4-4.1-2-8.2-3.7-12.4-5.5-.7-.3-1.5-.5-2.2-.5-2.9.3-5.9.4-8.8 1.2-2.2.6-4.6 1.6-6.2 3.1-.9 1-.3 3.4-.4 5.2 0 .7-.1 1.3-.1 2.1-1.3-.2-2.5-.1-3.5-.5s-2.2-.9-2.7-1.7c-.8-1.5-.8-3.1 1-4.3 1.3-1 2.5-2.2 4.2-3.8-4-.3-7.2-.9-10.3-.5-3.3.4-4 .2-4.4 4.5l1.5.4c.6.2 1.1.3 1.7.4.1 3.8-.1 4-3.5 4.2-1.9.1-4.1-.4-4.8 2.4-.1.3-.7.5-1.1.6h-8.9c-.2-1.8-.4-3.5-.7-5.7 6.1 1.4 10.3-.8 13.3-5.8-2.9-1.6-2.8-1.6-5.1.6-.8.8-1.6 1.8-2.6 2-3.5.9-7-.6-9.1-3.6-.7-1-1.4-2.2-2.4-2.6-5.1-1.7-14.2 2-17.4 7.1h6.3c1.7.1 2.5 1.4 1.8 3-.2.5-.6.9-1.3 2 2.6 0 4.7.1 6.7 0 2.4-.2 3.5.8 3.5 3.3h-7.3c-1.6 0-3.4.3-3.7-2.2 0-.3-.7-.8-1.1-.9-5.5-.7-10.4-4.5-16.4-3.3-.1 0-.2-.2-.4-.4.5-.4.9-.8 1.4-1.1 8-4.7 15.9-9.7 24.1-13.9 14.3-7.3 29.6-11.6 45.4-13.9 5.5-1.3 10.8-1.8 16.2-2.5zm90.1 54.7c-1.6.3-3 .2-4.1.8-1.2.7-2.4 1.8-2.8 3-.3.8.7 2.3 1.5 3.1.8.9 2.1 1.2 3 2 .9.8 1.5 2 2.3 3.1-4.8 2-5.1 2.5-4.4 6.8 8.7.6 11.7.3 13.4-4.2-6.1-2.8-7.9-8.3-8.9-14.6zm-15.5 16.7c4.6 1.1 7.1-2.4 10-4.6 1.6-1.2.5-3.6-1.4-4.4-4.5-2-9.9 4.2-8.6 9zm-76.4 11.6l-.4-1.2c-1.2.2-3.2.1-3.6.8-.8 1.4-1.8 1.5-3.1 1.6-.8.1-1.6.8-2.4 1.2.9.8 1.8 2.3 2.8 2.3 1.1 0 2.3-1.1 3.4-1.9.7-.5 1.2-1.1 1.9-1.7.4-.4.9-.7 1.4-1.1zm-16.3 4.9c.3.3.5.6.8.8 1-.4 2.6-.6 2.9-1.3.3-.8-.6-2-1-3.1-.3 0-.7 0-1 .1l-1.7 3.5z"/><path class="st2" d="M701.3 124.3v38.9c0 10.8-15.4 19.6-34.5 19.6h-99.6l-72.1 15.3 17.2-15.3h-12.1c-19.1 0-34.5-8.8-34.5-19.6v-38.9c0-10.8 15.4-19.5 34.5-19.5h166.6c19 0 34.5 8.7 34.5 19.5zM63 271.1v38.9c0 10.8 14 19.6 31.4 19.6h90.5l65.5 15.3-15.6-15.3h11c17.3 0 31.4-8.8 31.4-19.6v-38.9c0-10.8-14-19.5-31.4-19.5h-151.5c-17.3 0-31.3 8.7-31.3 19.5zM137 147.1v38.9c0 10.8 8.8 19.6 19.5 19.6h56.5l40.8 15.3-9.7-15.3h6.8c10.8 0 19.5-8.8 19.5-19.6v-38.9c0-10.8-8.8-19.5-19.5-19.5h-94.4c-10.8 0-19.5 8.7-19.5 19.5zM726 290.3v33.8c0 9.4-8.8 17-19.5 17h-56.5l-40.8 13.3 9.7-13.3h-6.8c-10.8 0-19.5-7.6-19.5-17v-33.8c0-9.4 8.8-17 19.5-17h94.4c10.8 0 19.5 7.6 19.5 17z"/><text transform="translate(613.72 316.886)" class="st3 st4 st5">¡Hola</text><path class="st6" d="M508.5 126.5h176.5v49.9h-176.5z"/><text transform="translate(508.492 155.28)" class="st3 st4 st7">Bonjour</text><path class="st6" d="M115.5 273.3h176.5v49.9h-176.5z"/><text transform="translate(115.535 302.052)" class="st3 st4 st7">Hallo</text><path class="st6" d="M162.3 149.3h102.1v49.9h-102.1z"/><text transform="translate(162.341 178.079)" class="st3 st4 st7">Ciao</text><path class="st2" d="M662.6 425.1v-33.8c0-9.4-8.8-17-19.5-17h-56.4l-40.9-13.3 9.7 13.3h-6.8c-10.8 0-19.5 7.6-19.5 17v33.8c0 9.4 8.8 17 19.5 17h94.4c10.8 0 19.5-7.6 19.5-17z"/><path class="st6" d="M562.7 395.2h73.5v36h-73.5z"/><text transform="translate(562.663 423.94)" class="st3 st4 st7">Olá</text><path class="st2" d="M199.9 454.7v-33.8c0-9.4 8.8-17 19.5-17h56.4l40.8-13.3-9.7 13.3h6.8c10.8 0 19.5 7.6 19.5 17v33.8c0 9.4-8.8 17-19.5 17h-94.4c-10.7 0-19.4-7.6-19.4-17z"/><path class="st6" d="M234.9 422.6h71.9v35.9h-71.9z"/><text transform="translate(234.857 451.424)" class="st3 st4 st7">Hi</text></svg>