<svg xmlns="http://www.w3.org/2000/svg" viewBox="0 0 792 612" enable-background="new 0 0 792 612"><style type="text/css">.st0{fill:#FFFFFF;} .st1{fill:#F17922;} .st2{fill:#EEB953;} .st3{font-family:&apos;ApolloMTStd-SemiBold&apos;;} .st4{font-size:67.3295px;} .st5{fill:none;stroke:#F17922;stroke-width:2;stroke-miterlimit:10;}</style><path class="st0" d="M589.3 535.8h-511.5v-356.7l29.6-7.6c24.8-6.1 49.9-10.5 75.3-12.8 12.3-1.1 24.6-1 36.9-1.5 7.9-.4 15.8-1.5 23.7-1.4 10.5.2 21 1.3 31.5 2.1 15.1 1.3 30.3 2 45.3 4.2 43.1 6.2 84.7 18.1 124.6 35.7 34.8 15.4 67 35 95.7 60 1.5 1.3 3 2.7 4.6 4.2 39.1 37.5 65.2 86.7 73.8 140.1 6.9 42.3 3.8 91.8-29.5 133.7z"/><path class="st1" d="M123.4 273c12.3 2.5 18.1 11.4 14.7 23.4-2.3 8.3-6.7 15.3-14.7 19.4v-18.1c1.2-3.6 3.2-7.1 3.5-10.8.2-2.3-2.2-4.9-3.5-7.3v-6.6zM409.6 326c-23.8 17.6-47.7 35.1-71.5 52.6l-20.2 14.6-.8-.9c49-60.5 98-121 147.3-181.9-3.9-1.5-6.6-2.6-9.6-3.8-50.5 62.2-100.8 124.2-151.1 186.3-.5-1.4-.2-2.1.2-2.7 21.4-41.1 42.9-82.2 64.3-123.4 1.3-2.6 3-2.9 5.4-2.4 4.9.9 9.9 1.8 15 2.7.9-2.5 1.7-4.5 2.5-6.7-6-1.4-11.4-2.6-16.8-3.9 1.6-6.3 5.2-9.3 10.7-11.1 5.1-1.7 10.3-4.2 14.6-7.5 5.2-3.9 4.6-10.5-.3-14.7-1.8-1.5-3.7-2.7-5.7-4.2l13.3-26.2c-2.3-.5-4-.9-6-1.4-4.6 8.8-9.3 17.6-13.7 25.9-5.3-.3-10.1-.4-14.8-.8-4.7-.5-6.6 1.8-7 6.7h18.6c-2 3.9-3.7 6.8-4.9 9.8-2.7 6.6-6.7 11.4-14.2 12.8-3.5.7-6.6 2.9-10 4.2-4.3 1.6-5.4 5.1-6.2 9.3 5 1 9.7 1.9 15 3-27.9 53.4-55.4 106-82.7 158.1 3.6 2.3 7.1 4.6 10.8 7 43.3-31.8 86.9-63.7 131-96.1-3.2-2.3-5.6-3.7-7.8-5.6-2.1-1.6-3.5-1.1-5.4.3zm-21.1-97.7l1.6.9-4.3 7.7-1.4-.7c1.4-2.7 2.8-5.3 4.1-7.9zM534.6 356.1c.3-4 2.5-6.3 7-5.6 7.6 1.2 15.2 2.2 22.6 4.2 4.2 1.2 8 4.4 8 9.6 0 5.3-3.2 9-7.8 10.9-7.1 3-14.5 5.3-21.7 8.2-3 1.2-5.7 2.9-8.6 4.4l.3 1.2c8.4 1.7 16.8 3.4 25.8 5.1l-2.9 6.9c-13.4-2.7-26.5-5.3-39.9-7.9 1.1-4.5 2.9-7.8 7.2-9.5 7.7-2.9 15.3-5.8 22.8-9.1 3.3-1.4 6.6-3.3 9.2-5.7 4.5-4.3 3-9.9-3-11-6.3-1.2-12.7-1.2-19-1.7zM552.7 477.6c5.4 3.4 10.7 6.5 8.8 13.2-1.9 6.7-7.6 9.5-14.1 10.3-10.4 1.2-20.4-1-30.5-5.2.9-2.2 1.7-4.1 2.4-5.8 5.6 1.7 10.7 3.5 16 4.6 2.4.5 5.4.6 7.4-.5 2.5-1.4 5.2-3.9 6-6.5.5-1.7-1.5-5.4-3.4-6.4-4.2-2.3-9-3.5-13.8-5.2.1-4 2.3-4.6 6.4-4.1 4.4.6 9.2.4 13.4-.7 2-.5 4.3-4 4.4-6.2.1-1.6-3.1-4.3-5.2-4.8-5.5-1.2-11.1-1.5-17-2.1.2-3.4 1.6-6 6-5.2 7.4 1.2 14.9 2.3 22.2 4.2 3.9 1.1 7.5 3.9 7.3 8.9-.3 5.1-3.8 7.8-8.1 9.4-2.3.9-4.9 1.3-8.2 2.1zM334.3 256.5c-4.3-.8-7.9-1.4-12.1-2.2 5.4-13.2 10.7-26 16-38.9-2.6-.7-5-1.3-7.4-1.9-.2-.5-.5-1-.7-1.4 1.5-.9 3.1-2.7 4.5-2.6 5.8.4 11.6 1.4 18.2 2.3-6.3 15.1-12.4 29.8-18.5 44.7zM480.7 267.8c-2.7-.7-4.9-1.2-7.7-1.9.5-1.4.9-2.8 1.4-4.3 7 1 13.7 1.9 20.8 2.8-6.3 15.1-12.3 29.8-18.5 44.7-4.1-.8-7.7-1.6-12-2.4 5.4-13.1 10.7-25.8 16-38.9zM192.7 258.4c-4.4-.9-8-1.7-12-2.5 5.4-13.2 10.7-25.8 16-38.8-2.6-.7-4.9-1.4-7.4-2 0-2.7.7-4.4 3.8-4 5.7.9 11.5 1.6 18 2.5-6.2 15.1-12.2 29.8-18.4 44.8zM238.3 225.2c-3-.7-5.1-1.2-7.3-1.8-.1-3.4 1.2-4.5 4.5-3.9 5.6.9 11.3 1.4 17.3 2.1-4.7 11.3-9.1 22.1-13.6 32.9-.3.7-.7 1.4-1 2.2-4.3 10.3-4.3 10.3-15.9 7.3 5.4-12.9 10.6-25.6 16-38.8zM374.6 202.6c-4.5 0-8.3-2.8-8.3-6.1-.1-3.6 4-6.4 9-6.4 4.6 0 8.4 2.7 8.4 5.9-.1 3.4-4.5 6.6-9.1 6.6zM603.7 373.9c-4.7 0-8.2-2.5-8.4-5.9-.1-3.5 4-6.5 8.9-6.5 4.5 0 8.4 2.7 8.4 5.9.2 3.4-4.1 6.5-8.9 6.5zM598.1 499.8c-4.6 0-8.2-2.7-8.2-6.1-.1-3.6 4.1-6.6 8.9-6.6 4.3 0 8.4 3 8.4 6 0 3.4-4.5 6.7-9.1 6.7zM522.5 252.7c4.7 0 8.4 2.8 8.2 6.1-.1 3.3-4.3 6.4-8.8 6.4-4.3 0-8.4-2.8-8.5-6-.1-3.5 4.2-6.6 9.1-6.5zM201.5 202.8c-4.5.1-8.4-2.5-8.6-5.8-.2-3.5 4-6.7 8.9-6.7 4.8 0 8.3 2.6 8.3 6-.1 3.6-3.7 6.4-8.6 6.5zM612.7 421.7c-1.8-1.7-3-2.7-4.1-3.7 1.4-1.1 2.6-2.8 4.1-3 1.2-.1 2.6 1.6 3.9 2.5-1.1 1.2-2.2 2.4-3.9 4.2zM270.7 192.5c-1.6-1.8-2.6-2.9-3.6-4.1 1.4-.9 2.8-2.5 4.3-2.6 1.2-.1 2.4 1.7 3.6 2.7-1.2 1.2-2.5 2.3-4.3 4zM311.7 188.1c-2.6 1.6-3.9 3.1-5.2 3-1.5-.1-2.9-1.5-4.4-2.4 1.3-1 2.5-2.7 4-2.9 1.3-.3 2.8 1 5.6 2.3zM611.2 469.2c-1.5.8-3.1 2.2-4.5 2.1-1.3 0-2.6-1.7-3.8-2.7 1.4-1 2.6-2.4 4.1-2.7 1.3-.2 2.8 1 4.2 1.6-.1.6-.1 1.2 0 1.7zM139.8 215.7c-1.6.7-3.2 2-4.7 1.8-1.2-.1-2.3-1.9-3.4-3 1.4-.8 2.7-2.3 4.1-2.4 1.3-.1 2.7 1.2 4.1 1.9-.1.7-.1 1.2-.1 1.7zM581.1 316.2c1.7 1.8 2.7 2.8 3.8 3.9-1.3 1-2.5 2.8-3.9 2.9-1.2.1-2.5-1.6-3.8-2.6 1-1.1 2.1-2.3 3.9-4.2zM240.4 192c-1.6.7-3.2 1.9-4.7 1.8-1.3-.1-2.4-1.8-3.6-2.8 1.4-.9 2.8-2.4 4.4-2.6 1.3-.1 2.7 1.3 4 2-.1.6-.1 1.1-.1 1.6zM594.1 347.6c-1.7-1.9-2.7-2.9-3.7-4 1.3-1 2.6-2.7 4-2.8 1.1-.1 2.4 1.6 3.7 2.5-1.2 1.2-2.3 2.4-4 4.3zM345.2 191.8c-1.6.7-3.1 1.9-4.6 1.8-1.2-.1-2.4-1.8-3.6-2.8 1.4-.9 2.8-2.4 4.3-2.5 1.2-.1 2.6 1.2 3.9 2v1.5zM617.1 443.7c-3 1.1-4.6 2.3-6.1 2.1-1.2-.1-2.2-1.9-3.3-3 1.5-.8 3-2.1 4.6-2.3 1.1 0 2.3 1.5 4.8 3.2zM585.4 512.5c2.8 2.8 3.8 3.9 4.9 5-1.2 1-2.4 2.8-3.6 2.8-1.4-.1-3.6-1.5-3.9-2.7-.1-1.3 1.5-3 2.6-5.1zM614.4 393.3c-1.5.7-3 2.1-4.5 2-1.2-.1-2.4-1.8-3.5-2.8 1.3-.9 2.5-2.4 3.8-2.5 1.3-.2 2.7 1.1 4.1 1.7 0 .5.1 1 .1 1.6zM172.1 205.4c-1.6.6-3.2 1.9-4.7 1.7-1.2-.1-2.3-1.9-3.4-3 1.4-.8 2.7-2.2 4.1-2.3 1.3-.1 2.7 1.2 4 2 .1.5.1 1.1 0 1.6zM570.1 297.9c-2.7 1.6-4 2.9-5.3 2.9-1.4 0-2.7-1.4-4.1-2.2 1.2-1.2 2.3-2.9 3.8-3.3 1.2-.2 2.7 1.3 5.6 2.6zM544.8 281.7c-1.7-1.6-2.8-2.7-3.9-3.8 1.4-1 2.6-2.7 4.1-2.8 1.1-.1 2.4 1.7 3.6 2.6-1.1 1.2-2.2 2.3-3.8 4zM474.8 227.5c-3 1.2-4.6 2.4-6.2 2.2-1.2-.1-2.1-2-3.2-3.1 1.5-.8 3-2 4.6-2.2 1.1-.1 2.3 1.4 4.8 3.1zM496.8 246c-1.7-1.9-2.6-3-3.6-4.2 1.2-1 2.4-2.7 3.7-2.7 1.3 0 2.6 1.6 3.9 2.5-1.2 1.2-2.2 2.4-4 4.4zM412.1 204.8c-1.5.7-3.1 2-4.6 1.9-1.3-.1-2.5-1.8-3.7-2.7 1.4-1 2.7-2.5 4.2-2.7 1.2-.2 2.7 1.3 4 2 .1.5.1 1 .1 1.5zM445 214c-2.7 1.6-4 2.9-5.3 2.9-1.4 0-2.8-1.4-4.2-2.1 1.2-1.1 2.3-2.9 3.8-3.2 1.2-.3 2.8 1 5.7 2.4z"/><path class="st2" d="M663.5 529.8h-13.3c4.4-10.8 8.9-21.6 13.3-32.3 0 0 26.1-72.2-5.1-148.1-15.5-37.7-39.6-69.2-70.1-96.3-29-25.8-61.7-45.7-97.2-61.2-33.9-14.8-69.1-25-105.5-31.6-24.2-4.4-48.5-7.1-73.1-8-43.3-1.7-86.4 1.3-128.8 10.5-20.3 4.4-40.2 10.7-60.4 16.1v-25.7c10.4-2.7 20.8-5.4 31.3-8 26.2-6.4 52.7-11.1 79.5-13.5 12.9-1.2 26-1 39-1.6 7.8-.3 15.6-1.4 23.4-1.4h1.6c11.1.2 22.2 1.3 33.3 2.2 16 1.3 32 2.1 47.9 4.4 45.5 6.6 89.5 19.1 131.6 37.7 36.7 16.2 70.7 37 101 63.4 1.5 1.4 3.2 2.8 4.9 4.5 41.3 39.6 68.8 91.6 78 148 7.1 44.4 3.8 96.7-31.3 140.9z"/><text transform="translate(172.185 493.463)" class="st1 st3 st4">Learning</text><path class="st5" d="M663.5 529.8h-540.1v-376.6c10.4-2.7 20.8-5.4 31.3-8 26.2-6.4 52.7-11.1 79.5-13.5 12.9-1.2 26-1 39-1.6 7.8-.3 15.6-1.4 23.4-1.4h1.6c11.1.2 22.2 1.3 33.3 2.2 16 1.3 32 2.1 47.9 4.4 45.5 6.6 89.5 19.1 131.6 37.7 36.7 16.2 70.7 37 101 63.4 1.5 1.4 3.2 2.8 4.9 4.5 41.3 39.6 68.8 91.6 78 148 7 44.4 3.7 96.7-31.4 140.9z"/></svg>