<svg xmlns="http://www.w3.org/2000/svg" viewBox="0 0 792 612" enable-background="new 0 0 792 612"><style type="text/css">.st0{fill:none;stroke:#F17922;stroke-width:4;stroke-miterlimit:10;} .st1{fill:#F17922;} .st2{font-family:&apos;ApolloMTStd&apos;;} .st3{font-size:184.1619px;} .st4{fill:none;stroke:#F2BB53;stroke-width:4;stroke-miterlimit:10;} .st5{font-size:171.2377px;} .st6{font-size:112.0842px;} .st7{font-size:136.629px;}</style><path class="st0" d="M723 193.4v129.8c0 18.2-14.8 33-33 33h-50.4c-33.8 65.2-90.4 34.3-93.9 32.3 30.1 15.5 41.3-11.1 45.5-32.3h-55.4c-.9 0-1.7 0-2.6-.1 31-15.1 50.9-38.4 50.9-64.6 0-34-33.5-63.1-81.3-75.7v-22.4c0-18.2 14.8-33 33-33h154.2c18.2-.1 33 14.7 33 33z"/><text transform="matrix(-1 0 0 -1 659.96 205.859)" class="st1 st2 st3">Z</text><path class="st4" d="M236.2 314.3s22.6 2.7 37.8 16.5c-3.5 14.5-16.5 25.4-32.1 25.4h-50.4c-33.8 65.2-90.4 34.3-93.9 32.3 30.1 15.5 41.3-11.1 45.5-32.3h-55.5c-18.2 0-33-14.8-33-33v-129.8c0-18.2 14.8-33 33-33h154.3c18.2 0 33 14.8 33 33v123.2c-11.7-3.2-24.6-4.4-38.7-2.3z"/><text transform="translate(103.619 295.945)" class="st1 st2 st5">Q</text><path class="st0" d="M433.4 439.2c0 45.5-60.1 82.4-134.3 82.4s-134.3-36.9-134.3-82.4c0-43.1 53.9-78.5 122.7-82.1-1.1-11.5-6.5-20-13.4-26.3-15.2-13.8-37.8-16.5-37.8-16.5 14.1-2.1 27-.9 38.7 2.3 27.4 7.6 48 26.8 61.4 43.4 37 6.5 67.4 22.6 83.8 43.5-14.8 10.7-33.3 12.9-33.3 12.9 14.6 2.1 28 .8 40-2.7 4.2 8 6.5 16.6 6.5 25.5z"/><text transform="translate(265.731 474.364)" class="st1 st2 st6">U</text><path class="st4" d="M584.1 291.5c0 26.2-19.9 49.5-50.9 64.6-13.5 6.6-29.1 11.6-46.1 14.6-13.2 16.3-33.4 35.2-60.2 43-12 3.5-25.3 4.8-40 2.7 0 0 18.5-2.2 33.3-12.9 8.9-6.4 16.5-15.9 17.9-29.9-68.7-3.6-122.6-39-122.6-82.1 0-45.5 60.1-82.4 134.3-82.4 18.8 0 36.7 2.4 53 6.7 47.8 12.5 81.3 41.7 81.3 75.7z"/><text transform="translate(430.301 331.008)" class="st1 st2 st7">I</text></svg>