<svg xmlns="http://www.w3.org/2000/svg" viewBox="0 0 792 612" enable-background="new 0 0 792 612"><style type="text/css">.st0{fill:none;stroke:#F17922;stroke-width:4;stroke-miterlimit:10;} .st1{fill:#F2BB53;} .st2{fill:#010101;} .st3{fill:#F17922;} .st4{font-family:&apos;ApolloMTStd&apos;;} .st5{font-size:37.3168px;}</style><path class="st0" d="M550.8 481.9h-272.1l24.8-345.8h209.2z"/><path class="st1" d="M338.5 210.1c-5.9 0-10.6-4.8-10.6-10.6v-5.4c0-5.9 4.8-10.6 10.6-10.6 5.9 0 10.6 4.8 10.6 10.6v5.4c.1 5.9-4.7 10.6-10.6 10.6zM338.5 258.5c-5.9 0-10.6-4.8-10.6-10.6v-5.4c0-5.9 4.8-10.6 10.6-10.6 5.9 0 10.6 4.8 10.6 10.6v5.4c.1 5.9-4.7 10.6-10.6 10.6zM338.5 306.5c-5.9 0-10.6-4.8-10.6-10.6v-5.4c0-5.9 4.8-10.6 10.6-10.6 5.9 0 10.6 4.8 10.6 10.6v5.4c.1 5.9-4.7 10.6-10.6 10.6zM338.5 353.9c-5.9 0-10.6-4.8-10.6-10.6v-5.4c0-5.9 4.8-10.6 10.6-10.6 5.9 0 10.6 4.8 10.6 10.6v5.4c.1 5.9-4.7 10.6-10.6 10.6zM338.5 395.6c-5.9 0-10.6-4.8-10.6-10.6v-5.4c0-5.9 4.8-10.6 10.6-10.6 5.9 0 10.6 4.8 10.6 10.6v5.4c.1 5.9-4.7 10.6-10.6 10.6zM338.5 444c-5.9 0-10.6-4.8-10.6-10.6v-5.4c0-5.9 4.8-10.6 10.6-10.6 5.9 0 10.6 4.8 10.6 10.6v5.4c.1 5.8-4.7 10.6-10.6 10.6zM491.9 208.7c.1-.3 0-.8-.1-.7l-.1 1 .2-.3zM490.8 206.9c-.2.5-.4 1.3-.3 2.2.2-1 .3-.6.5-1.7.2-.1.3.3.3.7.1-.3.3.2.4-.4-.2-.8-.5-.8-.8-.2-.2-.2-.2-.4-.1-.6zM473.6 205.3l.1.1c-.1 0-.1-.1-.1-.1zM462.9 204.8c.1 0 .1-.1.1-.2 0 0-.1.1-.1.2zM461.1 203.7s.1 0 .1.1c0-.1-.1-.2-.1-.1zM473.6 205.3l-.3-.3c0 .3.1.3.3.3zM488.4 209.3c.1 0 .1-.1.2-.3l-.1.1c-.1.1-.1.1-.1.2zM478.3 204.5l.2-.4-.2.4zM481.9 204.4c-.1 0-.1.8-.1 1.2 0-.3.1-.5.2-.6-.1-.2-.1-.4-.1-.6zM487.6 205.8l.1-.1c0 .1-.1.1-.1.1zM475.7 204.3v-.3c-.1.1 0 .2 0 .3zM374.9 210.7v-.2.2zM370.7 206.5c.1-.2.1-.4.1-.5l-.1.5zM457.8 202.6c.1-.1 0-.1 0 0zM427.2 203.2c.3.8-.6 1 0 1.8-.1-.3.5-1.3 0-1.8zM488.3 209.2h-.1.1zM427.2 205zM450.1 203.1c0 .1 0 .3.1.4 0-.1 0-.2-.1-.4zM455.8 204.3l-.1-.1c0 .1.1.1.1.1zM447.1 204.3c-.1-.1-.1-.2-.2-.1v.1c.1-.1.2-.1.2 0zM444.1 204.3c0 .1 0 .1.1.2h.1l-.2-.2zM384.3 210.3c-.1-.2-.1-.5-.1-.8 0 .6-.5.8.1.8zM488.4 208.8c0 .2 0 .3-.1.4h.1v-.4zM447 211l-.5-.1.5.1zM406.4 210.1l-.1.1c.1.1.1 0 .1-.1zM445.1 211c-.1-.3-.2-.5-.3-.6 0 .1 0 .1-.1.2l.4.4zM384.2 209.5zM380.9 211.5c.5 0 .2-1.1.3-1.7.6-.3.3.8.4 1.4.3-.3.6-1.3.9-1.3 0 .2.1.2 0 .5.4-.9 1.1 0 1.5-1.1 0 .1 0 .2.1.3-.1-.6-.1-1.1-.1-1.5.2 0 .4-.7.5 0-.1 0-.1.3-.2.5l.2-.3c.2 1-.3.4-.3 1.1.4-.3.9-1.2 1.3-.9.1 1-.8.3-.3 1.2l-.5-.4c.4 1.6-.3-.1 0 1.6l1.4-.2c.2-.6 0-.8.1-1.4.9-1 .7 2.6 1.4 1.2.2-.7.3-2 .7-1.3l-.2 1.2c.6.1.4-1.7 1-.9-.1.5-.5.4-.4.5.4.9.3-.7.6-.7l.1 1c.7-.2 1.4-.9 2.2-1.1 0 .3-.2.6 0 .9 1-.5 2.1.1 3 .7l.4-.9c.1 0 .2.4.1.6.4.3 0-.6.2-.9.2-.1.3.5.1.8.6-.7 1.8-1.6 2.5-.7l-.1.3c.5.4.6-1.8 1.1-1l-.1.2c1.1.4 2.4-.4 3.3.9.2-1.3 1.1.6 1.2-1.2.6.9.5 1.2 1.4 1.8.2.1.4-1.1.7-1.3v.9l.4-1 .2 1.1.3-.2c-.1-.1-.2-.4-.2-.7.4-.4 1.1.6 1.1 1.1l1-.8c0 .4-.2.5-.3.7.6-.9.1 1 .6.1-.1-.2 0-.6 0-.7.3.6.8.6 1.3.3l-.1.6c.8.2 1.6-.3 2.5-.3-.3-.3-.2-1.4 0-1.5l.1 1c.2-.6-.3-.4.1-1.1.3.1.2 1.1 0 1.4l.4-.3c0 .3-.1.4-.1.8.2-.6.7 1 .9-.1v.3c.9 0 1.3-.3 2-.4 0-.8.3-.7.5-1.3.5.3 1.1.9 1.7.9.4-.4.1-.7.3-1.2 0 .8.7.7.3 1.2.8-.1 1-.2 1.9-.8-.1-.3-.2-.5-.2-.7.2-.1.4.3.4.7v.1c1.1-1.2 2.5 2.2 3.3.6v.1l.9-.8c.4.1-.2.6.1 1.1 1-1.3 1.5.2 2.3-.7.6 2.3 2.2-.2 3 1.3v-.5c.2-.5.3.3.4.4 0-.4-.2-.5-.1-.8 1.8-.6 3.7.8 5.5 1.3.7.1.4-2.8 1.2-1.5l-.2 1c1.4-1.2 2.8 0 4.1-1-.1.2-.1.5-.2.5.3.7 1 0 1-.6l.2.8c.3.4.7-.9.9-.2l-.1.3c.2-.3.9.1.7-.7.5.4 1-.4 1.4.1.3-.9.9.4.9-.9 0 1.4.9 1.1 1.2.5-.1.4.3.4.2 1 .4 0 .7-.3.6-1 .7 1.6 1.3-1.3 1.7.8 1.1-.7 2.1-1.2 3-1.5 0 1.4-1.1.1-1 1.6.9-.6 1.4-1.7 2.3-1.4.2.2-.1.6-.2.8.9-.6 1.8.1 2.6-.6 0 .1-.1.3-.2.4.2 0 .4.2.4-.4l-.2.2c-.3-.9.6-1.9.7-2.3-.3 1.8.8.4.4 2.7.1-.1.2-.4.2-.8.2.1.2.4 0 .8.6-.3.4-1 .9-1 0 .3-.1.4-.2.8.3-.6.5-1.2 1-.9 0 .2 0 .4-.1.4.8-.1 1.3-1.5 2.1-1-.2 1.3.3.4.3 1.5l.4-.3-.2-.5c.4 0 .7-.8 1.1-.4l-.3.5.7-.2-.4-.4c.4-.6 0-1.4.5-1.1-.1.1.4 0 .6.7.2-.4.4-.7.7-.5.1.4-.1 1.2 0 1.5.2-.9.9-.3 1.2-1.3-.1.2-.1.8-.1.9l.2-.8c.2.2.2.4.2.8.5.1-.2-1.4.5-.8l-.1.3c.6.3 1.2-.5 1.8-.1.2 1.1-.5.3-.3 1.2.9-.2 1.8-1.4 2.6-1.1l-.2-.1c.1-1.6.6.8 1 0-.1.1-.1.9-.1.7.6.3 1.2-.4 2-.9l-.1.4c.3.4.9.2 1.2.4.1-.4.3-.3.2-.9 1.1 2.3 2.1-1.2 3.1.7-.1 0-.3.4-.2.4l.8-.4c-.1-.7-.1-.4-.3-1 .1-.4.3-.7.6-.7-.4.5 0 1.1.2 1.5v-.7c.4 1.2.1-1.4.7-.6v.4c.2-.2.4-.7.7-.6.1.8-.2.4-.3 1 .3 0 .7-1.5 1-.7l-.5.4c.3.9.4.7.6.9l.6.4-.1-.3c.4-2.1.9-.4 1.4-1.8-.6 1.3-.1.8-.1 1.7.1.3.4.5.3.8.3-.7.5.6.8-.5 0 .3.3 0 .2.8.4-.2-.1-.5-.1-.9.5-1 1.3 1.2 2.1-.2l1.4-2c.2.5-.2 1.1-.2 1.1.3.4.6.4.9 0-.1.3 0 .5.1.8.3-.1.2-1.1.5-.6-.1.3-.1.8-.3 1.2l.9-1.1c.1.5-.2.8-.3 1.1.4-.2.9-.5 1-1.3l-.2-.3c.1 0 .1.7 0 .8-.3.6-.4-.3-.5-.6l.2-.2c-.2-1.7-.9.3-1.3.2l.2-1.2-.5 1c-.1-.3-.2-1 .1-1.2l-.6-.2v-.2l-.3.4c.1-.3-.1-.9.1-.7-.6-.7-.9.9-1.1 0v-.1c-.8.4-.1.9-.7 2l-.4-2.3-.1.9c-.1 0-.2-.1-.2-.5-.3.6.1.4-.1 1-.4-.8-1.1.4-1.2-1.1-.1.7.4.5 0 1-.1-1.6-.5.3-.8-.5.1-.8.4-.4.1-1.1-.2 1.4-.7-.3-1 0 0 1.1-.7.5-1.2.8 0-.4-.9-.6-1.4-1v-.2c-.1 1.1-.6.9-.9 1.1 0-.7.1-.9.3-1.2h-.3c-.1.4-.2.5-.4.7l.1-.8c-.4 0-.9 1-1.5.4 0 .8.5 2.1-.1 2.7 0-.4 0-1.1.1-1.3-.1.1-.2.3-.3.2l.2-.7c-.3-.3-.1.6-.3.5 0-.6-.2-.4-.1-.9.1-.1.2.2.3 0-.2-.1-.5-.5-.6-.9 0 .3 0 .8-.2.9-.4 0-.2-.7-.4-1-.1.4-.4 0-.4.9-.1 0-.2-.4-.2-.7-.2.4-1.1.1-.8 1.1l.1.1c-.7.9-1.6-.5-2.3-.1v-.3c-.4.3-1 .2-1.3.8-.1 0-.3-.5-.3-.9-.3.2-.4.6-.9.1.3-.5-.1-.5.3-.4-.4-.3-.5-.7-1 .1.2-.8-.3-1-.5-.7l.3.5c-.2.1-.4 0-.6 0l.1-1c-.9-1.2-1.6 2.1-2.3 0-.2.7.5.5.3 1.3-.4-.1-.8-1.6-1-1.6-.6-.6-.5 1.5-1.1 1.1.1.4.1 1.3-.3 1.6-.4-.1-.5-1.5-.2-1.8.1 0 .1.1.1.2.1-.1.3-.3.1-.7l-.1.4c-.2-.4-.8-.3-.6-.9-.3.3-.1.6.1.8-.5-.5-.8 0-1.4-.4.1.2.2.6.1.6-.8-.4-.4.7-.9.8-.3-.5.1-1.3-.4-.8-.3-.4-.1-.9.1-1.2-.5.7-.9-.5-1.2-.6l.3-.3c-.2.2-.3.2-.4.2l.1.7c-.2-.1-.3-.1-.3-.4-.2.5.1 1.2-.2 1.8-.2-.4-.6.4-.7-.6.6.3-.1-.9.5-1.1-.1.1-.2.1-.4 0 0-.1 0-.2.1-.2-.6-.8-.3 1.1-.9 1 .1-.5-.1-1-.3-.9.3 0 .1.9-.1 1.3-.4-.4-.4.3-.7.3l.2.2c-.1.5-.3.5-.6.6 0-.4.3-.3.2-.5-.3.9-.7-1-1.2-.3l-.2-1.2c-.5.7-.5-.7-1.1-.2.2.7.2.5-.2 1.2l.9-.5-.6 1c.3 0 .5-.4.7-.3-.3.6-.2.4-.1 1-.4-1.1-.7.6-1.1-.1v-1.8c-.6-.8-1.1.9-1.9.5l.3.3c-.1.7-.5.1-.8.4 0-.6-.1-.8-.2-1.2 0 .4-.6 0-.7 1.1l-.4-.8c-.6-.3-.7 1.7-1.4 1.5.2-.6-.1-1.1.3-1.5-.2 0-.4-.1-.4.3-.1-.4-.6.8-.8.2-.1.3-.1.9-.3.8v-.3c0 .3-.4.4-.2 1.1-.6-1.8-1.8.1-2.3-1.5-.5.2-1 .4-1.4.4 0-.2 0-.3.1-.2-.6-.6-.3 1.7-1 1.1-.3-1 .3-.5.1-.9-.1-1.9-.8.3-1.2-.9l.1-.1c-.3-.7-.8.7-1.4.6v-.3c-.4 1-1.1 1.3-1.6 1.6.2-.8.2-.4.1-1.2-.2.1.1 1.2-.4 1.5-.2-.4-.5-.8-.5-1.6h.4c-.2-1.1-.6 0-.8-.1v-.5c-.7.2-.7 1.3-1.4 1.2l.1.4c-.4 1.2-.3-.7-.7.2l-.1-1.2c-.3.3-.9 1.1-1.4 1.4.3-.9.8-1.3 1.2-1.8-.3 0-.9.1-1 .7.1-.1.2-.4.3-.2-.3.9-.7 1.4-1.3 1.4.1-2.3-1.3-.6-1.7-2.4-.9.8-1.8-.4-2.9-.2.4 1.8-.3.1-.2 1.9-.2.1-.3.1-.4 0l-.8-1.1c-.2-.5.2-.4.2-.8-.5-.1-.2-.8-.6-1.3.1.7-.2.9-.5.7l.4.8c-.8 1-.7-1.5-1.4-.6l.2-.6c-.4.3-1.4 0-1.8 1.5-.1-.2-.2-.7 0-.8-.9-.2-2.1 1.6-2.8.7l.1-.4c-.2.1-.3.8-.5.4 0-.2.1-.4 0-.5-.1.2-.5.8-.7.5l.2-.5c-.9-.6-1.4 1.2-2.2 1.5 0-1.3-.7-1.7-1.1-2v-.2c-1.1-.2-1.8 1.1-2.8 1.6-.6-1.4-2.1-.6-3.1-1.4.2.2 0 1-.2 1.2-.2-.3-.6.9-.6-.3h.1c-.2-1.2-.6-.9-1-.9l-.1 1.6c-1-2.3-2.5.8-3.1-1.2-.2.4-.5.4-.8.8v-.8c-.6-.2-1-.3-1.8-.1l.2-.6c-.5-.1-.6 2.4-1 2.5l-.1-1.3c-.8 0-1.6-1.1-2.4.1 0-.2 0-.6.2-.6-.4 0-1.4-.9-1.3.9 0-1.1-.8-.1-1.2.4l.1-.8c-.4 1.1-.4 1.4-.9 1.7-.1-.1-.1-.7.1-.5-.4-.4-.3.8-.8.3l.2-.5c-.4-.1-.4.2-.6.8-.3.3-.8-.2-.8-1-.1.5-.3 1.1-.5.9 0-.3.1-.5.1-.5l-1.5.2c0-.3 0-.4-.1-.5.5 0 1 .1.9.1 0-.8-.4-.9-.1-2-.4.6-1 1.8-1.4 1.5 0-.1 0-.1-.1-.3v-.1c-.1-.1-.2 0-.3.1-.1-.1-.2-.2-.4-.2-.1-.6-.5-.3-.7-.4 0 .8-.3.7 0 1.4 0-.1 0-.1.2-.1 0 0 .1 0 .1-.1v.1c.1 0 .3 0 .5-.1-.2.4-.4.8-.6.3-.1.5-.2 1.1-.3 1.4-.3-1.2-.9-1.8-1-2.5-.7.5-1.6.3-2 1.9-.2.2-.2-.5-.3-.7.1-.2.2-.1.3-.4-.4.4-1.1.2-1.2 1.3-.5-.5.3-1-.4-.8l.1-.3c-1.3-1.8-2.1 2.8-3.5.6.1.1.1.2.2.4-1.6-1-3.4.9-5-.6-.5-.3-.5.4-.8.9l-.1-.9-.5 1c-.7.8-1.2-2.2-2-.8l.1.6c-.3-.1-1 .4-.9-.3 0 .1-.1.6-.2.3v-.5l-.8.8c-.6-.3.1-1.9-.8-2-.3.2-.9 1.4-.8 1.7.1 0 .3.3.3.8l-.3.2c-.1 1.4-.3 2.8.4 3.8l.5-.9.2.7h-.4c.2.6.4.1.6-.3 0 .4.1.6.2.7l.5-1.3c.1.5-.2 1.1.1 1.4.2-.6-.2-1.2.2-1.6.2.6.2 1.2.4.6 0 .4 0 .6-.1.7.2-.4.7-.2.8-.9.2.8.8-.2.8 1.1.1-.3.4-1 .7-1.1-.4 1.6.9.1.7 1.8.3-1.4 1.1-.6 1.7-1.4 0 .1-.1.3-.1.3.3.1.4.5.6.8 0-1.2.5-1.4.8-2.2.4 1.1-.2 1.4-.1 2.5 0-1 .7-1 .5-1.7.3.7.2.3.4 1.3.1-1.5.3-.2.5-1.2.4.7.1 1.4.6.9.6.4.2.9.2.9zm10.9-2.5c-.1 0-.2.1-.2.1.1-.1.1-.1.2-.1zm1-.1h-.4c0-.3 0-.6.1-.6-.1.2.1.4.3.6zm-2-5.8c.1-.1.2 0 .2.2-.1 0-.1 0-.3.1v.1c.1-.1.1-.3.1-.4zM390.6 204.2c-.1 0-.1.1 0 0v.3-.3zM473.7 205.5v.1-.1zM405.4 210.6v-.3l-.1.2zM478.7 208.4c0 .1 0 .2.1.2 0-.1 0-.2-.1-.2zM480.9 208.5l.3.3-.3-.3zM482.6 209v-.4.4zM455.9 210zM463.9 208c-.1.2-.2.3-.3.4.2 0 .3.1.3-.4zM447.1 211zM463.2 208.4c.1.2.3.1.4 0-.1-.1-.2-.2-.4 0zM489.9 209.3c.1 0 .1-.1.1-.1l-.1.1zM490 209.2zM490.2 208.9l-.2.2c.1 0 .2.1.2-.2zM487.7 209v.3c-.1-.1 0-.2 0-.3zM487 209c.2.1.4.7.6.5v-.2c-.1.4-.5-.8-.6-.3zM484.2 205.3l.6.2c-.1-.3-.2-.8 0-.8-.8-1 .1.7-.6.6zM482.4 204.8c.3-.2 0-.5 0-.7-.2.3-.2.4 0 .7zM469.7 204.8v-.8c-.2.1.1.3 0 .8zM467.3 208.8l.2.4.2-.7zM465.9 203.3l.1-.1-.4.3zM444.6 203.6l.1.9c.1-.2.2-1.2-.1-.9zM435.4 204.5c-.1-.5-.4-.8-.5-.3.2.1.4.4.5.3zM407.9 203l.1-.3-.3.2zM491.9 260.5c.1-.3 0-.8-.1-.7l-.1 1 .2-.3zM490.8 258.7c-.2.5-.4 1.3-.3 2.2.2-1 .3-.6.5-1.7.2-.1.3.3.3.7.1-.3.3.2.4-.4-.2-.8-.5-.8-.8-.2-.2-.2-.2-.4-.1-.6zM473.6 257.1l.1.1c-.1 0-.1-.1-.1-.1zM462.9 256.6c.1 0 .1-.1.1-.2 0 0-.1.1-.1.2zM461.1 255.5s.1 0 .1.1c0-.1-.1-.2-.1-.1zM473.6 257.1l-.3-.3c0 .3.1.2.3.3zM488.4 261.1c.1 0 .1-.1.2-.3l-.1.1c-.1.1-.1.1-.1.2zM478.3 256.3l.2-.4-.2.4zM481.9 256.2c-.1 0-.1.8-.1 1.2 0-.3.1-.5.2-.6-.1-.2-.1-.4-.1-.6zM487.6 257.6l.1-.1c0 .1-.1.1-.1.1zM475.7 256.1v-.3c-.1.1 0 .2 0 .3zM374.9 262.5v-.1.1zM370.7 258.3c.1-.2.1-.4.1-.5l-.1.5zM457.8 254.4c.1-.1 0-.1 0 0zM427.2 255c.3.8-.6 1 0 1.8-.1-.3.5-1.3 0-1.8zM488.3 261h-.1.1zM427.2 256.8zM450.1 254.9c0 .1 0 .3.1.4 0-.1 0-.2-.1-.4zM455.8 256.1l-.1-.1c0 .1.1.1.1.1zM447.1 256.1c-.1-.1-.1-.2-.2-.1v.1c.1-.1.2-.1.2 0zM444.1 256.1c0 .1 0 .1.1.2h.1l-.2-.2zM384.3 262.1c-.1-.2-.1-.5-.1-.8 0 .6-.5.8.1.8zM488.4 260.6c0 .2 0 .3-.1.4h.1v-.4zM447 262.8l-.5-.1.5.1zM406.4 261.9l-.1.1c.1.1.1 0 .1-.1zM445.1 262.8c-.1-.3-.2-.5-.3-.6 0 .1 0 .1-.1.2l.4.4zM384.2 261.3zM380.9 263.3c.5 0 .2-1.1.3-1.7.6-.3.3.8.4 1.4.3-.3.6-1.3.9-1.3 0 .2.1.2 0 .5.4-.9 1.1 0 1.5-1.1 0 .1 0 .2.1.3-.1-.6-.1-1.1-.1-1.5.2 0 .4-.7.5 0-.1 0-.1.3-.2.5l.2-.3c.2 1-.3.4-.3 1.1.4-.3.9-1.2 1.3-.9.1 1-.8.3-.3 1.2l-.5-.4c.4 1.6-.3-.1 0 1.6l1.4-.2c.2-.6 0-.8.1-1.4.9-1 .7 2.6 1.4 1.2.2-.7.3-2 .7-1.3l-.2 1.2c.6.1.4-1.7 1-.9-.1.5-.5.4-.4.5.4.9.3-.7.6-.7l.1 1c.7-.2 1.4-.9 2.2-1.1 0 .3-.2.6 0 .9 1-.5 2.1.1 3 .7l.4-.9c.1 0 .2.4.1.6.4.3 0-.6.2-.9.2-.1.3.5.1.8.6-.7 1.8-1.6 2.5-.7l-.1.3c.5.4.6-1.8 1.1-1l-.1.2c1.1.4 2.4-.4 3.3.9.2-1.3 1.1.6 1.2-1.2.6.9.5 1.2 1.4 1.8.2.1.4-1.1.7-1.3v.9l.4-1 .2 1.1.3-.2c-.1-.1-.2-.4-.2-.7.4-.4 1.1.6 1.1 1.1l1-.8c0 .4-.2.5-.3.7.6-.9.1 1 .6.1-.1-.2 0-.6 0-.7.3.6.8.6 1.3.3l-.1.6c.8.2 1.6-.3 2.5-.3-.3-.3-.2-1.4 0-1.5l.1 1c.2-.6-.3-.4.1-1.1.3.1.2 1.1 0 1.4l.4-.3c0 .3-.1.4-.1.8.2-.6.7 1 .9-.1v.3c.9 0 1.3-.3 2-.4 0-.8.3-.7.5-1.3.5.3 1.1.9 1.7.9.4-.4.1-.7.3-1.2 0 .8.7.7.3 1.2.8-.1 1-.2 1.9-.8-.1-.3-.2-.5-.2-.7.2-.1.4.3.4.7v.1c1.1-1.2 2.5 2.2 3.3.6v.1l.9-.8c.4.1-.2.6.1 1.1 1-1.3 1.5.2 2.3-.7.6 2.3 2.2-.2 3 1.3v-.5c.2-.5.3.3.4.4 0-.4-.2-.5-.1-.8 1.8-.6 3.7.8 5.5 1.3.7.1.4-2.8 1.2-1.5l-.2 1c1.4-1.2 2.8 0 4.1-1-.1.2-.1.5-.2.5.3.7 1 0 1-.6l.2.8c.3.4.7-.9.9-.2l-.1.3c.2-.3.9.1.7-.7.5.4 1-.4 1.4.1.3-.9.9.4.9-.9 0 1.4.9 1.1 1.2.5-.1.4.3.4.2 1 .4 0 .7-.3.6-1 .7 1.6 1.3-1.3 1.7.8 1.1-.7 2.1-1.2 3-1.5 0 1.4-1.1.1-1 1.6.9-.6 1.4-1.7 2.3-1.4.2.2-.1.6-.2.8.9-.6 1.8.1 2.6-.6 0 .1-.1.3-.2.4.2 0 .4.2.4-.4l-.2.2c-.3-.9.6-1.9.7-2.3-.3 1.8.8.4.4 2.7.1-.1.2-.4.2-.8.2.1.2.4 0 .8.6-.3.4-1 .9-1 0 .3-.1.4-.2.8.3-.6.5-1.2 1-.9 0 .2 0 .4-.1.4.8-.1 1.3-1.5 2.1-1-.2 1.3.3.4.3 1.5l.4-.3-.2-.5c.4 0 .7-.8 1.1-.4l-.3.5.7-.2-.4-.4c.4-.6 0-1.4.5-1.1-.1.1.4 0 .6.7.2-.4.4-.7.7-.5.1.4-.1 1.2 0 1.5.2-.9.9-.3 1.2-1.3-.1.2-.1.8-.1.9l.2-.8c.2.2.2.4.2.8.5.1-.2-1.4.5-.8l-.1.3c.6.3 1.2-.5 1.8-.1.2 1.1-.5.3-.3 1.2.9-.2 1.8-1.4 2.6-1.1l-.2-.1c.1-1.6.6.8 1 0-.1.1-.1.9-.1.7.6.3 1.2-.4 2-.9l-.1.4c.3.4.9.2 1.2.4.1-.4.3-.3.2-.9 1.1 2.3 2.1-1.2 3.1.7-.1 0-.3.4-.2.4l.8-.4c-.1-.7-.1-.4-.3-1 .1-.4.3-.7.6-.7-.4.5 0 1.1.2 1.5v-.7c.4 1.2.1-1.4.7-.6v.4c.2-.2.4-.7.7-.6.1.8-.2.4-.3 1 .3 0 .7-1.5 1-.7l-.5.4c.3.9.4.7.6.9l.6.4-.1-.3c.4-2.1.9-.4 1.4-1.8-.6 1.3-.1.8-.1 1.7.1.3.4.5.3.8.3-.7.5.6.8-.5 0 .3.3 0 .2.8.4-.2-.1-.5-.1-.9.5-1 1.3 1.2 2.1-.2l1.4-2c.2.5-.2 1.1-.2 1.1.3.4.6.4.9 0-.1.3 0 .5.1.8.3-.1.2-1.1.5-.6-.1.3-.1.8-.3 1.2l.9-1.1c.1.5-.2.8-.3 1.1.4-.2.9-.5 1-1.3l-.2-.3c.1 0 .1.7 0 .8-.3.6-.4-.3-.5-.6l.2-.2c-.2-1.7-.9.3-1.3.2l.2-1.2-.5 1c-.1-.3-.2-1 .1-1.2l-.6-.2v-.2l-.3.4c.1-.3-.1-.9.1-.7-.6-.7-.9.9-1.1 0v-.1c-.8.4-.1.9-.7 2l-.4-2.3-.1.9c-.1 0-.2-.1-.2-.5-.3.6.1.4-.1 1-.4-.8-1.1.4-1.2-1.1-.1.7.4.5 0 1-.1-1.6-.5.3-.8-.5.1-.8.4-.4.1-1.1-.2 1.4-.7-.3-1 0 0 1.1-.7.5-1.2.8 0-.4-.9-.6-1.4-1v-.2c-.1 1.1-.6.9-.9 1.1 0-.7.1-.9.3-1.2h-.3c-.1.4-.2.5-.4.7l.1-.8c-.4 0-.9 1-1.5.4 0 .8.5 2.1-.1 2.7 0-.4 0-1.1.1-1.3-.1.1-.2.3-.3.2l.2-.7c-.3-.3-.1.6-.3.5 0-.6-.2-.4-.1-.9.1-.1.2.2.3 0-.2-.1-.5-.5-.6-.9 0 .3 0 .8-.2.9-.4 0-.2-.7-.4-1-.1.4-.4 0-.4.9-.1 0-.2-.4-.2-.7-.2.4-1.1.1-.8 1.1l.1.1c-.7.9-1.6-.5-2.3-.1v-.3c-.4.3-1 .2-1.3.8-.1 0-.3-.5-.3-.9-.3.2-.4.6-.9.1.3-.5-.1-.5.3-.4-.4-.3-.5-.7-1 .1.2-.8-.3-1-.5-.7l.3.5c-.2.1-.4 0-.6 0l.1-1c-.9-1.2-1.6 2.1-2.3 0-.2.7.5.5.3 1.3-.4-.1-.8-1.6-1-1.6-.6-.6-.5 1.5-1.1 1.1.1.4.1 1.3-.3 1.6-.4-.1-.5-1.5-.2-1.8.1 0 .1.1.1.2.1-.1.3-.3.1-.7l-.1.4c-.2-.4-.8-.3-.6-.9-.3.3-.1.6.1.8-.5-.5-.8 0-1.4-.4.1.2.2.6.1.6-.8-.4-.4.7-.9.8-.3-.5.1-1.3-.4-.8-.3-.4-.1-.9.1-1.2-.5.7-.9-.5-1.2-.6l.3-.3c-.2.2-.3.2-.4.2l.1.7c-.2-.1-.3-.1-.3-.4-.2.5.1 1.2-.2 1.8-.2-.4-.6.4-.7-.6.6.3-.1-.9.5-1.1-.1.1-.2.1-.4 0 0-.1 0-.2.1-.2-.6-.8-.3 1.1-.9 1 .1-.5-.1-1-.3-.9.3 0 .1.9-.1 1.3-.4-.4-.4.3-.7.3l.2.2c-.1.5-.3.5-.6.6 0-.4.3-.3.2-.5-.3.9-.7-1-1.2-.3l-.2-1.2c-.5.7-.5-.7-1.1-.2.2.7.2.5-.2 1.2l.9-.5-.6 1c.3 0 .5-.4.7-.3-.3.6-.2.4-.1 1-.4-1.1-.7.6-1.1-.1v-1.8c-.6-.8-1.1.9-1.9.5l.3.3c-.1.7-.5.1-.8.4 0-.6-.1-.8-.2-1.2 0 .4-.6 0-.7 1.1l-.4-.8c-.6-.3-.7 1.7-1.4 1.5.2-.6-.1-1.1.3-1.5-.2 0-.4-.1-.4.3-.1-.4-.6.8-.8.2-.1.3-.1.9-.3.8v-.3c0 .3-.4.4-.2 1.1-.6-1.8-1.8.1-2.3-1.5-.5.2-1 .4-1.4.4 0-.2 0-.3.1-.2-.6-.6-.3 1.7-1 1.1-.3-1 .3-.5.1-.9-.1-1.9-.8.3-1.2-.9l.1-.1c-.3-.7-.8.7-1.4.6v-.3c-.4 1-1.1 1.3-1.6 1.6.2-.8.2-.4.1-1.2-.2.1.1 1.2-.4 1.5-.2-.4-.5-.8-.5-1.6h.4c-.2-1.1-.6 0-.8-.1v-.5c-.7.2-.7 1.3-1.4 1.2l.1.4c-.4 1.2-.3-.7-.7.2l-.1-1.2c-.3.3-.9 1.1-1.4 1.4.3-.9.8-1.3 1.2-1.8-.3 0-.9.1-1 .7.1-.1.2-.4.3-.2-.3.9-.7 1.4-1.3 1.4.1-2.3-1.3-.6-1.7-2.4-.9.8-1.8-.4-2.9-.2.4 1.8-.3.1-.2 1.9-.2.1-.3.1-.4 0l-.8-1.1c-.2-.5.2-.4.2-.8-.5-.1-.2-.8-.6-1.3.1.7-.2.9-.5.7l.4.8c-.8 1-.7-1.5-1.4-.6l.2-.6c-.4.3-1.4 0-1.8 1.5-.1-.2-.2-.7 0-.8-.9-.2-2.1 1.6-2.8.7l.1-.4c-.2.1-.3.8-.5.4 0-.2.1-.4 0-.5-.1.2-.5.8-.7.5l.2-.5c-.9-.6-1.4 1.2-2.2 1.5 0-1.3-.7-1.7-1.1-2v-.2c-1.1-.2-1.8 1.1-2.8 1.6-.6-1.4-2.1-.6-3.1-1.4.2.2 0 1-.2 1.2-.2-.3-.6.9-.6-.3h.1c-.2-1.2-.6-.9-1-.9l-.1 1.6c-1-2.3-2.5.8-3.1-1.2-.2.4-.5.4-.8.8v-.8c-.6-.2-1-.3-1.8-.1l.2-.6c-.5-.1-.6 2.4-1 2.5l-.1-1.3c-.8 0-1.6-1.1-2.4.1 0-.2 0-.6.2-.6-.4 0-1.4-.9-1.3.9 0-1.1-.8-.1-1.2.4l.1-.8c-.4 1.1-.4 1.4-.9 1.7-.1-.1-.1-.7.1-.5-.4-.4-.3.8-.8.3l.2-.5c-.4-.1-.4.2-.6.8-.3.3-.8-.2-.8-1-.1.5-.3 1.1-.5.9 0-.3.1-.5.1-.5l-1.5.2c0-.3 0-.4-.1-.5.5 0 1 .1.9.1 0-.8-.4-.9-.1-2-.4.6-1 1.8-1.4 1.5 0-.1 0-.1-.1-.3v-.1c-.1-.1-.2 0-.3.1-.1-.1-.2-.2-.4-.2-.1-.6-.5-.3-.7-.4 0 .8-.3.7 0 1.4 0-.1 0-.1.2-.1 0 0 .1 0 .1-.1v.1c.1 0 .3 0 .5-.1-.2.4-.4.8-.6.3-.1.5-.2 1.1-.3 1.4-.3-1.2-.9-1.8-1-2.5-.7.5-1.6.3-2 1.9-.2.2-.2-.5-.3-.7.1-.2.2-.1.3-.4-.4.4-1.1.2-1.2 1.3-.5-.5.3-1-.4-.8l.1-.3c-1.3-1.8-2.1 2.8-3.5.6.1.1.1.2.2.4-1.6-1-3.4.9-5-.6-.5-.3-.5.4-.8.9l-.1-.9-.5 1c-.7.8-1.2-2.2-2-.8l.1.6c-.3-.1-1 .4-.9-.3 0 .1-.1.6-.2.3v-.5l-.8.8c-.6-.3.1-1.9-.8-2-.3.2-.9 1.4-.8 1.7.1 0 .3.3.3.8l-.3.2c-.1 1.4-.3 2.8.4 3.8l.5-.9.2.7h-.4c.2.6.4.1.6-.3 0 .4.1.6.2.7l.5-1.3c.1.5-.2 1.1.1 1.4.2-.6-.2-1.2.2-1.6.2.6.2 1.2.4.6 0 .4 0 .6-.1.7.2-.4.7-.2.8-.9.2.8.8-.2.8 1.1.1-.3.4-1 .7-1.1-.4 1.6.9.1.7 1.8.3-1.4 1.1-.6 1.7-1.4 0 .1-.1.3-.1.3.3.1.4.5.6.8 0-1.2.5-1.4.8-2.2.4 1.1-.2 1.4-.1 2.5 0-1 .7-1 .5-1.7.3.7.2.3.4 1.3.1-1.5.3-.2.5-1.2.4.7.1 1.4.6.9.6.4.2.9.2.9zm10.9-2.5c-.1 0-.2.1-.2.1.1-.1.1-.1.2-.1zm1-.1h-.4c0-.3 0-.6.1-.6-.1.2.1.4.3.6zm-2-5.8c.1-.1.2 0 .2.2-.1 0-.1 0-.3.1v.1c.1-.1.1-.3.1-.4zM390.6 256c-.1 0-.1.1 0 0v.3-.3zM473.7 257.3v.1-.1zM405.4 262.4v-.3l-.1.2zM478.7 260.2c0 .1 0 .2.1.2 0-.1 0-.2-.1-.2zM480.9 260.3l.3.3-.3-.3zM482.6 260.8v-.4.4zM455.9 261.8zM463.9 259.8c-.1.2-.2.3-.3.4.2 0 .3.1.3-.4zM447.1 262.8zM463.2 260.2c.1.2.3.1.4 0-.1-.1-.2-.2-.4 0zM489.9 261.1c.1 0 .1-.1.1-.1l-.1.1zM490 261zM490.2 260.7l-.2.2c.1 0 .2.1.2-.2zM487.7 260.8v.3c-.1-.1 0-.2 0-.3zM487 260.8c.2.1.4.7.6.5v-.2c-.1.4-.5-.8-.6-.3zM484.2 257.1l.6.2c-.1-.3-.2-.8 0-.8-.8-1 .1.7-.6.6zM482.4 256.6c.3-.2 0-.5 0-.7-.2.3-.2.4 0 .7zM469.7 256.6v-.8c-.2.1.1.3 0 .8zM467.3 260.6l.2.4.2-.7zM465.9 255.1l.1-.1-.4.3zM444.6 255.4l.1.9c.1-.2.2-1.2-.1-.9zM435.4 256.3c-.1-.5-.4-.8-.5-.3.2.1.4.4.5.3zM407.9 254.8l.1-.3-.3.2zM491.9 308.5c.1-.3 0-.8-.1-.7l-.1 1 .2-.3zM490.8 306.7c-.2.5-.4 1.3-.3 2.2.2-1 .3-.6.5-1.7.2-.1.3.3.3.7.1-.3.3.2.4-.4-.2-.8-.5-.8-.8-.2-.2-.2-.2-.4-.1-.6zM473.6 305.1l.1.1c-.1 0-.1 0-.1-.1zM462.9 304.6c.1 0 .1-.1.1-.2l-.1.2zM461.1 303.5s.1 0 .1.1c0-.1-.1-.2-.1-.1zM473.6 305.1l-.3-.3c0 .4.1.3.3.3zM488.4 309.1c.1 0 .1-.1.2-.3l-.1.1c-.1.1-.1.1-.1.2zM478.3 304.3l.2-.4-.2.4zM481.9 304.2c-.1 0-.1.8-.1 1.2 0-.3.1-.5.2-.6-.1-.2-.1-.4-.1-.6zM487.6 305.7l.1-.1s-.1 0-.1.1zM475.7 304.2v-.3c-.1.1 0 .2 0 .3zM374.9 310.5v-.2.2zM370.7 306.3c.1-.2.1-.4.1-.5l-.1.5zM457.8 302.4zM427.2 303c.3.8-.6 1 0 1.8-.1-.3.5-1.3 0-1.8zM488.3 309h-.1.1zM427.2 304.9zM450.1 302.9c0 .1 0 .3.1.4 0-.1 0-.2-.1-.4zM455.8 304.1l-.1-.1c0 .1.1.1.1.1zM447.1 304.1c-.1-.1-.1-.2-.2-.1v.1c.1-.1.2-.1.2 0zM444.1 304.1c0 .1 0 .1.1.2h.1l-.2-.2zM384.3 310.1c-.1-.2-.1-.5-.1-.8 0 .6-.5.8.1.8zM488.4 308.6c0 .2 0 .3-.1.4h.1v-.4zM447 310.8l-.5-.1.5.1zM406.4 310l-.1.1c.1 0 .1 0 .1-.1zM445.1 310.8c-.1-.3-.2-.5-.3-.6 0 .1 0 .1-.1.2l.4.4zM384.2 309.3zM380.9 311.3c.5 0 .2-1.1.3-1.7.6-.3.3.8.4 1.4.3-.3.6-1.3.9-1.3 0 .2.1.2 0 .5.4-.9 1.1 0 1.5-1.1 0 .1 0 .2.1.3-.1-.6-.1-1.1-.1-1.5.2 0 .4-.7.5 0-.1 0-.1.3-.2.5l.2-.3c.2 1-.3.4-.3 1.1.4-.3.9-1.2 1.3-.9.1 1-.8.3-.3 1.2l-.5-.4c.4 1.6-.3-.1 0 1.6l1.4-.2c.2-.6 0-.8.1-1.4.9-1 .7 2.6 1.4 1.2.2-.7.3-2 .7-1.3l-.2 1.2c.6.1.4-1.7 1-.9-.1.5-.5.4-.4.5.4.9.3-.7.6-.7l.1 1c.7-.2 1.4-.9 2.2-1.1 0 .3-.2.6 0 .9 1-.5 2.1.1 3 .7l.4-.9c.1 0 .2.4.1.6.4.3 0-.6.2-.9.2-.1.3.5.1.8.6-.7 1.8-1.6 2.5-.7l-.1.3c.5.4.6-1.8 1.1-1l-.1.2c1.1.4 2.4-.4 3.3.9.2-1.3 1.1.6 1.2-1.2.6.9.5 1.2 1.4 1.8.2.1.4-1.1.7-1.3v.9l.4-1 .2 1.1.3-.2c-.1-.1-.2-.4-.2-.7.4-.4 1.1.6 1.1 1.1l1-.8c0 .4-.2.5-.3.7.6-.9.1 1 .6.1-.1-.2 0-.6 0-.7.3.6.8.6 1.3.3l-.1.6c.8.2 1.6-.3 2.5-.3-.3-.3-.2-1.4 0-1.5l.1 1c.2-.6-.3-.4.1-1.1.3.1.2 1.1 0 1.4l.4-.3c0 .3-.1.4-.1.8.2-.6.7 1 .9-.1v.3c.9 0 1.3-.3 2-.4 0-.8.3-.7.5-1.3.5.3 1.1.9 1.7.9.4-.4.1-.7.3-1.2 0 .8.7.7.3 1.2.8-.1 1-.2 1.9-.8-.1-.3-.2-.5-.2-.7.2-.1.4.3.4.7v.1c1.1-1.2 2.5 2.2 3.3.6v.1l.9-.8c.4.1-.2.6.1 1.1 1-1.3 1.5.2 2.3-.7.6 2.3 2.2-.2 3 1.3v-.5c.2-.5.3.3.4.4 0-.4-.2-.5-.1-.8 1.8-.6 3.7.8 5.5 1.3.7.1.4-2.8 1.2-1.5l-.2 1c1.4-1.2 2.8 0 4.1-1-.1.2-.1.5-.2.5.3.7 1 0 1-.6l.2.8c.3.4.7-.9.9-.2l-.1.3c.2-.3.9.1.7-.7.5.4 1-.4 1.4.1.3-.9.9.4.9-.9 0 1.4.9 1.1 1.2.5-.1.4.3.4.2 1 .4 0 .7-.3.6-1 .7 1.6 1.3-1.3 1.7.8 1.1-.7 2.1-1.2 3-1.5 0 1.4-1.1.1-1 1.6.9-.6 1.4-1.7 2.3-1.4.2.2-.1.6-.2.8.9-.6 1.8.1 2.6-.6 0 .1-.1.3-.2.4.2 0 .4.2.4-.4l-.2.2c-.3-.9.6-1.9.7-2.3-.3 1.8.8.4.4 2.7.1-.1.2-.4.2-.8.2.1.2.4 0 .8.6-.3.4-1 .9-1 0 .3-.1.4-.2.8.3-.6.5-1.2 1-.9 0 .2 0 .4-.1.4.8-.1 1.3-1.5 2.1-1-.2 1.3.3.4.3 1.5l.4-.3-.2-.5c.4 0 .7-.8 1.1-.4l-.3.5.7-.2-.4-.4c.4-.6 0-1.4.5-1.1-.1.1.4 0 .6.7.2-.4.4-.7.7-.5.1.4-.1 1.2 0 1.5.2-.9.9-.3 1.2-1.3-.1.2-.1.8-.1.9l.2-.8c.2.2.2.4.2.8.5.1-.2-1.4.5-.8l-.1.3c.6.3 1.2-.5 1.8-.1.2 1.1-.5.3-.3 1.2.9-.2 1.8-1.4 2.6-1.1l-.2-.1c.1-1.6.6.8 1 0-.1.1-.1.9-.1.7.6.3 1.2-.4 2-.9l-.1.4c.3.4.9.2 1.2.4.1-.4.3-.3.2-.9 1.1 2.3 2.1-1.2 3.1.7-.1 0-.3.4-.2.4l.8-.4c-.1-.7-.1-.4-.3-1 .1-.4.3-.7.6-.7-.4.5 0 1.1.2 1.5v-.7c.4 1.2.1-1.4.7-.6v.4c.2-.2.4-.7.7-.6.1.8-.2.4-.3 1 .3 0 .7-1.5 1-.7l-.5.4c.3.9.4.7.6.9l.6.4-.1-.3c.4-2.1.9-.4 1.4-1.8-.6 1.3-.1.8-.1 1.7.1.3.4.5.3.8.3-.7.5.6.8-.5 0 .3.3 0 .2.8.4-.2-.1-.5-.1-.9.5-1 1.3 1.2 2.1-.2l1.4-2c.2.5-.2 1.1-.2 1.1.3.4.6.4.9 0-.1.3 0 .5.1.8.3-.1.2-1.1.5-.6-.1.3-.1.8-.3 1.2l.9-1.1c.1.5-.2.8-.3 1.1.4-.2.9-.5 1-1.3l-.2-.3c.1 0 .1.7 0 .8-.3.6-.4-.3-.5-.6l.2-.2c-.2-1.7-.9.3-1.3.2l.2-1.2-.5 1c-.1-.3-.2-1 .1-1.2l-.6-.2v-.2l-.3.4c.1-.3-.1-.9.1-.7-.6-.7-.9.9-1.1 0v-.1c-.8.4-.1.9-.7 2l-.4-2.3-.1.9c-.1 0-.2-.1-.2-.5-.3.6.1.4-.1 1-.4-.8-1.1.4-1.2-1.1-.1.7.4.5 0 1-.1-1.6-.5.3-.8-.5.1-.8.4-.4.1-1.1-.2 1.4-.7-.3-1 0 0 1.1-.7.5-1.2.8 0-.4-.9-.6-1.4-1v-.2c-.1 1.1-.6.9-.9 1.1 0-.7.1-.9.3-1.2h-.3c-.1.4-.2.5-.4.7l.1-.8c-.4 0-.9 1-1.5.4 0 .8.5 2.1-.1 2.7 0-.4 0-1.1.1-1.3-.1.1-.2.3-.3.2l.2-.7c-.3-.3-.1.6-.3.5 0-.6-.2-.4-.1-.9.1-.1.2.2.3 0-.2-.1-.5-.5-.6-.9 0 .3 0 .8-.2.9-.4 0-.2-.7-.4-1-.1.4-.4 0-.4.9-.1 0-.2-.4-.2-.7-.2.4-1.1.1-.8 1.1l.1.1c-.7.9-1.6-.5-2.3-.1v-.3c-.4.3-1 .2-1.3.8-.1 0-.3-.5-.3-.9-.3.2-.4.6-.9.1.3-.5-.1-.5.3-.4-.4-.3-.5-.7-1 .1.2-.8-.3-1-.5-.7l.3.5c-.2.1-.4 0-.6 0l.1-1c-.9-1.2-1.6 2.1-2.3 0-.2.7.5.5.3 1.3-.4-.1-.8-1.6-1-1.6-.6-.6-.5 1.5-1.1 1.1.1.4.1 1.3-.3 1.6-.4-.1-.5-1.5-.2-1.8.1 0 .1.1.1.2.1-.1.3-.3.1-.7l-.1.4c-.2-.4-.8-.3-.6-.9-.3.3-.1.6.1.8-.5-.5-.8 0-1.4-.4.1.2.2.6.1.6-.8-.4-.4.7-.9.8-.3-.5.1-1.3-.4-.8-.3-.4-.1-.9.1-1.2-.5.7-.9-.5-1.2-.6l.3-.3c-.2.2-.3.2-.4.2l.1.7c-.2-.1-.3-.1-.3-.4-.2.5.1 1.2-.2 1.8-.2-.4-.6.4-.7-.6.6.3-.1-.9.5-1.1-.1.1-.2.1-.4 0 0-.1 0-.2.1-.2-.6-.8-.3 1.1-.9 1 .1-.5-.1-1-.3-.9.3 0 .1.9-.1 1.3-.4-.4-.4.3-.7.3l.2.2c-.1.5-.3.5-.6.6 0-.4.3-.3.2-.5-.3.9-.7-1-1.2-.3l-.2-1.2c-.5.7-.5-.7-1.1-.2.2.7.2.5-.2 1.2l.9-.5-.6 1c.3 0 .5-.4.7-.3-.3.6-.2.4-.1 1-.4-1.1-.7.6-1.1-.1v-1.8c-.6-.8-1.1.9-1.9.5l.3.3c-.1.7-.5.1-.8.4 0-.6-.1-.8-.2-1.2 0 .4-.6 0-.7 1.1l-.4-.8c-.6-.3-.7 1.7-1.4 1.5.2-.6-.1-1.1.3-1.5-.2 0-.4-.1-.4.3-.1-.4-.6.8-.8.2-.1.3-.1.9-.3.8v-.3c0 .3-.4.4-.2 1.1-.6-1.8-1.8.1-2.3-1.5-.5.2-1 .4-1.4.4 0-.2 0-.3.1-.2-.6-.6-.3 1.7-1 1.1-.3-1 .3-.5.1-.9-.1-1.9-.8.3-1.2-.9l.1-.1c-.3-.7-.8.7-1.4.6v-.3c-.4 1-1.1 1.3-1.6 1.6.2-.8.2-.4.1-1.2-.2.1.1 1.2-.4 1.5-.2-.4-.5-.8-.5-1.6h.4c-.2-1.1-.6 0-.8-.1v-.5c-.7.2-.7 1.3-1.4 1.2l.1.4c-.4 1.2-.3-.7-.7.2l-.1-1.2c-.3.3-.9 1.1-1.4 1.4.3-.9.8-1.3 1.2-1.8-.3 0-.9.1-1 .7.1-.1.2-.4.3-.2-.3.9-.7 1.4-1.3 1.4.1-2.3-1.3-.6-1.7-2.4-.9.8-1.8-.4-2.9-.2.4 1.8-.3.1-.2 1.9-.2.1-.3.1-.4 0l-.8-1.1c-.2-.5.2-.4.2-.8-.5-.1-.2-.8-.6-1.3.1.7-.2.9-.5.7l.4.8c-.8 1-.7-1.5-1.4-.6l.2-.6c-.4.3-1.4 0-1.8 1.5-.1-.2-.2-.7 0-.8-.9-.2-2.1 1.6-2.8.7l.1-.4c-.2.1-.3.8-.5.4 0-.2.1-.4 0-.5-.1.2-.5.8-.7.5l.2-.5c-.9-.6-1.4 1.2-2.2 1.5 0-1.3-.7-1.7-1.1-2v-.2c-1.1-.2-1.8 1.1-2.8 1.6-.6-1.4-2.1-.6-3.1-1.4.2.2 0 1-.2 1.2-.2-.3-.6.9-.6-.3h.1c-.2-1.2-.6-.9-1-.9l-.1 1.6c-1-2.3-2.5.8-3.1-1.2-.2.4-.5.4-.8.8v-.8c-.6-.2-1-.3-1.8-.1l.2-.6c-.5-.1-.6 2.4-1 2.5l-.1-1.3c-.8 0-1.6-1.1-2.4.1 0-.2 0-.6.2-.6-.4 0-1.4-.9-1.3.9 0-1.1-.8-.1-1.2.4l.1-.8c-.4 1.1-.4 1.4-.9 1.7-.1-.1-.1-.7.1-.5-.4-.4-.3.8-.8.3l.2-.5c-.4-.1-.4.2-.6.8-.3.3-.8-.2-.8-1-.1.5-.3 1.1-.5.9 0-.3.1-.5.1-.5l-1.5.2c0-.3 0-.4-.1-.5.5 0 1 .1.9.1 0-.8-.4-.9-.1-2-.4.6-1 1.8-1.4 1.5 0-.1 0-.1-.1-.3v-.1c-.1-.1-.2 0-.3.1-.1-.1-.2-.2-.4-.2-.1-.6-.5-.3-.7-.4 0 .8-.3.7 0 1.4 0-.1 0-.1.2-.1 0 0 .1 0 .1-.1v.1c.1 0 .3 0 .5-.1-.2.4-.4.8-.6.3-.1.5-.2 1.1-.3 1.4-.3-1.2-.9-1.8-1-2.5-.7.5-1.6.3-2 1.9-.2.2-.2-.5-.3-.7.1-.2.2-.1.3-.4-.4.4-1.1.2-1.2 1.3-.5-.5.3-1-.4-.8l.1-.3c-1.3-1.8-2.1 2.8-3.5.6.1.1.1.2.2.4-1.6-1-3.4.9-5-.6-.5-.3-.5.4-.8.9l-.1-.9-.5 1c-.7.8-1.2-2.2-2-.8l.1.6c-.3-.1-1 .4-.9-.3 0 .1-.1.6-.2.3v-.5l-.8.8c-.6-.3.1-1.9-.8-2-.3.2-.9 1.4-.8 1.7.1 0 .3.3.3.8l-.3.2c-.1 1.4-.3 2.8.4 3.8l.5-.9.2.7h-.4c.2.6.4.1.6-.3 0 .4.1.6.2.7l.5-1.3c.1.5-.2 1.1.1 1.4.2-.6-.2-1.2.2-1.6.2.6.2 1.2.4.6 0 .4 0 .6-.1.7.2-.4.7-.2.8-.9.2.8.8-.2.8 1.1.1-.3.4-1 .7-1.1-.4 1.6.9.1.7 1.8.3-1.4 1.1-.6 1.7-1.4 0 .1-.1.3-.1.3.3.1.4.5.6.8 0-1.2.5-1.4.8-2.2.4 1.1-.2 1.4-.1 2.5 0-1 .7-1 .5-1.7.3.7.2.3.4 1.3.1-1.5.3-.2.5-1.2.4.7.1 1.4.6.9.6.4.2.9.2.9zm10.9-2.5c-.1 0-.2.1-.2.1.1-.1.1-.1.2-.1zm1 0h-.4c0-.3 0-.6.1-.6-.1.2.1.3.3.6zm-2-5.9c.1-.1.2 0 .2.2-.1 0-.1 0-.3.1v.1c.1-.1.1-.3.1-.4zM390.6 304c-.1 0-.1.1 0 0v.3-.3zM473.7 305.3v.1-.1zM405.4 310.4v-.2l-.1.2zM478.7 308.2c0 .1 0 .2.1.2 0-.1 0-.1-.1-.2zM480.9 308.4l.3.3c-.1-.2-.2-.3-.3-.3zM482.6 308.8v-.4.4zM455.9 309.8zM463.9 307.8c-.1.2-.2.3-.3.4.2.1.3.1.3-.4zM447.1 310.8zM463.2 308.2c.1.2.3.1.4 0-.1-.1-.2-.1-.4 0zM489.9 309.2c.1 0 .1-.1.1-.1l-.1.1zM490 309.1zM490.2 308.8l-.2.2c.1 0 .2 0 .2-.2zM487.7 308.8v.3c-.1-.1 0-.2 0-.3zM487 308.9c.2.1.4.7.6.5v-.2c-.1.3-.5-.9-.6-.3zM484.2 305.1l.6.2c-.1-.3-.2-.8 0-.8-.8-1 .1.7-.6.6zM482.4 304.6c.3-.2 0-.5 0-.7-.2.3-.2.4 0 .7zM469.7 304.6v-.8.8zM467.3 308.6l.2.5.2-.8zM465.9 303.1l.1-.1-.4.3zM444.6 303.4l.1.9c.1-.1.2-1.2-.1-.9zM435.4 304.3c-.1-.5-.4-.8-.5-.3.2.1.4.5.5.3zM407.9 302.8l.1-.3-.3.2zM491.9 352.7c.1-.3 0-.8-.1-.7l-.1 1 .2-.3zM490.8 350.9c-.2.5-.4 1.3-.3 2.2.2-1 .3-.6.5-1.7.2-.1.3.3.3.7.1-.3.3.2.4-.4-.2-.8-.5-.8-.8-.2-.2-.2-.2-.4-.1-.6zM473.6 349.3l.1.1c-.1 0-.1 0-.1-.1zM462.9 348.8c.1 0 .1-.1.1-.2 0 0-.1.1-.1.2zM461.1 347.7s.1 0 .1.1c0-.1-.1-.2-.1-.1zM473.6 349.3l-.3-.3c0 .3.1.3.3.3zM488.4 353.3c.1 0 .1-.1.2-.3l-.1.1c-.1.1-.1.1-.1.2zM478.3 348.5l.2-.4-.2.4zM481.9 348.4c-.1 0-.1.8-.1 1.2 0-.3.1-.5.2-.6-.1-.2-.1-.4-.1-.6zM487.6 349.9l.1-.1s-.1 0-.1.1zM475.7 348.3v-.3c-.1.2 0 .3 0 .3zM374.9 354.7v-.2.2zM370.7 350.5c.1-.2.1-.4.1-.5l-.1.5zM457.8 346.6zM427.2 347.2c.3.8-.6 1 0 1.8-.1-.3.5-1.3 0-1.8zM488.3 353.2h-.1.1zM427.2 349zM450.1 347.1c0 .1 0 .3.1.4 0-.1 0-.2-.1-.4zM455.8 348.3l-.1-.1c0 .1.1.1.1.1zM447.1 348.3c-.1-.1-.1-.2-.2-.1v.1c.1-.1.2-.1.2 0zM444.1 348.3c0 .1 0 .1.1.2h.1l-.2-.2zM384.3 354.3c-.1-.2-.1-.5-.1-.8 0 .6-.5.8.1.8zM488.4 352.8c0 .2 0 .3-.1.4h.1v-.4zM447 355l-.5-.1.5.1zM406.4 354.2l-.1.1c.1 0 .1 0 .1-.1zM445.1 355c-.1-.3-.2-.5-.3-.6 0 .1 0 .1-.1.2l.4.4zM384.2 353.5zM380.9 355.5c.5 0 .2-1.1.3-1.7.6-.3.3.8.4 1.4.3-.3.6-1.3.9-1.3 0 .2.1.2 0 .5.4-.9 1.1 0 1.5-1.1 0 .1 0 .2.1.3-.1-.6-.1-1.1-.1-1.5.2 0 .4-.7.5 0-.1 0-.1.3-.2.5l.2-.3c.2 1-.3.4-.3 1.1.4-.3.9-1.2 1.3-.9.1 1-.8.3-.3 1.2l-.5-.4c.4 1.6-.3-.1 0 1.6l1.4-.2c.2-.6 0-.8.1-1.4.9-1 .7 2.6 1.4 1.2.2-.7.3-2 .7-1.3l-.2 1.2c.6.1.4-1.7 1-.9-.1.5-.5.4-.4.5.4.9.3-.7.6-.7l.1 1c.7-.2 1.4-.9 2.2-1.1 0 .3-.2.6 0 .9 1-.5 2.1.1 3 .7l.4-.9c.1 0 .2.4.1.6.4.3 0-.6.2-.9.2-.1.3.5.1.8.6-.7 1.8-1.6 2.5-.7l-.1.3c.5.4.6-1.8 1.1-1l-.1.2c1.1.4 2.4-.4 3.3.9.2-1.3 1.1.6 1.2-1.2.6.9.5 1.2 1.4 1.8.2.1.4-1.1.7-1.3v.9l.4-1 .2 1.1.3-.2c-.1-.1-.2-.4-.2-.7.4-.4 1.1.6 1.1 1.1l1-.8c0 .4-.2.5-.3.7.6-.9.1 1 .6.1-.1-.2 0-.6 0-.7.3.6.8.6 1.3.3l-.1.6c.8.2 1.6-.3 2.5-.3-.3-.3-.2-1.4 0-1.5l.1 1c.2-.6-.3-.4.1-1.1.3.1.2 1.1 0 1.4l.4-.3c0 .3-.1.4-.1.8.2-.6.7 1 .9-.1v.3c.9 0 1.3-.3 2-.4 0-.8.3-.7.5-1.3.5.3 1.1.9 1.7.9.4-.4.1-.7.3-1.2 0 .8.7.7.3 1.2.8-.1 1-.2 1.9-.8-.1-.3-.2-.5-.2-.7.2-.1.4.3.4.7v.1c1.1-1.2 2.5 2.2 3.3.6v.1l.9-.8c.4.1-.2.6.1 1.1 1-1.3 1.5.2 2.3-.7.6 2.3 2.2-.2 3 1.3v-.5c.2-.5.3.3.4.4 0-.4-.2-.5-.1-.8 1.8-.6 3.7.8 5.5 1.3.7.1.4-2.8 1.2-1.5l-.2 1c1.4-1.2 2.8 0 4.1-1-.1.2-.1.5-.2.5.3.7 1 0 1-.6l.2.8c.3.4.7-.9.9-.2l-.1.3c.2-.3.9.1.7-.7.5.4 1-.4 1.4.1.3-.9.9.4.9-.9 0 1.4.9 1.1 1.2.5-.1.4.3.4.2 1 .4 0 .7-.3.6-1 .7 1.6 1.3-1.3 1.7.8 1.1-.7 2.1-1.2 3-1.5 0 1.4-1.1.1-1 1.6.9-.6 1.4-1.7 2.3-1.4.2.2-.1.6-.2.8.9-.6 1.8.1 2.6-.6 0 .1-.1.3-.2.4.2 0 .4.2.4-.4l-.2.2c-.3-.9.6-1.9.7-2.3-.3 1.8.8.4.4 2.7.1-.1.2-.4.2-.8.2.1.2.4 0 .8.6-.3.4-1 .9-1 0 .3-.1.4-.2.8.3-.6.5-1.2 1-.9 0 .2 0 .4-.1.4.8-.1 1.3-1.5 2.1-1-.2 1.3.3.4.3 1.5l.4-.3-.2-.5c.4 0 .7-.8 1.1-.4l-.3.5.7-.2-.4-.4c.4-.6 0-1.4.5-1.1-.1.1.4 0 .6.7.2-.4.4-.7.7-.5.1.4-.1 1.2 0 1.5.2-.9.9-.3 1.2-1.3-.1.2-.1.8-.1.9l.2-.8c.2.2.2.4.2.8.5.1-.2-1.4.5-.8l-.1.3c.6.3 1.2-.5 1.8-.1.2 1.1-.5.3-.3 1.2.9-.2 1.8-1.4 2.6-1.1l-.2-.1c.1-1.6.6.8 1 0-.1.1-.1.9-.1.7.6.3 1.2-.4 2-.9l-.1.4c.3.4.9.2 1.2.4.1-.4.3-.3.2-.9 1.1 2.3 2.1-1.2 3.1.7-.1 0-.3.4-.2.4l.8-.4c-.1-.7-.1-.4-.3-1 .1-.4.3-.7.6-.7-.4.5 0 1.1.2 1.5v-.7c.4 1.2.1-1.4.7-.6v.4c.2-.2.4-.7.7-.6.1.8-.2.4-.3 1 .3 0 .7-1.5 1-.7l-.5.4c.3.9.4.7.6.9l.6.4-.1-.3c.4-2.1.9-.4 1.4-1.8-.6 1.3-.1.8-.1 1.7.1.3.4.5.3.8.3-.7.5.6.8-.5 0 .3.3 0 .2.8.4-.2-.1-.5-.1-.9.5-1 1.3 1.2 2.1-.2l1.4-2c.2.5-.2 1.1-.2 1.1.3.4.6.4.9 0-.1.3 0 .5.1.8.3-.1.2-1.1.5-.6-.1.3-.1.8-.3 1.2l.9-1.1c.1.5-.2.8-.3 1.1.4-.2.9-.5 1-1.3l-.2-.3c.1 0 .1.7 0 .8-.3.6-.4-.3-.5-.6l.2-.2c-.2-1.7-.9.3-1.3.2l.2-1.2-.5 1c-.1-.3-.2-1 .1-1.2l-.6-.2v-.2l-.3.4c.1-.3-.1-.9.1-.7-.6-.7-.9.9-1.1 0v-.1c-.8.4-.1.9-.7 2l-.4-2.3-.1.9c-.1 0-.2-.1-.2-.5-.3.6.1.4-.1 1-.4-.8-1.1.4-1.2-1.1-.1.7.4.5 0 1-.1-1.6-.5.3-.8-.5.1-.8.4-.4.1-1.1-.2 1.4-.7-.3-1 0 0 1.1-.7.5-1.2.8 0-.4-.9-.6-1.4-1v-.2c-.1 1.1-.6.9-.9 1.1 0-.7.1-.9.3-1.2h-.3c-.1.4-.2.5-.4.7l.1-.8c-.4 0-.9 1-1.5.4 0 .8.5 2.1-.1 2.7 0-.4 0-1.1.1-1.3-.1.1-.2.3-.3.2l.2-.7c-.3-.3-.1.6-.3.5 0-.6-.2-.4-.1-.9.1-.1.2.2.3 0-.2-.1-.5-.5-.6-.9 0 .3 0 .8-.2.9-.4 0-.2-.7-.4-1-.1.4-.4 0-.4.9-.1 0-.2-.4-.2-.7-.2.4-1.1.1-.8 1.1l.1.1c-.7.9-1.6-.5-2.3-.1v-.3c-.4.3-1 .2-1.3.8-.1 0-.3-.5-.3-.9-.3.2-.4.6-.9.1.3-.5-.1-.5.3-.4-.4-.3-.5-.7-1 .1.2-.8-.3-1-.5-.7l.3.5c-.2.1-.4 0-.6 0l.1-1c-.9-1.2-1.6 2.1-2.3 0-.2.7.5.5.3 1.3-.4-.1-.8-1.6-1-1.6-.6-.6-.5 1.5-1.1 1.1.1.4.1 1.3-.3 1.6-.4-.1-.5-1.5-.2-1.8.1 0 .1.1.1.2.1-.1.3-.3.1-.7l-.1.4c-.2-.4-.8-.3-.6-.9-.3.3-.1.6.1.8-.5-.5-.8 0-1.4-.4.1.2.2.6.1.6-.8-.4-.4.7-.9.8-.3-.5.1-1.3-.4-.8-.3-.4-.1-.9.1-1.2-.5.7-.9-.5-1.2-.6l.3-.3c-.2.2-.3.2-.4.2l.1.7c-.2-.1-.3-.1-.3-.4-.2.5.1 1.2-.2 1.8-.2-.4-.6.4-.7-.6.6.3-.1-.9.5-1.1-.1.1-.2.1-.4 0 0-.1 0-.2.1-.2-.6-.8-.3 1.1-.9 1 .1-.5-.1-1-.3-.9.3 0 .1.9-.1 1.3-.4-.4-.4.3-.7.3l.2.2c-.1.5-.3.5-.6.6 0-.4.3-.3.2-.5-.3.9-.7-1-1.2-.3l-.2-1.2c-.5.7-.5-.7-1.1-.2.2.7.2.5-.2 1.2l.9-.5-.6 1c.3 0 .5-.4.7-.3-.3.6-.2.4-.1 1-.4-1.1-.7.6-1.1-.1v-1.8c-.6-.8-1.1.9-1.9.5l.3.3c-.1.7-.5.1-.8.4 0-.6-.1-.8-.2-1.2 0 .4-.6 0-.7 1.1l-.4-.8c-.6-.3-.7 1.7-1.4 1.5.2-.6-.1-1.1.3-1.5-.2 0-.4-.1-.4.3-.1-.4-.6.8-.8.2-.1.3-.1.9-.3.8v-.3c0 .3-.4.4-.2 1.1-.6-1.8-1.8.1-2.3-1.5-.5.2-1 .4-1.4.4 0-.2 0-.3.1-.2-.6-.6-.3 1.7-1 1.1-.3-1 .3-.5.1-.9-.1-1.9-.8.3-1.2-.9l.1-.1c-.3-.7-.8.7-1.4.6v-.3c-.4 1-1.1 1.3-1.6 1.6.2-.8.2-.4.1-1.2-.2.1.1 1.2-.4 1.5-.2-.4-.5-.8-.5-1.6h.4c-.2-1.1-.6 0-.8-.1v-.5c-.7.2-.7 1.3-1.4 1.2l.1.4c-.4 1.2-.3-.7-.7.2l-.1-1.2c-.3.3-.9 1.1-1.4 1.4.3-.9.8-1.3 1.2-1.8-.3 0-.9.1-1 .7.1-.1.2-.4.3-.2-.3.9-.7 1.4-1.3 1.4.1-2.3-1.3-.6-1.7-2.4-.9.8-1.8-.4-2.9-.2.4 1.8-.3.1-.2 1.9-.2.1-.3.1-.4 0l-.8-1.1c-.2-.5.2-.4.2-.8-.5-.1-.2-.8-.6-1.3.1.7-.2.9-.5.7l.4.8c-.8 1-.7-1.5-1.4-.6l.2-.6c-.4.3-1.4 0-1.8 1.5-.1-.2-.2-.7 0-.8-.9-.2-2.1 1.6-2.8.7l.1-.4c-.2.1-.3.8-.5.4 0-.2.1-.4 0-.5-.1.2-.5.8-.7.5l.2-.5c-.9-.6-1.4 1.2-2.2 1.5 0-1.3-.7-1.7-1.1-2v-.2c-1.1-.2-1.8 1.1-2.8 1.6-.6-1.4-2.1-.6-3.1-1.4.2.2 0 1-.2 1.2-.2-.3-.6.9-.6-.3h.1c-.2-1.2-.6-.9-1-.9l-.1 1.6c-1-2.3-2.5.8-3.1-1.2-.2.4-.5.4-.8.8v-.8c-.6-.2-1-.3-1.8-.1l.2-.6c-.5-.1-.6 2.4-1 2.5l-.1-1.3c-.8 0-1.6-1.1-2.4.1 0-.2 0-.6.2-.6-.4 0-1.4-.9-1.3.9 0-1.1-.8-.1-1.2.4l.1-.8c-.4 1.1-.4 1.4-.9 1.7-.1-.1-.1-.7.1-.5-.4-.4-.3.8-.8.3l.2-.5c-.4-.1-.4.2-.6.8-.3.3-.8-.2-.8-1-.1.5-.3 1.1-.5.9 0-.3.1-.5.1-.5l-1.5.2c0-.3 0-.4-.1-.5.5 0 1 .1.9.1 0-.8-.4-.9-.1-2-.4.6-1 1.8-1.4 1.5 0-.1 0-.1-.1-.3v-.1c-.1-.1-.2 0-.3.1-.1-.1-.2-.2-.4-.2-.1-.6-.5-.3-.7-.4 0 .8-.3.7 0 1.4 0-.1 0-.1.2-.1 0 0 .1 0 .1-.1v.1c.1 0 .3 0 .5-.1-.2.4-.4.8-.6.3-.1.5-.2 1.1-.3 1.4-.3-1.2-.9-1.8-1-2.5-.7.5-1.6.3-2 1.9-.2.2-.2-.5-.3-.7.1-.2.2-.1.3-.4-.4.4-1.1.2-1.2 1.3-.5-.5.3-1-.4-.8l.1-.3c-1.3-1.8-2.1 2.8-3.5.6.1.1.1.2.2.4-1.6-1-3.4.9-5-.6-.5-.3-.5.4-.8.9l-.1-.9-.5 1c-.7.8-1.2-2.2-2-.8l.1.6c-.3-.1-1 .4-.9-.3 0 .1-.1.6-.2.3v-.5l-.8.8c-.6-.3.1-1.9-.8-2-.3.2-.9 1.4-.8 1.7.1 0 .3.3.3.8l-.3.2c-.1 1.4-.3 2.8.4 3.8l.5-.9.2.7h-.4c.2.6.4.1.6-.3 0 .4.1.6.2.7l.5-1.3c.1.5-.2 1.1.1 1.4.2-.6-.2-1.2.2-1.6.2.6.2 1.2.4.6 0 .4 0 .6-.1.7.2-.4.7-.2.8-.9.2.8.8-.2.8 1.1.1-.3.4-1 .7-1.1-.4 1.6.9.1.7 1.8.3-1.4 1.1-.6 1.7-1.4 0 .1-.1.3-.1.3.3.1.4.5.6.8 0-1.2.5-1.4.8-2.2.4 1.1-.2 1.4-.1 2.5 0-1 .7-1 .5-1.7.3.7.2.3.4 1.3.1-1.5.3-.2.5-1.2.4.7.1 1.4.6.9.6.4.2.9.2.9zm10.9-2.5c-.1 0-.2.1-.2.1.1-.1.1-.1.2-.1zm1 0h-.4c0-.3 0-.6.1-.6-.1.1.1.3.3.6zm-2-5.9c.1-.1.2 0 .2.2-.1 0-.1 0-.3.1v.1c.1-.1.1-.3.1-.4zM390.6 348.2c-.1 0-.1.1 0 0v.3-.3zM473.7 349.5v.1-.1zM405.4 354.6v-.2l-.1.1zM478.7 352.4c0 .1 0 .2.1.2 0-.1 0-.1-.1-.2zM480.9 352.6l.3.3c-.1-.2-.2-.3-.3-.3zM482.6 353v-.4.4zM455.9 354zM463.9 352c-.1.2-.2.3-.3.4.2.1.3.1.3-.4zM447.1 355zM463.2 352.4c.1.2.3.1.4 0-.1-.1-.2-.1-.4 0zM489.9 353.4c.1 0 .1-.1.1-.1l-.1.1zM490 353.3zM490.2 352.9l-.2.2c.1.1.2.1.2-.2zM487.7 353v.3c-.1-.1 0-.2 0-.3zM487 353.1c.2.1.4.7.6.5v-.2c-.1.3-.5-.9-.6-.3zM484.2 349.3l.6.2c-.1-.3-.2-.8 0-.8-.8-1 .1.7-.6.6zM482.4 348.8c.3-.2 0-.5 0-.7-.2.3-.2.4 0 .7zM469.7 348.8v-.8c-.2.1.1.3 0 .8zM467.3 352.8l.2.4.2-.7zM465.9 347.3l.1-.1-.4.3zM444.6 347.6l.1.9c.1-.2.2-1.2-.1-.9zM435.4 348.5c-.1-.5-.4-.8-.5-.3.2.1.4.5.5.3zM407.9 347l.1-.3-.3.2zM491.9 397.6c.1-.3 0-.8-.1-.7l-.1 1 .2-.3zM490.8 395.8c-.2.5-.4 1.3-.3 2.2.2-1 .3-.6.5-1.7.2-.1.3.3.3.7.1-.3.3.2.4-.4-.2-.8-.5-.8-.8-.2-.2-.2-.2-.4-.1-.6zM473.6 394.2l.1.1c-.1 0-.1-.1-.1-.1zM462.9 393.7c.1 0 .1-.1.1-.2 0 0-.1.1-.1.2zM461.1 392.6s.1 0 .1.1c0-.1-.1-.2-.1-.1zM473.6 394.2l-.3-.3c0 .3.1.3.3.3zM488.4 398.2c.1 0 .1-.1.2-.3l-.1.1c-.1.1-.1.1-.1.2zM478.3 393.4l.2-.4-.2.4zM481.9 393.3c-.1 0-.1.8-.1 1.2 0-.3.1-.5.2-.6-.1-.2-.1-.4-.1-.6zM487.6 394.8l.1-.1s-.1 0-.1.1zM475.7 393.2v-.3c-.1.1 0 .2 0 .3zM374.9 399.6v-.1.1zM370.7 395.4c.1-.2.1-.4.1-.5l-.1.5zM457.8 391.5c.1-.1 0-.1 0 0zM427.2 392.1c.3.8-.6 1 0 1.8-.1-.3.5-1.3 0-1.8zM488.3 398.1h-.1.1zM427.2 393.9zM450.1 392c0 .1 0 .3.1.4 0-.1 0-.2-.1-.4zM455.8 393.2l-.1-.1c0 .1.1.1.1.1zM447.1 393.2c-.1-.1-.1-.2-.2-.1v.1c.1-.1.2-.1.2 0zM444.1 393.2c0 .1 0 .1.1.2h.1l-.2-.2zM384.3 399.2c-.1-.2-.1-.5-.1-.8 0 .6-.5.8.1.8zM488.4 397.7c0 .2 0 .3-.1.4h.1v-.4zM447 399.9l-.5-.1.5.1zM406.4 399.1l-.1.1c.1 0 .1-.1.1-.1zM445.1 399.9c-.1-.3-.2-.5-.3-.6 0 .1 0 .1-.1.2l.4.4zM384.2 398.4zM380.9 400.4c.5 0 .2-1.1.3-1.7.6-.3.3.8.4 1.4.3-.3.6-1.3.9-1.3 0 .2.1.2 0 .5.4-.9 1.1 0 1.5-1.1 0 .1 0 .2.1.3-.1-.6-.1-1.1-.1-1.5.2 0 .4-.7.5 0-.1 0-.1.3-.2.5l.2-.3c.2 1-.3.4-.3 1.1.4-.3.9-1.2 1.3-.9.1 1-.8.3-.3 1.2l-.5-.4c.4 1.6-.3-.1 0 1.6l1.4-.2c.2-.6 0-.8.1-1.4.9-1 .7 2.6 1.4 1.2.2-.7.3-2 .7-1.3l-.2 1.2c.6.1.4-1.7 1-.9-.1.5-.5.4-.4.5.4.9.3-.7.6-.7l.1 1c.7-.2 1.4-.9 2.2-1.1 0 .3-.2.6 0 .9 1-.5 2.1.1 3 .7l.4-.9c.1 0 .2.4.1.6.4.3 0-.6.2-.9.2-.1.3.5.1.8.6-.7 1.8-1.6 2.5-.7l-.1.3c.5.4.6-1.8 1.1-1l-.1.2c1.1.4 2.4-.4 3.3.9.2-1.3 1.1.6 1.2-1.2.6.9.5 1.2 1.4 1.8.2.1.4-1.1.7-1.3v.9l.4-1 .2 1.1.3-.2c-.1-.1-.2-.4-.2-.7.4-.4 1.1.6 1.1 1.1l1-.8c0 .4-.2.5-.3.7.6-.9.1 1 .6.1-.1-.2 0-.6 0-.7.3.6.8.6 1.3.3l-.1.6c.8.2 1.6-.3 2.5-.3-.3-.3-.2-1.4 0-1.5l.1 1c.2-.6-.3-.4.1-1.1.3.1.2 1.1 0 1.4l.4-.3c0 .3-.1.4-.1.8.2-.6.7 1 .9-.1v.3c.9 0 1.3-.3 2-.4 0-.8.3-.7.5-1.3.5.3 1.1.9 1.7.9.4-.4.1-.7.3-1.2 0 .8.7.7.3 1.2.8-.1 1-.2 1.9-.8-.1-.3-.2-.5-.2-.7.2-.1.4.3.4.7v.1c1.1-1.2 2.5 2.2 3.3.6v.1l.9-.8c.4.1-.2.6.1 1.1 1-1.3 1.5.2 2.3-.7.6 2.3 2.2-.2 3 1.3v-.5c.2-.5.3.3.4.4 0-.4-.2-.5-.1-.8 1.8-.6 3.7.8 5.5 1.3.7.1.4-2.8 1.2-1.5l-.2 1c1.4-1.2 2.8 0 4.1-1-.1.2-.1.5-.2.5.3.7 1 0 1-.6l.2.8c.3.4.7-.9.9-.2l-.1.3c.2-.3.9.1.7-.7.5.4 1-.4 1.4.1.3-.9.9.4.9-.9 0 1.4.9 1.1 1.2.5-.1.4.3.4.2 1 .4 0 .7-.3.6-1 .7 1.6 1.3-1.3 1.7.8 1.1-.7 2.1-1.2 3-1.5 0 1.4-1.1.1-1 1.6.9-.6 1.4-1.7 2.3-1.4.2.2-.1.6-.2.8.9-.6 1.8.1 2.6-.6 0 .1-.1.3-.2.4.2 0 .4.2.4-.4l-.2.2c-.3-.9.6-1.9.7-2.3-.3 1.8.8.4.4 2.7.1-.1.2-.4.2-.8.2.1.2.4 0 .8.6-.3.4-1 .9-1 0 .3-.1.4-.2.8.3-.6.5-1.2 1-.9 0 .2 0 .4-.1.4.8-.1 1.3-1.5 2.1-1-.2 1.3.3.4.3 1.5l.4-.3-.2-.5c.4 0 .7-.8 1.1-.4l-.3.5.7-.2-.4-.4c.4-.6 0-1.4.5-1.1-.1.1.4 0 .6.7.2-.4.4-.7.7-.5.1.4-.1 1.2 0 1.5.2-.9.9-.3 1.2-1.3-.1.2-.1.8-.1.9l.2-.8c.2.2.2.4.2.8.5.1-.2-1.4.5-.8l-.1.3c.6.3 1.2-.5 1.8-.1.2 1.1-.5.3-.3 1.2.9-.2 1.8-1.4 2.6-1.1l-.2-.1c.1-1.6.6.8 1 0-.1.1-.1.9-.1.7.6.3 1.2-.4 2-.9l-.1.4c.3.4.9.2 1.2.4.1-.4.3-.3.2-.9 1.1 2.3 2.1-1.2 3.1.7-.1 0-.3.4-.2.4l.8-.4c-.1-.7-.1-.4-.3-1 .1-.4.3-.7.6-.7-.4.5 0 1.1.2 1.5v-.7c.4 1.2.1-1.4.7-.6v.4c.2-.2.4-.7.7-.6.1.8-.2.4-.3 1 .3 0 .7-1.5 1-.7l-.5.4c.3.9.4.7.6.9l.6.4-.1-.3c.4-2.1.9-.4 1.4-1.8-.6 1.3-.1.8-.1 1.7.1.3.4.5.3.8.3-.7.5.6.8-.5 0 .3.3 0 .2.8.4-.2-.1-.5-.1-.9.5-1 1.3 1.2 2.1-.2l1.4-2c.2.5-.2 1.1-.2 1.1.3.4.6.4.9 0-.1.3 0 .5.1.8.3-.1.2-1.1.5-.6-.1.3-.1.8-.3 1.2l.9-1.1c.1.5-.2.8-.3 1.1.4-.2.9-.5 1-1.3l-.2-.3c.1 0 .1.7 0 .8-.3.6-.4-.3-.5-.6l.2-.2c-.2-1.7-.9.3-1.3.2l.2-1.2-.5 1c-.1-.3-.2-1 .1-1.2l-.6-.2v-.2l-.3.4c.1-.3-.1-.9.1-.7-.6-.7-.9.9-1.1 0v-.1c-.8.4-.1.9-.7 2l-.4-2.3-.1.9c-.1 0-.2-.1-.2-.5-.3.6.1.4-.1 1-.4-.8-1.1.4-1.2-1.1-.1.7.4.5 0 1-.1-1.6-.5.3-.8-.5.1-.8.4-.4.1-1.1-.2 1.4-.7-.3-1 0 0 1.1-.7.5-1.2.8 0-.4-.9-.6-1.4-1v-.2c-.1 1.1-.6.9-.9 1.1 0-.7.1-.9.3-1.2h-.3c-.1.4-.2.5-.4.7l.1-.8c-.4 0-.9 1-1.5.4 0 .8.5 2.1-.1 2.7 0-.4 0-1.1.1-1.3-.1.1-.2.3-.3.2l.2-.7c-.3-.3-.1.6-.3.5 0-.6-.2-.4-.1-.9.1-.1.2.2.3 0-.2-.1-.5-.5-.6-.9 0 .3 0 .8-.2.9-.4 0-.2-.7-.4-1-.1.4-.4 0-.4.9-.1 0-.2-.4-.2-.7-.2.4-1.1.1-.8 1.1l.1.1c-.7.9-1.6-.5-2.3-.1v-.3c-.4.3-1 .2-1.3.8-.1 0-.3-.5-.3-.9-.3.2-.4.6-.9.1.3-.5-.1-.5.3-.4-.4-.3-.5-.7-1 .1.2-.8-.3-1-.5-.7l.3.5c-.2.1-.4 0-.6 0l.1-1c-.9-1.2-1.6 2.1-2.3 0-.2.7.5.5.3 1.3-.4-.1-.8-1.6-1-1.6-.6-.6-.5 1.5-1.1 1.1.1.4.1 1.3-.3 1.6-.4-.1-.5-1.5-.2-1.8.1 0 .1.1.1.2.1-.1.3-.3.1-.7l-.1.4c-.2-.4-.8-.3-.6-.9-.3.3-.1.6.1.8-.5-.5-.8 0-1.4-.4.1.2.2.6.1.6-.8-.4-.4.7-.9.8-.3-.5.1-1.3-.4-.8-.3-.4-.1-.9.1-1.2-.5.7-.9-.5-1.2-.6l.3-.3c-.2.2-.3.2-.4.2l.1.7c-.2-.1-.3-.1-.3-.4-.2.5.1 1.2-.2 1.8-.2-.4-.6.4-.7-.6.6.3-.1-.9.5-1.1-.1.1-.2.1-.4 0 0-.1 0-.2.1-.2-.6-.8-.3 1.1-.9 1 .1-.5-.1-1-.3-.9.3 0 .1.9-.1 1.3-.4-.4-.4.3-.7.3l.2.2c-.1.5-.3.5-.6.6 0-.4.3-.3.2-.5-.3.9-.7-1-1.2-.3l-.2-1.2c-.5.7-.5-.7-1.1-.2.2.7.2.5-.2 1.2l.9-.5-.6 1c.3 0 .5-.4.7-.3-.3.6-.2.4-.1 1-.4-1.1-.7.6-1.1-.1v-1.8c-.6-.8-1.1.9-1.9.5l.3.3c-.1.7-.5.1-.8.4 0-.6-.1-.8-.2-1.2 0 .4-.6 0-.7 1.1l-.4-.8c-.6-.3-.7 1.7-1.4 1.5.2-.6-.1-1.1.3-1.5-.2 0-.4-.1-.4.3-.1-.4-.6.8-.8.2-.1.3-.1.9-.3.8v-.3c0 .3-.4.4-.2 1.1-.6-1.8-1.8.1-2.3-1.5-.5.2-1 .4-1.4.4 0-.2 0-.3.1-.2-.6-.6-.3 1.7-1 1.1-.3-1 .3-.5.1-.9-.1-1.9-.8.3-1.2-.9l.1-.1c-.3-.7-.8.7-1.4.6v-.3c-.4 1-1.1 1.3-1.6 1.6.2-.8.2-.4.1-1.2-.2.1.1 1.2-.4 1.5-.2-.4-.5-.8-.5-1.6h.4c-.2-1.1-.6 0-.8-.1v-.5c-.7.2-.7 1.3-1.4 1.2l.1.4c-.4 1.2-.3-.7-.7.2l-.1-1.2c-.3.3-.9 1.1-1.4 1.4.3-.9.8-1.3 1.2-1.8-.3 0-.9.1-1 .7.1-.1.2-.4.3-.2-.3.9-.7 1.4-1.3 1.4.1-2.3-1.3-.6-1.7-2.4-.9.8-1.8-.4-2.9-.2.4 1.8-.3.1-.2 1.9-.2.1-.3.1-.4 0l-.8-1.1c-.2-.5.2-.4.2-.8-.5-.1-.2-.8-.6-1.3.1.7-.2.9-.5.7l.4.8c-.8 1-.7-1.5-1.4-.6l.2-.6c-.4.3-1.4 0-1.8 1.5-.1-.2-.2-.7 0-.8-.9-.2-2.1 1.6-2.8.7l.1-.4c-.2.1-.3.8-.5.4 0-.2.1-.4 0-.5-.1.2-.5.8-.7.5l.2-.5c-.9-.6-1.4 1.2-2.2 1.5 0-1.3-.7-1.7-1.1-2v-.2c-1.1-.2-1.8 1.1-2.8 1.6-.6-1.4-2.1-.6-3.1-1.4.2.2 0 1-.2 1.2-.2-.3-.6.9-.6-.3h.1c-.2-1.2-.6-.9-1-.9l-.1 1.6c-1-2.3-2.5.8-3.1-1.2-.2.4-.5.4-.8.8v-.8c-.6-.2-1-.3-1.8-.1l.2-.6c-.5-.1-.6 2.4-1 2.5l-.1-1.3c-.8 0-1.6-1.1-2.4.1 0-.2 0-.6.2-.6-.4 0-1.4-.9-1.3.9 0-1.1-.8-.1-1.2.4l.1-.8c-.4 1.1-.4 1.4-.9 1.7-.1-.1-.1-.7.1-.5-.4-.4-.3.8-.8.3l.2-.5c-.4-.1-.4.2-.6.8-.3.3-.8-.2-.8-1-.1.5-.3 1.1-.5.9 0-.3.1-.5.1-.5l-1.5.2c0-.3 0-.4-.1-.5.5 0 1 .1.9.1 0-.8-.4-.9-.1-2-.4.6-1 1.8-1.4 1.5 0-.1 0-.1-.1-.3v-.1c-.1-.1-.2 0-.3.1-.1-.1-.2-.2-.4-.2-.1-.6-.5-.3-.7-.4 0 .8-.3.7 0 1.4 0-.1 0-.1.2-.1 0 0 .1 0 .1-.1v.1c.1 0 .3 0 .5-.1-.2.4-.4.8-.6.3-.1.5-.2 1.1-.3 1.4-.3-1.2-.9-1.8-1-2.5-.7.5-1.6.3-2 1.9-.2.2-.2-.5-.3-.7.1-.2.2-.1.3-.4-.4.4-1.1.2-1.2 1.3-.5-.5.3-1-.4-.8l.1-.3c-1.3-1.8-2.1 2.8-3.5.6.1.1.1.2.2.4-1.6-1-3.4.9-5-.6-.5-.3-.5.4-.8.9l-.1-.9-.5 1c-.7.8-1.2-2.2-2-.8l.1.6c-.3-.1-1 .4-.9-.3 0 .1-.1.6-.2.3v-.5l-.8.8c-.6-.3.1-1.9-.8-2-.3.2-.9 1.4-.8 1.7.1 0 .3.3.3.8l-.3.2c-.1 1.4-.3 2.8.4 3.8l.5-.9.2.7h-.4c.2.6.4.1.6-.3 0 .4.1.6.2.7l.5-1.3c.1.5-.2 1.1.1 1.4.2-.6-.2-1.2.2-1.6.2.6.2 1.2.4.6 0 .4 0 .6-.1.7.2-.4.7-.2.8-.9.2.8.8-.2.8 1.1.1-.3.4-1 .7-1.1-.4 1.6.9.1.7 1.8.3-1.4 1.1-.6 1.7-1.4 0 .1-.1.3-.1.3.3.1.4.5.6.8 0-1.2.5-1.4.8-2.2.4 1.1-.2 1.4-.1 2.5 0-1 .7-1 .5-1.7.3.7.2.3.4 1.3.1-1.5.3-.2.5-1.2.4.7.1 1.4.6.9.6.4.2.9.2.9zm10.9-2.5c-.1 0-.2.1-.2.1.1-.1.1-.1.2-.1zm1 0h-.4c0-.3 0-.6.1-.6-.1.1.1.3.3.6zm-2-5.9c.1-.1.2 0 .2.2-.1 0-.1 0-.3.1v.1c.1-.1.1-.3.1-.4zM390.6 393.1c-.1 0-.1.1 0 0v.3-.3zM473.7 394.4v.1-.1zM405.4 399.5v-.2l-.1.1zM478.7 397.3c0 .1 0 .2.1.2 0-.1 0-.2-.1-.2zM480.9 397.4l.3.3-.3-.3zM482.6 397.9v-.4.4zM455.9 398.9zM463.9 396.9c-.1.2-.2.3-.3.4.2.1.3.1.3-.4zM447.1 399.9zM463.2 397.3c.1.2.3.1.4 0-.1-.1-.2-.2-.4 0zM489.9 398.2c.1 0 .1-.1.1-.1l-.1.1zM490 398.1zM490.2 397.8l-.2.2c.1.1.2.1.2-.2zM487.7 397.9v.3c-.1-.1 0-.2 0-.3zM487 397.9c.2.1.4.7.6.5v-.2c-.1.4-.5-.8-.6-.3zM484.2 394.2l.6.2c-.1-.3-.2-.8 0-.8-.8-1 .1.7-.6.6zM482.4 393.7c.3-.2 0-.5 0-.7-.2.3-.2.4 0 .7zM469.7 393.7v-.8c-.2.1.1.3 0 .8zM467.3 397.7l.2.4.2-.7zM465.9 392.2l.1-.1-.4.3zM444.6 392.5l.1.9c.1-.2.2-1.2-.1-.9zM435.4 393.4c-.1-.5-.4-.8-.5-.3.2.1.4.4.5.3zM407.9 391.9l.1-.3-.3.2zM491.9 446c.1-.3 0-.8-.1-.7l-.1 1 .2-.3zM490.8 444.2c-.2.5-.4 1.3-.3 2.2.2-1 .3-.6.5-1.7.2-.1.3.3.3.7.1-.3.3.2.4-.4-.2-.8-.5-.8-.8-.2-.2-.2-.2-.5-.1-.6zM473.6 442.6l.1.1c-.1 0-.1-.1-.1-.1zM462.9 442.1c.1 0 .1-.1.1-.2 0 0-.1.1-.1.2zM461.1 441s.1 0 .1.1c0-.2-.1-.2-.1-.1zM473.6 442.6l-.3-.3c0 .3.1.2.3.3zM488.4 446.5c.1 0 .1-.1.2-.3l-.1.1c-.1.1-.1.2-.1.2zM478.3 441.8l.2-.4-.2.4zM481.9 441.6c-.1 0-.1.8-.1 1.2 0-.3.1-.5.2-.6-.1-.1-.1-.3-.1-.6zM487.6 443.1l.1-.1-.1.1zM475.7 441.6v-.3c-.1.1 0 .2 0 .3zM374.9 448v-.1.1zM370.7 443.8c.1-.2.1-.4.1-.5l-.1.5zM457.8 439.9c.1-.1 0-.1 0 0zM427.2 440.5c.3.8-.6 1 0 1.8-.1-.3.5-1.3 0-1.8zM488.3 446.4h-.1c0 .1.1.1.1 0zM427.2 442.3zM450.1 440.4c0 .1 0 .3.1.4 0-.1 0-.2-.1-.4zM455.8 441.6l-.1-.1c0 .1.1.1.1.1zM447.1 441.6c-.1-.1-.1-.2-.2-.1v.1c.1-.1.2-.2.2 0zM444.1 441.6c0 .1 0 .1.1.2h.1l-.2-.2zM384.3 447.5c-.1-.2-.1-.5-.1-.8 0 .7-.5.9.1.8zM488.4 446.1c0 .2 0 .3-.1.4h.1v-.4zM447 448.2l-.5-.1c.2.1.3.1.5.1zM406.4 447.4l-.1.1c.1 0 .1 0 .1-.1zM445.1 448.2c-.1-.3-.2-.5-.3-.6 0 .1 0 .1-.1.2l.4.4zM384.2 446.8zM380.9 448.8c.5 0 .2-1.1.3-1.7.6-.3.3.8.4 1.4.3-.3.6-1.3.9-1.3 0 .2.1.2 0 .5.4-.9 1.1 0 1.5-1.1 0 .1 0 .2.1.3-.1-.6-.1-1.1-.1-1.5.2 0 .4-.7.5 0-.1 0-.1.3-.2.5l.2-.3c.2 1-.3.4-.3 1.1.4-.3.9-1.2 1.3-.9.1 1-.8.3-.3 1.2l-.5-.4c.4 1.6-.3-.1 0 1.6l1.4-.2c.2-.6 0-.8.1-1.4.9-1 .7 2.6 1.4 1.2.2-.7.3-2 .7-1.3l-.2 1.2c.6.1.4-1.7 1-.9-.1.5-.5.4-.4.5.4.9.3-.7.6-.7l.1 1c.7-.2 1.4-.9 2.2-1.1 0 .3-.2.6 0 .9 1-.5 2.1.1 3 .7l.4-.9c.1 0 .2.4.1.6.4.3 0-.6.2-.9.2-.1.3.5.1.8.6-.7 1.8-1.6 2.5-.7l-.1.3c.5.4.6-1.8 1.1-1l-.1.2c1.1.4 2.4-.4 3.3.9.2-1.3 1.1.6 1.2-1.2.6.9.5 1.2 1.4 1.8.2.1.4-1.1.7-1.3v.9l.4-1 .2 1.1.3-.2c-.1-.1-.2-.4-.2-.7.4-.4 1.1.6 1.1 1.1l1-.8c0 .4-.2.5-.3.7.6-.9.1 1 .6.1-.1-.2 0-.6 0-.7.3.6.8.6 1.3.3l-.1.6c.8.2 1.6-.3 2.5-.3-.3-.3-.2-1.4 0-1.5l.1 1c.2-.6-.3-.4.1-1.1.3.1.2 1.1 0 1.4l.4-.3c0 .3-.1.4-.1.8.2-.6.7 1 .9-.1v.3c.9 0 1.3-.3 2-.4 0-.8.3-.7.5-1.3.5.3 1.1.9 1.7.9.4-.4.1-.7.3-1.2 0 .8.7.7.3 1.2.8-.1 1-.2 1.9-.8-.1-.3-.2-.5-.2-.7.2-.1.4.3.4.7v.1c1.1-1.2 2.5 2.2 3.3.6v.1l.9-.8c.4.1-.2.6.1 1.1 1-1.3 1.5.2 2.3-.7.6 2.3 2.2-.2 3 1.3v-.5c.2-.5.3.3.4.4 0-.4-.2-.5-.1-.8 1.8-.6 3.7.8 5.5 1.3.7.1.4-2.8 1.2-1.5l-.2 1c1.4-1.2 2.8 0 4.1-1-.1.2-.1.5-.2.5.3.7 1 0 1-.6l.2.8c.3.4.7-.9.9-.2l-.1.3c.2-.3.9.1.7-.7.5.4 1-.4 1.4.1.3-.9.9.4.9-.9 0 1.4.9 1.1 1.2.5-.1.4.3.4.2 1 .4 0 .7-.3.6-1 .7 1.6 1.3-1.3 1.7.8 1.1-.7 2.1-1.2 3-1.5 0 1.4-1.1.1-1 1.6.9-.6 1.4-1.7 2.3-1.4.2.2-.1.6-.2.8.9-.6 1.8.1 2.6-.6 0 .1-.1.3-.2.4.2 0 .4.2.4-.4l-.2.2c-.3-.9.6-1.9.7-2.3-.3 1.8.8.4.4 2.7.1-.1.2-.4.2-.8.2.1.2.4 0 .8.6-.3.4-1 .9-1 0 .3-.1.4-.2.8.3-.6.5-1.2 1-.9 0 .2 0 .4-.1.4.8-.1 1.3-1.5 2.1-1-.2 1.3.3.4.3 1.5l.4-.3-.2-.5c.4 0 .7-.8 1.1-.4l-.3.5.7-.2-.4-.4c.4-.6 0-1.4.5-1.1-.1.1.4 0 .6.7.2-.4.4-.7.7-.5.1.4-.1 1.2 0 1.5.2-.9.9-.3 1.2-1.3-.1.2-.1.8-.1.9l.2-.8c.2.2.2.4.2.8.5.1-.2-1.4.5-.8l-.1.3c.6.3 1.2-.5 1.8-.1.2 1.1-.5.3-.3 1.2.9-.2 1.8-1.4 2.6-1.1l-.2-.1c.1-1.6.6.8 1 0-.1.1-.1.9-.1.7.6.3 1.2-.4 2-.9l-.1.4c.3.4.9.2 1.2.4.1-.4.3-.3.2-.9 1.1 2.3 2.1-1.2 3.1.7-.1 0-.3.4-.2.4l.8-.4c-.1-.7-.1-.4-.3-1 .1-.4.3-.7.6-.7-.4.5 0 1.1.2 1.5v-.7c.4 1.2.1-1.4.7-.6v.4c.2-.2.4-.7.7-.6.1.8-.2.4-.3 1 .3 0 .7-1.5 1-.7l-.5.4c.3.9.4.7.6.9l.6.4-.1-.3c.4-2.1.9-.4 1.4-1.8-.6 1.3-.1.8-.1 1.7.1.3.4.5.3.8.3-.7.5.6.8-.5 0 .3.3 0 .2.8.4-.2-.1-.5-.1-.9.5-1 1.3 1.2 2.1-.2l1.4-2c.2.5-.2 1.1-.2 1.1.3.4.6.4.9 0-.1.3 0 .5.1.8.3-.1.2-1.1.5-.6-.1.3-.1.8-.3 1.2l.9-1.1c.1.5-.2.8-.3 1.1.4-.2.9-.5 1-1.3l-.2-.3c.1 0 .1.7 0 .8-.3.6-.4-.3-.5-.6l.2-.2c-.2-1.7-.9.3-1.3.2l.2-1.2-.5 1c-.1-.3-.2-1 .1-1.2l-.6-.2v-.2l-.3.4c.1-.3-.1-.9.1-.7-.6-.7-.9.9-1.1 0v-.1c-.8.4-.1.9-.7 2l-.4-2.3-.1.9c-.1 0-.2-.1-.2-.5-.3.6.1.4-.1 1-.4-.8-1.1.4-1.2-1.1-.1.7.4.5 0 1-.1-1.6-.5.3-.8-.5.1-.8.4-.4.1-1.1-.2 1.4-.7-.3-1 0 0 1.1-.7.5-1.2.8 0-.4-.9-.6-1.4-1v-.2c-.1 1.1-.6.9-.9 1.1 0-.7.1-.9.3-1.2h-.3c-.1.4-.2.5-.4.7l.1-.8c-.4 0-.9 1-1.5.4 0 .8.5 2.1-.1 2.7 0-.4 0-1.1.1-1.3-.1.1-.2.3-.3.2l.2-.7c-.3-.3-.1.6-.3.5 0-.6-.2-.4-.1-.9.1-.1.2.2.3 0-.2-.1-.5-.5-.6-.9 0 .3 0 .8-.2.9-.4 0-.2-.7-.4-1-.1.4-.4 0-.4.9-.1 0-.2-.4-.2-.7-.2.4-1.1.1-.8 1.1l.1.1c-.7.9-1.6-.5-2.3-.1v-.3c-.4.3-1 .2-1.3.8-.1 0-.3-.5-.3-.9-.3.2-.4.6-.9.1.3-.5-.1-.5.3-.4-.4-.3-.5-.7-1 .1.2-.8-.3-1-.5-.7l.3.5c-.2.1-.4 0-.6 0l.1-1c-.9-1.2-1.6 2.1-2.3 0-.2.7.5.5.3 1.3-.4-.1-.8-1.6-1-1.6-.6-.6-.5 1.5-1.1 1.1.1.4.1 1.3-.3 1.6-.4-.1-.5-1.5-.2-1.8.1 0 .1.1.1.2.1-.1.3-.3.1-.7l-.1.4c-.2-.4-.8-.3-.6-.9-.3.3-.1.6.1.8-.5-.5-.8 0-1.4-.4.1.2.2.6.1.6-.8-.4-.4.7-.9.8-.3-.5.1-1.3-.4-.8-.3-.4-.1-.9.1-1.2-.5.7-.9-.5-1.2-.6l.3-.3c-.2.2-.3.2-.4.2l.1.7c-.2-.1-.3-.1-.3-.4-.2.5.1 1.2-.2 1.8-.2-.4-.6.4-.7-.6.6.3-.1-.9.5-1.1-.1.1-.2.1-.4 0 0-.1 0-.2.1-.2-.6-.8-.3 1.1-.9 1 .1-.5-.1-1-.3-.9.3 0 .1.9-.1 1.3-.4-.4-.4.3-.7.3l.2.2c-.1.5-.3.5-.6.6 0-.4.3-.3.2-.5-.3.9-.7-1-1.2-.3l-.2-1.2c-.5.7-.5-.7-1.1-.2.2.7.2.5-.2 1.2l.9-.5-.6 1c.3 0 .5-.4.7-.3-.3.6-.2.4-.1 1-.4-1.1-.7.6-1.1-.1v-1.8c-.6-.8-1.1.9-1.9.5l.3.3c-.1.7-.5.1-.8.4 0-.6-.1-.8-.2-1.2 0 .4-.6 0-.7 1.1l-.4-.8c-.6-.3-.7 1.7-1.4 1.5.2-.6-.1-1.1.3-1.5-.2 0-.4-.1-.4.3-.1-.4-.6.8-.8.2-.1.3-.1.9-.3.8v-.3c0 .3-.4.4-.2 1.1-.6-1.8-1.8.1-2.3-1.5-.5.2-1 .4-1.4.4 0-.2 0-.3.1-.2-.6-.6-.3 1.7-1 1.1-.3-1 .3-.5.1-.9-.1-1.9-.8.3-1.2-.9l.1-.1c-.3-.7-.8.7-1.4.6v-.3c-.4 1-1.1 1.3-1.6 1.6.2-.8.2-.4.1-1.2-.2.1.1 1.2-.4 1.5-.2-.4-.5-.8-.5-1.6h.4c-.2-1.1-.6 0-.8-.1v-.5c-.7.2-.7 1.3-1.4 1.2l.1.4c-.4 1.2-.3-.7-.7.2l-.1-1.2c-.3.3-.9 1.1-1.4 1.4.3-.9.8-1.3 1.2-1.8-.3 0-.9.1-1 .7.1-.1.2-.4.3-.2-.3.9-.7 1.4-1.3 1.4.1-2.3-1.3-.6-1.7-2.4-.9.8-1.8-.4-2.9-.2.4 1.8-.3.1-.2 1.9-.2.1-.3.1-.4 0l-.8-1.1c-.2-.5.2-.4.2-.8-.5-.1-.2-.8-.6-1.3.1.7-.2.9-.5.7l.4.8c-.8 1-.7-1.5-1.4-.6l.2-.6c-.4.3-1.4 0-1.8 1.5-.1-.2-.2-.7 0-.8-.9-.2-2.1 1.6-2.8.7l.1-.4c-.2.1-.3.8-.5.4 0-.2.1-.4 0-.5-.1.2-.5.8-.7.5l.2-.5c-.9-.6-1.4 1.2-2.2 1.5 0-1.3-.7-1.7-1.1-2v-.2c-1.1-.2-1.8 1.1-2.8 1.6-.6-1.4-2.1-.6-3.1-1.4.2.2 0 1-.2 1.2-.2-.3-.6.9-.6-.3h.1c-.2-1.2-.6-.9-1-.9l-.1 1.6c-1-2.3-2.5.8-3.1-1.2-.2.4-.5.4-.8.8v-.8c-.6-.2-1-.3-1.8-.1l.2-.6c-.5-.1-.6 2.4-1 2.5l-.1-1.3c-.8 0-1.6-1.1-2.4.1 0-.2 0-.6.2-.6-.4 0-1.4-.9-1.3.9 0-1.1-.8-.1-1.2.4l.1-.8c-.4 1.1-.4 1.4-.9 1.7-.1-.1-.1-.7.1-.5-.4-.4-.3.8-.8.3l.2-.5c-.4-.1-.4.2-.6.8-.3.3-.8-.2-.8-1-.1.5-.3 1.1-.5.9 0-.3.1-.5.1-.5l-1.5.2c0-.3 0-.4-.1-.5.5 0 1 .1.9.1 0-.8-.4-.9-.1-2-.4.6-1 1.8-1.4 1.5 0-.1 0-.1-.1-.3v-.1c-.1-.1-.2 0-.3.1-.1-.1-.2-.2-.4-.2-.1-.6-.5-.3-.7-.4 0 .8-.3.7 0 1.4 0-.1 0-.1.2-.1 0 0 .1 0 .1-.1v.1c.1 0 .3 0 .5-.1-.2.4-.4.8-.6.3-.1.5-.2 1.1-.3 1.4-.3-1.2-.9-1.8-1-2.5-.7.5-1.6.3-2 1.9-.2.2-.2-.5-.3-.7.1-.2.2-.1.3-.4-.4.4-1.1.2-1.2 1.3-.5-.5.3-1-.4-.8l.1-.3c-1.3-1.8-2.1 2.8-3.5.6.1.1.1.2.2.4-1.6-1-3.4.9-5-.6-.5-.3-.5.4-.8.9l-.1-.9-.5 1c-.7.8-1.2-2.2-2-.8l.1.6c-.3-.1-1 .4-.9-.3 0 .1-.1.6-.2.3v-.5l-.8.8c-.6-.3.1-1.9-.8-2-.3.2-.9 1.4-.8 1.7.1 0 .3.3.3.8l-.3.2c-.1 1.4-.3 2.8.4 3.8l.5-.9.2.7h-.4c.2.6.4.1.6-.3 0 .4.1.6.2.7l.5-1.3c.1.5-.2 1.1.1 1.4.2-.6-.2-1.2.2-1.6.2.6.2 1.2.4.6 0 .4 0 .6-.1.7.2-.4.7-.2.8-.9.2.8.8-.2.8 1.1.1-.3.4-1 .7-1.1-.4 1.6.9.1.7 1.8.3-1.4 1.1-.6 1.7-1.4 0 .1-.1.3-.1.3.3.1.4.5.6.8 0-1.2.5-1.4.8-2.2.4 1.1-.2 1.4-.1 2.5 0-1 .7-1 .5-1.7.3.7.2.3.4 1.3.1-1.5.3-.2.5-1.2.4.7.1 1.4.6.9.6.4.2.9.2.9zm10.9-2.6c-.1 0-.2.1-.2.1.1 0 .1 0 .2-.1zm1 0h-.4c0-.3 0-.6.1-.6-.1.2.1.4.3.6zm-2-5.8c.1-.1.2 0 .2.2-.1 0-.1 0-.3.1v.1c.1-.2.1-.3.1-.4zM390.6 441.5v.3-.3zM473.7 442.7v.1-.1zM405.4 447.8v-.2l-.1.2zM478.7 445.6c0 .1 0 .2.1.2 0 0 0-.1-.1-.2zM480.9 445.8l.3.3-.3-.3zM482.6 446.2v-.4.4zM455.9 447.2c-.2.2-.1.2 0 0zM463.9 445.3c-.1.2-.2.3-.3.4.2 0 .3 0 .3-.4zM447.1 448.2zM463.2 445.6c.1.2.3.1.4 0-.1 0-.2-.1-.4 0zM489.9 446.6c.1 0 .1-.1.1-.1l-.1.1zM490 446.5zM490.2 446.2l-.2.2c.1 0 .2.1.2-.2zM487.7 446.2v.3c-.1 0 0-.1 0-.3zM487 446.3c.2.1.4.7.6.5v-.2c-.1.4-.5-.8-.6-.3zM484.2 442.5l.6.2c-.1-.3-.2-.8 0-.8-.8-.9.1.8-.6.6zM482.4 442.1c.3-.2 0-.5 0-.7-.2.3-.2.4 0 .7zM469.7 442.1v-.8c-.2.1.1.3 0 .8zM467.3 446l.2.5.2-.7zM465.9 440.6l.1-.1-.4.2zM444.6 440.8l.1.9c.1-.1.2-1.1-.1-.9zM435.4 441.8c-.1-.5-.4-.8-.5-.3.2.1.4.4.5.3zM407.9 440.3l.1-.4-.3.3z"/><text transform="matrix(1 -.028 .028 1 431.339 -91.643)" class="st2 st4" font-size="67.097">TEST</text><text transform="translate(370.741 171.574)" class="st3 st4 st5">TEST</text></svg>