<svg xmlns="http://www.w3.org/2000/svg" viewBox="0 0 554 449" enable-background="new 0 0 554 449"><style type="text/css">.st0{fill:none;} .st1{fill:#CE563D;} .st2{fill:#F0EFE5;} .st3{fill:#FFFFFF;} .st4{font-family:&apos;AlexaStd&apos;;} .st5{font-size:39.6956px;} .st6{fill:#F89929;} .st7{font-size:65.8918px;}</style><path class="st0" d="M424.7 170.8"/><path class="st1" d="M456.1 297.8v23.6h-200.6v-30.2s.4-16.3 19-19.8c0 0 50.7-18.5 56-22.9h49.8l60.4 24.7c0-.1 15.9 6.6 15.4 24.6z"/><path class="st2" d="M311.5 170.8s-10.6-1.4-5.7 20.3c0 0 2.6 18.1 10.6 15.4 0 0 3.1 20.7 14.1 25.1v16.8s6.6 18.5 24.7 19.8c0 0 18.1-.9 25.1-17.6v-19.4s9.7-7.1 13.7-24.7c0 0 7.9 4.4 12.1-13.2 0 0 3.1-25.3-5.6-20.6l-11.4-40.7-65.7 4.9-11.9 33.9z"/><path class="st1" d="M393.5 131.1s-6.6-36.1-54-20.9c-4.2 1.4-8.2 3.4-11.7 6.2-10.9 8.5-30.9 29.4-11.9 58.4 0 0 2.2-3.1 4-18.5 0 0 .7-6.1 9.7-2.3 3.8 1.6 7.9 1.9 12 1.2 10.4-1.8 28.6-6 35.6-14.5 0 0 14.6-8.6 16.3 30.2 0 0 1.3 18.5 11-7.5 0-.1 7.5-23.5-11-32.3zM542.9 30.9v38.5c0 10.7-8.6 19.3-19.3 19.3h-55.8l-43.9 29.9 13.2-29.9h-6.8c-10.7 0-19.3-8.6-19.3-19.3v-38.5c0-10.7 8.6-19.3 19.3-19.3h93.2c10.8 0 19.4 8.7 19.4 19.3z"/><text transform="translate(444.31 60.964)" class="st3 st4 st5">Fun!</text><path class="st2" d="M207.6 246.3s-8.7-1.1-7.7 13.8c.3 5.4 2 10.7 4.5 15.5 2.4 4.6 5.8 10 8.7 10.6 0 0 3.4 23.1 15.7 28v18.7s13 67.8 33.2 69.3c0 0 14.6-48.2 22.4-66.9v-21.7s10.8-7.9 15.3-27.6c0 0 .2 2.3 7-6.2 4.8-6 7.3-13.5 7-21.1-.3-6.7-1.7-13.1-6.8-10.4l-12.7-45.3-73.3 5.4-13.3 37.9z"/><path class="st6" d="M348.6 406.1v10.9h-186.6v-21.5s.4-26.1 17.6-31.7c0 0 21.5-13.5 37-24.4 7.9-5.6 19.5-2.9 23.5 5.4 3.3 6.9 10.6 36.6 17.6 36.6h.1c7-.2 13.9-30.3 16.8-37.4 2.2-5.3 7.6-8.3 13.2-8.3 3.1 0 6.2.9 8.9 2.9l37.7 28.1c-.2-.1 14.6 10.5 14.2 39.4zM237.1 181.2s-74.7 19-24.2 113.5c0 0 2.8 3.6 1.2-4.8 0 0-4.8-19-.4-24.6 0 0 5.3 6.9 7.3 7.3 0 0-11.7-42-1.2-38.8 0 0 8.5 29.9 30.3 25.9 0 0-8.9-14.5 0-18.6 0 0 25.4 10.9 31.1 17.8 0 0 1.6 0 0-10.1 0 0 34.7 9.7 5.7 51.3 0 0-5.1 10.1 11.6-6.1 0 0 40.9-48.5 4.6-95.3-.1-.1-33.3-36.1-66-17.5zM9.9 109.3v54.4c0 15.1 12.2 27.3 27.3 27.3h78.9l62.2 42.3-18.7-42.3h9.6c15.1 0 27.3-12.2 27.3-27.3v-54.4c0-15.1-12.2-27.3-27.3-27.3h-132c-15 0-27.3 12.2-27.3 27.3z"/><text transform="translate(43.113 151.697)" class="st3 st4 st7">Fast!</text></svg>