<?xml version="1.0" encoding="utf-8"?>
<!-- Generator: Adobe Illustrator 19.1.0, SVG Export Plug-In . SVG Version: 6.00 Build 0)  -->
<svg version="1.1" id="Layer_1" xmlns="http://www.w3.org/2000/svg" xmlns:xlink="http://www.w3.org/1999/xlink" x="0px" y="0px"
	 viewBox="0 0 792 612" style="enable-background:new 0 0 792 612;" xml:space="preserve">
<style type="text/css">
	.st0{fill:none;stroke:#F17922;stroke-width:2;stroke-miterlimit:10;}
	.st1{fill:#F2BB53;}
	.st2{fill:#F17922;stroke:#F2BB53;stroke-miterlimit:10;}
	.st3{fill:#010101;}
	.st4{font-family:'ApolloMTStd';}
	.st5{font-size:67.0969px;}
</style>
<polygon class="st0" points="398.1,481.9 126.1,481.9 150.8,136.1 360.1,136.1 "/>
<path class="st1" d="M185.9,210.1L185.9,210.1c-5.9,0-10.6-4.8-10.6-10.6v-5.4c0-5.9,4.8-10.6,10.6-10.6h0c5.9,0,10.6,4.8,10.6,10.6
	v5.4C196.5,205.4,191.8,210.1,185.9,210.1z"/>
<path class="st1" d="M185.9,258.5L185.9,258.5c-5.9,0-10.6-4.8-10.6-10.6v-5.4c0-5.9,4.8-10.6,10.6-10.6h0c5.9,0,10.6,4.8,10.6,10.6
	v5.4C196.5,253.8,191.8,258.5,185.9,258.5z"/>
<path class="st1" d="M185.9,306.5L185.9,306.5c-5.9,0-10.6-4.8-10.6-10.6v-5.4c0-5.9,4.8-10.6,10.6-10.6h0c5.9,0,10.6,4.8,10.6,10.6
	v5.4C196.5,301.8,191.8,306.5,185.9,306.5z"/>
<path class="st1" d="M185.9,353.9L185.9,353.9c-5.9,0-10.6-4.8-10.6-10.6v-5.4c0-5.9,4.8-10.6,10.6-10.6h0c5.9,0,10.6,4.8,10.6,10.6
	v5.4C196.5,349.2,191.8,353.9,185.9,353.9z"/>
<path class="st1" d="M185.9,395.6L185.9,395.6c-5.9,0-10.6-4.8-10.6-10.6v-5.4c0-5.9,4.8-10.6,10.6-10.6h0c5.9,0,10.6,4.8,10.6,10.6
	v5.4C196.5,390.9,191.8,395.6,185.9,395.6z"/>
<path class="st1" d="M185.9,444L185.9,444c-5.9,0-10.6-4.8-10.6-10.6V428c0-5.9,4.8-10.6,10.6-10.6h0c5.9,0,10.6,4.8,10.6,10.6v5.4
	C196.5,439.2,191.8,444,185.9,444z"/>
<g>
	<g>
		<g>
			<g>
				<g>
					<path class="st1" d="M339.3,208.7c0.1-0.3,0-0.8-0.1-0.7l-0.1,1L339.3,208.7z"/>
					<path class="st1" d="M338.1,206.9c-0.2,0.5-0.4,1.3-0.3,2.2c0.2-1,0.3-0.6,0.5-1.7c0.2-0.1,0.3,0.3,0.3,0.7
						c0.1-0.3,0.3,0.2,0.4-0.4c-0.2-0.8-0.5-0.8-0.8-0.2C338,207.3,338.1,207.1,338.1,206.9z"/>
					<path class="st1" d="M320.9,205.3l0.1,0.1C321,205.4,321,205.3,320.9,205.3z"/>
					<path class="st1" d="M310.3,204.8c0.1,0,0.1-0.1,0.1-0.2C310.3,204.6,310.3,204.7,310.3,204.8z"/>
					<path class="st1" d="M308.5,203.7c0,0,0.1,0,0.1,0.1C308.5,203.7,308.5,203.6,308.5,203.7z"/>
					<path class="st1" d="M320.9,205.3l-0.3-0.3C320.6,205.3,320.8,205.3,320.9,205.3z"/>
					<path class="st1" d="M335.8,209.3c0.1,0,0.1-0.1,0.2-0.3c0,0-0.1,0.1-0.1,0.1C335.8,209.2,335.8,209.2,335.8,209.3z"/>
					<path class="st1" d="M325.6,204.5L325.6,204.5c0.1-0.1,0.1-0.3,0.2-0.4L325.6,204.5z"/>
					<path class="st1" d="M329.2,204.4c-0.1,0-0.1,0.8-0.1,1.2c0-0.3,0.1-0.5,0.2-0.6C329.3,204.8,329.3,204.6,329.2,204.4z"/>
					<path class="st1" d="M335,205.8l0.1-0.1C335,205.8,335,205.8,335,205.8z"/>
					<path class="st1" d="M323.1,204.3c0-0.1,0-0.2,0-0.3C323,204.1,323,204.2,323.1,204.3z"/>
					<path class="st1" d="M222.3,210.7c0-0.1,0-0.1,0-0.2C222.3,210.6,222.3,210.7,222.3,210.7z"/>
					<path class="st1" d="M218.1,206.5L218.1,206.5c0.1-0.2,0.1-0.4,0.1-0.5L218.1,206.5z"/>
					<path class="st1" d="M305.1,202.6C305.2,202.6,305.2,202.6,305.1,202.6C305.2,202.5,305.2,202.5,305.1,202.6z"/>
					<path class="st1" d="M274.6,203.2c0.3,0.8-0.6,1,0,1.8C274.5,204.7,275,203.7,274.6,203.2z"/>
					<path class="st1" d="M335.7,209.2c0,0-0.1,0-0.1,0C335.6,209.2,335.6,209.2,335.7,209.2z"/>
					<path class="st1" d="M274.6,205C274.6,205,274.6,205,274.6,205L274.6,205C274.6,205.1,274.6,205.1,274.6,205z"/>
					<path class="st1" d="M297.5,203.1c0,0.1,0,0.3,0.1,0.4C297.6,203.4,297.5,203.3,297.5,203.1z"/>
					<path class="st1" d="M303.2,204.3l-0.1-0.1C303.1,204.3,303.2,204.3,303.2,204.3z"/>
					<path class="st1" d="M294.5,204.3c-0.1-0.1-0.1-0.2-0.2-0.1c0,0,0,0.1,0,0.1C294.4,204.2,294.4,204.2,294.5,204.3z"/>
					<path class="st1" d="M291.4,204.3c0,0.1,0,0.1,0.1,0.2c0,0,0.1,0,0.1,0L291.4,204.3z"/>
					<path class="st1" d="M231.7,210.3c-0.1-0.2-0.1-0.5-0.1-0.8C231.6,210.1,231.1,210.3,231.7,210.3z"/>
					<path class="st1" d="M335.8,208.8c0,0.2,0,0.3-0.1,0.4c0,0,0.1,0,0.1,0C335.8,209,335.8,208.9,335.8,208.8z"/>
					<path class="st1" d="M294.4,211l-0.5-0.1C294,210.9,294.2,211,294.4,211z"/>
					<path class="st1" d="M253.8,210.1l-0.1,0.1C253.7,210.3,253.8,210.2,253.8,210.1z"/>
					<path class="st1" d="M292.4,211c-0.1-0.3-0.2-0.5-0.3-0.6c0,0.1,0,0.1-0.1,0.2L292.4,211z"/>
					<path class="st1" d="M231.5,209.5C231.5,209.5,231.5,209.5,231.5,209.5C231.5,209.5,231.5,209.5,231.5,209.5z"/>
					<path class="st1" d="M228.3,211.5c0.5,0,0.2-1.1,0.3-1.7c0.6-0.3,0.3,0.8,0.4,1.4c0.3-0.3,0.6-1.3,0.9-1.3c0,0.2,0.1,0.2,0,0.5
						c0.4-0.9,1.1,0,1.5-1.1c0,0.1,0,0.2,0.1,0.3c-0.1-0.6-0.1-1.1-0.1-1.5c0.2,0,0.4-0.7,0.5,0c-0.1,0-0.1,0.3-0.2,0.5l0.2-0.3
						c0.2,1-0.3,0.4-0.3,1.1c0.4-0.3,0.9-1.2,1.3-0.9c0.1,1-0.8,0.3-0.3,1.2l-0.5-0.4c0.4,1.6-0.3-0.1,0,1.6
						c0.7,0.3,0.7-0.5,1.4-0.2c0.2-0.6,0-0.8,0.1-1.4c0.9-1,0.7,2.6,1.4,1.2c0.2-0.7,0.3-2,0.7-1.3l-0.2,1.2c0.6,0.1,0.4-1.7,1-0.9
						c-0.1,0.5-0.5,0.4-0.4,0.5c0.4,0.9,0.3-0.7,0.6-0.7l0.1,1c0.7-0.2,1.4-0.9,2.2-1.1c0,0.3-0.2,0.6,0,0.9c1-0.5,2.1,0.1,3,0.7
						l0.4-0.9c0.1,0,0.2,0.4,0.1,0.6c0.4,0.3,0-0.6,0.2-0.9c0.2-0.1,0.3,0.5,0.1,0.8c0.6-0.7,1.8-1.6,2.5-0.7l-0.1,0.3
						c0.5,0.4,0.6-1.8,1.1-1l-0.1,0.2c1.1,0.4,2.4-0.4,3.3,0.9c0.2-1.3,1.1,0.6,1.2-1.2c0.6,0.9,0.5,1.2,1.4,1.8
						c0.2,0.1,0.4-1.1,0.7-1.3l0,0.9l0.4-1l0.2,1.1l0.3-0.2c-0.1-0.1-0.2-0.4-0.2-0.7c0.4-0.4,1.1,0.6,1.1,1.1l1-0.8
						c0,0.4-0.2,0.5-0.3,0.7c0.6-0.9,0.1,1,0.6,0.1c-0.1-0.2,0-0.6,0-0.7c0.3,0.6,0.8,0.6,1.3,0.3l-0.1,0.6c0.8,0.2,1.6-0.3,2.5-0.3
						c-0.3-0.3-0.2-1.4,0-1.5l0.1,1c0.2-0.6-0.3-0.4,0.1-1.1c0.3,0.1,0.2,1.1,0,1.4l0.4-0.3c0,0.3-0.1,0.4-0.1,0.8
						c0.2-0.6,0.7,1,0.9-0.1l0,0.3c0.9,0,1.3-0.3,2-0.4c0-0.8,0.3-0.7,0.5-1.3c0.5,0.3,1.1,0.9,1.7,0.9c0.4-0.4,0.1-0.7,0.3-1.2
						c0,0.8,0.7,0.7,0.3,1.2c0.8-0.1,1-0.2,1.9-0.8c-0.1-0.3-0.2-0.5-0.2-0.7c0.2-0.1,0.4,0.3,0.4,0.7l0,0.1
						c1.1-1.2,2.5,2.2,3.3,0.6l0,0.1l0.9-0.8c0.4,0.1-0.2,0.6,0.1,1.1c1-1.3,1.5,0.2,2.3-0.7c0.6,2.3,2.2-0.2,3,1.3l0-0.5
						c0.2-0.5,0.3,0.3,0.4,0.4c0-0.4-0.2-0.5-0.1-0.8c1.8-0.6,3.7,0.8,5.5,1.3c0.7,0.1,0.4-2.8,1.2-1.5l-0.2,1c1.4-1.2,2.8,0,4.1-1
						c-0.1,0.2-0.1,0.5-0.2,0.5c0.3,0.7,1,0,1-0.6c0.2,0.1,0,0.5,0.2,0.8c0.3,0.4,0.7-0.9,0.9-0.2c0,0.1-0.1,0.2-0.1,0.3
						c0.2-0.3,0.9,0.1,0.7-0.7c0.5,0.4,1-0.4,1.4,0.1c0.3-0.9,0.9,0.4,0.9-0.9c0,1.4,0.9,1.1,1.2,0.5c-0.1,0.4,0.3,0.4,0.2,1
						c0.4,0,0.7-0.3,0.6-1c0.7,1.6,1.3-1.3,1.7,0.8c1.1-0.7,2.1-1.2,3-1.5c0,1.4-1.1,0.1-1,1.6c0.9-0.6,1.4-1.7,2.3-1.4
						c0.2,0.2-0.1,0.6-0.2,0.8c0.9-0.6,1.8,0.1,2.6-0.6c0,0.1-0.1,0.3-0.2,0.4c0.2,0,0.4,0.2,0.4-0.4l-0.2,0.2
						c-0.3-0.9,0.6-1.9,0.7-2.3c-0.3,1.8,0.8,0.4,0.4,2.7c0.1-0.1,0.2-0.4,0.2-0.8c0.2,0.1,0.2,0.4,0,0.8c0.6-0.3,0.4-1,0.9-1
						c0,0.3-0.1,0.4-0.2,0.8c0.3-0.6,0.5-1.2,1-0.9c0,0.2,0,0.4-0.1,0.4c0.8-0.1,1.3-1.5,2.1-1c-0.2,1.3,0.3,0.4,0.3,1.5l0.4-0.3
						l-0.2-0.5c0.4,0,0.7-0.8,1.1-0.4l-0.3,0.5l0.7-0.2l-0.4-0.4c0.4-0.6,0-1.4,0.5-1.1c-0.1,0.1,0.4,0,0.6,0.7c0,0,0,0,0,0
						c0.2-0.4,0.4-0.7,0.7-0.5c0.1,0.4-0.1,1.2,0,1.5c0.2-0.9,0.9-0.3,1.2-1.3c-0.1,0.2-0.1,0.8-0.1,0.9l0.2-0.8
						c0.2,0.2,0.2,0.4,0.2,0.8c0.5,0.1-0.2-1.4,0.5-0.8c-0.1,0.1,0,0.2-0.1,0.3c0.6,0.3,1.2-0.5,1.8-0.1c0.2,1.1-0.5,0.3-0.3,1.2
						c0.9-0.2,1.8-1.4,2.6-1.1l-0.2-0.1c0.1-1.6,0.6,0.8,1,0c-0.1,0.1-0.1,0.9-0.1,0.7c0.6,0.3,1.2-0.4,2-0.9l-0.1,0.4
						c0.3,0.4,0.9,0.2,1.2,0.4c0.1-0.4,0.3-0.3,0.2-0.9c1.1,2.3,2.1-1.2,3.1,0.7c-0.1,0-0.3,0.4-0.2,0.4l0.8-0.4
						c-0.1-0.7-0.1-0.4-0.3-1c0.1-0.4,0.3-0.7,0.6-0.7c-0.4,0.5,0,1.1,0.2,1.5c0-0.2,0-0.4,0-0.7c0.4,1.2,0.1-1.4,0.7-0.6l0,0.4
						c0.2-0.2,0.4-0.7,0.7-0.6c0.1,0.8-0.2,0.4-0.3,1c0.3,0,0.7-1.5,1-0.7c-0.1,0.2-0.4,0.2-0.5,0.4c0.3,0.9,0.4,0.7,0.6,0.9l0,0
						l0.6,0.4l-0.1-0.3c0.4-2.1,0.9-0.4,1.4-1.8c-0.6,1.3-0.1,0.8-0.1,1.7c0.1,0.3,0.4,0.5,0.3,0.8c0.3-0.7,0.5,0.6,0.8-0.5
						c0,0.3,0.3,0,0.2,0.8c0.4-0.2-0.1-0.5-0.1-0.9c0.5-1,1.3,1.2,2.1-0.2c0.7-0.6,0.8-1.6,1.4-2c0.2,0.5-0.2,1.1-0.2,1.1
						c0.3,0.4,0.6,0.4,0.9,0c-0.1,0.3,0,0.5,0.1,0.8c0.3-0.1,0.2-1.1,0.5-0.6c-0.1,0.3-0.1,0.8-0.3,1.2c0.3-0.3,0.6-0.8,0.9-1.1
						c0.1,0.5-0.2,0.8-0.3,1.1c0.4-0.2,0.9-0.5,1-1.3l-0.2-0.3c0.1,0,0.1,0.7,0,0.8c-0.3,0.6-0.4-0.3-0.5-0.6l0.2-0.2
						c-0.2-1.7-0.9,0.3-1.3,0.2l0.2-1.2l-0.5,1c-0.1-0.3-0.2-1,0.1-1.2c-0.3-0.6-0.3,0.4-0.6-0.2c0-0.1,0-0.2,0-0.2l-0.3,0.4
						c0.1-0.3-0.1-0.9,0.1-0.7c-0.6-0.7-0.9,0.9-1.1,0l0-0.1c-0.8,0.4-0.1,0.9-0.7,2l-0.4-2.3l-0.1,0.9c-0.1,0-0.2-0.1-0.2-0.5
						c-0.3,0.6,0.1,0.4-0.1,1c-0.4-0.8-1.1,0.4-1.2-1.1c-0.1,0.7,0.4,0.5,0,1c-0.1-1.6-0.5,0.3-0.8-0.5c0.1-0.8,0.4-0.4,0.1-1.1
						c-0.2,1.4-0.7-0.3-1,0c0,1.1-0.7,0.5-1.2,0.8c0-0.4-0.9-0.6-1.4-1l0-0.2c-0.1,1.1-0.6,0.9-0.9,1.1c0-0.7,0.1-0.9,0.3-1.2
						l-0.3,0c-0.1,0.4-0.2,0.5-0.4,0.7l0.1-0.8c-0.4,0-0.9,1-1.5,0.4c0,0.8,0.5,2.1-0.1,2.7c0-0.4,0-1.1,0.1-1.3
						c-0.1,0.1-0.2,0.3-0.3,0.2l0.2-0.7c-0.3-0.3-0.1,0.6-0.3,0.5c0-0.6-0.2-0.4-0.1-0.9c0.1-0.1,0.2,0.2,0.3,0
						c-0.2-0.1-0.5-0.5-0.6-0.9c0,0.3,0,0.8-0.2,0.9c-0.4,0-0.2-0.7-0.4-1c-0.1,0.4-0.4,0-0.4,0.9c-0.1,0-0.2-0.4-0.2-0.7
						c-0.2,0.4-1.1,0.1-0.8,1.1l0.1,0.1c0,0,0,0,0,0c0,0,0,0,0,0h0c-0.7,0.9-1.6-0.5-2.3-0.1l0-0.3c-0.4,0.3-1,0.2-1.3,0.8
						c-0.1,0-0.3-0.5-0.3-0.9c-0.3,0.2-0.4,0.6-0.9,0.1c0.3-0.5-0.1-0.5,0.3-0.4c-0.4-0.3-0.5-0.7-1,0.1c0.2-0.8-0.3-1-0.5-0.7
						l0.3,0.5c-0.2,0.1-0.4,0-0.6,0l0.1-1c-0.9-1.2-1.6,2.1-2.3,0c-0.2,0.7,0.5,0.5,0.3,1.3c-0.4-0.1-0.8-1.6-1-1.6
						c-0.6-0.6-0.5,1.5-1.1,1.1c0.1,0.4,0.1,1.3-0.3,1.6c-0.4-0.1-0.5-1.5-0.2-1.8c0.1,0,0.1,0.1,0.1,0.2c0.1-0.1,0.3-0.3,0.1-0.7
						l-0.1,0.4c-0.2-0.4-0.8-0.3-0.6-0.9c-0.3,0.3-0.1,0.6,0.1,0.8c-0.5-0.5-0.8,0-1.4-0.4c0.1,0.2,0.2,0.6,0.1,0.6
						c-0.8-0.4-0.4,0.7-0.9,0.8c-0.3-0.5,0.1-1.3-0.4-0.8c-0.3-0.4-0.1-0.9,0.1-1.2c-0.5,0.7-0.9-0.5-1.2-0.6l0.3-0.3
						c-0.2,0.2-0.3,0.2-0.4,0.2l0.1,0.7c-0.2-0.1-0.3-0.1-0.3-0.4c-0.2,0.5,0.1,1.2-0.2,1.8c-0.2-0.4-0.6,0.4-0.7-0.6
						c0.6,0.3-0.1-0.9,0.5-1.1c-0.1,0.1-0.2,0.1-0.4,0c0-0.1,0-0.2,0.1-0.2c-0.6-0.8-0.3,1.1-0.9,1c0.1-0.5-0.1-1-0.3-0.9
						c0.3,0,0.1,0.9-0.1,1.3c-0.4-0.4-0.4,0.3-0.7,0.3l0.2,0.2c-0.1,0.5-0.3,0.5-0.6,0.6c0-0.4,0.3-0.3,0.2-0.5
						c-0.3,0.9-0.7-1-1.2-0.3c-0.2-0.4,0-1-0.2-1.2c-0.5,0.7-0.5-0.7-1.1-0.2c0.2,0.7,0.2,0.5-0.2,1.2l0.9-0.5l-0.6,1
						c0.3,0,0.5-0.4,0.7-0.3c-0.3,0.6-0.2,0.4-0.1,1c-0.4-1.1-0.7,0.6-1.1-0.1l0-1.8c-0.6-0.8-1.1,0.9-1.9,0.5l0.3,0.3
						c-0.1,0.7-0.5,0.1-0.8,0.4c0-0.6-0.1-0.8-0.2-1.2c0,0.4-0.6,0-0.7,1.1l-0.4-0.8c-0.6-0.3-0.7,1.7-1.4,1.5
						c0.2-0.6-0.1-1.1,0.3-1.5c-0.2,0-0.4-0.1-0.4,0.3c-0.1-0.4-0.6,0.8-0.8,0.2c-0.1,0.3-0.1,0.9-0.3,0.8c0-0.1,0-0.3,0-0.3
						c0,0.3-0.4,0.4-0.2,1.1c-0.6-1.8-1.8,0.1-2.3-1.5c-0.5,0.2-1,0.4-1.4,0.4c0-0.2,0-0.3,0.1-0.2c-0.6-0.6-0.3,1.7-1,1.1
						c-0.3-1,0.3-0.5,0.1-0.9c-0.1-1.9-0.8,0.3-1.2-0.9l0.1-0.1c-0.3-0.7-0.8,0.7-1.4,0.6c0,0,0-0.2,0-0.3c-0.4,1-1.1,1.3-1.6,1.6
						c0.2-0.8,0.2-0.4,0.1-1.2c-0.2,0.1,0.1,1.2-0.4,1.5c-0.2-0.4-0.5-0.8-0.5-1.6l0.4,0c-0.2-1.1-0.6,0-0.8-0.1l0-0.5
						c-0.7,0.2-0.7,1.3-1.4,1.2l0.1,0.4c-0.4,1.2-0.3-0.7-0.7,0.2l-0.1-1.2c-0.3,0.3-0.9,1.1-1.4,1.4c0.3-0.9,0.8-1.3,1.2-1.8
						c-0.3,0-0.9,0.1-1,0.7c0.1-0.1,0.2-0.4,0.3-0.2c-0.3,0.9-0.7,1.4-1.3,1.4c0.1-2.3-1.3-0.6-1.7-2.4c-0.9,0.8-1.8-0.4-2.9-0.2
						c0.4,1.8-0.3,0.1-0.2,1.9c-0.2,0.1-0.3,0.1-0.4,0l-0.8-1.1c-0.2-0.5,0.2-0.4,0.2-0.8c-0.5-0.1-0.2-0.8-0.6-1.3
						c0.1,0.7-0.2,0.9-0.5,0.7l0.4,0.8c-0.8,1-0.7-1.5-1.4-0.6l0.2-0.6c-0.4,0.3-1.4,0-1.8,1.5c-0.1-0.2-0.2-0.7,0-0.8
						c-0.9-0.2-2.1,1.6-2.8,0.7l0.1-0.4c-0.2,0.1-0.3,0.8-0.5,0.4c0-0.2,0.1-0.4,0-0.5c-0.1,0.2-0.5,0.8-0.7,0.5l0.2-0.5
						c-0.9-0.6-1.4,1.2-2.2,1.5c0-1.3-0.7-1.7-1.1-2l0-0.2c-1.1-0.2-1.8,1.1-2.8,1.6c-0.6-1.4-2.1-0.6-3.1-1.4c0.2,0.2,0,1-0.2,1.2
						c-0.2-0.3-0.6,0.9-0.6-0.3l0.1,0c-0.2-1.2-0.6-0.9-1-0.9l-0.1,1.6c-1-2.3-2.5,0.8-3.1-1.2c-0.2,0.4-0.5,0.4-0.8,0.8l0-0.8
						c-0.6-0.2-1-0.3-1.8-0.1l0.2-0.6c-0.5-0.1-0.6,2.4-1,2.5l-0.1-1.3c-0.8,0-1.6-1.1-2.4,0.1c0-0.2,0-0.6,0.2-0.6
						c-0.4,0-1.4-0.9-1.3,0.9c0-1.1-0.8-0.1-1.2,0.4l0.1-0.8c-0.4,1.1-0.4,1.4-0.9,1.7c-0.1-0.1-0.1-0.7,0.1-0.5
						c-0.4-0.4-0.3,0.8-0.8,0.3l0.2-0.5c-0.4-0.1-0.4,0.2-0.6,0.8c-0.3,0.3-0.8-0.2-0.8-1c-0.1,0.5-0.3,1.1-0.5,0.9
						c0-0.3,0.1-0.5,0.1-0.5c-0.7-0.6-1,1-1.5,0.2c0-0.3,0-0.4-0.1-0.5c0.5,0,1,0.1,0.9,0.1c0-0.8-0.4-0.9-0.1-2
						c-0.4,0.6-1,1.8-1.4,1.5c0-0.1,0-0.1-0.1-0.3l0-0.1c-0.1-0.1-0.2,0-0.3,0.1c-0.1-0.1-0.2-0.2-0.4-0.2c-0.1-0.6-0.5-0.3-0.7-0.4
						c0,0.8-0.3,0.7,0,1.4c0-0.1,0-0.1,0.2-0.1c0,0,0.1,0,0.1-0.1c0,0,0,0,0,0.1c0.1,0,0.3,0,0.5-0.1c-0.2,0.4-0.4,0.8-0.6,0.3
						c-0.1,0.5-0.2,1.1-0.3,1.4c-0.3-1.2-0.9-1.8-1-2.5c-0.7,0.5-1.6,0.3-2,1.9c-0.2,0.2-0.2-0.5-0.3-0.7c0.1-0.2,0.2-0.1,0.3-0.4
						c-0.4,0.4-1.1,0.2-1.2,1.3c-0.5-0.5,0.3-1-0.4-0.8l0.1-0.3c-1.3-1.8-2.1,2.8-3.5,0.6c0.1,0.1,0.1,0.2,0.2,0.4
						c-1.6-1-3.4,0.9-5-0.6c-0.5-0.3-0.5,0.4-0.8,0.9l-0.1-0.9l-0.5,1c-0.7,0.8-1.2-2.2-2-0.8l0.1,0.6c-0.3-0.1-1,0.4-0.9-0.3
						c0,0.1-0.1,0.6-0.2,0.3l0-0.5l-0.8,0.8c-0.6-0.3,0.1-1.9-0.8-2c-0.3,0.2-0.9,1.4-0.8,1.7c0.1,0,0.3,0.3,0.3,0.8l-0.3,0.2
						c-0.1,1.4-0.3,2.8,0.4,3.8l0.5-0.9l0.2,0.7l-0.4,0c0.2,0.6,0.4,0.1,0.6-0.3c0,0.4,0.1,0.6,0.2,0.7l0.5-1.3
						c0.1,0.5-0.2,1.1,0.1,1.4c0.2-0.6-0.2-1.2,0.2-1.6c0.2,0.6,0.2,1.2,0.4,0.6c0,0.4,0,0.6-0.1,0.7c0.2-0.4,0.7-0.2,0.8-0.9
						c0.2,0.8,0.8-0.2,0.8,1.1c0.1-0.3,0.4-1,0.7-1.1c-0.4,1.6,0.9,0.1,0.7,1.8c0.3-1.4,1.1-0.6,1.7-1.4c0,0.1-0.1,0.3-0.1,0.3
						c0.3,0.1,0.4,0.5,0.6,0.8c0-1.2,0.5-1.4,0.8-2.2c0.4,1.1-0.2,1.4-0.1,2.5c0-1,0.7-1,0.5-1.7c0.3,0.7,0.2,0.3,0.4,1.3
						c0.1-1.5,0.3-0.2,0.5-1.2c0.4,0.7,0.1,1.4,0.6,0.9C228.7,211,228.3,211.5,228.3,211.5z M239.2,209
						C239.2,209,239.2,209,239.2,209c-0.1,0-0.2,0.1-0.2,0.1C239,209,239.1,209,239.2,209z M240.1,208.9c-0.1,0-0.3,0-0.4,0
						c0-0.3,0-0.6,0.1-0.6C239.8,208.5,240,208.7,240.1,208.9z M238.2,203.1c0.1-0.1,0.2,0,0.2,0.2c-0.1,0-0.1,0-0.3,0.1
						c0,0,0,0.1,0,0.1C238.1,203.4,238.2,203.2,238.2,203.1z"/>
					<path class="st1" d="M237.9,204.2C237.9,204.2,237.9,204.3,237.9,204.2c0,0.1,0,0.2,0,0.3C238,204.4,238,204.3,237.9,204.2
						C238,204.2,238,204.2,237.9,204.2z"/>
					<path class="st1" d="M321.1,205.5L321.1,205.5c0,0,0,0,0,0.1C321.1,205.5,321.1,205.5,321.1,205.5z"/>
					<polygon class="st1" points="252.8,210.6 252.8,210.3 252.7,210.5 					"/>
					<path class="st1" d="M326.1,208.4c0,0.1,0,0.2,0.1,0.2C326.2,208.5,326.2,208.4,326.1,208.4z"/>
					<path class="st1" d="M328.3,208.5l0.3,0.3C328.5,208.7,328.4,208.6,328.3,208.5z"/>
					<path class="st1" d="M330,209c0-0.1,0-0.3,0-0.4c0,0,0,0,0,0L330,209z"/>
					<path class="st1" d="M303.3,210C303.3,210,303.3,210,303.3,210C303.1,210.2,303.2,210.1,303.3,210z"/>
					<path class="st1" d="M311.2,208c-0.1,0.2-0.2,0.3-0.3,0.4C311.1,208.4,311.2,208.5,311.2,208z"/>
					<path class="st1" d="M294.4,211C294.4,211,294.4,211,294.4,211C294.4,211,294.4,211,294.4,211L294.4,211z"/>
					<path class="st1" d="M310.6,208.4c0.1,0.2,0.3,0.1,0.4,0C310.9,208.3,310.7,208.2,310.6,208.4z"/>
					<path class="st1" d="M337.3,209.3L337.3,209.3c0.1,0,0.1-0.1,0.1-0.1L337.3,209.3z"/>
					<path class="st1" d="M337.3,209.2L337.3,209.2C337.4,209.1,337.4,209.2,337.3,209.2z"/>
					<path class="st1" d="M337.6,208.9l-0.2,0.2C337.5,209.1,337.6,209.2,337.6,208.9z"/>
					<path class="st1" d="M335,209l0,0.3C335,209.2,335,209.1,335,209z"/>
					<path class="st1" d="M334.4,209c0.2,0.1,0.4,0.7,0.6,0.5l0-0.2C334.9,209.7,334.5,208.5,334.4,209z"/>
					<path class="st1" d="M331.5,205.3l0.6,0.2c-0.1-0.3-0.2-0.8,0-0.8C331.4,203.7,332.3,205.4,331.5,205.3z"/>
					<path class="st1" d="M329.8,204.8c0.3-0.2,0-0.5,0-0.7C329.6,204.4,329.6,204.5,329.8,204.8z"/>
					<path class="st1" d="M317.1,204.8l0-0.8C316.9,204.1,317.1,204.3,317.1,204.8z"/>
					<polygon class="st1" points="314.7,208.8 314.9,209.2 315,208.5 					"/>
					<polygon class="st1" points="313.3,203.3 313.4,203.2 313,203.5 					"/>
					<path class="st1" d="M292,203.6l0.1,0.9C292.2,204.3,292.2,203.3,292,203.6z"/>
					<path class="st1" d="M282.8,204.5c-0.1-0.5-0.4-0.8-0.5-0.3C282.5,204.3,282.7,204.6,282.8,204.5z"/>
					<polygon class="st1" points="255.2,203 255.4,202.7 255.1,202.9 					"/>
				</g>
			</g>
		</g>
	</g>
</g>
<g>
	<g>
		<g>
			<g>
				<g>
					<path class="st1" d="M339.3,260.5c0.1-0.3,0-0.8-0.1-0.7l-0.1,1L339.3,260.5z"/>
					<path class="st1" d="M338.1,258.7c-0.2,0.5-0.4,1.3-0.3,2.2c0.2-1,0.3-0.6,0.5-1.7c0.2-0.1,0.3,0.3,0.3,0.7
						c0.1-0.3,0.3,0.2,0.4-0.4c-0.2-0.8-0.5-0.8-0.8-0.2C338,259.1,338.1,258.9,338.1,258.7z"/>
					<path class="st1" d="M320.9,257.1l0.1,0.1C321,257.2,321,257.1,320.9,257.1z"/>
					<path class="st1" d="M310.3,256.6c0.1,0,0.1-0.1,0.1-0.2C310.3,256.4,310.3,256.5,310.3,256.6z"/>
					<path class="st1" d="M308.5,255.5c0,0,0.1,0,0.1,0.1C308.5,255.5,308.5,255.4,308.5,255.5z"/>
					<path class="st1" d="M320.9,257.1l-0.3-0.3C320.6,257.1,320.8,257,320.9,257.1z"/>
					<path class="st1" d="M335.8,261.1c0.1,0,0.1-0.1,0.2-0.3c0,0-0.1,0.1-0.1,0.1C335.8,261,335.8,261,335.8,261.1z"/>
					<path class="st1" d="M325.6,256.3L325.6,256.3c0.1-0.1,0.1-0.3,0.2-0.4L325.6,256.3z"/>
					<path class="st1" d="M329.2,256.2c-0.1,0-0.1,0.8-0.1,1.2c0-0.3,0.1-0.5,0.2-0.6C329.3,256.6,329.3,256.4,329.2,256.2z"/>
					<path class="st1" d="M335,257.6l0.1-0.1C335,257.6,335,257.6,335,257.6z"/>
					<path class="st1" d="M323.1,256.1c0-0.1,0-0.2,0-0.3C323,255.9,323,256,323.1,256.1z"/>
					<path class="st1" d="M222.3,262.5c0-0.1,0-0.1,0-0.1C222.3,262.4,222.3,262.5,222.3,262.5z"/>
					<path class="st1" d="M218.1,258.3L218.1,258.3c0.1-0.2,0.1-0.4,0.1-0.5L218.1,258.3z"/>
					<path class="st1" d="M305.1,254.4C305.2,254.4,305.2,254.4,305.1,254.4C305.2,254.3,305.2,254.3,305.1,254.4z"/>
					<path class="st1" d="M274.6,255c0.3,0.8-0.6,1,0,1.8C274.5,256.5,275,255.5,274.6,255z"/>
					<path class="st1" d="M335.7,261c0,0-0.1,0-0.1,0C335.6,261,335.6,261,335.7,261z"/>
					<path class="st1" d="M274.6,256.8C274.6,256.8,274.6,256.8,274.6,256.8L274.6,256.8C274.6,256.9,274.6,256.9,274.6,256.8z"/>
					<path class="st1" d="M297.5,254.9c0,0.1,0,0.3,0.1,0.4C297.6,255.2,297.5,255.1,297.5,254.9z"/>
					<path class="st1" d="M303.2,256.1L303,256C303.1,256.1,303.2,256.1,303.2,256.1z"/>
					<path class="st1" d="M294.5,256.1c-0.1-0.1-0.1-0.2-0.2-0.1c0,0,0,0.1,0,0.1C294.4,256,294.4,256,294.5,256.1z"/>
					<path class="st1" d="M291.4,256.1c0,0.1,0,0.1,0.1,0.2c0,0,0.1,0,0.1,0L291.4,256.1z"/>
					<path class="st1" d="M231.7,262.1c-0.1-0.2-0.1-0.5-0.1-0.8C231.6,261.9,231.1,262.1,231.7,262.1z"/>
					<path class="st1" d="M335.8,260.6c0,0.2,0,0.3-0.1,0.4c0,0,0.1,0,0.1,0C335.8,260.8,335.8,260.7,335.8,260.6z"/>
					<path class="st1" d="M294.4,262.8l-0.5-0.1C294,262.7,294.2,262.8,294.4,262.8z"/>
					<path class="st1" d="M253.8,261.9l-0.1,0.1C253.7,262.1,253.8,262,253.8,261.9z"/>
					<path class="st1" d="M292.4,262.8c-0.1-0.3-0.2-0.5-0.3-0.6c0,0.1,0,0.1-0.1,0.2L292.4,262.8z"/>
					<path class="st1" d="M231.5,261.3C231.5,261.3,231.5,261.3,231.5,261.3C231.5,261.3,231.5,261.3,231.5,261.3z"/>
					<path class="st1" d="M228.3,263.3c0.5,0,0.2-1.1,0.3-1.7c0.6-0.3,0.3,0.8,0.4,1.4c0.3-0.3,0.6-1.3,0.9-1.3c0,0.2,0.1,0.2,0,0.5
						c0.4-0.9,1.1,0,1.5-1.1c0,0.1,0,0.2,0.1,0.3c-0.1-0.6-0.1-1.1-0.1-1.5c0.2,0,0.4-0.7,0.5,0c-0.1,0-0.1,0.3-0.2,0.5l0.2-0.3
						c0.2,1-0.3,0.4-0.3,1.1c0.4-0.3,0.9-1.2,1.3-0.9c0.1,1-0.8,0.3-0.3,1.2l-0.5-0.4c0.4,1.6-0.3-0.1,0,1.6
						c0.7,0.3,0.7-0.5,1.4-0.2c0.2-0.6,0-0.8,0.1-1.4c0.9-1,0.7,2.6,1.4,1.2c0.2-0.7,0.3-2,0.7-1.3l-0.2,1.2c0.6,0.1,0.4-1.7,1-0.9
						c-0.1,0.5-0.5,0.4-0.4,0.5c0.4,0.9,0.3-0.7,0.6-0.7l0.1,1c0.7-0.2,1.4-0.9,2.2-1.1c0,0.3-0.2,0.6,0,0.9c1-0.5,2.1,0.1,3,0.7
						l0.4-0.9c0.1,0,0.2,0.4,0.1,0.6c0.4,0.3,0-0.6,0.2-0.9c0.2-0.1,0.3,0.5,0.1,0.8c0.6-0.7,1.8-1.6,2.5-0.7l-0.1,0.3
						c0.5,0.4,0.6-1.8,1.1-1l-0.1,0.2c1.1,0.4,2.4-0.4,3.3,0.9c0.2-1.3,1.1,0.6,1.2-1.2c0.6,0.9,0.5,1.2,1.4,1.8
						c0.2,0.1,0.4-1.1,0.7-1.3l0,0.9l0.4-1l0.2,1.1l0.3-0.2c-0.1-0.1-0.2-0.4-0.2-0.7c0.4-0.4,1.1,0.6,1.1,1.1l1-0.8
						c0,0.4-0.2,0.5-0.3,0.7c0.6-0.9,0.1,1,0.6,0.1c-0.1-0.2,0-0.6,0-0.7c0.3,0.6,0.8,0.6,1.3,0.3l-0.1,0.6c0.8,0.2,1.6-0.3,2.5-0.3
						c-0.3-0.3-0.2-1.4,0-1.5l0.1,1c0.2-0.6-0.3-0.4,0.1-1.1c0.3,0.1,0.2,1.1,0,1.4l0.4-0.3c0,0.3-0.1,0.4-0.1,0.8
						c0.2-0.6,0.7,1,0.9-0.1l0,0.3c0.9,0,1.3-0.3,2-0.4c0-0.8,0.3-0.7,0.5-1.3c0.5,0.3,1.1,0.9,1.7,0.9c0.4-0.4,0.1-0.7,0.3-1.2
						c0,0.8,0.7,0.7,0.3,1.2c0.8-0.1,1-0.2,1.9-0.8c-0.1-0.3-0.2-0.5-0.2-0.7c0.2-0.1,0.4,0.3,0.4,0.7l0,0.1
						c1.1-1.2,2.5,2.2,3.3,0.6l0,0.1l0.9-0.8c0.4,0.1-0.2,0.6,0.1,1.1c1-1.3,1.5,0.2,2.3-0.7c0.6,2.3,2.2-0.2,3,1.3l0-0.5
						c0.2-0.5,0.3,0.3,0.4,0.4c0-0.4-0.2-0.5-0.1-0.8c1.8-0.6,3.7,0.8,5.5,1.3c0.7,0.1,0.4-2.8,1.2-1.5l-0.2,1c1.4-1.2,2.8,0,4.1-1
						c-0.1,0.2-0.1,0.5-0.2,0.5c0.3,0.7,1,0,1-0.6c0.2,0.1,0,0.5,0.2,0.8c0.3,0.4,0.7-0.9,0.9-0.2c0,0.1-0.1,0.2-0.1,0.3
						c0.2-0.3,0.9,0.1,0.7-0.7c0.5,0.4,1-0.4,1.4,0.1c0.3-0.9,0.9,0.4,0.9-0.9c0,1.4,0.9,1.1,1.2,0.5c-0.1,0.4,0.3,0.4,0.2,1
						c0.4,0,0.7-0.3,0.6-1c0.7,1.6,1.3-1.3,1.7,0.8c1.1-0.7,2.1-1.2,3-1.5c0,1.4-1.1,0.1-1,1.6c0.9-0.6,1.4-1.7,2.3-1.4
						c0.2,0.2-0.1,0.6-0.2,0.8c0.9-0.6,1.8,0.1,2.6-0.6c0,0.1-0.1,0.3-0.2,0.4c0.2,0,0.4,0.2,0.4-0.4l-0.2,0.2
						c-0.3-0.9,0.6-1.9,0.7-2.3c-0.3,1.8,0.8,0.4,0.4,2.7c0.1-0.1,0.2-0.4,0.2-0.8c0.2,0.1,0.2,0.4,0,0.8c0.6-0.3,0.4-1,0.9-1
						c0,0.3-0.1,0.4-0.2,0.8c0.3-0.6,0.5-1.2,1-0.9c0,0.2,0,0.4-0.1,0.4c0.8-0.1,1.3-1.5,2.1-1c-0.2,1.3,0.3,0.4,0.3,1.5l0.4-0.3
						l-0.2-0.5c0.4,0,0.7-0.8,1.1-0.4l-0.3,0.5l0.7-0.2l-0.4-0.4c0.4-0.6,0-1.4,0.5-1.1c-0.1,0.1,0.4,0,0.6,0.7c0,0,0,0,0,0
						c0.2-0.4,0.4-0.7,0.7-0.5c0.1,0.4-0.1,1.2,0,1.5c0.2-0.9,0.9-0.3,1.2-1.3c-0.1,0.2-0.1,0.8-0.1,0.9l0.2-0.8
						c0.2,0.2,0.2,0.4,0.2,0.8c0.5,0.1-0.2-1.4,0.5-0.8c-0.1,0.1,0,0.2-0.1,0.3c0.6,0.3,1.2-0.5,1.8-0.1c0.2,1.1-0.5,0.3-0.3,1.2
						c0.9-0.2,1.8-1.4,2.6-1.1l-0.2-0.1c0.1-1.6,0.6,0.8,1,0c-0.1,0.1-0.1,0.9-0.1,0.7c0.6,0.3,1.2-0.4,2-0.9l-0.1,0.4
						c0.3,0.4,0.9,0.2,1.2,0.4c0.1-0.4,0.3-0.3,0.2-0.9c1.1,2.3,2.1-1.2,3.1,0.7c-0.1,0-0.3,0.4-0.2,0.4l0.8-0.4
						c-0.1-0.7-0.1-0.4-0.3-1c0.1-0.4,0.3-0.7,0.6-0.7c-0.4,0.5,0,1.1,0.2,1.5c0-0.2,0-0.4,0-0.7c0.4,1.2,0.1-1.4,0.7-0.6l0,0.4
						c0.2-0.2,0.4-0.7,0.7-0.6c0.1,0.8-0.2,0.4-0.3,1c0.3,0,0.7-1.5,1-0.7c-0.1,0.2-0.4,0.2-0.5,0.4c0.3,0.9,0.4,0.7,0.6,0.9l0,0
						l0.6,0.4l-0.1-0.3c0.4-2.1,0.9-0.4,1.4-1.8c-0.6,1.3-0.1,0.8-0.1,1.7c0.1,0.3,0.4,0.5,0.3,0.8c0.3-0.7,0.5,0.6,0.8-0.5
						c0,0.3,0.3,0,0.2,0.8c0.4-0.2-0.1-0.5-0.1-0.9c0.5-1,1.3,1.2,2.1-0.2c0.7-0.6,0.8-1.6,1.4-2c0.2,0.5-0.2,1.1-0.2,1.1
						c0.3,0.4,0.6,0.4,0.9,0c-0.1,0.3,0,0.5,0.1,0.8c0.3-0.1,0.2-1.1,0.5-0.6c-0.1,0.3-0.1,0.8-0.3,1.2c0.3-0.3,0.6-0.8,0.9-1.1
						c0.1,0.5-0.2,0.8-0.3,1.1c0.4-0.2,0.9-0.5,1-1.3l-0.2-0.3c0.1,0,0.1,0.7,0,0.8c-0.3,0.6-0.4-0.3-0.5-0.6l0.2-0.2
						c-0.2-1.7-0.9,0.3-1.3,0.2l0.2-1.2l-0.5,1c-0.1-0.3-0.2-1,0.1-1.2c-0.3-0.6-0.3,0.4-0.6-0.2c0-0.1,0-0.2,0-0.2l-0.3,0.4
						c0.1-0.3-0.1-0.9,0.1-0.7c-0.6-0.7-0.9,0.9-1.1,0l0-0.1c-0.8,0.4-0.1,0.9-0.7,2l-0.4-2.3l-0.1,0.9c-0.1,0-0.2-0.1-0.2-0.5
						c-0.3,0.6,0.1,0.4-0.1,1c-0.4-0.8-1.1,0.4-1.2-1.1c-0.1,0.7,0.4,0.5,0,1c-0.1-1.6-0.5,0.3-0.8-0.5c0.1-0.8,0.4-0.4,0.1-1.1
						c-0.2,1.4-0.7-0.3-1,0c0,1.1-0.7,0.5-1.2,0.8c0-0.4-0.9-0.6-1.4-1l0-0.2c-0.1,1.1-0.6,0.9-0.9,1.1c0-0.7,0.1-0.9,0.3-1.2
						l-0.3,0c-0.1,0.4-0.2,0.5-0.4,0.7l0.1-0.8c-0.4,0-0.9,1-1.5,0.4c0,0.8,0.5,2.1-0.1,2.7c0-0.4,0-1.1,0.1-1.3
						c-0.1,0.1-0.2,0.3-0.3,0.2l0.2-0.7c-0.3-0.3-0.1,0.6-0.3,0.5c0-0.6-0.2-0.4-0.1-0.9c0.1-0.1,0.2,0.2,0.3,0
						c-0.2-0.1-0.5-0.5-0.6-0.9c0,0.3,0,0.8-0.2,0.9c-0.4,0-0.2-0.7-0.4-1c-0.1,0.4-0.4,0-0.4,0.9c-0.1,0-0.2-0.4-0.2-0.7
						c-0.2,0.4-1.1,0.1-0.8,1.1l0.1,0.1c0,0,0,0,0,0c0,0,0,0,0,0h0c-0.7,0.9-1.6-0.5-2.3-0.1l0-0.3c-0.4,0.3-1,0.2-1.3,0.8
						c-0.1,0-0.3-0.5-0.3-0.9c-0.3,0.2-0.4,0.6-0.9,0.1c0.3-0.5-0.1-0.5,0.3-0.4c-0.4-0.3-0.5-0.7-1,0.1c0.2-0.8-0.3-1-0.5-0.7
						l0.3,0.5c-0.2,0.1-0.4,0-0.6,0l0.1-1c-0.9-1.2-1.6,2.1-2.3,0c-0.2,0.7,0.5,0.5,0.3,1.3c-0.4-0.1-0.8-1.6-1-1.6
						c-0.6-0.6-0.5,1.5-1.1,1.1c0.1,0.4,0.1,1.3-0.3,1.6c-0.4-0.1-0.5-1.5-0.2-1.8c0.1,0,0.1,0.1,0.1,0.2c0.1-0.1,0.3-0.3,0.1-0.7
						l-0.1,0.4c-0.2-0.4-0.8-0.3-0.6-0.9c-0.3,0.3-0.1,0.6,0.1,0.8c-0.5-0.5-0.8,0-1.4-0.4c0.1,0.2,0.2,0.6,0.1,0.6
						c-0.8-0.4-0.4,0.7-0.9,0.8c-0.3-0.5,0.1-1.3-0.4-0.8c-0.3-0.4-0.1-0.9,0.1-1.2c-0.5,0.7-0.9-0.5-1.2-0.6l0.3-0.3
						c-0.2,0.2-0.3,0.2-0.4,0.2l0.1,0.7c-0.2-0.1-0.3-0.1-0.3-0.4c-0.2,0.5,0.1,1.2-0.2,1.8c-0.2-0.4-0.6,0.4-0.7-0.6
						c0.6,0.3-0.1-0.9,0.5-1.1c-0.1,0.1-0.2,0.1-0.4,0c0-0.1,0-0.2,0.1-0.2c-0.6-0.8-0.3,1.1-0.9,1c0.1-0.5-0.1-1-0.3-0.9
						c0.3,0,0.1,0.9-0.1,1.3c-0.4-0.4-0.4,0.3-0.7,0.3l0.2,0.2c-0.1,0.5-0.3,0.5-0.6,0.6c0-0.4,0.3-0.3,0.2-0.5
						c-0.3,0.9-0.7-1-1.2-0.3c-0.2-0.4,0-1-0.2-1.2c-0.5,0.7-0.5-0.7-1.1-0.2c0.2,0.7,0.2,0.5-0.2,1.2l0.9-0.5l-0.6,1
						c0.3,0,0.5-0.4,0.7-0.3c-0.3,0.6-0.2,0.4-0.1,1c-0.4-1.1-0.7,0.6-1.1-0.1l0-1.8c-0.6-0.8-1.1,0.9-1.9,0.5l0.3,0.3
						c-0.1,0.7-0.5,0.1-0.8,0.4c0-0.6-0.1-0.8-0.2-1.2c0,0.4-0.6,0-0.7,1.1l-0.4-0.8c-0.6-0.3-0.7,1.7-1.4,1.5
						c0.2-0.6-0.1-1.1,0.3-1.5c-0.2,0-0.4-0.1-0.4,0.3c-0.1-0.4-0.6,0.8-0.8,0.2c-0.1,0.3-0.1,0.9-0.3,0.8c0-0.1,0-0.3,0-0.3
						c0,0.3-0.4,0.4-0.2,1.1c-0.6-1.8-1.8,0.1-2.3-1.5c-0.5,0.2-1,0.4-1.4,0.4c0-0.2,0-0.3,0.1-0.2c-0.6-0.6-0.3,1.7-1,1.1
						c-0.3-1,0.3-0.5,0.1-0.9c-0.1-1.9-0.8,0.3-1.2-0.9l0.1-0.1c-0.3-0.7-0.8,0.7-1.4,0.6c0,0,0-0.2,0-0.3c-0.4,1-1.1,1.3-1.6,1.6
						c0.2-0.8,0.2-0.4,0.1-1.2c-0.2,0.1,0.1,1.2-0.4,1.5c-0.2-0.4-0.5-0.8-0.5-1.6l0.4,0c-0.2-1.1-0.6,0-0.8-0.1l0-0.5
						c-0.7,0.2-0.7,1.3-1.4,1.2l0.1,0.4c-0.4,1.2-0.3-0.7-0.7,0.2l-0.1-1.2c-0.3,0.3-0.9,1.1-1.4,1.4c0.3-0.9,0.8-1.3,1.2-1.8
						c-0.3,0-0.9,0.1-1,0.7c0.1-0.1,0.2-0.4,0.3-0.2c-0.3,0.9-0.7,1.4-1.3,1.4c0.1-2.3-1.3-0.6-1.7-2.4c-0.9,0.8-1.8-0.4-2.9-0.2
						c0.4,1.8-0.3,0.1-0.2,1.9c-0.2,0.1-0.3,0.1-0.4,0l-0.8-1.1c-0.2-0.5,0.2-0.4,0.2-0.8c-0.5-0.1-0.2-0.8-0.6-1.3
						c0.1,0.7-0.2,0.9-0.5,0.7l0.4,0.8c-0.8,1-0.7-1.5-1.4-0.6l0.2-0.6c-0.4,0.3-1.4,0-1.8,1.5c-0.1-0.2-0.2-0.7,0-0.8
						c-0.9-0.2-2.1,1.6-2.8,0.7l0.1-0.4c-0.2,0.1-0.3,0.8-0.5,0.4c0-0.2,0.1-0.4,0-0.5c-0.1,0.2-0.5,0.8-0.7,0.5l0.2-0.5
						c-0.9-0.6-1.4,1.2-2.2,1.5c0-1.3-0.7-1.7-1.1-2l0-0.2c-1.1-0.2-1.8,1.1-2.8,1.6c-0.6-1.4-2.1-0.6-3.1-1.4c0.2,0.2,0,1-0.2,1.2
						c-0.2-0.3-0.6,0.9-0.6-0.3l0.1,0c-0.2-1.2-0.6-0.9-1-0.9l-0.1,1.6c-1-2.3-2.5,0.8-3.1-1.2c-0.2,0.4-0.5,0.4-0.8,0.8l0-0.8
						c-0.6-0.2-1-0.3-1.8-0.1l0.2-0.6c-0.5-0.1-0.6,2.4-1,2.5l-0.1-1.3c-0.8,0-1.6-1.1-2.4,0.1c0-0.2,0-0.6,0.2-0.6
						c-0.4,0-1.4-0.9-1.3,0.9c0-1.1-0.8-0.1-1.2,0.4l0.1-0.8c-0.4,1.1-0.4,1.4-0.9,1.7c-0.1-0.1-0.1-0.7,0.1-0.5
						c-0.4-0.4-0.3,0.8-0.8,0.3l0.2-0.5c-0.4-0.1-0.4,0.2-0.6,0.8c-0.3,0.3-0.8-0.2-0.8-1c-0.1,0.5-0.3,1.1-0.5,0.9
						c0-0.3,0.1-0.5,0.1-0.5c-0.7-0.6-1,1-1.5,0.2c0-0.3,0-0.4-0.1-0.5c0.5,0,1,0.1,0.9,0.1c0-0.8-0.4-0.9-0.1-2
						c-0.4,0.6-1,1.8-1.4,1.5c0-0.1,0-0.1-0.1-0.3l0-0.1c-0.1-0.1-0.2,0-0.3,0.1c-0.1-0.1-0.2-0.2-0.4-0.2c-0.1-0.6-0.5-0.3-0.7-0.4
						c0,0.8-0.3,0.7,0,1.4c0-0.1,0-0.1,0.2-0.1c0,0,0.1,0,0.1-0.1c0,0,0,0,0,0.1c0.1,0,0.3,0,0.5-0.1c-0.2,0.4-0.4,0.8-0.6,0.3
						c-0.1,0.5-0.2,1.1-0.3,1.4c-0.3-1.2-0.9-1.8-1-2.5c-0.7,0.5-1.6,0.3-2,1.9c-0.2,0.2-0.2-0.5-0.3-0.7c0.1-0.2,0.2-0.1,0.3-0.4
						c-0.4,0.4-1.1,0.2-1.2,1.3c-0.5-0.5,0.3-1-0.4-0.8l0.1-0.3c-1.3-1.8-2.1,2.8-3.5,0.6c0.1,0.1,0.1,0.2,0.2,0.4
						c-1.6-1-3.4,0.9-5-0.6c-0.5-0.3-0.5,0.4-0.8,0.9l-0.1-0.9l-0.5,1c-0.7,0.8-1.2-2.2-2-0.8l0.1,0.6c-0.3-0.1-1,0.4-0.9-0.3
						c0,0.1-0.1,0.6-0.2,0.3l0-0.5l-0.8,0.8c-0.6-0.3,0.1-1.9-0.8-2c-0.3,0.2-0.9,1.4-0.8,1.7c0.1,0,0.3,0.3,0.3,0.8l-0.3,0.2
						c-0.1,1.4-0.3,2.8,0.4,3.8l0.5-0.9l0.2,0.7l-0.4,0c0.2,0.6,0.4,0.1,0.6-0.3c0,0.4,0.1,0.6,0.2,0.7l0.5-1.3
						c0.1,0.5-0.2,1.1,0.1,1.4c0.2-0.6-0.2-1.2,0.2-1.6c0.2,0.6,0.2,1.2,0.4,0.6c0,0.4,0,0.6-0.1,0.7c0.2-0.4,0.7-0.2,0.8-0.9
						c0.2,0.8,0.8-0.2,0.8,1.1c0.1-0.3,0.4-1,0.7-1.1c-0.4,1.6,0.9,0.1,0.7,1.8c0.3-1.4,1.1-0.6,1.7-1.4c0,0.1-0.1,0.3-0.1,0.3
						c0.3,0.1,0.4,0.5,0.6,0.8c0-1.2,0.5-1.4,0.8-2.2c0.4,1.1-0.2,1.4-0.1,2.5c0-1,0.7-1,0.5-1.7c0.3,0.7,0.2,0.3,0.4,1.3
						c0.1-1.5,0.3-0.2,0.5-1.2c0.4,0.7,0.1,1.4,0.6,0.9C228.7,262.8,228.3,263.3,228.3,263.3z M239.2,260.8
						C239.2,260.8,239.2,260.8,239.2,260.8c-0.1,0-0.2,0.1-0.2,0.1C239,260.8,239.1,260.8,239.2,260.8z M240.1,260.7
						c-0.1,0-0.3,0-0.4,0c0-0.3,0-0.6,0.1-0.6C239.8,260.3,240,260.5,240.1,260.7z M238.2,254.9c0.1-0.1,0.2,0,0.2,0.2
						c-0.1,0-0.1,0-0.3,0.1c0,0,0,0.1,0,0.1C238.1,255.2,238.2,255,238.2,254.9z"/>
					<path class="st1" d="M237.9,256C237.9,256,237.9,256.1,237.9,256c0,0.1,0,0.2,0,0.3C238,256.2,238,256.1,237.9,256
						C238,256,238,256,237.9,256z"/>
					<path class="st1" d="M321.1,257.3L321.1,257.3c0,0,0,0,0,0.1C321.1,257.3,321.1,257.3,321.1,257.3z"/>
					<polygon class="st1" points="252.8,262.4 252.8,262.1 252.7,262.3 					"/>
					<path class="st1" d="M326.1,260.2c0,0.1,0,0.2,0.1,0.2C326.2,260.3,326.2,260.2,326.1,260.2z"/>
					<path class="st1" d="M328.3,260.3l0.3,0.3C328.5,260.5,328.4,260.4,328.3,260.3z"/>
					<path class="st1" d="M330,260.8c0-0.1,0-0.3,0-0.4c0,0,0,0,0,0L330,260.8z"/>
					<path class="st1" d="M303.3,261.8C303.3,261.8,303.3,261.8,303.3,261.8C303.1,262,303.2,261.9,303.3,261.8z"/>
					<path class="st1" d="M311.2,259.8c-0.1,0.2-0.2,0.3-0.3,0.4C311.1,260.2,311.2,260.3,311.2,259.8z"/>
					<path class="st1" d="M294.4,262.8C294.4,262.8,294.4,262.8,294.4,262.8C294.4,262.8,294.4,262.8,294.4,262.8L294.4,262.8z"/>
					<path class="st1" d="M310.6,260.2c0.1,0.2,0.3,0.1,0.4,0C310.9,260.1,310.7,260,310.6,260.2z"/>
					<path class="st1" d="M337.3,261.1L337.3,261.1c0.1,0,0.1-0.1,0.1-0.1L337.3,261.1z"/>
					<path class="st1" d="M337.3,261L337.3,261C337.4,260.9,337.4,260.9,337.3,261z"/>
					<path class="st1" d="M337.6,260.7l-0.2,0.2C337.5,260.9,337.6,261,337.6,260.7z"/>
					<path class="st1" d="M335,260.8l0,0.3C335,261,335,260.9,335,260.8z"/>
					<path class="st1" d="M334.4,260.8c0.2,0.1,0.4,0.7,0.6,0.5l0-0.2C334.9,261.5,334.5,260.3,334.4,260.8z"/>
					<path class="st1" d="M331.5,257.1l0.6,0.2c-0.1-0.3-0.2-0.8,0-0.8C331.4,255.5,332.3,257.2,331.5,257.1z"/>
					<path class="st1" d="M329.8,256.6c0.3-0.2,0-0.5,0-0.7C329.6,256.2,329.6,256.3,329.8,256.6z"/>
					<path class="st1" d="M317.1,256.6l0-0.8C316.9,255.9,317.1,256.1,317.1,256.6z"/>
					<polygon class="st1" points="314.7,260.6 314.9,261 315,260.3 					"/>
					<polygon class="st1" points="313.3,255.1 313.4,255 313,255.3 					"/>
					<path class="st1" d="M292,255.4l0.1,0.9C292.2,256.1,292.2,255.1,292,255.4z"/>
					<path class="st1" d="M282.8,256.3c-0.1-0.5-0.4-0.8-0.5-0.3C282.5,256.1,282.7,256.4,282.8,256.3z"/>
					<polygon class="st1" points="255.2,254.8 255.4,254.5 255.1,254.7 					"/>
				</g>
			</g>
		</g>
	</g>
</g>
<g>
	<g>
		<g>
			<g>
				<g>
					<path class="st1" d="M339.3,308.5c0.1-0.3,0-0.8-0.1-0.7l-0.1,1L339.3,308.5z"/>
					<path class="st1" d="M338.1,306.7c-0.2,0.5-0.4,1.3-0.3,2.2c0.2-1,0.3-0.6,0.5-1.7c0.2-0.1,0.3,0.3,0.3,0.7
						c0.1-0.3,0.3,0.2,0.4-0.4c-0.2-0.8-0.5-0.8-0.8-0.2C338,307.1,338.1,306.9,338.1,306.7z"/>
					<path class="st1" d="M320.9,305.1l0.1,0.1C321,305.2,321,305.2,320.9,305.1z"/>
					<path class="st1" d="M310.3,304.6c0.1,0,0.1-0.1,0.1-0.2C310.3,304.5,310.3,304.5,310.3,304.6z"/>
					<path class="st1" d="M308.5,303.5c0,0,0.1,0,0.1,0.1C308.5,303.5,308.5,303.4,308.5,303.5z"/>
					<path class="st1" d="M320.9,305.1l-0.3-0.3C320.6,305.2,320.8,305.1,320.9,305.1z"/>
					<path class="st1" d="M335.8,309.1c0.1,0,0.1-0.1,0.2-0.3c0,0-0.1,0.1-0.1,0.1C335.8,309,335.8,309,335.8,309.1z"/>
					<path class="st1" d="M325.6,304.3L325.6,304.3c0.1-0.1,0.1-0.3,0.2-0.4L325.6,304.3z"/>
					<path class="st1" d="M329.2,304.2c-0.1,0-0.1,0.8-0.1,1.2c0-0.3,0.1-0.5,0.2-0.6C329.3,304.6,329.3,304.4,329.2,304.2z"/>
					<path class="st1" d="M335,305.7l0.1-0.1C335,305.6,335,305.6,335,305.7z"/>
					<path class="st1" d="M323.1,304.2c0-0.1,0-0.2,0-0.3C323,304,323,304.1,323.1,304.2z"/>
					<path class="st1" d="M222.3,310.5c0-0.1,0-0.1,0-0.2C222.3,310.4,222.3,310.5,222.3,310.5z"/>
					<path class="st1" d="M218.1,306.3L218.1,306.3c0.1-0.2,0.1-0.4,0.1-0.5L218.1,306.3z"/>
					<path class="st1" d="M305.1,302.4C305.2,302.4,305.2,302.4,305.1,302.4C305.2,302.3,305.2,302.4,305.1,302.4z"/>
					<path class="st1" d="M274.6,303c0.3,0.8-0.6,1,0,1.8C274.5,304.5,275,303.5,274.6,303z"/>
					<path class="st1" d="M335.7,309c0,0-0.1,0-0.1,0C335.6,309,335.6,309,335.7,309z"/>
					<path class="st1" d="M274.6,304.9C274.6,304.9,274.6,304.9,274.6,304.9L274.6,304.9C274.6,304.9,274.6,304.9,274.6,304.9z"/>
					<path class="st1" d="M297.5,302.9c0,0.1,0,0.3,0.1,0.4C297.6,303.2,297.5,303.1,297.5,302.9z"/>
					<path class="st1" d="M303.2,304.1L303,304C303.1,304.1,303.2,304.1,303.2,304.1z"/>
					<path class="st1" d="M294.5,304.1c-0.1-0.1-0.1-0.2-0.2-0.1c0,0,0,0.1,0,0.1C294.4,304,294.4,304,294.5,304.1z"/>
					<path class="st1" d="M291.4,304.1c0,0.1,0,0.1,0.1,0.2c0,0,0.1,0,0.1,0L291.4,304.1z"/>
					<path class="st1" d="M231.7,310.1c-0.1-0.2-0.1-0.5-0.1-0.8C231.6,309.9,231.1,310.1,231.7,310.1z"/>
					<path class="st1" d="M335.8,308.6c0,0.2,0,0.3-0.1,0.4c0,0,0.1,0,0.1,0C335.8,308.8,335.8,308.7,335.8,308.6z"/>
					<path class="st1" d="M294.4,310.8l-0.5-0.1C294,310.7,294.2,310.8,294.4,310.8z"/>
					<path class="st1" d="M253.8,310l-0.1,0.1C253.7,310.1,253.8,310.1,253.8,310z"/>
					<path class="st1" d="M292.4,310.8c-0.1-0.3-0.2-0.5-0.3-0.6c0,0.1,0,0.1-0.1,0.2L292.4,310.8z"/>
					<path class="st1" d="M231.5,309.3C231.5,309.3,231.5,309.3,231.5,309.3C231.5,309.3,231.5,309.3,231.5,309.3z"/>
					<path class="st1" d="M228.3,311.3c0.5,0,0.2-1.1,0.3-1.7c0.6-0.3,0.3,0.8,0.4,1.4c0.3-0.3,0.6-1.3,0.9-1.3c0,0.2,0.1,0.2,0,0.5
						c0.4-0.9,1.1,0,1.5-1.1c0,0.1,0,0.2,0.1,0.3c-0.1-0.6-0.1-1.1-0.1-1.5c0.2,0,0.4-0.7,0.5,0c-0.1,0-0.1,0.3-0.2,0.5l0.2-0.3
						c0.2,1-0.3,0.4-0.3,1.1c0.4-0.3,0.9-1.2,1.3-0.9c0.1,1-0.8,0.3-0.3,1.2l-0.5-0.4c0.4,1.6-0.3-0.1,0,1.6
						c0.7,0.3,0.7-0.5,1.4-0.2c0.2-0.6,0-0.8,0.1-1.4c0.9-1,0.7,2.6,1.4,1.2c0.2-0.7,0.3-2,0.7-1.3l-0.2,1.2c0.6,0.1,0.4-1.7,1-0.9
						c-0.1,0.5-0.5,0.4-0.4,0.5c0.4,0.9,0.3-0.7,0.6-0.7l0.1,1c0.7-0.2,1.4-0.9,2.2-1.1c0,0.3-0.2,0.6,0,0.9c1-0.5,2.1,0.1,3,0.7
						l0.4-0.9c0.1,0,0.2,0.4,0.1,0.6c0.4,0.3,0-0.6,0.2-0.9c0.2-0.1,0.3,0.5,0.1,0.8c0.6-0.7,1.8-1.6,2.5-0.7l-0.1,0.3
						c0.5,0.4,0.6-1.8,1.1-1l-0.1,0.2c1.1,0.4,2.4-0.4,3.3,0.9c0.2-1.3,1.1,0.6,1.2-1.2c0.6,0.9,0.5,1.2,1.4,1.8
						c0.2,0.1,0.4-1.1,0.7-1.3l0,0.9l0.4-1l0.2,1.1l0.3-0.2c-0.1-0.1-0.2-0.4-0.2-0.7c0.4-0.4,1.1,0.6,1.1,1.1l1-0.8
						c0,0.4-0.2,0.5-0.3,0.7c0.6-0.9,0.1,1,0.6,0.1c-0.1-0.2,0-0.6,0-0.7c0.3,0.6,0.8,0.6,1.3,0.3l-0.1,0.6c0.8,0.2,1.6-0.3,2.5-0.3
						c-0.3-0.3-0.2-1.4,0-1.5l0.1,1c0.2-0.6-0.3-0.4,0.1-1.1c0.3,0.1,0.2,1.1,0,1.4l0.4-0.3c0,0.3-0.1,0.4-0.1,0.8
						c0.2-0.6,0.7,1,0.9-0.1l0,0.3c0.9,0,1.3-0.3,2-0.4c0-0.8,0.3-0.7,0.5-1.3c0.5,0.3,1.1,0.9,1.7,0.9c0.4-0.4,0.1-0.7,0.3-1.2
						c0,0.8,0.7,0.7,0.3,1.2c0.8-0.1,1-0.2,1.9-0.8c-0.1-0.3-0.2-0.5-0.2-0.7c0.2-0.1,0.4,0.3,0.4,0.7l0,0.1
						c1.1-1.2,2.5,2.2,3.3,0.6l0,0.1l0.9-0.8c0.4,0.1-0.2,0.6,0.1,1.1c1-1.3,1.5,0.2,2.3-0.7c0.6,2.3,2.2-0.2,3,1.3l0-0.5
						c0.2-0.5,0.3,0.3,0.4,0.4c0-0.4-0.2-0.5-0.1-0.8c1.8-0.6,3.7,0.8,5.5,1.3c0.7,0.1,0.4-2.8,1.2-1.5l-0.2,1c1.4-1.2,2.8,0,4.1-1
						c-0.1,0.2-0.1,0.5-0.2,0.5c0.3,0.7,1,0,1-0.6c0.2,0.1,0,0.5,0.2,0.8c0.3,0.4,0.7-0.9,0.9-0.2c0,0.1-0.1,0.2-0.1,0.3
						c0.2-0.3,0.9,0.1,0.7-0.7c0.5,0.4,1-0.4,1.4,0.1c0.3-0.9,0.9,0.4,0.9-0.9c0,1.4,0.9,1.1,1.2,0.5c-0.1,0.4,0.3,0.4,0.2,1
						c0.4,0,0.7-0.3,0.6-1c0.7,1.6,1.3-1.3,1.7,0.8c1.1-0.7,2.1-1.2,3-1.5c0,1.4-1.1,0.1-1,1.6c0.9-0.6,1.4-1.7,2.3-1.4
						c0.2,0.2-0.1,0.6-0.2,0.8c0.9-0.6,1.8,0.1,2.6-0.6c0,0.1-0.1,0.3-0.2,0.4c0.2,0,0.4,0.2,0.4-0.4l-0.2,0.2
						c-0.3-0.9,0.6-1.9,0.7-2.3c-0.3,1.8,0.8,0.4,0.4,2.7c0.1-0.1,0.2-0.4,0.2-0.8c0.2,0.1,0.2,0.4,0,0.8c0.6-0.3,0.4-1,0.9-1
						c0,0.3-0.1,0.4-0.2,0.8c0.3-0.6,0.5-1.2,1-0.9c0,0.2,0,0.4-0.1,0.4c0.8-0.1,1.3-1.5,2.1-1c-0.2,1.3,0.3,0.4,0.3,1.5l0.4-0.3
						l-0.2-0.5c0.4,0,0.7-0.8,1.1-0.4l-0.3,0.5l0.7-0.2l-0.4-0.4c0.4-0.6,0-1.4,0.5-1.1c-0.1,0.1,0.4,0,0.6,0.7c0,0,0,0,0,0
						c0.2-0.4,0.4-0.7,0.7-0.5c0.1,0.4-0.1,1.2,0,1.5c0.2-0.9,0.9-0.3,1.2-1.3c-0.1,0.2-0.1,0.8-0.1,0.9l0.2-0.8
						c0.2,0.2,0.2,0.4,0.2,0.8c0.5,0.1-0.2-1.4,0.5-0.8c-0.1,0.1,0,0.2-0.1,0.3c0.6,0.3,1.2-0.5,1.8-0.1c0.2,1.1-0.5,0.3-0.3,1.2
						c0.9-0.2,1.8-1.4,2.6-1.1l-0.2-0.1c0.1-1.6,0.6,0.8,1,0c-0.1,0.1-0.1,0.9-0.1,0.7c0.6,0.3,1.2-0.4,2-0.9l-0.1,0.4
						c0.3,0.4,0.9,0.2,1.2,0.4c0.1-0.4,0.3-0.3,0.2-0.9c1.1,2.3,2.1-1.2,3.1,0.7c-0.1,0-0.3,0.4-0.2,0.4l0.8-0.4
						c-0.1-0.7-0.1-0.4-0.3-1c0.1-0.4,0.3-0.7,0.6-0.7c-0.4,0.5,0,1.1,0.2,1.5c0-0.2,0-0.4,0-0.7c0.4,1.2,0.1-1.4,0.7-0.6l0,0.4
						c0.2-0.2,0.4-0.7,0.7-0.6c0.1,0.8-0.2,0.4-0.3,1c0.3,0,0.7-1.5,1-0.7c-0.1,0.2-0.4,0.2-0.5,0.4c0.3,0.9,0.4,0.7,0.6,0.9l0,0
						l0.6,0.4l-0.1-0.3c0.4-2.1,0.9-0.4,1.4-1.8c-0.6,1.3-0.1,0.8-0.1,1.7c0.1,0.3,0.4,0.5,0.3,0.8c0.3-0.7,0.5,0.6,0.8-0.5
						c0,0.3,0.3,0,0.2,0.8c0.4-0.2-0.1-0.5-0.1-0.9c0.5-1,1.3,1.2,2.1-0.2c0.7-0.6,0.8-1.6,1.4-2c0.2,0.5-0.2,1.1-0.2,1.1
						c0.3,0.4,0.6,0.4,0.9,0c-0.1,0.3,0,0.5,0.1,0.8c0.3-0.1,0.2-1.1,0.5-0.6c-0.1,0.3-0.1,0.8-0.3,1.2c0.3-0.3,0.6-0.8,0.9-1.1
						c0.1,0.5-0.2,0.8-0.3,1.1c0.4-0.2,0.9-0.5,1-1.3l-0.2-0.3c0.1,0,0.1,0.7,0,0.8c-0.3,0.6-0.4-0.3-0.5-0.6l0.2-0.2
						c-0.2-1.7-0.9,0.3-1.3,0.2l0.2-1.2l-0.5,1c-0.1-0.3-0.2-1,0.1-1.2c-0.3-0.6-0.3,0.4-0.6-0.2c0-0.1,0-0.2,0-0.2l-0.3,0.4
						c0.1-0.3-0.1-0.9,0.1-0.7c-0.6-0.7-0.9,0.9-1.1,0l0-0.1c-0.8,0.4-0.1,0.9-0.7,2l-0.4-2.3l-0.1,0.9c-0.1,0-0.2-0.1-0.2-0.5
						c-0.3,0.6,0.1,0.4-0.1,1c-0.4-0.8-1.1,0.4-1.2-1.1c-0.1,0.7,0.4,0.5,0,1c-0.1-1.6-0.5,0.3-0.8-0.5c0.1-0.8,0.4-0.4,0.1-1.1
						c-0.2,1.4-0.7-0.3-1,0c0,1.1-0.7,0.5-1.2,0.8c0-0.4-0.9-0.6-1.4-1l0-0.2c-0.1,1.1-0.6,0.9-0.9,1.1c0-0.7,0.1-0.9,0.3-1.2
						l-0.3,0c-0.1,0.4-0.2,0.5-0.4,0.7l0.1-0.8c-0.4,0-0.9,1-1.5,0.4c0,0.8,0.5,2.1-0.1,2.7c0-0.4,0-1.1,0.1-1.3
						c-0.1,0.1-0.2,0.3-0.3,0.2l0.2-0.7c-0.3-0.3-0.1,0.6-0.3,0.5c0-0.6-0.2-0.4-0.1-0.9c0.1-0.1,0.2,0.2,0.3,0
						c-0.2-0.1-0.5-0.5-0.6-0.9c0,0.3,0,0.8-0.2,0.9c-0.4,0-0.2-0.7-0.4-1c-0.1,0.4-0.4,0-0.4,0.9c-0.1,0-0.2-0.4-0.2-0.7
						c-0.2,0.4-1.1,0.1-0.8,1.1l0.1,0.1c0,0,0,0,0,0c0,0,0,0,0,0h0c-0.7,0.9-1.6-0.5-2.3-0.1l0-0.3c-0.4,0.3-1,0.2-1.3,0.8
						c-0.1,0-0.3-0.5-0.3-0.9c-0.3,0.2-0.4,0.6-0.9,0.1c0.3-0.5-0.1-0.5,0.3-0.4c-0.4-0.3-0.5-0.7-1,0.1c0.2-0.8-0.3-1-0.5-0.7
						l0.3,0.5c-0.2,0.1-0.4,0-0.6,0l0.1-1c-0.9-1.2-1.6,2.1-2.3,0c-0.2,0.7,0.5,0.5,0.3,1.3c-0.4-0.1-0.8-1.6-1-1.6
						c-0.6-0.6-0.5,1.5-1.1,1.1c0.1,0.4,0.1,1.3-0.3,1.6c-0.4-0.1-0.5-1.5-0.2-1.8c0.1,0,0.1,0.1,0.1,0.2c0.1-0.1,0.3-0.3,0.1-0.7
						l-0.1,0.4c-0.2-0.4-0.8-0.3-0.6-0.9c-0.3,0.3-0.1,0.6,0.1,0.8c-0.5-0.5-0.8,0-1.4-0.4c0.1,0.2,0.2,0.6,0.1,0.6
						c-0.8-0.4-0.4,0.7-0.9,0.8c-0.3-0.5,0.1-1.3-0.4-0.8c-0.3-0.4-0.1-0.9,0.1-1.2c-0.5,0.7-0.9-0.5-1.2-0.6l0.3-0.3
						c-0.2,0.2-0.3,0.2-0.4,0.2l0.1,0.7c-0.2-0.1-0.3-0.1-0.3-0.4c-0.2,0.5,0.1,1.2-0.2,1.8c-0.2-0.4-0.6,0.4-0.7-0.6
						c0.6,0.3-0.1-0.9,0.5-1.1c-0.1,0.1-0.2,0.1-0.4,0c0-0.1,0-0.2,0.1-0.2c-0.6-0.8-0.3,1.1-0.9,1c0.1-0.5-0.1-1-0.3-0.9
						c0.3,0,0.1,0.9-0.1,1.3c-0.4-0.4-0.4,0.3-0.7,0.3l0.2,0.2c-0.1,0.5-0.3,0.5-0.6,0.6c0-0.4,0.3-0.3,0.2-0.5
						c-0.3,0.9-0.7-1-1.2-0.3c-0.2-0.4,0-1-0.2-1.2c-0.5,0.7-0.5-0.7-1.1-0.2c0.2,0.7,0.2,0.5-0.2,1.2l0.9-0.5l-0.6,1
						c0.3,0,0.5-0.4,0.7-0.3c-0.3,0.6-0.2,0.4-0.1,1c-0.4-1.1-0.7,0.6-1.1-0.1l0-1.8c-0.6-0.8-1.1,0.9-1.9,0.5l0.3,0.3
						c-0.1,0.7-0.5,0.1-0.8,0.4c0-0.6-0.1-0.8-0.2-1.2c0,0.4-0.6,0-0.7,1.1l-0.4-0.8c-0.6-0.3-0.7,1.7-1.4,1.5
						c0.2-0.6-0.1-1.1,0.3-1.5c-0.2,0-0.4-0.1-0.4,0.3c-0.1-0.4-0.6,0.8-0.8,0.2c-0.1,0.3-0.1,0.9-0.3,0.8c0-0.1,0-0.3,0-0.3
						c0,0.3-0.4,0.4-0.2,1.1c-0.6-1.8-1.8,0.1-2.3-1.5c-0.5,0.2-1,0.4-1.4,0.4c0-0.2,0-0.3,0.1-0.2c-0.6-0.6-0.3,1.7-1,1.1
						c-0.3-1,0.3-0.5,0.1-0.9c-0.1-1.9-0.8,0.3-1.2-0.9l0.1-0.1c-0.3-0.7-0.8,0.7-1.4,0.6c0,0,0-0.2,0-0.3c-0.4,1-1.1,1.3-1.6,1.6
						c0.2-0.8,0.2-0.4,0.1-1.2c-0.2,0.1,0.1,1.2-0.4,1.5c-0.2-0.4-0.5-0.8-0.5-1.6l0.4,0c-0.2-1.1-0.6,0-0.8-0.1l0-0.5
						c-0.7,0.2-0.7,1.3-1.4,1.2l0.1,0.4c-0.4,1.2-0.3-0.7-0.7,0.2l-0.1-1.2c-0.3,0.3-0.9,1.1-1.4,1.4c0.3-0.9,0.8-1.3,1.2-1.8
						c-0.3,0-0.9,0.1-1,0.7c0.1-0.1,0.2-0.4,0.3-0.2c-0.3,0.9-0.7,1.4-1.3,1.4c0.1-2.3-1.3-0.6-1.7-2.4c-0.9,0.8-1.8-0.4-2.9-0.2
						c0.4,1.8-0.3,0.1-0.2,1.9c-0.2,0.1-0.3,0.1-0.4,0l-0.8-1.1c-0.2-0.5,0.2-0.4,0.2-0.8c-0.5-0.1-0.2-0.8-0.6-1.3
						c0.1,0.7-0.2,0.9-0.5,0.7l0.4,0.8c-0.8,1-0.7-1.5-1.4-0.6l0.2-0.6c-0.4,0.3-1.4,0-1.8,1.5c-0.1-0.2-0.2-0.7,0-0.8
						c-0.9-0.2-2.1,1.6-2.8,0.7l0.1-0.4c-0.2,0.1-0.3,0.8-0.5,0.4c0-0.2,0.1-0.4,0-0.5c-0.1,0.2-0.5,0.8-0.7,0.5l0.2-0.5
						c-0.9-0.6-1.4,1.2-2.2,1.5c0-1.3-0.7-1.7-1.1-2l0-0.2c-1.1-0.2-1.8,1.1-2.8,1.6c-0.6-1.4-2.1-0.6-3.1-1.4c0.2,0.2,0,1-0.2,1.2
						c-0.2-0.3-0.6,0.9-0.6-0.3l0.1,0c-0.2-1.2-0.6-0.9-1-0.9l-0.1,1.6c-1-2.3-2.5,0.8-3.1-1.2c-0.2,0.4-0.5,0.4-0.8,0.8l0-0.8
						c-0.6-0.2-1-0.3-1.8-0.1l0.2-0.6c-0.5-0.1-0.6,2.4-1,2.5l-0.1-1.3c-0.8,0-1.6-1.1-2.4,0.1c0-0.2,0-0.6,0.2-0.6
						c-0.4,0-1.4-0.9-1.3,0.9c0-1.1-0.8-0.1-1.2,0.4l0.1-0.8c-0.4,1.1-0.4,1.4-0.9,1.7c-0.1-0.1-0.1-0.7,0.1-0.5
						c-0.4-0.4-0.3,0.8-0.8,0.3l0.2-0.5c-0.4-0.1-0.4,0.2-0.6,0.8c-0.3,0.3-0.8-0.2-0.8-1c-0.1,0.5-0.3,1.1-0.5,0.9
						c0-0.3,0.1-0.5,0.1-0.5c-0.7-0.6-1,1-1.5,0.2c0-0.3,0-0.4-0.1-0.5c0.5,0,1,0.1,0.9,0.1c0-0.8-0.4-0.9-0.1-2
						c-0.4,0.6-1,1.8-1.4,1.5c0-0.1,0-0.1-0.1-0.3l0-0.1c-0.1-0.1-0.2,0-0.3,0.1c-0.1-0.1-0.2-0.2-0.4-0.2c-0.1-0.6-0.5-0.3-0.7-0.4
						c0,0.8-0.3,0.7,0,1.4c0-0.1,0-0.1,0.2-0.1c0,0,0.1,0,0.1-0.1c0,0,0,0,0,0.1c0.1,0,0.3,0,0.5-0.1c-0.2,0.4-0.4,0.8-0.6,0.3
						c-0.1,0.5-0.2,1.1-0.3,1.4c-0.3-1.2-0.9-1.8-1-2.5c-0.7,0.5-1.6,0.3-2,1.9c-0.2,0.2-0.2-0.5-0.3-0.7c0.1-0.2,0.2-0.1,0.3-0.4
						c-0.4,0.4-1.1,0.2-1.2,1.3c-0.5-0.5,0.3-1-0.4-0.8l0.1-0.3c-1.3-1.8-2.1,2.8-3.5,0.6c0.1,0.1,0.1,0.2,0.2,0.4
						c-1.6-1-3.4,0.9-5-0.6c-0.5-0.3-0.5,0.4-0.8,0.9l-0.1-0.9l-0.5,1c-0.7,0.8-1.2-2.2-2-0.8l0.1,0.6c-0.3-0.1-1,0.4-0.9-0.3
						c0,0.1-0.1,0.6-0.2,0.3l0-0.5l-0.8,0.8c-0.6-0.3,0.1-1.9-0.8-2c-0.3,0.2-0.9,1.4-0.8,1.7c0.1,0,0.3,0.3,0.3,0.8l-0.3,0.2
						c-0.1,1.4-0.3,2.8,0.4,3.8l0.5-0.9l0.2,0.7l-0.4,0c0.2,0.6,0.4,0.1,0.6-0.3c0,0.4,0.1,0.6,0.2,0.7l0.5-1.3
						c0.1,0.5-0.2,1.1,0.1,1.4c0.2-0.6-0.2-1.2,0.2-1.6c0.2,0.6,0.2,1.2,0.4,0.6c0,0.4,0,0.6-0.1,0.7c0.2-0.4,0.7-0.2,0.8-0.9
						c0.2,0.8,0.8-0.2,0.8,1.1c0.1-0.3,0.4-1,0.7-1.1c-0.4,1.6,0.9,0.1,0.7,1.8c0.3-1.4,1.1-0.6,1.7-1.4c0,0.1-0.1,0.3-0.1,0.3
						c0.3,0.1,0.4,0.5,0.6,0.8c0-1.2,0.5-1.4,0.8-2.2c0.4,1.1-0.2,1.4-0.1,2.5c0-1,0.7-1,0.5-1.7c0.3,0.7,0.2,0.3,0.4,1.3
						c0.1-1.5,0.3-0.2,0.5-1.2c0.4,0.7,0.1,1.4,0.6,0.9C228.7,310.8,228.3,311.3,228.3,311.3z M239.2,308.8
						C239.2,308.8,239.2,308.8,239.2,308.8c-0.1,0-0.2,0.1-0.2,0.1C239,308.8,239.1,308.8,239.2,308.8z M240.1,308.8
						c-0.1,0-0.3,0-0.4,0c0-0.3,0-0.6,0.1-0.6C239.8,308.4,240,308.5,240.1,308.8z M238.2,302.9c0.1-0.1,0.2,0,0.2,0.2
						c-0.1,0-0.1,0-0.3,0.1c0,0,0,0.1,0,0.1C238.1,303.2,238.2,303,238.2,302.9z"/>
					<path class="st1" d="M237.9,304C237.9,304,237.9,304.1,237.9,304c0,0.1,0,0.2,0,0.3C238,304.2,238,304.1,237.9,304
						C238,304,238,304,237.9,304z"/>
					<path class="st1" d="M321.1,305.3L321.1,305.3c0,0,0,0,0,0.1C321.1,305.3,321.1,305.3,321.1,305.3z"/>
					<polygon class="st1" points="252.8,310.4 252.8,310.2 252.7,310.4 					"/>
					<path class="st1" d="M326.1,308.2c0,0.1,0,0.2,0.1,0.2C326.2,308.3,326.2,308.3,326.1,308.2z"/>
					<path class="st1" d="M328.3,308.4l0.3,0.3C328.5,308.5,328.4,308.4,328.3,308.4z"/>
					<path class="st1" d="M330,308.8c0-0.1,0-0.3,0-0.4c0,0,0,0,0,0L330,308.8z"/>
					<path class="st1" d="M303.3,309.8C303.3,309.8,303.3,309.8,303.3,309.8C303.1,310,303.2,309.9,303.3,309.8z"/>
					<path class="st1" d="M311.2,307.8c-0.1,0.2-0.2,0.3-0.3,0.4C311.1,308.3,311.2,308.3,311.2,307.8z"/>
					<path class="st1" d="M294.4,310.8C294.4,310.8,294.4,310.8,294.4,310.8C294.4,310.8,294.4,310.8,294.4,310.8L294.4,310.8z"/>
					<path class="st1" d="M310.6,308.2c0.1,0.2,0.3,0.1,0.4,0C310.9,308.1,310.7,308.1,310.6,308.2z"/>
					<path class="st1" d="M337.3,309.2L337.3,309.2c0.1,0,0.1-0.1,0.1-0.1L337.3,309.2z"/>
					<path class="st1" d="M337.3,309.1L337.3,309.1C337.4,309,337.4,309,337.3,309.1z"/>
					<path class="st1" d="M337.6,308.8l-0.2,0.2C337.5,309,337.6,309,337.6,308.8z"/>
					<path class="st1" d="M335,308.8l0,0.3C335,309,335,308.9,335,308.8z"/>
					<path class="st1" d="M334.4,308.9c0.2,0.1,0.4,0.7,0.6,0.5l0-0.2C334.9,309.5,334.5,308.3,334.4,308.9z"/>
					<path class="st1" d="M331.5,305.1l0.6,0.2c-0.1-0.3-0.2-0.8,0-0.8C331.4,303.5,332.3,305.2,331.5,305.1z"/>
					<path class="st1" d="M329.8,304.6c0.3-0.2,0-0.5,0-0.7C329.6,304.2,329.6,304.3,329.8,304.6z"/>
					<path class="st1" d="M317.1,304.6l0-0.8C316.9,304,317.1,304.1,317.1,304.6z"/>
					<polygon class="st1" points="314.7,308.6 314.9,309.1 315,308.3 					"/>
					<polygon class="st1" points="313.3,303.1 313.4,303 313,303.3 					"/>
					<path class="st1" d="M292,303.4l0.1,0.9C292.2,304.2,292.2,303.1,292,303.4z"/>
					<path class="st1" d="M282.8,304.3c-0.1-0.5-0.4-0.8-0.5-0.3C282.5,304.1,282.7,304.5,282.8,304.3z"/>
					<polygon class="st1" points="255.2,302.8 255.4,302.5 255.1,302.7 					"/>
				</g>
			</g>
		</g>
	</g>
</g>
<g>
	<g>
		<g>
			<g>
				<g>
					<path class="st1" d="M339.3,352.7c0.1-0.3,0-0.8-0.1-0.7l-0.1,1L339.3,352.7z"/>
					<path class="st1" d="M338.1,350.9c-0.2,0.5-0.4,1.3-0.3,2.2c0.2-1,0.3-0.6,0.5-1.7c0.2-0.1,0.3,0.3,0.3,0.7
						c0.1-0.3,0.3,0.2,0.4-0.4c-0.2-0.8-0.5-0.8-0.8-0.2C338,351.3,338.1,351.1,338.1,350.9z"/>
					<path class="st1" d="M320.9,349.3l0.1,0.1C321,349.4,321,349.4,320.9,349.3z"/>
					<path class="st1" d="M310.3,348.8c0.1,0,0.1-0.1,0.1-0.2C310.3,348.6,310.3,348.7,310.3,348.8z"/>
					<path class="st1" d="M308.5,347.7c0,0,0.1,0,0.1,0.1C308.5,347.7,308.5,347.6,308.5,347.7z"/>
					<path class="st1" d="M320.9,349.3l-0.3-0.3C320.6,349.3,320.8,349.3,320.9,349.3z"/>
					<path class="st1" d="M335.8,353.3c0.1,0,0.1-0.1,0.2-0.3c0,0-0.1,0.1-0.1,0.1C335.8,353.2,335.8,353.2,335.8,353.3z"/>
					<path class="st1" d="M325.6,348.5L325.6,348.5c0.1-0.1,0.1-0.3,0.2-0.4L325.6,348.5z"/>
					<path class="st1" d="M329.2,348.4c-0.1,0-0.1,0.8-0.1,1.2c0-0.3,0.1-0.5,0.2-0.6C329.3,348.8,329.3,348.6,329.2,348.4z"/>
					<path class="st1" d="M335,349.9l0.1-0.1C335,349.8,335,349.8,335,349.9z"/>
					<path class="st1" d="M323.1,348.3c0-0.1,0-0.2,0-0.3C323,348.2,323,348.3,323.1,348.3z"/>
					<path class="st1" d="M222.3,354.7c0-0.1,0-0.1,0-0.2C222.3,354.6,222.3,354.7,222.3,354.7z"/>
					<path class="st1" d="M218.1,350.5L218.1,350.5c0.1-0.2,0.1-0.4,0.1-0.5L218.1,350.5z"/>
					<path class="st1" d="M305.1,346.6C305.2,346.6,305.2,346.6,305.1,346.6C305.2,346.5,305.2,346.6,305.1,346.6z"/>
					<path class="st1" d="M274.6,347.2c0.3,0.8-0.6,1,0,1.8C274.5,348.7,275,347.7,274.6,347.2z"/>
					<path class="st1" d="M335.7,353.2c0,0-0.1,0-0.1,0C335.6,353.2,335.6,353.2,335.7,353.2z"/>
					<path class="st1" d="M274.6,349C274.6,349,274.6,349,274.6,349L274.6,349C274.6,349.1,274.6,349.1,274.6,349z"/>
					<path class="st1" d="M297.5,347.1c0,0.1,0,0.3,0.1,0.4C297.6,347.4,297.5,347.3,297.5,347.1z"/>
					<path class="st1" d="M303.2,348.3l-0.1-0.1C303.1,348.3,303.2,348.3,303.2,348.3z"/>
					<path class="st1" d="M294.5,348.3c-0.1-0.1-0.1-0.2-0.2-0.1c0,0,0,0.1,0,0.1C294.4,348.2,294.4,348.2,294.5,348.3z"/>
					<path class="st1" d="M291.4,348.3c0,0.1,0,0.1,0.1,0.2c0,0,0.1,0,0.1,0L291.4,348.3z"/>
					<path class="st1" d="M231.7,354.3c-0.1-0.2-0.1-0.5-0.1-0.8C231.6,354.1,231.1,354.3,231.7,354.3z"/>
					<path class="st1" d="M335.8,352.8c0,0.2,0,0.3-0.1,0.4c0,0,0.1,0,0.1,0C335.8,353,335.8,352.9,335.8,352.8z"/>
					<path class="st1" d="M294.4,355l-0.5-0.1C294,354.9,294.2,355,294.4,355z"/>
					<path class="st1" d="M253.8,354.2l-0.1,0.1C253.7,354.3,253.8,354.3,253.8,354.2z"/>
					<path class="st1" d="M292.4,355c-0.1-0.3-0.2-0.5-0.3-0.6c0,0.1,0,0.1-0.1,0.2L292.4,355z"/>
					<path class="st1" d="M231.5,353.5C231.5,353.5,231.5,353.5,231.5,353.5C231.5,353.5,231.5,353.5,231.5,353.5z"/>
					<path class="st1" d="M228.3,355.5c0.5,0,0.2-1.1,0.3-1.7c0.6-0.3,0.3,0.8,0.4,1.4c0.3-0.3,0.6-1.3,0.9-1.3c0,0.2,0.1,0.2,0,0.5
						c0.4-0.9,1.1,0,1.5-1.1c0,0.1,0,0.2,0.1,0.3c-0.1-0.6-0.1-1.1-0.1-1.5c0.2,0,0.4-0.7,0.5,0c-0.1,0-0.1,0.3-0.2,0.5l0.2-0.3
						c0.2,1-0.3,0.4-0.3,1.1c0.4-0.3,0.9-1.2,1.3-0.9c0.1,1-0.8,0.3-0.3,1.2l-0.5-0.4c0.4,1.6-0.3-0.1,0,1.6
						c0.7,0.3,0.7-0.5,1.4-0.2c0.2-0.6,0-0.8,0.1-1.4c0.9-1,0.7,2.6,1.4,1.2c0.2-0.7,0.3-2,0.7-1.3l-0.2,1.2c0.6,0.1,0.4-1.7,1-0.9
						c-0.1,0.5-0.5,0.4-0.4,0.5c0.4,0.9,0.3-0.7,0.6-0.7l0.1,1c0.7-0.2,1.4-0.9,2.2-1.1c0,0.3-0.2,0.6,0,0.9c1-0.5,2.1,0.1,3,0.7
						l0.4-0.9c0.1,0,0.2,0.4,0.1,0.6c0.4,0.3,0-0.6,0.2-0.9c0.2-0.1,0.3,0.5,0.1,0.8c0.6-0.7,1.8-1.6,2.5-0.7l-0.1,0.3
						c0.5,0.4,0.6-1.8,1.1-1l-0.1,0.2c1.1,0.4,2.4-0.4,3.3,0.9c0.2-1.3,1.1,0.6,1.2-1.2c0.6,0.9,0.5,1.2,1.4,1.8
						c0.2,0.1,0.4-1.1,0.7-1.3l0,0.9l0.4-1l0.2,1.1l0.3-0.2c-0.1-0.1-0.2-0.4-0.2-0.7c0.4-0.4,1.1,0.6,1.1,1.1l1-0.8
						c0,0.4-0.2,0.5-0.3,0.7c0.6-0.9,0.1,1,0.6,0.1c-0.1-0.2,0-0.6,0-0.7c0.3,0.6,0.8,0.6,1.3,0.3l-0.1,0.6c0.8,0.2,1.6-0.3,2.5-0.3
						c-0.3-0.3-0.2-1.4,0-1.5l0.1,1c0.2-0.6-0.3-0.4,0.1-1.1c0.3,0.1,0.2,1.1,0,1.4l0.4-0.3c0,0.3-0.1,0.4-0.1,0.8
						c0.2-0.6,0.7,1,0.9-0.1l0,0.3c0.9,0,1.3-0.3,2-0.4c0-0.8,0.3-0.7,0.5-1.3c0.5,0.3,1.1,0.9,1.7,0.9c0.4-0.4,0.1-0.7,0.3-1.2
						c0,0.8,0.7,0.7,0.3,1.2c0.8-0.1,1-0.2,1.9-0.8c-0.1-0.3-0.2-0.5-0.2-0.7c0.2-0.1,0.4,0.3,0.4,0.7l0,0.1
						c1.1-1.2,2.5,2.2,3.3,0.6l0,0.1l0.9-0.8c0.4,0.1-0.2,0.6,0.1,1.1c1-1.3,1.5,0.2,2.3-0.7c0.6,2.3,2.2-0.2,3,1.3l0-0.5
						c0.2-0.5,0.3,0.3,0.4,0.4c0-0.4-0.2-0.5-0.1-0.8c1.8-0.6,3.7,0.8,5.5,1.3c0.7,0.1,0.4-2.8,1.2-1.5l-0.2,1c1.4-1.2,2.8,0,4.1-1
						c-0.1,0.2-0.1,0.5-0.2,0.5c0.3,0.7,1,0,1-0.6c0.2,0.1,0,0.5,0.2,0.8c0.3,0.4,0.7-0.9,0.9-0.2c0,0.1-0.1,0.2-0.1,0.3
						c0.2-0.3,0.9,0.1,0.7-0.7c0.5,0.4,1-0.4,1.4,0.1c0.3-0.9,0.9,0.4,0.9-0.9c0,1.4,0.9,1.1,1.2,0.5c-0.1,0.4,0.3,0.4,0.2,1
						c0.4,0,0.7-0.3,0.6-1c0.7,1.6,1.3-1.3,1.7,0.8c1.1-0.7,2.1-1.2,3-1.5c0,1.4-1.1,0.1-1,1.6c0.9-0.6,1.4-1.7,2.3-1.4
						c0.2,0.2-0.1,0.6-0.2,0.8c0.9-0.6,1.8,0.1,2.6-0.6c0,0.1-0.1,0.3-0.2,0.4c0.2,0,0.4,0.2,0.4-0.4l-0.2,0.2
						c-0.3-0.9,0.6-1.9,0.7-2.3c-0.3,1.8,0.8,0.4,0.4,2.7c0.1-0.1,0.2-0.4,0.2-0.8c0.2,0.1,0.2,0.4,0,0.8c0.6-0.3,0.4-1,0.9-1
						c0,0.3-0.1,0.4-0.2,0.8c0.3-0.6,0.5-1.2,1-0.9c0,0.2,0,0.4-0.1,0.4c0.8-0.1,1.3-1.5,2.1-1c-0.2,1.3,0.3,0.4,0.3,1.5l0.4-0.3
						l-0.2-0.5c0.4,0,0.7-0.8,1.1-0.4l-0.3,0.5l0.7-0.2l-0.4-0.4c0.4-0.6,0-1.4,0.5-1.1c-0.1,0.1,0.4,0,0.6,0.7c0,0,0,0,0,0
						c0.2-0.4,0.4-0.7,0.7-0.5c0.1,0.4-0.1,1.2,0,1.5c0.2-0.9,0.9-0.3,1.2-1.3c-0.1,0.2-0.1,0.8-0.1,0.9l0.2-0.8
						c0.2,0.2,0.2,0.4,0.2,0.8c0.5,0.1-0.2-1.4,0.5-0.8c-0.1,0.1,0,0.2-0.1,0.3c0.6,0.3,1.2-0.5,1.8-0.1c0.2,1.1-0.5,0.3-0.3,1.2
						c0.9-0.2,1.8-1.4,2.6-1.1l-0.2-0.1c0.1-1.6,0.6,0.8,1,0c-0.1,0.1-0.1,0.9-0.1,0.7c0.6,0.3,1.2-0.4,2-0.9l-0.1,0.4
						c0.3,0.4,0.9,0.2,1.2,0.4c0.1-0.4,0.3-0.3,0.2-0.9c1.1,2.3,2.1-1.2,3.1,0.7c-0.1,0-0.3,0.4-0.2,0.4l0.8-0.4
						c-0.1-0.7-0.1-0.4-0.3-1c0.1-0.4,0.3-0.7,0.6-0.7c-0.4,0.5,0,1.1,0.2,1.5c0-0.2,0-0.4,0-0.7c0.4,1.2,0.1-1.4,0.7-0.6l0,0.4
						c0.2-0.2,0.4-0.7,0.7-0.6c0.1,0.8-0.2,0.4-0.3,1c0.3,0,0.7-1.5,1-0.7c-0.1,0.2-0.4,0.2-0.5,0.4c0.3,0.9,0.4,0.7,0.6,0.9l0,0
						l0.6,0.4l-0.1-0.3c0.4-2.1,0.9-0.4,1.4-1.8c-0.6,1.3-0.1,0.8-0.1,1.7c0.1,0.3,0.4,0.5,0.3,0.8c0.3-0.7,0.5,0.6,0.8-0.5
						c0,0.3,0.3,0,0.2,0.8c0.4-0.2-0.1-0.5-0.1-0.9c0.5-1,1.3,1.2,2.1-0.2c0.7-0.6,0.8-1.6,1.4-2c0.2,0.5-0.2,1.1-0.2,1.1
						c0.3,0.4,0.6,0.4,0.9,0c-0.1,0.3,0,0.5,0.1,0.8c0.3-0.1,0.2-1.1,0.5-0.6c-0.1,0.3-0.1,0.8-0.3,1.2c0.3-0.3,0.6-0.8,0.9-1.1
						c0.1,0.5-0.2,0.8-0.3,1.1c0.4-0.2,0.9-0.5,1-1.3l-0.2-0.3c0.1,0,0.1,0.7,0,0.8c-0.3,0.6-0.4-0.3-0.5-0.6l0.2-0.2
						c-0.2-1.7-0.9,0.3-1.3,0.2l0.2-1.2l-0.5,1c-0.1-0.3-0.2-1,0.1-1.2c-0.3-0.6-0.3,0.4-0.6-0.2c0-0.1,0-0.2,0-0.2l-0.3,0.4
						c0.1-0.3-0.1-0.9,0.1-0.7c-0.6-0.7-0.9,0.9-1.1,0l0-0.1c-0.8,0.4-0.1,0.9-0.7,2l-0.4-2.3l-0.1,0.9c-0.1,0-0.2-0.1-0.2-0.5
						c-0.3,0.6,0.1,0.4-0.1,1c-0.4-0.8-1.1,0.4-1.2-1.1c-0.1,0.7,0.4,0.5,0,1c-0.1-1.6-0.5,0.3-0.8-0.5c0.1-0.8,0.4-0.4,0.1-1.1
						c-0.2,1.4-0.7-0.3-1,0c0,1.1-0.7,0.5-1.2,0.8c0-0.4-0.9-0.6-1.4-1l0-0.2c-0.1,1.1-0.6,0.9-0.9,1.1c0-0.7,0.1-0.9,0.3-1.2
						l-0.3,0c-0.1,0.4-0.2,0.5-0.4,0.7l0.1-0.8c-0.4,0-0.9,1-1.5,0.4c0,0.8,0.5,2.1-0.1,2.7c0-0.4,0-1.1,0.1-1.3
						c-0.1,0.1-0.2,0.3-0.3,0.2l0.2-0.7c-0.3-0.3-0.1,0.6-0.3,0.5c0-0.6-0.2-0.4-0.1-0.9c0.1-0.1,0.2,0.2,0.3,0
						c-0.2-0.1-0.5-0.5-0.6-0.9c0,0.3,0,0.8-0.2,0.9c-0.4,0-0.2-0.7-0.4-1c-0.1,0.4-0.4,0-0.4,0.9c-0.1,0-0.2-0.4-0.2-0.7
						c-0.2,0.4-1.1,0.1-0.8,1.1l0.1,0.1c0,0,0,0,0,0c0,0,0,0,0,0h0c-0.7,0.9-1.6-0.5-2.3-0.1l0-0.3c-0.4,0.3-1,0.2-1.3,0.8
						c-0.1,0-0.3-0.5-0.3-0.9c-0.3,0.2-0.4,0.6-0.9,0.1c0.3-0.5-0.1-0.5,0.3-0.4c-0.4-0.3-0.5-0.7-1,0.1c0.2-0.8-0.3-1-0.5-0.7
						l0.3,0.5c-0.2,0.1-0.4,0-0.6,0l0.1-1c-0.9-1.2-1.6,2.1-2.3,0c-0.2,0.7,0.5,0.5,0.3,1.3c-0.4-0.1-0.8-1.6-1-1.6
						c-0.6-0.6-0.5,1.5-1.1,1.1c0.1,0.4,0.1,1.3-0.3,1.6c-0.4-0.1-0.5-1.5-0.2-1.8c0.1,0,0.1,0.1,0.1,0.2c0.1-0.1,0.3-0.3,0.1-0.7
						l-0.1,0.4c-0.2-0.4-0.8-0.3-0.6-0.9c-0.3,0.3-0.1,0.6,0.1,0.8c-0.5-0.5-0.8,0-1.4-0.4c0.1,0.2,0.2,0.6,0.1,0.6
						c-0.8-0.4-0.4,0.7-0.9,0.8c-0.3-0.5,0.1-1.3-0.4-0.8c-0.3-0.4-0.1-0.9,0.1-1.2c-0.5,0.7-0.9-0.5-1.2-0.6l0.3-0.3
						c-0.2,0.2-0.3,0.2-0.4,0.2l0.1,0.7c-0.2-0.1-0.3-0.1-0.3-0.4c-0.2,0.5,0.1,1.2-0.2,1.8c-0.2-0.4-0.6,0.4-0.7-0.6
						c0.6,0.3-0.1-0.9,0.5-1.1c-0.1,0.1-0.2,0.1-0.4,0c0-0.1,0-0.2,0.1-0.2c-0.6-0.8-0.3,1.1-0.9,1c0.1-0.5-0.1-1-0.3-0.9
						c0.3,0,0.1,0.9-0.1,1.3c-0.4-0.4-0.4,0.3-0.7,0.3l0.2,0.2c-0.1,0.5-0.3,0.5-0.6,0.6c0-0.4,0.3-0.3,0.2-0.5
						c-0.3,0.9-0.7-1-1.2-0.3c-0.2-0.4,0-1-0.2-1.2c-0.5,0.7-0.5-0.7-1.1-0.2c0.2,0.7,0.2,0.5-0.2,1.2l0.9-0.5l-0.6,1
						c0.3,0,0.5-0.4,0.7-0.3c-0.3,0.6-0.2,0.4-0.1,1c-0.4-1.1-0.7,0.6-1.1-0.1l0-1.8c-0.6-0.8-1.1,0.9-1.9,0.5l0.3,0.3
						c-0.1,0.7-0.5,0.1-0.8,0.4c0-0.6-0.1-0.8-0.2-1.2c0,0.4-0.6,0-0.7,1.1l-0.4-0.8c-0.6-0.3-0.7,1.7-1.4,1.5
						c0.2-0.6-0.1-1.1,0.3-1.5c-0.2,0-0.4-0.1-0.4,0.3c-0.1-0.4-0.6,0.8-0.8,0.2c-0.1,0.3-0.1,0.9-0.3,0.8c0-0.1,0-0.3,0-0.3
						c0,0.3-0.4,0.4-0.2,1.1c-0.6-1.8-1.8,0.1-2.3-1.5c-0.5,0.2-1,0.4-1.4,0.4c0-0.2,0-0.3,0.1-0.2c-0.6-0.6-0.3,1.7-1,1.1
						c-0.3-1,0.3-0.5,0.1-0.9c-0.1-1.9-0.8,0.3-1.2-0.9l0.1-0.1c-0.3-0.7-0.8,0.7-1.4,0.6c0,0,0-0.2,0-0.3c-0.4,1-1.1,1.3-1.6,1.6
						c0.2-0.8,0.2-0.4,0.1-1.2c-0.2,0.1,0.1,1.2-0.4,1.5c-0.2-0.4-0.5-0.8-0.5-1.6l0.4,0c-0.2-1.1-0.6,0-0.8-0.1l0-0.5
						c-0.7,0.2-0.7,1.3-1.4,1.2l0.1,0.4c-0.4,1.2-0.3-0.7-0.7,0.2l-0.1-1.2c-0.3,0.3-0.9,1.1-1.4,1.4c0.3-0.9,0.8-1.3,1.2-1.8
						c-0.3,0-0.9,0.1-1,0.7c0.1-0.1,0.2-0.4,0.3-0.2c-0.3,0.9-0.7,1.4-1.3,1.4c0.1-2.3-1.3-0.6-1.7-2.4c-0.9,0.8-1.8-0.4-2.9-0.2
						c0.4,1.8-0.3,0.1-0.2,1.9c-0.2,0.1-0.3,0.1-0.4,0l-0.8-1.1c-0.2-0.5,0.2-0.4,0.2-0.8c-0.5-0.1-0.2-0.8-0.6-1.3
						c0.1,0.7-0.2,0.9-0.5,0.7l0.4,0.8c-0.8,1-0.7-1.5-1.4-0.6l0.2-0.6c-0.4,0.3-1.4,0-1.8,1.5c-0.1-0.2-0.2-0.7,0-0.8
						c-0.9-0.2-2.1,1.6-2.8,0.7l0.1-0.4c-0.2,0.1-0.3,0.8-0.5,0.4c0-0.2,0.1-0.4,0-0.5c-0.1,0.2-0.5,0.8-0.7,0.5l0.2-0.5
						c-0.9-0.6-1.4,1.2-2.2,1.5c0-1.3-0.7-1.7-1.1-2l0-0.2c-1.1-0.2-1.8,1.1-2.8,1.6c-0.6-1.4-2.1-0.6-3.1-1.4c0.2,0.2,0,1-0.2,1.2
						c-0.2-0.3-0.6,0.9-0.6-0.3l0.1,0c-0.2-1.2-0.6-0.9-1-0.9l-0.1,1.6c-1-2.3-2.5,0.8-3.1-1.2c-0.2,0.4-0.5,0.4-0.8,0.8l0-0.8
						c-0.6-0.2-1-0.3-1.8-0.1l0.2-0.6c-0.5-0.1-0.6,2.4-1,2.5l-0.1-1.3c-0.8,0-1.6-1.1-2.4,0.1c0-0.2,0-0.6,0.2-0.6
						c-0.4,0-1.4-0.9-1.3,0.9c0-1.1-0.8-0.1-1.2,0.4l0.1-0.8c-0.4,1.1-0.4,1.4-0.9,1.7c-0.1-0.1-0.1-0.7,0.1-0.5
						c-0.4-0.4-0.3,0.8-0.8,0.3l0.2-0.5c-0.4-0.1-0.4,0.2-0.6,0.8c-0.3,0.3-0.8-0.2-0.8-1c-0.1,0.5-0.3,1.1-0.5,0.9
						c0-0.3,0.1-0.5,0.1-0.5c-0.7-0.6-1,1-1.5,0.2c0-0.3,0-0.4-0.1-0.5c0.5,0,1,0.1,0.9,0.1c0-0.8-0.4-0.9-0.1-2
						c-0.4,0.6-1,1.8-1.4,1.5c0-0.1,0-0.1-0.1-0.3l0-0.1c-0.1-0.1-0.2,0-0.3,0.1c-0.1-0.1-0.2-0.2-0.4-0.2c-0.1-0.6-0.5-0.3-0.7-0.4
						c0,0.8-0.3,0.7,0,1.4c0-0.1,0-0.1,0.2-0.1c0,0,0.1,0,0.1-0.1c0,0,0,0,0,0.1c0.1,0,0.3,0,0.5-0.1c-0.2,0.4-0.4,0.8-0.6,0.3
						c-0.1,0.5-0.2,1.1-0.3,1.4c-0.3-1.2-0.9-1.8-1-2.5c-0.7,0.5-1.6,0.3-2,1.9c-0.2,0.2-0.2-0.5-0.3-0.7c0.1-0.2,0.2-0.1,0.3-0.4
						c-0.4,0.4-1.1,0.2-1.2,1.3c-0.5-0.5,0.3-1-0.4-0.8l0.1-0.3c-1.3-1.8-2.1,2.8-3.5,0.6c0.1,0.1,0.1,0.2,0.2,0.4
						c-1.6-1-3.4,0.9-5-0.6c-0.5-0.3-0.5,0.4-0.8,0.9l-0.1-0.9l-0.5,1c-0.7,0.8-1.2-2.2-2-0.8l0.1,0.6c-0.3-0.1-1,0.4-0.9-0.3
						c0,0.1-0.1,0.6-0.2,0.3l0-0.5l-0.8,0.8c-0.6-0.3,0.1-1.9-0.8-2c-0.3,0.2-0.9,1.4-0.8,1.7c0.1,0,0.3,0.3,0.3,0.8l-0.3,0.2
						c-0.1,1.4-0.3,2.8,0.4,3.8l0.5-0.9l0.2,0.7l-0.4,0c0.2,0.6,0.4,0.1,0.6-0.3c0,0.4,0.1,0.6,0.2,0.7l0.5-1.3
						c0.1,0.5-0.2,1.1,0.1,1.4c0.2-0.6-0.2-1.2,0.2-1.6c0.2,0.6,0.2,1.2,0.4,0.6c0,0.4,0,0.6-0.1,0.7c0.2-0.4,0.7-0.2,0.8-0.9
						c0.2,0.8,0.8-0.2,0.8,1.1c0.1-0.3,0.4-1,0.7-1.1c-0.4,1.6,0.9,0.1,0.7,1.8c0.3-1.4,1.1-0.6,1.7-1.4c0,0.1-0.1,0.3-0.1,0.3
						c0.3,0.1,0.4,0.5,0.6,0.8c0-1.2,0.5-1.4,0.8-2.2c0.4,1.1-0.2,1.4-0.1,2.5c0-1,0.7-1,0.5-1.7c0.3,0.7,0.2,0.3,0.4,1.3
						c0.1-1.5,0.3-0.2,0.5-1.2c0.4,0.7,0.1,1.4,0.6,0.9C228.7,355,228.3,355.5,228.3,355.5z M239.2,353
						C239.2,353,239.2,353,239.2,353c-0.1,0-0.2,0.1-0.2,0.1C239,353,239.1,353,239.2,353z M240.1,353c-0.1,0-0.3,0-0.4,0
						c0-0.3,0-0.6,0.1-0.6C239.8,352.5,240,352.7,240.1,353z M238.2,347.1c0.1-0.1,0.2,0,0.2,0.2c-0.1,0-0.1,0-0.3,0.1
						c0,0,0,0.1,0,0.1C238.1,347.4,238.2,347.2,238.2,347.1z"/>
					<path class="st1" d="M237.9,348.2C237.9,348.2,237.9,348.3,237.9,348.2c0,0.1,0,0.2,0,0.3C238,348.4,238,348.3,237.9,348.2
						C238,348.2,238,348.2,237.9,348.2z"/>
					<path class="st1" d="M321.1,349.5L321.1,349.5c0,0,0,0,0,0.1C321.1,349.5,321.1,349.5,321.1,349.5z"/>
					<polygon class="st1" points="252.8,354.6 252.8,354.4 252.7,354.5 					"/>
					<path class="st1" d="M326.1,352.4c0,0.1,0,0.2,0.1,0.2C326.2,352.5,326.2,352.5,326.1,352.4z"/>
					<path class="st1" d="M328.3,352.6l0.3,0.3C328.5,352.7,328.4,352.6,328.3,352.6z"/>
					<path class="st1" d="M330,353c0-0.1,0-0.3,0-0.4c0,0,0,0,0,0L330,353z"/>
					<path class="st1" d="M303.3,354C303.3,354,303.3,354,303.3,354C303.1,354.2,303.2,354.1,303.3,354z"/>
					<path class="st1" d="M311.2,352c-0.1,0.2-0.2,0.3-0.3,0.4C311.1,352.5,311.2,352.5,311.2,352z"/>
					<path class="st1" d="M294.4,355C294.4,355,294.4,355,294.4,355C294.4,355,294.4,355,294.4,355L294.4,355z"/>
					<path class="st1" d="M310.6,352.4c0.1,0.2,0.3,0.1,0.4,0C310.9,352.3,310.7,352.3,310.6,352.4z"/>
					<path class="st1" d="M337.3,353.4L337.3,353.4c0.1,0,0.1-0.1,0.1-0.1L337.3,353.4z"/>
					<path class="st1" d="M337.3,353.3L337.3,353.3C337.4,353.2,337.4,353.2,337.3,353.3z"/>
					<path class="st1" d="M337.6,352.9l-0.2,0.2C337.5,353.2,337.6,353.2,337.6,352.9z"/>
					<path class="st1" d="M335,353l0,0.3C335,353.2,335,353.1,335,353z"/>
					<path class="st1" d="M334.4,353.1c0.2,0.1,0.4,0.7,0.6,0.5l0-0.2C334.9,353.7,334.5,352.5,334.4,353.1z"/>
					<path class="st1" d="M331.5,349.3l0.6,0.2c-0.1-0.3-0.2-0.8,0-0.8C331.4,347.7,332.3,349.4,331.5,349.3z"/>
					<path class="st1" d="M329.8,348.8c0.3-0.2,0-0.5,0-0.7C329.6,348.4,329.6,348.5,329.8,348.8z"/>
					<path class="st1" d="M317.1,348.8l0-0.8C316.9,348.1,317.1,348.3,317.1,348.8z"/>
					<polygon class="st1" points="314.7,352.8 314.9,353.2 315,352.5 					"/>
					<polygon class="st1" points="313.3,347.3 313.4,347.2 313,347.5 					"/>
					<path class="st1" d="M292,347.6l0.1,0.9C292.2,348.3,292.2,347.3,292,347.6z"/>
					<path class="st1" d="M282.8,348.5c-0.1-0.5-0.4-0.8-0.5-0.3C282.5,348.3,282.7,348.7,282.8,348.5z"/>
					<polygon class="st1" points="255.2,347 255.4,346.7 255.1,346.9 					"/>
				</g>
			</g>
		</g>
	</g>
</g>
<g>
	<g>
		<g>
			<g>
				<g>
					<path class="st1" d="M339.3,397.6c0.1-0.3,0-0.8-0.1-0.7l-0.1,1L339.3,397.6z"/>
					<path class="st1" d="M338.1,395.8c-0.2,0.5-0.4,1.3-0.3,2.2c0.2-1,0.3-0.6,0.5-1.7c0.2-0.1,0.3,0.3,0.3,0.7
						c0.1-0.3,0.3,0.2,0.4-0.4c-0.2-0.8-0.5-0.8-0.8-0.2C338,396.2,338.1,396,338.1,395.8z"/>
					<path class="st1" d="M320.9,394.2l0.1,0.1C321,394.3,321,394.2,320.9,394.2z"/>
					<path class="st1" d="M310.3,393.7c0.1,0,0.1-0.1,0.1-0.2C310.3,393.5,310.3,393.6,310.3,393.7z"/>
					<path class="st1" d="M308.5,392.6c0,0,0.1,0,0.1,0.1C308.5,392.6,308.5,392.5,308.5,392.6z"/>
					<path class="st1" d="M320.9,394.2l-0.3-0.3C320.6,394.2,320.8,394.2,320.9,394.2z"/>
					<path class="st1" d="M335.8,398.2c0.1,0,0.1-0.1,0.2-0.3c0,0-0.1,0.1-0.1,0.1C335.8,398.1,335.8,398.1,335.8,398.2z"/>
					<path class="st1" d="M325.6,393.4L325.6,393.4c0.1-0.1,0.1-0.3,0.2-0.4L325.6,393.4z"/>
					<path class="st1" d="M329.2,393.3c-0.1,0-0.1,0.8-0.1,1.2c0-0.3,0.1-0.5,0.2-0.6C329.3,393.7,329.3,393.5,329.2,393.3z"/>
					<path class="st1" d="M335,394.8l0.1-0.1C335,394.7,335,394.7,335,394.8z"/>
					<path class="st1" d="M323.1,393.2c0-0.1,0-0.2,0-0.3C323,393,323,393.1,323.1,393.2z"/>
					<path class="st1" d="M222.3,399.6c0-0.1,0-0.1,0-0.1C222.3,399.5,222.3,399.6,222.3,399.6z"/>
					<path class="st1" d="M218.1,395.4L218.1,395.4c0.1-0.2,0.1-0.4,0.1-0.5L218.1,395.4z"/>
					<path class="st1" d="M305.1,391.5C305.2,391.5,305.2,391.5,305.1,391.5C305.2,391.4,305.2,391.4,305.1,391.5z"/>
					<path class="st1" d="M274.6,392.1c0.3,0.8-0.6,1,0,1.8C274.5,393.6,275,392.6,274.6,392.1z"/>
					<path class="st1" d="M335.7,398.1c0,0-0.1,0-0.1,0C335.6,398.1,335.6,398.1,335.7,398.1z"/>
					<path class="st1" d="M274.6,393.9C274.6,393.9,274.6,393.9,274.6,393.9L274.6,393.9C274.6,394,274.6,394,274.6,393.9z"/>
					<path class="st1" d="M297.5,392c0,0.1,0,0.3,0.1,0.4C297.6,392.3,297.5,392.2,297.5,392z"/>
					<path class="st1" d="M303.2,393.2l-0.1-0.1C303.1,393.2,303.2,393.2,303.2,393.2z"/>
					<path class="st1" d="M294.5,393.2c-0.1-0.1-0.1-0.2-0.2-0.1c0,0,0,0.1,0,0.1C294.4,393.1,294.4,393.1,294.5,393.2z"/>
					<path class="st1" d="M291.4,393.2c0,0.1,0,0.1,0.1,0.2c0,0,0.1,0,0.1,0L291.4,393.2z"/>
					<path class="st1" d="M231.7,399.2c-0.1-0.2-0.1-0.5-0.1-0.8C231.6,399,231.1,399.2,231.7,399.2z"/>
					<path class="st1" d="M335.8,397.7c0,0.2,0,0.3-0.1,0.4c0,0,0.1,0,0.1,0C335.8,397.9,335.8,397.8,335.8,397.7z"/>
					<path class="st1" d="M294.4,399.9l-0.5-0.1C294,399.8,294.2,399.9,294.4,399.9z"/>
					<path class="st1" d="M253.8,399.1l-0.1,0.1C253.7,399.2,253.8,399.1,253.8,399.1z"/>
					<path class="st1" d="M292.4,399.9c-0.1-0.3-0.2-0.5-0.3-0.6c0,0.1,0,0.1-0.1,0.2L292.4,399.9z"/>
					<path class="st1" d="M231.5,398.4C231.5,398.4,231.5,398.4,231.5,398.4C231.5,398.4,231.5,398.4,231.5,398.4z"/>
					<path class="st1" d="M228.3,400.4c0.5,0,0.2-1.1,0.3-1.7c0.6-0.3,0.3,0.8,0.4,1.4c0.3-0.3,0.6-1.3,0.9-1.3c0,0.2,0.1,0.2,0,0.5
						c0.4-0.9,1.1,0,1.5-1.1c0,0.1,0,0.2,0.1,0.3c-0.1-0.6-0.1-1.1-0.1-1.5c0.2,0,0.4-0.7,0.5,0c-0.1,0-0.1,0.3-0.2,0.5l0.2-0.3
						c0.2,1-0.3,0.4-0.3,1.1c0.4-0.3,0.9-1.2,1.3-0.9c0.1,1-0.8,0.3-0.3,1.2l-0.5-0.4c0.4,1.6-0.3-0.1,0,1.6
						c0.7,0.3,0.7-0.5,1.4-0.2c0.2-0.6,0-0.8,0.1-1.4c0.9-1,0.7,2.6,1.4,1.2c0.2-0.7,0.3-2,0.7-1.3l-0.2,1.2c0.6,0.1,0.4-1.7,1-0.9
						c-0.1,0.5-0.5,0.4-0.4,0.5c0.4,0.9,0.3-0.7,0.6-0.7l0.1,1c0.7-0.2,1.4-0.9,2.2-1.1c0,0.3-0.2,0.6,0,0.9c1-0.5,2.1,0.1,3,0.7
						l0.4-0.9c0.1,0,0.2,0.4,0.1,0.6c0.4,0.3,0-0.6,0.2-0.9c0.2-0.1,0.3,0.5,0.1,0.8c0.6-0.7,1.8-1.6,2.5-0.7l-0.1,0.3
						c0.5,0.4,0.6-1.8,1.1-1l-0.1,0.2c1.1,0.4,2.4-0.4,3.3,0.9c0.2-1.3,1.1,0.6,1.2-1.2c0.6,0.9,0.5,1.2,1.4,1.8
						c0.2,0.1,0.4-1.1,0.7-1.3l0,0.9l0.4-1l0.2,1.1l0.3-0.2c-0.1-0.1-0.2-0.4-0.2-0.7c0.4-0.4,1.1,0.6,1.1,1.1l1-0.8
						c0,0.4-0.2,0.5-0.3,0.7c0.6-0.9,0.1,1,0.6,0.1c-0.1-0.2,0-0.6,0-0.7c0.3,0.6,0.8,0.6,1.3,0.3l-0.1,0.6c0.8,0.2,1.6-0.3,2.5-0.3
						c-0.3-0.3-0.2-1.4,0-1.5l0.1,1c0.2-0.6-0.3-0.4,0.1-1.1c0.3,0.1,0.2,1.1,0,1.4l0.4-0.3c0,0.3-0.1,0.4-0.1,0.8
						c0.2-0.6,0.7,1,0.9-0.1l0,0.3c0.9,0,1.3-0.3,2-0.4c0-0.8,0.3-0.7,0.5-1.3c0.5,0.3,1.1,0.9,1.7,0.9c0.4-0.4,0.1-0.7,0.3-1.2
						c0,0.8,0.7,0.7,0.3,1.2c0.8-0.1,1-0.2,1.9-0.8c-0.1-0.3-0.2-0.5-0.2-0.7c0.2-0.1,0.4,0.3,0.4,0.7l0,0.1
						c1.1-1.2,2.5,2.2,3.3,0.6l0,0.1l0.9-0.8c0.4,0.1-0.2,0.6,0.1,1.1c1-1.3,1.5,0.2,2.3-0.7c0.6,2.3,2.2-0.2,3,1.3l0-0.5
						c0.2-0.5,0.3,0.3,0.4,0.4c0-0.4-0.2-0.5-0.1-0.8c1.8-0.6,3.7,0.8,5.5,1.3c0.7,0.1,0.4-2.8,1.2-1.5l-0.2,1c1.4-1.2,2.8,0,4.1-1
						c-0.1,0.2-0.1,0.5-0.2,0.5c0.3,0.7,1,0,1-0.6c0.2,0.1,0,0.5,0.2,0.8c0.3,0.4,0.7-0.9,0.9-0.2c0,0.1-0.1,0.2-0.1,0.3
						c0.2-0.3,0.9,0.1,0.7-0.7c0.5,0.4,1-0.4,1.4,0.1c0.3-0.9,0.9,0.4,0.9-0.9c0,1.4,0.9,1.1,1.2,0.5c-0.1,0.4,0.3,0.4,0.2,1
						c0.4,0,0.7-0.3,0.6-1c0.7,1.6,1.3-1.3,1.7,0.8c1.1-0.7,2.1-1.2,3-1.5c0,1.4-1.1,0.1-1,1.6c0.9-0.6,1.4-1.7,2.3-1.4
						c0.2,0.2-0.1,0.6-0.2,0.8c0.9-0.6,1.8,0.1,2.6-0.6c0,0.1-0.1,0.3-0.2,0.4c0.2,0,0.4,0.2,0.4-0.4l-0.2,0.2
						c-0.3-0.9,0.6-1.9,0.7-2.3c-0.3,1.8,0.8,0.4,0.4,2.7c0.1-0.1,0.2-0.4,0.2-0.8c0.2,0.1,0.2,0.4,0,0.8c0.6-0.3,0.4-1,0.9-1
						c0,0.3-0.1,0.4-0.2,0.8c0.3-0.6,0.5-1.2,1-0.9c0,0.2,0,0.4-0.1,0.4c0.8-0.1,1.3-1.5,2.1-1c-0.2,1.3,0.3,0.4,0.3,1.5l0.4-0.3
						l-0.2-0.5c0.4,0,0.7-0.8,1.1-0.4l-0.3,0.5l0.7-0.2l-0.4-0.4c0.4-0.6,0-1.4,0.5-1.1c-0.1,0.1,0.4,0,0.6,0.7c0,0,0,0,0,0
						c0.2-0.4,0.4-0.7,0.7-0.5c0.1,0.4-0.1,1.2,0,1.5c0.2-0.9,0.9-0.3,1.2-1.3c-0.1,0.2-0.1,0.8-0.1,0.9l0.2-0.8
						c0.2,0.2,0.2,0.4,0.2,0.8c0.5,0.1-0.2-1.4,0.5-0.8c-0.1,0.1,0,0.2-0.1,0.3c0.6,0.3,1.2-0.5,1.8-0.1c0.2,1.1-0.5,0.3-0.3,1.2
						c0.9-0.2,1.8-1.4,2.6-1.1l-0.2-0.1c0.1-1.6,0.6,0.8,1,0c-0.1,0.1-0.1,0.9-0.1,0.7c0.6,0.3,1.2-0.4,2-0.9l-0.1,0.4
						c0.3,0.4,0.9,0.2,1.2,0.4c0.1-0.4,0.3-0.3,0.2-0.9c1.1,2.3,2.1-1.2,3.1,0.7c-0.1,0-0.3,0.4-0.2,0.4l0.8-0.4
						c-0.1-0.7-0.1-0.4-0.3-1c0.1-0.4,0.3-0.7,0.6-0.7c-0.4,0.5,0,1.1,0.2,1.5c0-0.2,0-0.4,0-0.7c0.4,1.2,0.1-1.4,0.7-0.6l0,0.4
						c0.2-0.2,0.4-0.7,0.7-0.6c0.1,0.8-0.2,0.4-0.3,1c0.3,0,0.7-1.5,1-0.7c-0.1,0.2-0.4,0.2-0.5,0.4c0.3,0.9,0.4,0.7,0.6,0.9l0,0
						l0.6,0.4l-0.1-0.3c0.4-2.1,0.9-0.4,1.4-1.8c-0.6,1.3-0.1,0.8-0.1,1.7c0.1,0.3,0.4,0.5,0.3,0.8c0.3-0.7,0.5,0.6,0.8-0.5
						c0,0.3,0.3,0,0.2,0.8c0.4-0.2-0.1-0.5-0.1-0.9c0.5-1,1.3,1.2,2.1-0.2c0.7-0.6,0.8-1.6,1.4-2c0.2,0.5-0.2,1.1-0.2,1.1
						c0.3,0.4,0.6,0.4,0.9,0c-0.1,0.3,0,0.5,0.1,0.8c0.3-0.1,0.2-1.1,0.5-0.6c-0.1,0.3-0.1,0.8-0.3,1.2c0.3-0.3,0.6-0.8,0.9-1.1
						c0.1,0.5-0.2,0.8-0.3,1.1c0.4-0.2,0.9-0.5,1-1.3l-0.2-0.3c0.1,0,0.1,0.7,0,0.8c-0.3,0.6-0.4-0.3-0.5-0.6l0.2-0.2
						c-0.2-1.7-0.9,0.3-1.3,0.2l0.2-1.2l-0.5,1c-0.1-0.3-0.2-1,0.1-1.2c-0.3-0.6-0.3,0.4-0.6-0.2c0-0.1,0-0.2,0-0.2l-0.3,0.4
						c0.1-0.3-0.1-0.9,0.1-0.7c-0.6-0.7-0.9,0.9-1.1,0l0-0.1c-0.8,0.4-0.1,0.9-0.7,2l-0.4-2.3l-0.1,0.9c-0.1,0-0.2-0.1-0.2-0.5
						c-0.3,0.6,0.1,0.4-0.1,1c-0.4-0.8-1.1,0.4-1.2-1.1c-0.1,0.7,0.4,0.5,0,1c-0.1-1.6-0.5,0.3-0.8-0.5c0.1-0.8,0.4-0.4,0.1-1.1
						c-0.2,1.4-0.7-0.3-1,0c0,1.1-0.7,0.5-1.2,0.8c0-0.4-0.9-0.6-1.4-1l0-0.2c-0.1,1.1-0.6,0.9-0.9,1.1c0-0.7,0.1-0.9,0.3-1.2
						l-0.3,0c-0.1,0.4-0.2,0.5-0.4,0.7l0.1-0.8c-0.4,0-0.9,1-1.5,0.4c0,0.8,0.5,2.1-0.1,2.7c0-0.4,0-1.1,0.1-1.3
						c-0.1,0.1-0.2,0.3-0.3,0.2l0.2-0.7c-0.3-0.3-0.1,0.6-0.3,0.5c0-0.6-0.2-0.4-0.1-0.9c0.1-0.1,0.2,0.2,0.3,0
						c-0.2-0.1-0.5-0.5-0.6-0.9c0,0.3,0,0.8-0.2,0.9c-0.4,0-0.2-0.7-0.4-1c-0.1,0.4-0.4,0-0.4,0.9c-0.1,0-0.2-0.4-0.2-0.7
						c-0.2,0.4-1.1,0.1-0.8,1.1l0.1,0.1c0,0,0,0,0,0c0,0,0,0,0,0h0c-0.7,0.9-1.6-0.5-2.3-0.1l0-0.3c-0.4,0.3-1,0.2-1.3,0.8
						c-0.1,0-0.3-0.5-0.3-0.9c-0.3,0.2-0.4,0.6-0.9,0.1c0.3-0.5-0.1-0.5,0.3-0.4c-0.4-0.3-0.5-0.7-1,0.1c0.2-0.8-0.3-1-0.5-0.7
						l0.3,0.5c-0.2,0.1-0.4,0-0.6,0l0.1-1c-0.9-1.2-1.6,2.1-2.3,0c-0.2,0.7,0.5,0.5,0.3,1.3c-0.4-0.1-0.8-1.6-1-1.6
						c-0.6-0.6-0.5,1.5-1.1,1.1c0.1,0.4,0.1,1.3-0.3,1.6c-0.4-0.1-0.5-1.5-0.2-1.8c0.1,0,0.1,0.1,0.1,0.2c0.1-0.1,0.3-0.3,0.1-0.7
						l-0.1,0.4c-0.2-0.4-0.8-0.3-0.6-0.9c-0.3,0.3-0.1,0.6,0.1,0.8c-0.5-0.5-0.8,0-1.4-0.4c0.1,0.2,0.2,0.6,0.1,0.6
						c-0.8-0.4-0.4,0.7-0.9,0.8c-0.3-0.5,0.1-1.3-0.4-0.8c-0.3-0.4-0.1-0.9,0.1-1.2c-0.5,0.7-0.9-0.5-1.2-0.6l0.3-0.3
						c-0.2,0.2-0.3,0.2-0.4,0.2l0.1,0.7c-0.2-0.1-0.3-0.1-0.3-0.4c-0.2,0.5,0.1,1.2-0.2,1.8c-0.2-0.4-0.6,0.4-0.7-0.6
						c0.6,0.3-0.1-0.9,0.5-1.1c-0.1,0.1-0.2,0.1-0.4,0c0-0.1,0-0.2,0.1-0.2c-0.6-0.8-0.3,1.1-0.9,1c0.1-0.5-0.1-1-0.3-0.9
						c0.3,0,0.1,0.9-0.1,1.3c-0.4-0.4-0.4,0.3-0.7,0.3l0.2,0.2c-0.1,0.5-0.3,0.5-0.6,0.6c0-0.4,0.3-0.3,0.2-0.5
						c-0.3,0.9-0.7-1-1.2-0.3c-0.2-0.4,0-1-0.2-1.2c-0.5,0.7-0.5-0.7-1.1-0.2c0.2,0.7,0.2,0.5-0.2,1.2l0.9-0.5l-0.6,1
						c0.3,0,0.5-0.4,0.7-0.3c-0.3,0.6-0.2,0.4-0.1,1c-0.4-1.1-0.7,0.6-1.1-0.1l0-1.8c-0.6-0.8-1.1,0.9-1.9,0.5l0.3,0.3
						c-0.1,0.7-0.5,0.1-0.8,0.4c0-0.6-0.1-0.8-0.2-1.2c0,0.4-0.6,0-0.7,1.1l-0.4-0.8c-0.6-0.3-0.7,1.7-1.4,1.5
						c0.2-0.6-0.1-1.1,0.3-1.5c-0.2,0-0.4-0.1-0.4,0.3c-0.1-0.4-0.6,0.8-0.8,0.2c-0.1,0.3-0.1,0.9-0.3,0.8c0-0.1,0-0.3,0-0.3
						c0,0.3-0.4,0.4-0.2,1.1c-0.6-1.8-1.8,0.1-2.3-1.5c-0.5,0.2-1,0.4-1.4,0.4c0-0.2,0-0.3,0.1-0.2c-0.6-0.6-0.3,1.7-1,1.1
						c-0.3-1,0.3-0.5,0.1-0.9c-0.1-1.9-0.8,0.3-1.2-0.9l0.1-0.1c-0.3-0.7-0.8,0.7-1.4,0.6c0,0,0-0.2,0-0.3c-0.4,1-1.1,1.3-1.6,1.6
						c0.2-0.8,0.2-0.4,0.1-1.2c-0.2,0.1,0.1,1.2-0.4,1.5c-0.2-0.4-0.5-0.8-0.5-1.6l0.4,0c-0.2-1.1-0.6,0-0.8-0.1l0-0.5
						c-0.7,0.2-0.7,1.3-1.4,1.2l0.1,0.4c-0.4,1.2-0.3-0.7-0.7,0.2l-0.1-1.2c-0.3,0.3-0.9,1.1-1.4,1.4c0.3-0.9,0.8-1.3,1.2-1.8
						c-0.3,0-0.9,0.1-1,0.7c0.1-0.1,0.2-0.4,0.3-0.2c-0.3,0.9-0.7,1.4-1.3,1.4c0.1-2.3-1.3-0.6-1.7-2.4c-0.9,0.8-1.8-0.4-2.9-0.2
						c0.4,1.8-0.3,0.1-0.2,1.9c-0.2,0.1-0.3,0.1-0.4,0l-0.8-1.1c-0.2-0.5,0.2-0.4,0.2-0.8c-0.5-0.1-0.2-0.8-0.6-1.3
						c0.1,0.7-0.2,0.9-0.5,0.7l0.4,0.8c-0.8,1-0.7-1.5-1.4-0.6l0.2-0.6c-0.4,0.3-1.4,0-1.8,1.5c-0.1-0.2-0.2-0.7,0-0.8
						c-0.9-0.2-2.1,1.6-2.8,0.7l0.1-0.4c-0.2,0.1-0.3,0.8-0.5,0.4c0-0.2,0.1-0.4,0-0.5c-0.1,0.2-0.5,0.8-0.7,0.5l0.2-0.5
						c-0.9-0.6-1.4,1.2-2.2,1.5c0-1.3-0.7-1.7-1.1-2l0-0.2c-1.1-0.2-1.8,1.1-2.8,1.6c-0.6-1.4-2.1-0.6-3.1-1.4c0.2,0.2,0,1-0.2,1.2
						c-0.2-0.3-0.6,0.9-0.6-0.3l0.1,0c-0.2-1.2-0.6-0.9-1-0.9l-0.1,1.6c-1-2.3-2.5,0.8-3.1-1.2c-0.2,0.4-0.5,0.4-0.8,0.8l0-0.8
						c-0.6-0.2-1-0.3-1.8-0.1l0.2-0.6c-0.5-0.1-0.6,2.4-1,2.5l-0.1-1.3c-0.8,0-1.6-1.1-2.4,0.1c0-0.2,0-0.6,0.2-0.6
						c-0.4,0-1.4-0.9-1.3,0.9c0-1.1-0.8-0.1-1.2,0.4l0.1-0.8c-0.4,1.1-0.4,1.4-0.9,1.7c-0.1-0.1-0.1-0.7,0.1-0.5
						c-0.4-0.4-0.3,0.8-0.8,0.3l0.2-0.5c-0.4-0.1-0.4,0.2-0.6,0.8c-0.3,0.3-0.8-0.2-0.8-1c-0.1,0.5-0.3,1.1-0.5,0.9
						c0-0.3,0.1-0.5,0.1-0.5c-0.7-0.6-1,1-1.5,0.2c0-0.3,0-0.4-0.1-0.5c0.5,0,1,0.1,0.9,0.1c0-0.8-0.4-0.9-0.1-2
						c-0.4,0.6-1,1.8-1.4,1.5c0-0.1,0-0.1-0.1-0.3l0-0.1c-0.1-0.1-0.2,0-0.3,0.1c-0.1-0.1-0.2-0.2-0.4-0.2c-0.1-0.6-0.5-0.3-0.7-0.4
						c0,0.8-0.3,0.7,0,1.4c0-0.1,0-0.1,0.2-0.1c0,0,0.1,0,0.1-0.1c0,0,0,0,0,0.1c0.1,0,0.3,0,0.5-0.1c-0.2,0.4-0.4,0.8-0.6,0.3
						c-0.1,0.5-0.2,1.1-0.3,1.4c-0.3-1.2-0.9-1.8-1-2.5c-0.7,0.5-1.6,0.3-2,1.9c-0.2,0.2-0.2-0.5-0.3-0.7c0.1-0.2,0.2-0.1,0.3-0.4
						c-0.4,0.4-1.1,0.2-1.2,1.3c-0.5-0.5,0.3-1-0.4-0.8l0.1-0.3c-1.3-1.8-2.1,2.8-3.5,0.6c0.1,0.1,0.1,0.2,0.2,0.4
						c-1.6-1-3.4,0.9-5-0.6c-0.5-0.3-0.5,0.4-0.8,0.9l-0.1-0.9l-0.5,1c-0.7,0.8-1.2-2.2-2-0.8l0.1,0.6c-0.3-0.1-1,0.4-0.9-0.3
						c0,0.1-0.1,0.6-0.2,0.3l0-0.5l-0.8,0.8c-0.6-0.3,0.1-1.9-0.8-2c-0.3,0.2-0.9,1.4-0.8,1.7c0.1,0,0.3,0.3,0.3,0.8l-0.3,0.2
						c-0.1,1.4-0.3,2.8,0.4,3.8l0.5-0.9l0.2,0.7l-0.4,0c0.2,0.6,0.4,0.1,0.6-0.3c0,0.4,0.1,0.6,0.2,0.7l0.5-1.3
						c0.1,0.5-0.2,1.1,0.1,1.4c0.2-0.6-0.2-1.2,0.2-1.6c0.2,0.6,0.2,1.2,0.4,0.6c0,0.4,0,0.6-0.1,0.7c0.2-0.4,0.7-0.2,0.8-0.9
						c0.2,0.8,0.8-0.2,0.8,1.1c0.1-0.3,0.4-1,0.7-1.1c-0.4,1.6,0.9,0.1,0.7,1.8c0.3-1.4,1.1-0.6,1.7-1.4c0,0.1-0.1,0.3-0.1,0.3
						c0.3,0.1,0.4,0.5,0.6,0.8c0-1.2,0.5-1.4,0.8-2.2c0.4,1.1-0.2,1.4-0.1,2.5c0-1,0.7-1,0.5-1.7c0.3,0.7,0.2,0.3,0.4,1.3
						c0.1-1.5,0.3-0.2,0.5-1.2c0.4,0.7,0.1,1.4,0.6,0.9C228.7,399.9,228.3,400.4,228.3,400.4z M239.2,397.9
						C239.2,397.9,239.2,397.9,239.2,397.9c-0.1,0-0.2,0.1-0.2,0.1C239,397.9,239.1,397.9,239.2,397.9z M240.1,397.9
						c-0.1,0-0.3,0-0.4,0c0-0.3,0-0.6,0.1-0.6C239.8,397.4,240,397.6,240.1,397.9z M238.2,392c0.1-0.1,0.2,0,0.2,0.2
						c-0.1,0-0.1,0-0.3,0.1c0,0,0,0.1,0,0.1C238.1,392.3,238.2,392.1,238.2,392z"/>
					<path class="st1" d="M237.9,393.1C237.9,393.1,237.9,393.2,237.9,393.1c0,0.1,0,0.2,0,0.3C238,393.3,238,393.2,237.9,393.1
						C238,393.1,238,393.1,237.9,393.1z"/>
					<path class="st1" d="M321.1,394.4L321.1,394.4c0,0,0,0,0,0.1C321.1,394.4,321.1,394.4,321.1,394.4z"/>
					<polygon class="st1" points="252.8,399.5 252.8,399.3 252.7,399.4 					"/>
					<path class="st1" d="M326.1,397.3c0,0.1,0,0.2,0.1,0.2C326.2,397.4,326.2,397.3,326.1,397.3z"/>
					<path class="st1" d="M328.3,397.4l0.3,0.3C328.5,397.6,328.4,397.5,328.3,397.4z"/>
					<path class="st1" d="M330,397.9c0-0.1,0-0.3,0-0.4c0,0,0,0,0,0L330,397.9z"/>
					<path class="st1" d="M303.3,398.9C303.3,398.9,303.3,398.9,303.3,398.9C303.1,399.1,303.2,399,303.3,398.9z"/>
					<path class="st1" d="M311.2,396.9c-0.1,0.2-0.2,0.3-0.3,0.4C311.1,397.4,311.2,397.4,311.2,396.9z"/>
					<path class="st1" d="M294.4,399.9C294.4,399.9,294.4,399.9,294.4,399.9C294.4,399.9,294.4,399.9,294.4,399.9L294.4,399.9z"/>
					<path class="st1" d="M310.6,397.3c0.1,0.2,0.3,0.1,0.4,0C310.9,397.2,310.7,397.1,310.6,397.3z"/>
					<path class="st1" d="M337.3,398.2L337.3,398.2c0.1,0,0.1-0.1,0.1-0.1L337.3,398.2z"/>
					<path class="st1" d="M337.3,398.1L337.3,398.1C337.4,398,337.4,398.1,337.3,398.1z"/>
					<path class="st1" d="M337.6,397.8l-0.2,0.2C337.5,398.1,337.6,398.1,337.6,397.8z"/>
					<path class="st1" d="M335,397.9l0,0.3C335,398.1,335,398,335,397.9z"/>
					<path class="st1" d="M334.4,397.9c0.2,0.1,0.4,0.7,0.6,0.5l0-0.2C334.9,398.6,334.5,397.4,334.4,397.9z"/>
					<path class="st1" d="M331.5,394.2l0.6,0.2c-0.1-0.3-0.2-0.8,0-0.8C331.4,392.6,332.3,394.3,331.5,394.2z"/>
					<path class="st1" d="M329.8,393.7c0.3-0.2,0-0.5,0-0.7C329.6,393.3,329.6,393.4,329.8,393.7z"/>
					<path class="st1" d="M317.1,393.7l0-0.8C316.9,393,317.1,393.2,317.1,393.7z"/>
					<polygon class="st1" points="314.7,397.7 314.9,398.1 315,397.4 					"/>
					<polygon class="st1" points="313.3,392.2 313.4,392.1 313,392.4 					"/>
					<path class="st1" d="M292,392.5l0.1,0.9C292.2,393.2,292.2,392.2,292,392.5z"/>
					<path class="st1" d="M282.8,393.4c-0.1-0.5-0.4-0.8-0.5-0.3C282.5,393.2,282.7,393.5,282.8,393.4z"/>
					<polygon class="st1" points="255.2,391.9 255.4,391.6 255.1,391.8 					"/>
				</g>
			</g>
		</g>
	</g>
</g>
<g>
	<g>
		<g>
			<g>
				<g>
					<path class="st1" d="M339.3,446c0.1-0.3,0-0.8-0.1-0.7l-0.1,1L339.3,446z"/>
					<path class="st1" d="M338.1,444.2c-0.2,0.5-0.4,1.3-0.3,2.2c0.2-1,0.3-0.6,0.5-1.7c0.2-0.1,0.3,0.3,0.3,0.7
						c0.1-0.3,0.3,0.2,0.4-0.4c-0.2-0.8-0.5-0.8-0.8-0.2C338,444.6,338.1,444.3,338.1,444.2z"/>
					<path class="st1" d="M320.9,442.6l0.1,0.1C321,442.7,321,442.6,320.9,442.6z"/>
					<path class="st1" d="M310.3,442.1c0.1,0,0.1-0.1,0.1-0.2C310.3,441.9,310.3,442,310.3,442.1z"/>
					<path class="st1" d="M308.5,441c0,0,0.1,0,0.1,0.1C308.5,440.9,308.5,440.9,308.5,441z"/>
					<path class="st1" d="M320.9,442.6l-0.3-0.3C320.6,442.6,320.8,442.5,320.9,442.6z"/>
					<path class="st1" d="M335.8,446.5c0.1,0,0.1-0.1,0.2-0.3c0,0-0.1,0.1-0.1,0.1C335.8,446.4,335.8,446.5,335.8,446.5z"/>
					<path class="st1" d="M325.6,441.8L325.6,441.8c0.1-0.1,0.1-0.3,0.2-0.4L325.6,441.8z"/>
					<path class="st1" d="M329.2,441.6c-0.1,0-0.1,0.8-0.1,1.2c0-0.3,0.1-0.5,0.2-0.6C329.3,442.1,329.3,441.9,329.2,441.6z"/>
					<path class="st1" d="M335,443.1l0.1-0.1C335,443,335,443.1,335,443.1z"/>
					<path class="st1" d="M323.1,441.6c0-0.1,0-0.2,0-0.3C323,441.4,323,441.5,323.1,441.6z"/>
					<path class="st1" d="M222.3,448c0-0.1,0-0.1,0-0.1C222.3,447.9,222.3,447.9,222.3,448z"/>
					<path class="st1" d="M218.1,443.8L218.1,443.8c0.1-0.2,0.1-0.4,0.1-0.5L218.1,443.8z"/>
					<path class="st1" d="M305.1,439.9C305.2,439.9,305.2,439.9,305.1,439.9C305.2,439.8,305.2,439.8,305.1,439.9z"/>
					<path class="st1" d="M274.6,440.5c0.3,0.8-0.6,1,0,1.8C274.5,442,275,441,274.6,440.5z"/>
					<path class="st1" d="M335.7,446.4c0,0-0.1,0-0.1,0C335.6,446.5,335.6,446.5,335.7,446.4z"/>
					<path class="st1" d="M274.6,442.3C274.6,442.3,274.6,442.3,274.6,442.3L274.6,442.3C274.6,442.4,274.6,442.3,274.6,442.3z"/>
					<path class="st1" d="M297.5,440.4c0,0.1,0,0.3,0.1,0.4C297.6,440.7,297.5,440.6,297.5,440.4z"/>
					<path class="st1" d="M303.2,441.6l-0.1-0.1C303.1,441.6,303.2,441.6,303.2,441.6z"/>
					<path class="st1" d="M294.5,441.6c-0.1-0.1-0.1-0.2-0.2-0.1c0,0,0,0.1,0,0.1C294.4,441.5,294.4,441.4,294.5,441.6z"/>
					<path class="st1" d="M291.4,441.6c0,0.1,0,0.1,0.1,0.2c0,0,0.1,0,0.1,0L291.4,441.6z"/>
					<path class="st1" d="M231.7,447.5c-0.1-0.2-0.1-0.5-0.1-0.8C231.6,447.4,231.1,447.6,231.7,447.5z"/>
					<path class="st1" d="M335.8,446.1c0,0.2,0,0.3-0.1,0.4c0,0,0.1,0,0.1,0C335.8,446.3,335.8,446.1,335.8,446.1z"/>
					<path class="st1" d="M294.4,448.2l-0.5-0.1C294,448.2,294.2,448.2,294.4,448.2z"/>
					<path class="st1" d="M253.8,447.4l-0.1,0.1C253.7,447.5,253.8,447.5,253.8,447.4z"/>
					<path class="st1" d="M292.4,448.2c-0.1-0.3-0.2-0.5-0.3-0.6c0,0.1,0,0.1-0.1,0.2L292.4,448.2z"/>
					<path class="st1" d="M231.5,446.8C231.5,446.8,231.5,446.8,231.5,446.8C231.5,446.8,231.5,446.8,231.5,446.8z"/>
					<path class="st1" d="M228.3,448.8c0.5,0,0.2-1.1,0.3-1.7c0.6-0.3,0.3,0.8,0.4,1.4c0.3-0.3,0.6-1.3,0.9-1.3c0,0.2,0.1,0.2,0,0.5
						c0.4-0.9,1.1,0,1.5-1.1c0,0.1,0,0.2,0.1,0.3c-0.1-0.6-0.1-1.1-0.1-1.5c0.2,0,0.4-0.7,0.5,0c-0.1,0-0.1,0.3-0.2,0.5l0.2-0.3
						c0.2,1-0.3,0.4-0.3,1.1c0.4-0.3,0.9-1.2,1.3-0.9c0.1,1-0.8,0.3-0.3,1.2l-0.5-0.4c0.4,1.6-0.3-0.1,0,1.6
						c0.7,0.3,0.7-0.5,1.4-0.2c0.2-0.6,0-0.8,0.1-1.4c0.9-1,0.7,2.6,1.4,1.2c0.2-0.7,0.3-2,0.7-1.3l-0.2,1.2c0.6,0.1,0.4-1.7,1-0.9
						c-0.1,0.5-0.5,0.4-0.4,0.5c0.4,0.9,0.3-0.7,0.6-0.7l0.1,1c0.7-0.2,1.4-0.9,2.2-1.1c0,0.3-0.2,0.6,0,0.9c1-0.5,2.1,0.1,3,0.7
						l0.4-0.9c0.1,0,0.2,0.4,0.1,0.6c0.4,0.3,0-0.6,0.2-0.9c0.2-0.1,0.3,0.5,0.1,0.8c0.6-0.7,1.8-1.6,2.5-0.7l-0.1,0.3
						c0.5,0.4,0.6-1.8,1.1-1l-0.1,0.2c1.1,0.4,2.4-0.4,3.3,0.9c0.2-1.3,1.1,0.6,1.2-1.2c0.6,0.9,0.5,1.2,1.4,1.8
						c0.2,0.1,0.4-1.1,0.7-1.3l0,0.9l0.4-1l0.2,1.1l0.3-0.2c-0.1-0.1-0.2-0.4-0.2-0.7c0.4-0.4,1.1,0.6,1.1,1.1l1-0.8
						c0,0.4-0.2,0.5-0.3,0.7c0.6-0.9,0.1,1,0.6,0.1c-0.1-0.2,0-0.6,0-0.7c0.3,0.6,0.8,0.6,1.3,0.3l-0.1,0.6c0.8,0.2,1.6-0.3,2.5-0.3
						c-0.3-0.3-0.2-1.4,0-1.5l0.1,1c0.2-0.6-0.3-0.4,0.1-1.1c0.3,0.1,0.2,1.1,0,1.4l0.4-0.3c0,0.3-0.1,0.4-0.1,0.8
						c0.2-0.6,0.7,1,0.9-0.1l0,0.3c0.9,0,1.3-0.3,2-0.4c0-0.8,0.3-0.7,0.5-1.3c0.5,0.3,1.1,0.9,1.7,0.9c0.4-0.4,0.1-0.7,0.3-1.2
						c0,0.8,0.7,0.7,0.3,1.2c0.8-0.1,1-0.2,1.9-0.8c-0.1-0.3-0.2-0.5-0.2-0.7c0.2-0.1,0.4,0.3,0.4,0.7l0,0.1
						c1.1-1.2,2.5,2.2,3.3,0.6l0,0.1l0.9-0.8c0.4,0.1-0.2,0.6,0.1,1.1c1-1.3,1.5,0.2,2.3-0.7c0.6,2.3,2.2-0.2,3,1.3l0-0.5
						c0.2-0.5,0.3,0.3,0.4,0.4c0-0.4-0.2-0.5-0.1-0.8c1.8-0.6,3.7,0.8,5.5,1.3c0.7,0.1,0.4-2.8,1.2-1.5l-0.2,1c1.4-1.2,2.8,0,4.1-1
						c-0.1,0.2-0.1,0.5-0.2,0.5c0.3,0.7,1,0,1-0.6c0.2,0.1,0,0.5,0.2,0.8c0.3,0.4,0.7-0.9,0.9-0.2c0,0.1-0.1,0.2-0.1,0.3
						c0.2-0.3,0.9,0.1,0.7-0.7c0.5,0.4,1-0.4,1.4,0.1c0.3-0.9,0.9,0.4,0.9-0.9c0,1.4,0.9,1.1,1.2,0.5c-0.1,0.4,0.3,0.4,0.2,1
						c0.4,0,0.7-0.3,0.6-1c0.7,1.6,1.3-1.3,1.7,0.8c1.1-0.7,2.1-1.2,3-1.5c0,1.4-1.1,0.1-1,1.6c0.9-0.6,1.4-1.7,2.3-1.4
						c0.2,0.2-0.1,0.6-0.2,0.8c0.9-0.6,1.8,0.1,2.6-0.6c0,0.1-0.1,0.3-0.2,0.4c0.2,0,0.4,0.2,0.4-0.4l-0.2,0.2
						c-0.3-0.9,0.6-1.9,0.7-2.3c-0.3,1.8,0.8,0.4,0.4,2.7c0.1-0.1,0.2-0.4,0.2-0.8c0.2,0.1,0.2,0.4,0,0.8c0.6-0.3,0.4-1,0.9-1
						c0,0.3-0.1,0.4-0.2,0.8c0.3-0.6,0.5-1.2,1-0.9c0,0.2,0,0.4-0.1,0.4c0.8-0.1,1.3-1.5,2.1-1c-0.2,1.3,0.3,0.4,0.3,1.5l0.4-0.3
						l-0.2-0.5c0.4,0,0.7-0.8,1.1-0.4l-0.3,0.5l0.7-0.2l-0.4-0.4c0.4-0.6,0-1.4,0.5-1.1c-0.1,0.1,0.4,0,0.6,0.7c0,0,0,0,0,0
						c0.2-0.4,0.4-0.7,0.7-0.5c0.1,0.4-0.1,1.2,0,1.5c0.2-0.9,0.9-0.3,1.2-1.3c-0.1,0.2-0.1,0.8-0.1,0.9l0.2-0.8
						c0.2,0.2,0.2,0.4,0.2,0.8c0.5,0.1-0.2-1.4,0.5-0.8c-0.1,0.1,0,0.2-0.1,0.3c0.6,0.3,1.2-0.5,1.8-0.1c0.2,1.1-0.5,0.3-0.3,1.2
						c0.9-0.2,1.8-1.4,2.6-1.1l-0.2-0.1c0.1-1.6,0.6,0.8,1,0c-0.1,0.1-0.1,0.9-0.1,0.7c0.6,0.3,1.2-0.4,2-0.9l-0.1,0.4
						c0.3,0.4,0.9,0.2,1.2,0.4c0.1-0.4,0.3-0.3,0.2-0.9c1.1,2.3,2.1-1.2,3.1,0.7c-0.1,0-0.3,0.4-0.2,0.4l0.8-0.4
						c-0.1-0.7-0.1-0.4-0.3-1c0.1-0.4,0.3-0.7,0.6-0.7c-0.4,0.5,0,1.1,0.2,1.5c0-0.2,0-0.4,0-0.7c0.4,1.2,0.1-1.4,0.7-0.6l0,0.4
						c0.2-0.2,0.4-0.7,0.7-0.6c0.1,0.8-0.2,0.4-0.3,1c0.3,0,0.7-1.5,1-0.7c-0.1,0.2-0.4,0.2-0.5,0.4c0.3,0.9,0.4,0.7,0.6,0.9l0,0
						l0.6,0.4l-0.1-0.3c0.4-2.1,0.9-0.4,1.4-1.8c-0.6,1.3-0.1,0.8-0.1,1.7c0.1,0.3,0.4,0.5,0.3,0.8c0.3-0.7,0.5,0.6,0.8-0.5
						c0,0.3,0.3,0,0.2,0.8c0.4-0.2-0.1-0.5-0.1-0.9c0.5-1,1.3,1.2,2.1-0.2c0.7-0.6,0.8-1.6,1.4-2c0.2,0.5-0.2,1.1-0.2,1.1
						c0.3,0.4,0.6,0.4,0.9,0c-0.1,0.3,0,0.5,0.1,0.8c0.3-0.1,0.2-1.1,0.5-0.6c-0.1,0.3-0.1,0.8-0.3,1.2c0.3-0.3,0.6-0.8,0.9-1.1
						c0.1,0.5-0.2,0.8-0.3,1.1c0.4-0.2,0.9-0.5,1-1.3l-0.2-0.3c0.1,0,0.1,0.7,0,0.8c-0.3,0.6-0.4-0.3-0.5-0.6l0.2-0.2
						c-0.2-1.7-0.9,0.3-1.3,0.2l0.2-1.2l-0.5,1c-0.1-0.3-0.2-1,0.1-1.2c-0.3-0.6-0.3,0.4-0.6-0.2c0-0.1,0-0.2,0-0.2l-0.3,0.4
						c0.1-0.3-0.1-0.9,0.1-0.7c-0.6-0.7-0.9,0.9-1.1,0l0-0.1c-0.8,0.4-0.1,0.9-0.7,2l-0.4-2.3l-0.1,0.9c-0.1,0-0.2-0.1-0.2-0.5
						c-0.3,0.6,0.1,0.4-0.1,1c-0.4-0.8-1.1,0.4-1.2-1.1c-0.1,0.7,0.4,0.5,0,1c-0.1-1.6-0.5,0.3-0.8-0.5c0.1-0.8,0.4-0.4,0.1-1.1
						c-0.2,1.4-0.7-0.3-1,0c0,1.1-0.7,0.5-1.2,0.8c0-0.4-0.9-0.6-1.4-1l0-0.2c-0.1,1.1-0.6,0.9-0.9,1.1c0-0.7,0.1-0.9,0.3-1.2
						l-0.3,0c-0.1,0.4-0.2,0.5-0.4,0.7l0.1-0.8c-0.4,0-0.9,1-1.5,0.4c0,0.8,0.5,2.1-0.1,2.7c0-0.4,0-1.1,0.1-1.3
						c-0.1,0.1-0.2,0.3-0.3,0.2l0.2-0.7c-0.3-0.3-0.1,0.6-0.3,0.5c0-0.6-0.2-0.4-0.1-0.9c0.1-0.1,0.2,0.2,0.3,0
						c-0.2-0.1-0.5-0.5-0.6-0.9c0,0.3,0,0.8-0.2,0.9c-0.4,0-0.2-0.7-0.4-1c-0.1,0.4-0.4,0-0.4,0.9c-0.1,0-0.2-0.4-0.2-0.7
						c-0.2,0.4-1.1,0.1-0.8,1.1l0.1,0.1c0,0,0,0,0,0c0,0,0,0,0,0h0c-0.7,0.9-1.6-0.5-2.3-0.1l0-0.3c-0.4,0.3-1,0.2-1.3,0.8
						c-0.1,0-0.3-0.5-0.3-0.9c-0.3,0.2-0.4,0.6-0.9,0.1c0.3-0.5-0.1-0.5,0.3-0.4c-0.4-0.3-0.5-0.7-1,0.1c0.2-0.8-0.3-1-0.5-0.7
						l0.3,0.5c-0.2,0.1-0.4,0-0.6,0l0.1-1c-0.9-1.2-1.6,2.1-2.3,0c-0.2,0.7,0.5,0.5,0.3,1.3c-0.4-0.1-0.8-1.6-1-1.6
						c-0.6-0.6-0.5,1.5-1.1,1.1c0.1,0.4,0.1,1.3-0.3,1.6c-0.4-0.1-0.5-1.5-0.2-1.8c0.1,0,0.1,0.1,0.1,0.2c0.1-0.1,0.3-0.3,0.1-0.7
						l-0.1,0.4c-0.2-0.4-0.8-0.3-0.6-0.9c-0.3,0.3-0.1,0.6,0.1,0.8c-0.5-0.5-0.8,0-1.4-0.4c0.1,0.2,0.2,0.6,0.1,0.6
						c-0.8-0.4-0.4,0.7-0.9,0.8c-0.3-0.5,0.1-1.3-0.4-0.8c-0.3-0.4-0.1-0.9,0.1-1.2c-0.5,0.7-0.9-0.5-1.2-0.6l0.3-0.3
						c-0.2,0.2-0.3,0.2-0.4,0.2l0.1,0.7c-0.2-0.1-0.3-0.1-0.3-0.4c-0.2,0.5,0.1,1.2-0.2,1.8c-0.2-0.4-0.6,0.4-0.7-0.6
						c0.6,0.3-0.1-0.9,0.5-1.1c-0.1,0.1-0.2,0.1-0.4,0c0-0.1,0-0.2,0.1-0.2c-0.6-0.8-0.3,1.1-0.9,1c0.1-0.5-0.1-1-0.3-0.9
						c0.3,0,0.1,0.9-0.1,1.3c-0.4-0.4-0.4,0.3-0.7,0.3l0.2,0.2c-0.1,0.5-0.3,0.5-0.6,0.6c0-0.4,0.3-0.3,0.2-0.5
						c-0.3,0.9-0.7-1-1.2-0.3c-0.2-0.4,0-1-0.2-1.2c-0.5,0.7-0.5-0.7-1.1-0.2c0.2,0.7,0.2,0.5-0.2,1.2l0.9-0.5l-0.6,1
						c0.3,0,0.5-0.4,0.7-0.3c-0.3,0.6-0.2,0.4-0.1,1c-0.4-1.1-0.7,0.6-1.1-0.1l0-1.8c-0.6-0.8-1.1,0.9-1.9,0.5l0.3,0.3
						c-0.1,0.7-0.5,0.1-0.8,0.4c0-0.6-0.1-0.8-0.2-1.2c0,0.4-0.6,0-0.7,1.1l-0.4-0.8c-0.6-0.3-0.7,1.7-1.4,1.5
						c0.2-0.6-0.1-1.1,0.3-1.5c-0.2,0-0.4-0.1-0.4,0.3c-0.1-0.4-0.6,0.8-0.8,0.2c-0.1,0.3-0.1,0.9-0.3,0.8c0-0.1,0-0.3,0-0.3
						c0,0.3-0.4,0.4-0.2,1.1c-0.6-1.8-1.8,0.1-2.3-1.5c-0.5,0.2-1,0.4-1.4,0.4c0-0.2,0-0.3,0.1-0.2c-0.6-0.6-0.3,1.7-1,1.1
						c-0.3-1,0.3-0.5,0.1-0.9c-0.1-1.9-0.8,0.3-1.2-0.9l0.1-0.1c-0.3-0.7-0.8,0.7-1.4,0.6c0,0,0-0.2,0-0.3c-0.4,1-1.1,1.3-1.6,1.6
						c0.2-0.8,0.2-0.4,0.1-1.2c-0.2,0.1,0.1,1.2-0.4,1.5c-0.2-0.4-0.5-0.8-0.5-1.6l0.4,0c-0.2-1.1-0.6,0-0.8-0.1l0-0.5
						c-0.7,0.2-0.7,1.3-1.4,1.2l0.1,0.4c-0.4,1.2-0.3-0.7-0.7,0.2l-0.1-1.2c-0.3,0.3-0.9,1.1-1.4,1.4c0.3-0.9,0.8-1.3,1.2-1.8
						c-0.3,0-0.9,0.1-1,0.7c0.1-0.1,0.2-0.4,0.3-0.2c-0.3,0.9-0.7,1.4-1.3,1.4c0.1-2.3-1.3-0.6-1.7-2.4c-0.9,0.8-1.8-0.4-2.9-0.2
						c0.4,1.8-0.3,0.1-0.2,1.9c-0.2,0.1-0.3,0.1-0.4,0l-0.8-1.1c-0.2-0.5,0.2-0.4,0.2-0.8c-0.5-0.1-0.2-0.8-0.6-1.3
						c0.1,0.7-0.2,0.9-0.5,0.7l0.4,0.8c-0.8,1-0.7-1.5-1.4-0.6l0.2-0.6c-0.4,0.3-1.4,0-1.8,1.5c-0.1-0.2-0.2-0.7,0-0.8
						c-0.9-0.2-2.1,1.6-2.8,0.7l0.1-0.4c-0.2,0.1-0.3,0.8-0.5,0.4c0-0.2,0.1-0.4,0-0.5c-0.1,0.2-0.5,0.8-0.7,0.5l0.2-0.5
						c-0.9-0.6-1.4,1.2-2.2,1.5c0-1.3-0.7-1.7-1.1-2l0-0.2c-1.1-0.2-1.8,1.1-2.8,1.6c-0.6-1.4-2.1-0.6-3.1-1.4c0.2,0.2,0,1-0.2,1.2
						c-0.2-0.3-0.6,0.9-0.6-0.3l0.1,0c-0.2-1.2-0.6-0.9-1-0.9l-0.1,1.6c-1-2.3-2.5,0.8-3.1-1.2c-0.2,0.4-0.5,0.4-0.8,0.8l0-0.8
						c-0.6-0.2-1-0.3-1.8-0.1l0.2-0.6c-0.5-0.1-0.6,2.4-1,2.5l-0.1-1.3c-0.8,0-1.6-1.1-2.4,0.1c0-0.2,0-0.6,0.2-0.6
						c-0.4,0-1.4-0.9-1.3,0.9c0-1.1-0.8-0.1-1.2,0.4l0.1-0.8c-0.4,1.1-0.4,1.4-0.9,1.7c-0.1-0.1-0.1-0.7,0.1-0.5
						c-0.4-0.4-0.3,0.8-0.8,0.3l0.2-0.5c-0.4-0.1-0.4,0.2-0.6,0.8c-0.3,0.3-0.8-0.2-0.8-1c-0.1,0.5-0.3,1.1-0.5,0.9
						c0-0.3,0.1-0.5,0.1-0.5c-0.7-0.6-1,1-1.5,0.2c0-0.3,0-0.4-0.1-0.5c0.5,0,1,0.1,0.9,0.1c0-0.8-0.4-0.9-0.1-2
						c-0.4,0.6-1,1.8-1.4,1.5c0-0.1,0-0.1-0.1-0.3l0-0.1c-0.1-0.1-0.2,0-0.3,0.1c-0.1-0.1-0.2-0.2-0.4-0.2c-0.1-0.6-0.5-0.3-0.7-0.4
						c0,0.8-0.3,0.7,0,1.4c0-0.1,0-0.1,0.2-0.1c0,0,0.1,0,0.1-0.1c0,0,0,0,0,0.1c0.1,0,0.3,0,0.5-0.1c-0.2,0.4-0.4,0.8-0.6,0.3
						c-0.1,0.5-0.2,1.1-0.3,1.4c-0.3-1.2-0.9-1.8-1-2.5c-0.7,0.5-1.6,0.3-2,1.9c-0.2,0.2-0.2-0.5-0.3-0.7c0.1-0.2,0.2-0.1,0.3-0.4
						c-0.4,0.4-1.1,0.2-1.2,1.3c-0.5-0.5,0.3-1-0.4-0.8l0.1-0.3c-1.3-1.8-2.1,2.8-3.5,0.6c0.1,0.1,0.1,0.2,0.2,0.4
						c-1.6-1-3.4,0.9-5-0.6c-0.5-0.3-0.5,0.4-0.8,0.9l-0.1-0.9l-0.5,1c-0.7,0.8-1.2-2.2-2-0.8l0.1,0.6c-0.3-0.1-1,0.4-0.9-0.3
						c0,0.1-0.1,0.6-0.2,0.3l0-0.5l-0.8,0.8c-0.6-0.3,0.1-1.9-0.8-2c-0.3,0.2-0.9,1.4-0.8,1.7c0.1,0,0.3,0.3,0.3,0.8l-0.3,0.2
						c-0.1,1.4-0.3,2.8,0.4,3.8l0.5-0.9l0.2,0.7l-0.4,0c0.2,0.6,0.4,0.1,0.6-0.3c0,0.4,0.1,0.6,0.2,0.7l0.5-1.3
						c0.1,0.5-0.2,1.1,0.1,1.4c0.2-0.6-0.2-1.2,0.2-1.6c0.2,0.6,0.2,1.2,0.4,0.6c0,0.4,0,0.6-0.1,0.7c0.2-0.4,0.7-0.2,0.8-0.9
						c0.2,0.8,0.8-0.2,0.8,1.1c0.1-0.3,0.4-1,0.7-1.1c-0.4,1.6,0.9,0.1,0.7,1.8c0.3-1.4,1.1-0.6,1.7-1.4c0,0.1-0.1,0.3-0.1,0.3
						c0.3,0.1,0.4,0.5,0.6,0.8c0-1.2,0.5-1.4,0.8-2.2c0.4,1.1-0.2,1.4-0.1,2.5c0-1,0.7-1,0.5-1.7c0.3,0.7,0.2,0.3,0.4,1.3
						c0.1-1.5,0.3-0.2,0.5-1.2c0.4,0.7,0.1,1.4,0.6,0.9C228.7,448.3,228.3,448.8,228.3,448.8z M239.2,446.2
						C239.2,446.2,239.2,446.3,239.2,446.2c-0.1,0-0.2,0.1-0.2,0.1C239,446.3,239.1,446.3,239.2,446.2z M240.1,446.2
						c-0.1,0-0.3,0-0.4,0c0-0.3,0-0.6,0.1-0.6C239.8,445.8,240,446,240.1,446.2z M238.2,440.4c0.1-0.1,0.2,0,0.2,0.2
						c-0.1,0-0.1,0-0.3,0.1c0,0,0,0.1,0,0.1C238.1,440.6,238.2,440.5,238.2,440.4z"/>
					<path class="st1" d="M237.9,441.5C237.9,441.5,237.9,441.5,237.9,441.5c0,0.1,0,0.2,0,0.3C238,441.7,238,441.6,237.9,441.5
						C238,441.5,238,441.5,237.9,441.5z"/>
					<path class="st1" d="M321.1,442.7L321.1,442.7c0,0,0,0,0,0.1C321.1,442.8,321.1,442.8,321.1,442.7z"/>
					<polygon class="st1" points="252.8,447.8 252.8,447.6 252.7,447.8 					"/>
					<path class="st1" d="M326.1,445.6c0,0.1,0,0.2,0.1,0.2C326.2,445.8,326.2,445.7,326.1,445.6z"/>
					<path class="st1" d="M328.3,445.8l0.3,0.3C328.5,446,328.4,445.9,328.3,445.8z"/>
					<path class="st1" d="M330,446.2c0-0.1,0-0.3,0-0.4c0,0,0,0,0,0L330,446.2z"/>
					<path class="st1" d="M303.3,447.2C303.3,447.2,303.3,447.2,303.3,447.2C303.1,447.4,303.2,447.4,303.3,447.2z"/>
					<path class="st1" d="M311.2,445.3c-0.1,0.2-0.2,0.3-0.3,0.4C311.1,445.7,311.2,445.7,311.2,445.3z"/>
					<path class="st1" d="M294.4,448.2C294.4,448.2,294.4,448.2,294.4,448.2C294.4,448.2,294.4,448.2,294.4,448.2L294.4,448.2z"/>
					<path class="st1" d="M310.6,445.6c0.1,0.2,0.3,0.1,0.4,0C310.9,445.6,310.7,445.5,310.6,445.6z"/>
					<path class="st1" d="M337.3,446.6L337.3,446.6c0.1,0,0.1-0.1,0.1-0.1L337.3,446.6z"/>
					<path class="st1" d="M337.3,446.5L337.3,446.5C337.4,446.4,337.4,446.4,337.3,446.5z"/>
					<path class="st1" d="M337.6,446.2l-0.2,0.2C337.5,446.4,337.6,446.5,337.6,446.2z"/>
					<path class="st1" d="M335,446.2l0,0.3C335,446.5,335,446.4,335,446.2z"/>
					<path class="st1" d="M334.4,446.3c0.2,0.1,0.4,0.7,0.6,0.5l0-0.2C334.9,447,334.5,445.8,334.4,446.3z"/>
					<path class="st1" d="M331.5,442.5l0.6,0.2c-0.1-0.3-0.2-0.8,0-0.8C331.4,441,332.3,442.7,331.5,442.5z"/>
					<path class="st1" d="M329.8,442.1c0.3-0.2,0-0.5,0-0.7C329.6,441.7,329.6,441.8,329.8,442.1z"/>
					<path class="st1" d="M317.1,442.1l0-0.8C316.9,441.4,317.1,441.6,317.1,442.1z"/>
					<polygon class="st1" points="314.7,446 314.9,446.5 315,445.8 					"/>
					<polygon class="st1" points="313.3,440.6 313.4,440.5 313,440.7 					"/>
					<path class="st1" d="M292,440.8l0.1,0.9C292.2,441.6,292.2,440.6,292,440.8z"/>
					<path class="st1" d="M282.8,441.8c-0.1-0.5-0.4-0.8-0.5-0.3C282.5,441.6,282.7,441.9,282.8,441.8z"/>
					<polygon class="st1" points="255.2,440.3 255.4,439.9 255.1,440.2 					"/>
				</g>
			</g>
		</g>
	</g>
</g>
<path class="st2" d="M707.1,292.3l-29.2,56.2c-8.1,15.6-37,16.6-64.5,2.3l-143.7-74.8l-115.5-32.1l36.3-9.1l-17.4-9.1
	c-27.5-14.3-43.2-38.6-35.1-54.1l29.2-56.2c8.1-15.6,37-16.6,64.5-2.3L672,238.2C699.5,252.5,715.2,276.7,707.1,292.3z"/>
<text transform="matrix(0.8954 0.4452 -0.4452 0.8954 444.8745 217.2609)" class="st3 st4 st5">TEST</text>
</svg>
