<svg xmlns="http://www.w3.org/2000/svg" viewBox="0 0 792 612" enable-background="new 0 0 792 612"><style type="text/css">.st0{fill:none;stroke:#F17922;stroke-width:4;stroke-miterlimit:10;} .st1{fill:#F2BB53;} .st2{fill:#010101;} .st3{fill:#F17922;} .st4{font-family:&apos;ApolloMTStd&apos;;} .st5{font-size:37.3168px;}</style><path class="st0" d="M550.8 481.9h-272.1l24.8-345.8h209.2z"/><path class="st1" d="M338.5 210.1c-5.9 0-10.6-4.8-10.6-10.6v-5.4c0-5.9 4.8-10.6 10.6-10.6 5.9 0 10.6 4.8 10.6 10.6v5.4c.1 5.9-4.7 10.6-10.6 10.6zm0 48.4c-5.9 0-10.6-4.8-10.6-10.6v-5.4c0-5.9 4.8-10.6 10.6-10.6 5.9 0 10.6 4.8 10.6 10.6v5.4c.1 5.9-4.7 10.6-10.6 10.6zm0 48c-5.9 0-10.6-4.8-10.6-10.6v-5.4c0-5.9 4.8-10.6 10.6-10.6 5.9 0 10.6 4.8 10.6 10.6v5.4c.1 5.9-4.7 10.6-10.6 10.6zm0 47.4c-5.9 0-10.6-4.8-10.6-10.6v-5.4c0-5.9 4.8-10.6 10.6-10.6 5.9 0 10.6 4.8 10.6 10.6v5.4c.1 5.9-4.7 10.6-10.6 10.6zm0 41.7c-5.9 0-10.6-4.8-10.6-10.6v-5.4c0-5.9 4.8-10.6 10.6-10.6 5.9 0 10.6 4.8 10.6 10.6v5.4c.1 5.9-4.7 10.6-10.6 10.6zm0 48.4c-5.9 0-10.6-4.8-10.6-10.6v-5.4c0-5.9 4.8-10.6 10.6-10.6 5.9 0 10.6 4.8 10.6 10.6v5.4c.1 5.8-4.7 10.6-10.6 10.6zm153.4-235.3c.1-.3 0-.8-.1-.7l-.1 1 .2-.3zm-1.1-1.8c-.2.5-.4 1.3-.3 2.2.2-1 .3-.6.5-1.7.2-.1.3.3.3.7.1-.3.3.2.4-.4-.2-.8-.5-.8-.8-.2-.2-.2-.2-.4-.1-.6zm-17.2-1.6l.1.1c-.1 0-.1-.1-.1-.1zm-10.7-.5c.1 0 .1-.1.1-.2 0 0-.1.1-.1.2zm-1.8-1.1s.1 0 .1.1c0-.1-.1-.2-.1-.1zm12.5 1.6l-.3-.3c0 .3.1.3.3.3zm14.8 4c.1 0 .1-.1.2-.3l-.1.1c-.1.1-.1.1-.1.2zm-10.1-4.8l.2-.4-.2.4zm3.6-.1c-.1 0-.1.8-.1 1.2 0-.3.1-.5.2-.6-.1-.2-.1-.4-.1-.6zm5.7 1.4l.1-.1c0 .1-.1.1-.1.1zm-11.9-1.5v-.3c-.1.1 0 .2 0 .3zm-100.8 6.4v-.2.2zm-4.2-4.2c.1-.2.1-.4.1-.5l-.1.5zm87.1-3.9c.1-.1 0-.1 0 0zm-30.6.6c.3.8-.6 1 0 1.8-.1-.3.5-1.3 0-1.8zm61.1 6h-.1.1zm-61.1-4.2zm22.9-1.9c0 .1 0 .3.1.4 0-.1 0-.2-.1-.4zm5.7 1.2l-.1-.1c0 .1.1.1.1.1zm-8.7 0c-.1-.1-.1-.2-.2-.1v.1c.1-.1.2-.1.2 0zm-3 0c0 .1 0 .1.1.2h.1l-.2-.2zm-59.8 6c-.1-.2-.1-.5-.1-.8 0 .6-.5.8.1.8zm104.1-1.5c0 .2 0 .3-.1.4h.1v-.4zm-41.4 2.2l-.5-.1.5.1zm-40.6-.9l-.1.1c.1.1.1 0 .1-.1zm38.7.9c-.1-.3-.2-.5-.3-.6 0 .1 0 .1-.1.2l.4.4zm-60.9-1.5zm-3.3 2c.5 0 .2-1.1.3-1.7.6-.3.3.8.4 1.4.3-.3.6-1.3.9-1.3 0 .2.1.2 0 .5.4-.9 1.1 0 1.5-1.1 0 .1 0 .2.1.3-.1-.6-.1-1.1-.1-1.5.2 0 .4-.7.5 0-.1 0-.1.3-.2.5l.2-.3c.2 1-.3.4-.3 1.1.4-.3.9-1.2 1.3-.9.1 1-.8.3-.3 1.2l-.5-.4c.4 1.6-.3-.1 0 1.6l1.4-.2c.2-.6 0-.8.1-1.4.9-1 .7 2.6 1.4 1.2.2-.7.3-2 .7-1.3l-.2 1.2c.6.1.4-1.7 1-.9-.1.5-.5.4-.4.5.4.9.3-.7.6-.7l.1 1c.7-.2 1.4-.9 2.2-1.1 0 .3-.2.6 0 .9 1-.5 2.1.1 3 .7l.4-.9c.1 0 .2.4.1.6.4.3 0-.6.2-.9.2-.1.3.5.1.8.6-.7 1.8-1.6 2.5-.7l-.1.3c.5.4.6-1.8 1.1-1l-.1.2c1.1.4 2.4-.4 3.3.9.2-1.3 1.1.6 1.2-1.2.6.9.5 1.2 1.4 1.8.2.1.4-1.1.7-1.3v.9l.4-1 .2 1.1.3-.2c-.1-.1-.2-.4-.2-.7.4-.4 1.1.6 1.1 1.1l1-.8c0 .4-.2.5-.3.7.6-.9.1 1 .6.1-.1-.2 0-.6 0-.7.3.6.8.6 1.3.3l-.1.6c.8.2 1.6-.3 2.5-.3-.3-.3-.2-1.4 0-1.5l.1 1c.2-.6-.3-.4.1-1.1.3.1.2 1.1 0 1.4l.4-.3c0 .3-.1.4-.1.8.2-.6.7 1 .9-.1v.3c.9 0 1.3-.3 2-.4 0-.8.3-.7.5-1.3.5.3 1.1.9 1.7.9.4-.4.1-.7.3-1.2 0 .8.7.7.3 1.2.8-.1 1-.2 1.9-.8-.1-.3-.2-.5-.2-.7.2-.1.4.3.4.7v.1c1.1-1.2 2.5 2.2 3.3.6v.1l.9-.8c.4.1-.2.6.1 1.1 1-1.3 1.5.2 2.3-.7.6 2.3 2.2-.2 3 1.3v-.5c.2-.5.3.3.4.4 0-.4-.2-.5-.1-.8 1.8-.6 3.7.8 5.5 1.3.7.1.4-2.8 1.2-1.5l-.2 1c1.4-1.2 2.8 0 4.1-1-.1.2-.1.5-.2.5.3.7 1 0 1-.6l.2.8c.3.4.7-.9.9-.2l-.1.3c.2-.3.9.1.7-.7.5.4 1-.4 1.4.1.3-.9.9.4.9-.9 0 1.4.9 1.1 1.2.5-.1.4.3.4.2 1 .4 0 .7-.3.6-1 .7 1.6 1.3-1.3 1.7.8 1.1-.7 2.1-1.2 3-1.5 0 1.4-1.1.1-1 1.6.9-.6 1.4-1.7 2.3-1.4.2.2-.1.6-.2.8.9-.6 1.8.1 2.6-.6 0 .1-.1.3-.2.4.2 0 .4.2.4-.4l-.2.2c-.3-.9.6-1.9.7-2.3-.3 1.8.8.4.4 2.7.1-.1.2-.4.2-.8.2.1.2.4 0 .8.6-.3.4-1 .9-1 0 .3-.1.4-.2.8.3-.6.5-1.2 1-.9 0 .2 0 .4-.1.4.8-.1 1.3-1.5 2.1-1-.2 1.3.3.4.3 1.5l.4-.3-.2-.5c.4 0 .7-.8 1.1-.4l-.3.5.7-.2-.4-.4c.4-.6 0-1.4.5-1.1-.1.1.4 0 .6.7.2-.4.4-.7.7-.5.1.4-.1 1.2 0 1.5.2-.9.9-.3 1.2-1.3-.1.2-.1.8-.1.9l.2-.8c.2.2.2.4.2.8.5.1-.2-1.4.5-.8l-.1.3c.6.3 1.2-.5 1.8-.1.2 1.1-.5.3-.3 1.2.9-.2 1.8-1.4 2.6-1.1l-.2-.1c.1-1.6.6.8 1 0-.1.1-.1.9-.1.7.6.3 1.2-.4 2-.9l-.1.4c.3.4.9.2 1.2.4.1-.4.3-.3.2-.9 1.1 2.3 2.1-1.2 3.1.7-.1 0-.3.4-.2.4l.8-.4c-.1-.7-.1-.4-.3-1 .1-.4.3-.7.6-.7-.4.5 0 1.1.2 1.5v-.7c.4 1.2.1-1.4.7-.6v.4c.2-.2.4-.7.7-.6.1.8-.2.4-.3 1 .3 0 .7-1.5 1-.7l-.5.4c.3.9.4.7.6.9l.6.4-.1-.3c.4-2.1.9-.4 1.4-1.8-.6 1.3-.1.8-.1 1.7.1.3.4.5.3.8.3-.7.5.6.8-.5 0 .3.3 0 .2.8.4-.2-.1-.5-.1-.9.5-1 1.3 1.2 2.1-.2l1.4-2c.2.5-.2 1.1-.2 1.1.3.4.6.4.9 0-.1.3 0 .5.1.8.3-.1.2-1.1.5-.6-.1.3-.1.8-.3 1.2l.9-1.1c.1.5-.2.8-.3 1.1.4-.2.9-.5 1-1.3l-.2-.3c.1 0 .1.7 0 .8-.3.6-.4-.3-.5-.6l.2-.2c-.2-1.7-.9.3-1.3.2l.2-1.2-.5 1c-.1-.3-.2-1 .1-1.2l-.6-.2v-.2l-.3.4c.1-.3-.1-.9.1-.7-.6-.7-.9.9-1.1 0v-.1c-.8.4-.1.9-.7 2l-.4-2.3-.1.9c-.1 0-.2-.1-.2-.5-.3.6.1.4-.1 1-.4-.8-1.1.4-1.2-1.1-.1.7.4.5 0 1-.1-1.6-.5.3-.8-.5.1-.8.4-.4.1-1.1-.2 1.4-.7-.3-1 0 0 1.1-.7.5-1.2.8 0-.4-.9-.6-1.4-1v-.2c-.1 1.1-.6.9-.9 1.1 0-.7.1-.9.3-1.2h-.3c-.1.4-.2.5-.4.7l.1-.8c-.4 0-.9 1-1.5.4 0 .8.5 2.1-.1 2.7 0-.4 0-1.1.1-1.3-.1.1-.2.3-.3.2l.2-.7c-.3-.3-.1.6-.3.5 0-.6-.2-.4-.1-.9.1-.1.2.2.3 0-.2-.1-.5-.5-.6-.9 0 .3 0 .8-.2.9-.4 0-.2-.7-.4-1-.1.4-.4 0-.4.9-.1 0-.2-.4-.2-.7-.2.4-1.1.1-.8 1.1l.1.1c-.7.9-1.6-.5-2.3-.1v-.3c-.4.3-1 .2-1.3.8-.1 0-.3-.5-.3-.9-.3.2-.4.6-.9.1.3-.5-.1-.5.3-.4-.4-.3-.5-.7-1 .1.2-.8-.3-1-.5-.7l.3.5c-.2.1-.4 0-.6 0l.1-1c-.9-1.2-1.6 2.1-2.3 0-.2.7.5.5.3 1.3-.4-.1-.8-1.6-1-1.6-.6-.6-.5 1.5-1.1 1.1.1.4.1 1.3-.3 1.6-.4-.1-.5-1.5-.2-1.8.1 0 .1.1.1.2.1-.1.3-.3.1-.7l-.1.4c-.2-.4-.8-.3-.6-.9-.3.3-.1.6.1.8-.5-.5-.8 0-1.4-.4.1.2.2.6.1.6-.8-.4-.4.7-.9.8-.3-.5.1-1.3-.4-.8-.3-.4-.1-.9.1-1.2-.5.7-.9-.5-1.2-.6l.3-.3c-.2.2-.3.2-.4.2l.1.7c-.2-.1-.3-.1-.3-.4-.2.5.1 1.2-.2 1.8-.2-.4-.6.4-.7-.6.6.3-.1-.9.5-1.1-.1.1-.2.1-.4 0 0-.1 0-.2.1-.2-.6-.8-.3 1.1-.9 1 .1-.5-.1-1-.3-.9.3 0 .1.9-.1 1.3-.4-.4-.4.3-.7.3l.2.2c-.1.5-.3.5-.6.6 0-.4.3-.3.2-.5-.3.9-.7-1-1.2-.3l-.2-1.2c-.5.7-.5-.7-1.1-.2.2.7.2.5-.2 1.2l.9-.5-.6 1c.3 0 .5-.4.7-.3-.3.6-.2.4-.1 1-.4-1.1-.7.6-1.1-.1v-1.8c-.6-.8-1.1.9-1.9.5l.3.3c-.1.7-.5.1-.8.4 0-.6-.1-.8-.2-1.2 0 .4-.6 0-.7 1.1l-.4-.8c-.6-.3-.7 1.7-1.4 1.5.2-.6-.1-1.1.3-1.5-.2 0-.4-.1-.4.3-.1-.4-.6.8-.8.2-.1.3-.1.9-.3.8v-.3c0 .3-.4.4-.2 1.1-.6-1.8-1.8.1-2.3-1.5-.5.2-1 .4-1.4.4 0-.2 0-.3.1-.2-.6-.6-.3 1.7-1 1.1-.3-1 .3-.5.1-.9-.1-1.9-.8.3-1.2-.9l.1-.1c-.3-.7-.8.7-1.4.6v-.3c-.4 1-1.1 1.3-1.6 1.6.2-.8.2-.4.1-1.2-.2.1.1 1.2-.4 1.5-.2-.4-.5-.8-.5-1.6h.4c-.2-1.1-.6 0-.8-.1v-.5c-.7.2-.7 1.3-1.4 1.2l.1.4c-.4 1.2-.3-.7-.7.2l-.1-1.2c-.3.3-.9 1.1-1.4 1.4.3-.9.8-1.3 1.2-1.8-.3 0-.9.1-1 .7.1-.1.2-.4.3-.2-.3.9-.7 1.4-1.3 1.4.1-2.3-1.3-.6-1.7-2.4-.9.8-1.8-.4-2.9-.2.4 1.8-.3.1-.2 1.9-.2.1-.3.1-.4 0l-.8-1.1c-.2-.5.2-.4.2-.8-.5-.1-.2-.8-.6-1.3.1.7-.2.9-.5.7l.4.8c-.8 1-.7-1.5-1.4-.6l.2-.6c-.4.3-1.4 0-1.8 1.5-.1-.2-.2-.7 0-.8-.9-.2-2.1 1.6-2.8.7l.1-.4c-.2.1-.3.8-.5.4 0-.2.1-.4 0-.5-.1.2-.5.8-.7.5l.2-.5c-.9-.6-1.4 1.2-2.2 1.5 0-1.3-.7-1.7-1.1-2v-.2c-1.1-.2-1.8 1.1-2.8 1.6-.6-1.4-2.1-.6-3.1-1.4.2.2 0 1-.2 1.2-.2-.3-.6.9-.6-.3h.1c-.2-1.2-.6-.9-1-.9l-.1 1.6c-1-2.3-2.5.8-3.1-1.2-.2.4-.5.4-.8.8v-.8c-.6-.2-1-.3-1.8-.1l.2-.6c-.5-.1-.6 2.4-1 2.5l-.1-1.3c-.8 0-1.6-1.1-2.4.1 0-.2 0-.6.2-.6-.4 0-1.4-.9-1.3.9 0-1.1-.8-.1-1.2.4l.1-.8c-.4 1.1-.4 1.4-.9 1.7-.1-.1-.1-.7.1-.5-.4-.4-.3.8-.8.3l.2-.5c-.4-.1-.4.2-.6.8-.3.3-.8-.2-.8-1-.1.5-.3 1.1-.5.9 0-.3.1-.5.1-.5l-1.5.2c0-.3 0-.4-.1-.5.5 0 1 .1.9.1 0-.8-.4-.9-.1-2-.4.6-1 1.8-1.4 1.5 0-.1 0-.1-.1-.3v-.1c-.1-.1-.2 0-.3.1-.1-.1-.2-.2-.4-.2-.1-.6-.5-.3-.7-.4 0 .8-.3.7 0 1.4 0-.1 0-.1.2-.1 0 0 .1 0 .1-.1v.1c.1 0 .3 0 .5-.1-.2.4-.4.8-.6.3-.1.5-.2 1.1-.3 1.4-.3-1.2-.9-1.8-1-2.5-.7.5-1.6.3-2 1.9-.2.2-.2-.5-.3-.7.1-.2.2-.1.3-.4-.4.4-1.1.2-1.2 1.3-.5-.5.3-1-.4-.8l.1-.3c-1.3-1.8-2.1 2.8-3.5.6.1.1.1.2.2.4-1.6-1-3.4.9-5-.6-.5-.3-.5.4-.8.9l-.1-.9-.5 1c-.7.8-1.2-2.2-2-.8l.1.6c-.3-.1-1 .4-.9-.3 0 .1-.1.6-.2.3v-.5l-.8.8c-.6-.3.1-1.9-.8-2-.3.2-.9 1.4-.8 1.7.1 0 .3.3.3.8l-.3.2c-.1 1.4-.3 2.8.4 3.8l.5-.9.2.7h-.4c.2.6.4.1.6-.3 0 .4.1.6.2.7l.5-1.3c.1.5-.2 1.1.1 1.4.2-.6-.2-1.2.2-1.6.2.6.2 1.2.4.6 0 .4 0 .6-.1.7.2-.4.7-.2.8-.9.2.8.8-.2.8 1.1.1-.3.4-1 .7-1.1-.4 1.6.9.1.7 1.8.3-1.4 1.1-.6 1.7-1.4 0 .1-.1.3-.1.3.3.1.4.5.6.8 0-1.2.5-1.4.8-2.2.4 1.1-.2 1.4-.1 2.5 0-1 .7-1 .5-1.7.3.7.2.3.4 1.3.1-1.5.3-.2.5-1.2.4.7.1 1.4.6.9.6.4.2.9.2.9zm10.9-2.5c-.1 0-.2.1-.2.1.1-.1.1-.1.2-.1zm1-.1h-.4c0-.3 0-.6.1-.6-.1.2.1.4.3.6zm-2-5.8c.1-.1.2 0 .2.2-.1 0-.1 0-.3.1v.1c.1-.1.1-.3.1-.4zm-.2 1.1c-.1 0-.1.1 0 0v.3-.3zm83.1 1.3v.1-.1zm-68.3 5.1v-.3l-.1.2zm73.3-2.2c0 .1 0 .2.1.2 0-.1 0-.2-.1-.2zm2.2.1l.3.3-.3-.3zm1.7.5v-.4.4zm-26.7 1zm8-2c-.1.2-.2.3-.3.4.2 0 .3.1.3-.4zm-16.8 3zm16.1-2.6c.1.2.3.1.4 0-.1-.1-.2-.2-.4 0zm26.7.9c.1 0 .1-.1.1-.1l-.1.1zm.1-.1zm.2-.3l-.2.2c.1 0 .2.1.2-.2zm-2.5.1v.3c-.1-.1 0-.2 0-.3zm-.7 0c.2.1.4.7.6.5v-.2c-.1.4-.5-.8-.6-.3zm-2.8-3.7l.6.2c-.1-.3-.2-.8 0-.8-.8-1 .1.7-.6.6zm-1.8-.5c.3-.2 0-.5 0-.7-.2.3-.2.4 0 .7zm-12.7 0v-.8c-.2.1.1.3 0 .8zm-2.4 4l.2.4.2-.7zm-1.4-5.5l.1-.1-.4.3zm-21.3.3l.1.9c.1-.2.2-1.2-.1-.9zm-9.2.9c-.1-.5-.4-.8-.5-.3.2.1.4.4.5.3zm-27.5-1.5l.1-.3-.3.2zm84 57.5c.1-.3 0-.8-.1-.7l-.1 1 .2-.3zm-1.1-1.8c-.2.5-.4 1.3-.3 2.2.2-1 .3-.6.5-1.7.2-.1.3.3.3.7.1-.3.3.2.4-.4-.2-.8-.5-.8-.8-.2-.2-.2-.2-.4-.1-.6zm-17.2-1.6l.1.1c-.1 0-.1-.1-.1-.1zm-10.7-.5c.1 0 .1-.1.1-.2 0 0-.1.1-.1.2zm-1.8-1.1s.1 0 .1.1c0-.1-.1-.2-.1-.1zm12.5 1.6l-.3-.3c0 .3.1.2.3.3zm14.8 4c.1 0 .1-.1.2-.3l-.1.1c-.1.1-.1.1-.1.2zm-10.1-4.8l.2-.4-.2.4zm3.6-.1c-.1 0-.1.8-.1 1.2 0-.3.1-.5.2-.6-.1-.2-.1-.4-.1-.6zm5.7 1.4l.1-.1c0 .1-.1.1-.1.1zm-11.9-1.5v-.3c-.1.1 0 .2 0 .3zm-100.8 6.4v-.1.1zm-4.2-4.2c.1-.2.1-.4.1-.5l-.1.5zm87.1-3.9c.1-.1 0-.1 0 0zm-30.6.6c.3.8-.6 1 0 1.8-.1-.3.5-1.3 0-1.8zm61.1 6h-.1.1zm-61.1-4.2zm22.9-1.9c0 .1 0 .3.1.4 0-.1 0-.2-.1-.4zm5.7 1.2l-.1-.1c0 .1.1.1.1.1zm-8.7 0c-.1-.1-.1-.2-.2-.1v.1c.1-.1.2-.1.2 0zm-3 0c0 .1 0 .1.1.2h.1l-.2-.2zm-59.8 6c-.1-.2-.1-.5-.1-.8 0 .6-.5.8.1.8zm104.1-1.5c0 .2 0 .3-.1.4h.1v-.4zm-41.4 2.2l-.5-.1.5.1zm-40.6-.9l-.1.1c.1.1.1 0 .1-.1zm38.7.9c-.1-.3-.2-.5-.3-.6 0 .1 0 .1-.1.2l.4.4zm-60.9-1.5zm-3.3 2c.5 0 .2-1.1.3-1.7.6-.3.3.8.4 1.4.3-.3.6-1.3.9-1.3 0 .2.1.2 0 .5.4-.9 1.1 0 1.5-1.1 0 .1 0 .2.1.3-.1-.6-.1-1.1-.1-1.5.2 0 .4-.7.5 0-.1 0-.1.3-.2.5l.2-.3c.2 1-.3.4-.3 1.1.4-.3.9-1.2 1.3-.9.1 1-.8.3-.3 1.2l-.5-.4c.4 1.6-.3-.1 0 1.6l1.4-.2c.2-.6 0-.8.1-1.4.9-1 .7 2.6 1.4 1.2.2-.7.3-2 .7-1.3l-.2 1.2c.6.1.4-1.7 1-.9-.1.5-.5.4-.4.5.4.9.3-.7.6-.7l.1 1c.7-.2 1.4-.9 2.2-1.1 0 .3-.2.6 0 .9 1-.5 2.1.1 3 .7l.4-.9c.1 0 .2.4.1.6.4.3 0-.6.2-.9.2-.1.3.5.1.8.6-.7 1.8-1.6 2.5-.7l-.1.3c.5.4.6-1.8 1.1-1l-.1.2c1.1.4 2.4-.4 3.3.9.2-1.3 1.1.6 1.2-1.2.6.9.5 1.2 1.4 1.8.2.1.4-1.1.7-1.3v.9l.4-1 .2 1.1.3-.2c-.1-.1-.2-.4-.2-.7.4-.4 1.1.6 1.1 1.1l1-.8c0 .4-.2.5-.3.7.6-.9.1 1 .6.1-.1-.2 0-.6 0-.7.3.6.8.6 1.3.3l-.1.6c.8.2 1.6-.3 2.5-.3-.3-.3-.2-1.4 0-1.5l.1 1c.2-.6-.3-.4.1-1.1.3.1.2 1.1 0 1.4l.4-.3c0 .3-.1.4-.1.8.2-.6.7 1 .9-.1v.3c.9 0 1.3-.3 2-.4 0-.8.3-.7.5-1.3.5.3 1.1.9 1.7.9.4-.4.1-.7.3-1.2 0 .8.7.7.3 1.2.8-.1 1-.2 1.9-.8-.1-.3-.2-.5-.2-.7.2-.1.4.3.4.7v.1c1.1-1.2 2.5 2.2 3.3.6v.1l.9-.8c.4.1-.2.6.1 1.1 1-1.3 1.5.2 2.3-.7.6 2.3 2.2-.2 3 1.3v-.5c.2-.5.3.3.4.4 0-.4-.2-.5-.1-.8 1.8-.6 3.7.8 5.5 1.3.7.1.4-2.8 1.2-1.5l-.2 1c1.4-1.2 2.8 0 4.1-1-.1.2-.1.5-.2.5.3.7 1 0 1-.6l.2.8c.3.4.7-.9.9-.2l-.1.3c.2-.3.9.1.7-.7.5.4 1-.4 1.4.1.3-.9.9.4.9-.9 0 1.4.9 1.1 1.2.5-.1.4.3.4.2 1 .4 0 .7-.3.6-1 .7 1.6 1.3-1.3 1.7.8 1.1-.7 2.1-1.2 3-1.5 0 1.4-1.1.1-1 1.6.9-.6 1.4-1.7 2.3-1.4.2.2-.1.6-.2.8.9-.6 1.8.1 2.6-.6 0 .1-.1.3-.2.4.2 0 .4.2.4-.4l-.2.2c-.3-.9.6-1.9.7-2.3-.3 1.8.8.4.4 2.7.1-.1.2-.4.2-.8.2.1.2.4 0 .8.6-.3.4-1 .9-1 0 .3-.1.4-.2.8.3-.6.5-1.2 1-.9 0 .2 0 .4-.1.4.8-.1 1.3-1.5 2.1-1-.2 1.3.3.4.3 1.5l.4-.3-.2-.5c.4 0 .7-.8 1.1-.4l-.3.5.7-.2-.4-.4c.4-.6 0-1.4.5-1.1-.1.1.4 0 .6.7.2-.4.4-.7.7-.5.1.4-.1 1.2 0 1.5.2-.9.9-.3 1.2-1.3-.1.2-.1.8-.1.9l.2-.8c.2.2.2.4.2.8.5.1-.2-1.4.5-.8l-.1.3c.6.3 1.2-.5 1.8-.1.2 1.1-.5.3-.3 1.2.9-.2 1.8-1.4 2.6-1.1l-.2-.1c.1-1.6.6.8 1 0-.1.1-.1.9-.1.7.6.3 1.2-.4 2-.9l-.1.4c.3.4.9.2 1.2.4.1-.4.3-.3.2-.9 1.1 2.3 2.1-1.2 3.1.7-.1 0-.3.4-.2.4l.8-.4c-.1-.7-.1-.4-.3-1 .1-.4.3-.7.6-.7-.4.5 0 1.1.2 1.5v-.7c.4 1.2.1-1.4.7-.6v.4c.2-.2.4-.7.7-.6.1.8-.2.4-.3 1 .3 0 .7-1.5 1-.7l-.5.4c.3.9.4.7.6.9l.6.4-.1-.3c.4-2.1.9-.4 1.4-1.8-.6 1.3-.1.8-.1 1.7.1.3.4.5.3.8.3-.7.5.6.8-.5 0 .3.3 0 .2.8.4-.2-.1-.5-.1-.9.5-1 1.3 1.2 2.1-.2l1.4-2c.2.5-.2 1.1-.2 1.1.3.4.6.4.9 0-.1.3 0 .5.1.8.3-.1.2-1.1.5-.6-.1.3-.1.8-.3 1.2l.9-1.1c.1.5-.2.8-.3 1.1.4-.2.9-.5 1-1.3l-.2-.3c.1 0 .1.7 0 .8-.3.6-.4-.3-.5-.6l.2-.2c-.2-1.7-.9.3-1.3.2l.2-1.2-.5 1c-.1-.3-.2-1 .1-1.2l-.6-.2v-.2l-.3.4c.1-.3-.1-.9.1-.7-.6-.7-.9.9-1.1 0v-.1c-.8.4-.1.9-.7 2l-.4-2.3-.1.9c-.1 0-.2-.1-.2-.5-.3.6.1.4-.1 1-.4-.8-1.1.4-1.2-1.1-.1.7.4.5 0 1-.1-1.6-.5.3-.8-.5.1-.8.4-.4.1-1.1-.2 1.4-.7-.3-1 0 0 1.1-.7.5-1.2.8 0-.4-.9-.6-1.4-1v-.2c-.1 1.1-.6.9-.9 1.1 0-.7.1-.9.3-1.2h-.3c-.1.4-.2.5-.4.7l.1-.8c-.4 0-.9 1-1.5.4 0 .8.5 2.1-.1 2.7 0-.4 0-1.1.1-1.3-.1.1-.2.3-.3.2l.2-.7c-.3-.3-.1.6-.3.5 0-.6-.2-.4-.1-.9.1-.1.2.2.3 0-.2-.1-.5-.5-.6-.9 0 .3 0 .8-.2.9-.4 0-.2-.7-.4-1-.1.4-.4 0-.4.9-.1 0-.2-.4-.2-.7-.2.4-1.1.1-.8 1.1l.1.1c-.7.9-1.6-.5-2.3-.1v-.3c-.4.3-1 .2-1.3.8-.1 0-.3-.5-.3-.9-.3.2-.4.6-.9.1.3-.5-.1-.5.3-.4-.4-.3-.5-.7-1 .1.2-.8-.3-1-.5-.7l.3.5c-.2.1-.4 0-.6 0l.1-1c-.9-1.2-1.6 2.1-2.3 0-.2.7.5.5.3 1.3-.4-.1-.8-1.6-1-1.6-.6-.6-.5 1.5-1.1 1.1.1.4.1 1.3-.3 1.6-.4-.1-.5-1.5-.2-1.8.1 0 .1.1.1.2.1-.1.3-.3.1-.7l-.1.4c-.2-.4-.8-.3-.6-.9-.3.3-.1.6.1.8-.5-.5-.8 0-1.4-.4.1.2.2.6.1.6-.8-.4-.4.7-.9.8-.3-.5.1-1.3-.4-.8-.3-.4-.1-.9.1-1.2-.5.7-.9-.5-1.2-.6l.3-.3c-.2.2-.3.2-.4.2l.1.7c-.2-.1-.3-.1-.3-.4-.2.5.1 1.2-.2 1.8-.2-.4-.6.4-.7-.6.6.3-.1-.9.5-1.1-.1.1-.2.1-.4 0 0-.1 0-.2.1-.2-.6-.8-.3 1.1-.9 1 .1-.5-.1-1-.3-.9.3 0 .1.9-.1 1.3-.4-.4-.4.3-.7.3l.2.2c-.1.5-.3.5-.6.6 0-.4.3-.3.2-.5-.3.9-.7-1-1.2-.3l-.2-1.2c-.5.7-.5-.7-1.1-.2.2.7.2.5-.2 1.2l.9-.5-.6 1c.3 0 .5-.4.7-.3-.3.6-.2.4-.1 1-.4-1.1-.7.6-1.1-.1v-1.8c-.6-.8-1.1.9-1.9.5l.3.3c-.1.7-.5.1-.8.4 0-.6-.1-.8-.2-1.2 0 .4-.6 0-.7 1.1l-.4-.8c-.6-.3-.7 1.7-1.4 1.5.2-.6-.1-1.1.3-1.5-.2 0-.4-.1-.4.3-.1-.4-.6.8-.8.2-.1.3-.1.9-.3.8v-.3c0 .3-.4.4-.2 1.1-.6-1.8-1.8.1-2.3-1.5-.5.2-1 .4-1.4.4 0-.2 0-.3.1-.2-.6-.6-.3 1.7-1 1.1-.3-1 .3-.5.1-.9-.1-1.9-.8.3-1.2-.9l.1-.1c-.3-.7-.8.7-1.4.6v-.3c-.4 1-1.1 1.3-1.6 1.6.2-.8.2-.4.1-1.2-.2.1.1 1.2-.4 1.5-.2-.4-.5-.8-.5-1.6h.4c-.2-1.1-.6 0-.8-.1v-.5c-.7.2-.7 1.3-1.4 1.2l.1.4c-.4 1.2-.3-.7-.7.2l-.1-1.2c-.3.3-.9 1.1-1.4 1.4.3-.9.8-1.3 1.2-1.8-.3 0-.9.1-1 .7.1-.1.2-.4.3-.2-.3.9-.7 1.4-1.3 1.4.1-2.3-1.3-.6-1.7-2.4-.9.8-1.8-.4-2.9-.2.4 1.8-.3.1-.2 1.9-.2.1-.3.1-.4 0l-.8-1.1c-.2-.5.2-.4.2-.8-.5-.1-.2-.8-.6-1.3.1.7-.2.9-.5.7l.4.8c-.8 1-.7-1.5-1.4-.6l.2-.6c-.4.3-1.4 0-1.8 1.5-.1-.2-.2-.7 0-.8-.9-.2-2.1 1.6-2.8.7l.1-.4c-.2.1-.3.8-.5.4 0-.2.1-.4 0-.5-.1.2-.5.8-.7.5l.2-.5c-.9-.6-1.4 1.2-2.2 1.5 0-1.3-.7-1.7-1.1-2v-.2c-1.1-.2-1.8 1.1-2.8 1.6-.6-1.4-2.1-.6-3.1-1.4.2.2 0 1-.2 1.2-.2-.3-.6.9-.6-.3h.1c-.2-1.2-.6-.9-1-.9l-.1 1.6c-1-2.3-2.5.8-3.1-1.2-.2.4-.5.4-.8.8v-.8c-.6-.2-1-.3-1.8-.1l.2-.6c-.5-.1-.6 2.4-1 2.5l-.1-1.3c-.8 0-1.6-1.1-2.4.1 0-.2 0-.6.2-.6-.4 0-1.4-.9-1.3.9 0-1.1-.8-.1-1.2.4l.1-.8c-.4 1.1-.4 1.4-.9 1.7-.1-.1-.1-.7.1-.5-.4-.4-.3.8-.8.3l.2-.5c-.4-.1-.4.2-.6.8-.3.3-.8-.2-.8-1-.1.5-.3 1.1-.5.9 0-.3.1-.5.1-.5l-1.5.2c0-.3 0-.4-.1-.5.5 0 1 .1.9.1 0-.8-.4-.9-.1-2-.4.6-1 1.8-1.4 1.5 0-.1 0-.1-.1-.3v-.1c-.1-.1-.2 0-.3.1-.1-.1-.2-.2-.4-.2-.1-.6-.5-.3-.7-.4 0 .8-.3.7 0 1.4 0-.1 0-.1.2-.1 0 0 .1 0 .1-.1v.1c.1 0 .3 0 .5-.1-.2.4-.4.8-.6.3-.1.5-.2 1.1-.3 1.4-.3-1.2-.9-1.8-1-2.5-.7.5-1.6.3-2 1.9-.2.2-.2-.5-.3-.7.1-.2.2-.1.3-.4-.4.4-1.1.2-1.2 1.3-.5-.5.3-1-.4-.8l.1-.3c-1.3-1.8-2.1 2.8-3.5.6.1.1.1.2.2.4-1.6-1-3.4.9-5-.6-.5-.3-.5.4-.8.9l-.1-.9-.5 1c-.7.8-1.2-2.2-2-.8l.1.6c-.3-.1-1 .4-.9-.3 0 .1-.1.6-.2.3v-.5l-.8.8c-.6-.3.1-1.9-.8-2-.3.2-.9 1.4-.8 1.7.1 0 .3.3.3.8l-.3.2c-.1 1.4-.3 2.8.4 3.8l.5-.9.2.7h-.4c.2.6.4.1.6-.3 0 .4.1.6.2.7l.5-1.3c.1.5-.2 1.1.1 1.4.2-.6-.2-1.2.2-1.6.2.6.2 1.2.4.6 0 .4 0 .6-.1.7.2-.4.7-.2.8-.9.2.8.8-.2.8 1.1.1-.3.4-1 .7-1.1-.4 1.6.9.1.7 1.8.3-1.4 1.1-.6 1.7-1.4 0 .1-.1.3-.1.3.3.1.4.5.6.8 0-1.2.5-1.4.8-2.2.4 1.1-.2 1.4-.1 2.5 0-1 .7-1 .5-1.7.3.7.2.3.4 1.3.1-1.5.3-.2.5-1.2.4.7.1 1.4.6.9.6.4.2.9.2.9zm10.9-2.5c-.1 0-.2.1-.2.1.1-.1.1-.1.2-.1zm1-.1h-.4c0-.3 0-.6.1-.6-.1.2.1.4.3.6zm-2-5.8c.1-.1.2 0 .2.2-.1 0-.1 0-.3.1v.1c.1-.1.1-.3.1-.4zm-.2 1.1c-.1 0-.1.1 0 0v.3-.3zm83.1 1.3v.1-.1zm-68.3 5.1v-.3l-.1.2zm73.3-2.2c0 .1 0 .2.1.2 0-.1 0-.2-.1-.2zm2.2.1l.3.3-.3-.3zm1.7.5v-.4.4zm-26.7 1zm8-2c-.1.2-.2.3-.3.4.2 0 .3.1.3-.4zm-16.8 3zm16.1-2.6c.1.2.3.1.4 0-.1-.1-.2-.2-.4 0zm26.7.9c.1 0 .1-.1.1-.1l-.1.1zm.1-.1zm.2-.3l-.2.2c.1 0 .2.1.2-.2zm-2.5.1v.3c-.1-.1 0-.2 0-.3zm-.7 0c.2.1.4.7.6.5v-.2c-.1.4-.5-.8-.6-.3zm-2.8-3.7l.6.2c-.1-.3-.2-.8 0-.8-.8-1 .1.7-.6.6zm-1.8-.5c.3-.2 0-.5 0-.7-.2.3-.2.4 0 .7zm-12.7 0v-.8c-.2.1.1.3 0 .8zm-2.4 4l.2.4.2-.7zm-1.4-5.5l.1-.1-.4.3zm-21.3.3l.1.9c.1-.2.2-1.2-.1-.9zm-9.2.9c-.1-.5-.4-.8-.5-.3.2.1.4.4.5.3zm-27.5-1.5l.1-.3-.3.2zm84 53.7c.1-.3 0-.8-.1-.7l-.1 1 .2-.3zm-1.1-1.8c-.2.5-.4 1.3-.3 2.2.2-1 .3-.6.5-1.7.2-.1.3.3.3.7.1-.3.3.2.4-.4-.2-.8-.5-.8-.8-.2-.2-.2-.2-.4-.1-.6zm-17.2-1.6l.1.1c-.1 0-.1 0-.1-.1zm-10.7-.5c.1 0 .1-.1.1-.2l-.1.2zm-1.8-1.1s.1 0 .1.1c0-.1-.1-.2-.1-.1zm12.5 1.6l-.3-.3c0 .4.1.3.3.3zm14.8 4c.1 0 .1-.1.2-.3l-.1.1c-.1.1-.1.1-.1.2zm-10.1-4.8l.2-.4-.2.4zm3.6-.1c-.1 0-.1.8-.1 1.2 0-.3.1-.5.2-.6-.1-.2-.1-.4-.1-.6zm5.7 1.5l.1-.1s-.1 0-.1.1zm-11.9-1.5v-.3c-.1.1 0 .2 0 .3zm-100.8 6.3v-.2.2zm-4.2-4.2c.1-.2.1-.4.1-.5l-.1.5zm87.1-3.9zm-30.6.6c.3.8-.6 1 0 1.8-.1-.3.5-1.3 0-1.8zm61.1 6h-.1.1zm-61.1-4.1zm22.9-2c0 .1 0 .3.1.4 0-.1 0-.2-.1-.4zm5.7 1.2l-.1-.1c0 .1.1.1.1.1zm-8.7 0c-.1-.1-.1-.2-.2-.1v.1c.1-.1.2-.1.2 0zm-3 0c0 .1 0 .1.1.2h.1l-.2-.2zm-59.8 6c-.1-.2-.1-.5-.1-.8 0 .6-.5.8.1.8zm104.1-1.5c0 .2 0 .3-.1.4h.1v-.4zm-41.4 2.2l-.5-.1.5.1zm-40.6-.8l-.1.1c.1 0 .1 0 .1-.1zm38.7.8c-.1-.3-.2-.5-.3-.6 0 .1 0 .1-.1.2l.4.4zm-60.9-1.5zm-3.3 2c.5 0 .2-1.1.3-1.7.6-.3.3.8.4 1.4.3-.3.6-1.3.9-1.3 0 .2.1.2 0 .5.4-.9 1.1 0 1.5-1.1 0 .1 0 .2.1.3-.1-.6-.1-1.1-.1-1.5.2 0 .4-.7.5 0-.1 0-.1.3-.2.5l.2-.3c.2 1-.3.4-.3 1.1.4-.3.9-1.2 1.3-.9.1 1-.8.3-.3 1.2l-.5-.4c.4 1.6-.3-.1 0 1.6l1.4-.2c.2-.6 0-.8.1-1.4.9-1 .7 2.6 1.4 1.2.2-.7.3-2 .7-1.3l-.2 1.2c.6.1.4-1.7 1-.9-.1.5-.5.4-.4.5.4.9.3-.7.6-.7l.1 1c.7-.2 1.4-.9 2.2-1.1 0 .3-.2.6 0 .9 1-.5 2.1.1 3 .7l.4-.9c.1 0 .2.4.1.6.4.3 0-.6.2-.9.2-.1.3.5.1.8.6-.7 1.8-1.6 2.5-.7l-.1.3c.5.4.6-1.8 1.1-1l-.1.2c1.1.4 2.4-.4 3.3.9.2-1.3 1.1.6 1.2-1.2.6.9.5 1.2 1.4 1.8.2.1.4-1.1.7-1.3v.9l.4-1 .2 1.1.3-.2c-.1-.1-.2-.4-.2-.7.4-.4 1.1.6 1.1 1.1l1-.8c0 .4-.2.5-.3.7.6-.9.1 1 .6.1-.1-.2 0-.6 0-.7.3.6.8.6 1.3.3l-.1.6c.8.2 1.6-.3 2.5-.3-.3-.3-.2-1.4 0-1.5l.1 1c.2-.6-.3-.4.1-1.1.3.1.2 1.1 0 1.4l.4-.3c0 .3-.1.4-.1.8.2-.6.7 1 .9-.1v.3c.9 0 1.3-.3 2-.4 0-.8.3-.7.5-1.3.5.3 1.1.9 1.7.9.4-.4.1-.7.3-1.2 0 .8.7.7.3 1.2.8-.1 1-.2 1.9-.8-.1-.3-.2-.5-.2-.7.2-.1.4.3.4.7v.1c1.1-1.2 2.5 2.2 3.3.6v.1l.9-.8c.4.1-.2.6.1 1.1 1-1.3 1.5.2 2.3-.7.6 2.3 2.2-.2 3 1.3v-.5c.2-.5.3.3.4.4 0-.4-.2-.5-.1-.8 1.8-.6 3.7.8 5.5 1.3.7.1.4-2.8 1.2-1.5l-.2 1c1.4-1.2 2.8 0 4.1-1-.1.2-.1.5-.2.5.3.7 1 0 1-.6l.2.8c.3.4.7-.9.9-.2l-.1.3c.2-.3.9.1.7-.7.5.4 1-.4 1.4.1.3-.9.9.4.9-.9 0 1.4.9 1.1 1.2.5-.1.4.3.4.2 1 .4 0 .7-.3.6-1 .7 1.6 1.3-1.3 1.7.8 1.1-.7 2.1-1.2 3-1.5 0 1.4-1.1.1-1 1.6.9-.6 1.4-1.7 2.3-1.4.2.2-.1.6-.2.8.9-.6 1.8.1 2.6-.6 0 .1-.1.3-.2.4.2 0 .4.2.4-.4l-.2.2c-.3-.9.6-1.9.7-2.3-.3 1.8.8.4.4 2.7.1-.1.2-.4.2-.8.2.1.2.4 0 .8.6-.3.4-1 .9-1 0 .3-.1.4-.2.8.3-.6.5-1.2 1-.9 0 .2 0 .4-.1.4.8-.1 1.3-1.5 2.1-1-.2 1.3.3.4.3 1.5l.4-.3-.2-.5c.4 0 .7-.8 1.1-.4l-.3.5.7-.2-.4-.4c.4-.6 0-1.4.5-1.1-.1.1.4 0 .6.7.2-.4.4-.7.7-.5.1.4-.1 1.2 0 1.5.2-.9.9-.3 1.2-1.3-.1.2-.1.8-.1.9l.2-.8c.2.2.2.4.2.8.5.1-.2-1.4.5-.8l-.1.3c.6.3 1.2-.5 1.8-.1.2 1.1-.5.3-.3 1.2.9-.2 1.8-1.4 2.6-1.1l-.2-.1c.1-1.6.6.8 1 0-.1.1-.1.9-.1.7.6.3 1.2-.4 2-.9l-.1.4c.3.4.9.2 1.2.4.1-.4.3-.3.2-.9 1.1 2.3 2.1-1.2 3.1.7-.1 0-.3.4-.2.4l.8-.4c-.1-.7-.1-.4-.3-1 .1-.4.3-.7.6-.7-.4.5 0 1.1.2 1.5v-.7c.4 1.2.1-1.4.7-.6v.4c.2-.2.4-.7.7-.6.1.8-.2.4-.3 1 .3 0 .7-1.5 1-.7l-.5.4c.3.9.4.7.6.9l.6.4-.1-.3c.4-2.1.9-.4 1.4-1.8-.6 1.3-.1.8-.1 1.7.1.3.4.5.3.8.3-.7.5.6.8-.5 0 .3.3 0 .2.8.4-.2-.1-.5-.1-.9.5-1 1.3 1.2 2.1-.2l1.4-2c.2.5-.2 1.1-.2 1.1.3.4.6.4.9 0-.1.3 0 .5.1.8.3-.1.2-1.1.5-.6-.1.3-.1.8-.3 1.2l.9-1.1c.1.5-.2.8-.3 1.1.4-.2.9-.5 1-1.3l-.2-.3c.1 0 .1.7 0 .8-.3.6-.4-.3-.5-.6l.2-.2c-.2-1.7-.9.3-1.3.2l.2-1.2-.5 1c-.1-.3-.2-1 .1-1.2l-.6-.2v-.2l-.3.4c.1-.3-.1-.9.1-.7-.6-.7-.9.9-1.1 0v-.1c-.8.4-.1.9-.7 2l-.4-2.3-.1.9c-.1 0-.2-.1-.2-.5-.3.6.1.4-.1 1-.4-.8-1.1.4-1.2-1.1-.1.7.4.5 0 1-.1-1.6-.5.3-.8-.5.1-.8.4-.4.1-1.1-.2 1.4-.7-.3-1 0 0 1.1-.7.5-1.2.8 0-.4-.9-.6-1.4-1v-.2c-.1 1.1-.6.9-.9 1.1 0-.7.1-.9.3-1.2h-.3c-.1.4-.2.5-.4.7l.1-.8c-.4 0-.9 1-1.5.4 0 .8.5 2.1-.1 2.7 0-.4 0-1.1.1-1.3-.1.1-.2.3-.3.2l.2-.7c-.3-.3-.1.6-.3.5 0-.6-.2-.4-.1-.9.1-.1.2.2.3 0-.2-.1-.5-.5-.6-.9 0 .3 0 .8-.2.9-.4 0-.2-.7-.4-1-.1.4-.4 0-.4.9-.1 0-.2-.4-.2-.7-.2.4-1.1.1-.8 1.1l.1.1c-.7.9-1.6-.5-2.3-.1v-.3c-.4.3-1 .2-1.3.8-.1 0-.3-.5-.3-.9-.3.2-.4.6-.9.1.3-.5-.1-.5.3-.4-.4-.3-.5-.7-1 .1.2-.8-.3-1-.5-.7l.3.5c-.2.1-.4 0-.6 0l.1-1c-.9-1.2-1.6 2.1-2.3 0-.2.7.5.5.3 1.3-.4-.1-.8-1.6-1-1.6-.6-.6-.5 1.5-1.1 1.1.1.4.1 1.3-.3 1.6-.4-.1-.5-1.5-.2-1.8.1 0 .1.1.1.2.1-.1.3-.3.1-.7l-.1.4c-.2-.4-.8-.3-.6-.9-.3.3-.1.6.1.8-.5-.5-.8 0-1.4-.4.1.2.2.6.1.6-.8-.4-.4.7-.9.8-.3-.5.1-1.3-.4-.8-.3-.4-.1-.9.1-1.2-.5.7-.9-.5-1.2-.6l.3-.3c-.2.2-.3.2-.4.2l.1.7c-.2-.1-.3-.1-.3-.4-.2.5.1 1.2-.2 1.8-.2-.4-.6.4-.7-.6.6.3-.1-.9.5-1.1-.1.1-.2.1-.4 0 0-.1 0-.2.1-.2-.6-.8-.3 1.1-.9 1 .1-.5-.1-1-.3-.9.3 0 .1.9-.1 1.3-.4-.4-.4.3-.7.3l.2.2c-.1.5-.3.5-.6.6 0-.4.3-.3.2-.5-.3.9-.7-1-1.2-.3l-.2-1.2c-.5.7-.5-.7-1.1-.2.2.7.2.5-.2 1.2l.9-.5-.6 1c.3 0 .5-.4.7-.3-.3.6-.2.4-.1 1-.4-1.1-.7.6-1.1-.1v-1.8c-.6-.8-1.1.9-1.9.5l.3.3c-.1.7-.5.1-.8.4 0-.6-.1-.8-.2-1.2 0 .4-.6 0-.7 1.1l-.4-.8c-.6-.3-.7 1.7-1.4 1.5.2-.6-.1-1.1.3-1.5-.2 0-.4-.1-.4.3-.1-.4-.6.8-.8.2-.1.3-.1.9-.3.8v-.3c0 .3-.4.4-.2 1.1-.6-1.8-1.8.1-2.3-1.5-.5.2-1 .4-1.4.4 0-.2 0-.3.1-.2-.6-.6-.3 1.7-1 1.1-.3-1 .3-.5.1-.9-.1-1.9-.8.3-1.2-.9l.1-.1c-.3-.7-.8.7-1.4.6v-.3c-.4 1-1.1 1.3-1.6 1.6.2-.8.2-.4.1-1.2-.2.1.1 1.2-.4 1.5-.2-.4-.5-.8-.5-1.6h.4c-.2-1.1-.6 0-.8-.1v-.5c-.7.2-.7 1.3-1.4 1.2l.1.4c-.4 1.2-.3-.7-.7.2l-.1-1.2c-.3.3-.9 1.1-1.4 1.4.3-.9.8-1.3 1.2-1.8-.3 0-.9.1-1 .7.1-.1.2-.4.3-.2-.3.9-.7 1.4-1.3 1.4.1-2.3-1.3-.6-1.7-2.4-.9.8-1.8-.4-2.9-.2.4 1.8-.3.1-.2 1.9-.2.1-.3.1-.4 0l-.8-1.1c-.2-.5.2-.4.2-.8-.5-.1-.2-.8-.6-1.3.1.7-.2.9-.5.7l.4.8c-.8 1-.7-1.5-1.4-.6l.2-.6c-.4.3-1.4 0-1.8 1.5-.1-.2-.2-.7 0-.8-.9-.2-2.1 1.6-2.8.7l.1-.4c-.2.1-.3.8-.5.4 0-.2.1-.4 0-.5-.1.2-.5.8-.7.5l.2-.5c-.9-.6-1.4 1.2-2.2 1.5 0-1.3-.7-1.7-1.1-2v-.2c-1.1-.2-1.8 1.1-2.8 1.6-.6-1.4-2.1-.6-3.1-1.4.2.2 0 1-.2 1.2-.2-.3-.6.9-.6-.3h.1c-.2-1.2-.6-.9-1-.9l-.1 1.6c-1-2.3-2.5.8-3.1-1.2-.2.4-.5.4-.8.8v-.8c-.6-.2-1-.3-1.8-.1l.2-.6c-.5-.1-.6 2.4-1 2.5l-.1-1.3c-.8 0-1.6-1.1-2.4.1 0-.2 0-.6.2-.6-.4 0-1.4-.9-1.3.9 0-1.1-.8-.1-1.2.4l.1-.8c-.4 1.1-.4 1.4-.9 1.7-.1-.1-.1-.7.1-.5-.4-.4-.3.8-.8.3l.2-.5c-.4-.1-.4.2-.6.8-.3.3-.8-.2-.8-1-.1.5-.3 1.1-.5.9 0-.3.1-.5.1-.5l-1.5.2c0-.3 0-.4-.1-.5.5 0 1 .1.9.1 0-.8-.4-.9-.1-2-.4.6-1 1.8-1.4 1.5 0-.1 0-.1-.1-.3v-.1c-.1-.1-.2 0-.3.1-.1-.1-.2-.2-.4-.2-.1-.6-.5-.3-.7-.4 0 .8-.3.7 0 1.4 0-.1 0-.1.2-.1 0 0 .1 0 .1-.1v.1c.1 0 .3 0 .5-.1-.2.4-.4.8-.6.3-.1.5-.2 1.1-.3 1.4-.3-1.2-.9-1.8-1-2.5-.7.5-1.6.3-2 1.9-.2.2-.2-.5-.3-.7.1-.2.2-.1.3-.4-.4.4-1.1.2-1.2 1.3-.5-.5.3-1-.4-.8l.1-.3c-1.3-1.8-2.1 2.8-3.5.6.1.1.1.2.2.4-1.6-1-3.4.9-5-.6-.5-.3-.5.4-.8.9l-.1-.9-.5 1c-.7.8-1.2-2.2-2-.8l.1.6c-.3-.1-1 .4-.9-.3 0 .1-.1.6-.2.3v-.5l-.8.8c-.6-.3.1-1.9-.8-2-.3.2-.9 1.4-.8 1.7.1 0 .3.3.3.8l-.3.2c-.1 1.4-.3 2.8.4 3.8l.5-.9.2.7h-.4c.2.6.4.1.6-.3 0 .4.1.6.2.7l.5-1.3c.1.5-.2 1.1.1 1.4.2-.6-.2-1.2.2-1.6.2.6.2 1.2.4.6 0 .4 0 .6-.1.7.2-.4.7-.2.8-.9.2.8.8-.2.8 1.1.1-.3.4-1 .7-1.1-.4 1.6.9.1.7 1.8.3-1.4 1.1-.6 1.7-1.4 0 .1-.1.3-.1.3.3.1.4.5.6.8 0-1.2.5-1.4.8-2.2.4 1.1-.2 1.4-.1 2.5 0-1 .7-1 .5-1.7.3.7.2.3.4 1.3.1-1.5.3-.2.5-1.2.4.7.1 1.4.6.9.6.4.2.9.2.9zm10.9-2.5c-.1 0-.2.1-.2.1.1-.1.1-.1.2-.1zm1 0h-.4c0-.3 0-.6.1-.6-.1.2.1.3.3.6zm-2-5.9c.1-.1.2 0 .2.2-.1 0-.1 0-.3.1v.1c.1-.1.1-.3.1-.4zm-.2 1.1c-.1 0-.1.1 0 0v.3-.3zm83.1 1.3v.1-.1zm-68.3 5.1v-.2l-.1.2zm73.3-2.2c0 .1 0 .2.1.2 0-.1 0-.1-.1-.2zm2.2.2l.3.3c-.1-.2-.2-.3-.3-.3zm1.7.4v-.4.4zm-26.7 1zm8-2c-.1.2-.2.3-.3.4.2.1.3.1.3-.4zm-16.8 3zm16.1-2.6c.1.2.3.1.4 0-.1-.1-.2-.1-.4 0zm26.7 1c.1 0 .1-.1.1-.1l-.1.1zm.1-.1zm.2-.3l-.2.2c.1 0 .2 0 .2-.2zm-2.5 0v.3c-.1-.1 0-.2 0-.3zm-.7.1c.2.1.4.7.6.5v-.2c-.1.3-.5-.9-.6-.3zm-2.8-3.8l.6.2c-.1-.3-.2-.8 0-.8-.8-1 .1.7-.6.6zm-1.8-.5c.3-.2 0-.5 0-.7-.2.3-.2.4 0 .7zm-12.7 0v-.8.8zm-2.4 4l.2.5.2-.8zm-1.4-5.5l.1-.1-.4.3zm-21.3.3l.1.9c.1-.1.2-1.2-.1-.9zm-9.2.9c-.1-.5-.4-.8-.5-.3.2.1.4.5.5.3zm-27.5-1.5l.1-.3-.3.2zm84 49.9c.1-.3 0-.8-.1-.7l-.1 1 .2-.3zm-1.1-1.8c-.2.5-.4 1.3-.3 2.2.2-1 .3-.6.5-1.7.2-.1.3.3.3.7.1-.3.3.2.4-.4-.2-.8-.5-.8-.8-.2-.2-.2-.2-.4-.1-.6zm-17.2-1.6l.1.1c-.1 0-.1 0-.1-.1zm-10.7-.5c.1 0 .1-.1.1-.2 0 0-.1.1-.1.2zm-1.8-1.1s.1 0 .1.1c0-.1-.1-.2-.1-.1zm12.5 1.6l-.3-.3c0 .3.1.3.3.3zm14.8 4c.1 0 .1-.1.2-.3l-.1.1c-.1.1-.1.1-.1.2zm-10.1-4.8l.2-.4-.2.4zm3.6-.1c-.1 0-.1.8-.1 1.2 0-.3.1-.5.2-.6-.1-.2-.1-.4-.1-.6zm5.7 1.5l.1-.1s-.1 0-.1.1zm-11.9-1.6v-.3c-.1.2 0 .3 0 .3zm-100.8 6.4v-.2.2zm-4.2-4.2c.1-.2.1-.4.1-.5l-.1.5zm87.1-3.9zm-30.6.6c.3.8-.6 1 0 1.8-.1-.3.5-1.3 0-1.8zm61.1 6h-.1.1zm-61.1-4.2zm22.9-1.9c0 .1 0 .3.1.4 0-.1 0-.2-.1-.4zm5.7 1.2l-.1-.1c0 .1.1.1.1.1zm-8.7 0c-.1-.1-.1-.2-.2-.1v.1c.1-.1.2-.1.2 0zm-3 0c0 .1 0 .1.1.2h.1l-.2-.2zm-59.8 6c-.1-.2-.1-.5-.1-.8 0 .6-.5.8.1.8zm104.1-1.5c0 .2 0 .3-.1.4h.1v-.4zm-41.4 2.2l-.5-.1.5.1zm-40.6-.8l-.1.1c.1 0 .1 0 .1-.1zm38.7.8c-.1-.3-.2-.5-.3-.6 0 .1 0 .1-.1.2l.4.4zm-60.9-1.5zm-3.3 2c.5 0 .2-1.1.3-1.7.6-.3.3.8.4 1.4.3-.3.6-1.3.9-1.3 0 .2.1.2 0 .5.4-.9 1.1 0 1.5-1.1 0 .1 0 .2.1.3-.1-.6-.1-1.1-.1-1.5.2 0 .4-.7.5 0-.1 0-.1.3-.2.5l.2-.3c.2 1-.3.4-.3 1.1.4-.3.9-1.2 1.3-.9.1 1-.8.3-.3 1.2l-.5-.4c.4 1.6-.3-.1 0 1.6l1.4-.2c.2-.6 0-.8.1-1.4.9-1 .7 2.6 1.4 1.2.2-.7.3-2 .7-1.3l-.2 1.2c.6.1.4-1.7 1-.9-.1.5-.5.4-.4.5.4.9.3-.7.6-.7l.1 1c.7-.2 1.4-.9 2.2-1.1 0 .3-.2.6 0 .9 1-.5 2.1.1 3 .7l.4-.9c.1 0 .2.4.1.6.4.3 0-.6.2-.9.2-.1.3.5.1.8.6-.7 1.8-1.6 2.5-.7l-.1.3c.5.4.6-1.8 1.1-1l-.1.2c1.1.4 2.4-.4 3.3.9.2-1.3 1.1.6 1.2-1.2.6.9.5 1.2 1.4 1.8.2.1.4-1.1.7-1.3v.9l.4-1 .2 1.1.3-.2c-.1-.1-.2-.4-.2-.7.4-.4 1.1.6 1.1 1.1l1-.8c0 .4-.2.5-.3.7.6-.9.1 1 .6.1-.1-.2 0-.6 0-.7.3.6.8.6 1.3.3l-.1.6c.8.2 1.6-.3 2.5-.3-.3-.3-.2-1.4 0-1.5l.1 1c.2-.6-.3-.4.1-1.1.3.1.2 1.1 0 1.4l.4-.3c0 .3-.1.4-.1.8.2-.6.7 1 .9-.1v.3c.9 0 1.3-.3 2-.4 0-.8.3-.7.5-1.3.5.3 1.1.9 1.7.9.4-.4.1-.7.3-1.2 0 .8.7.7.3 1.2.8-.1 1-.2 1.9-.8-.1-.3-.2-.5-.2-.7.2-.1.4.3.4.7v.1c1.1-1.2 2.5 2.2 3.3.6v.1l.9-.8c.4.1-.2.6.1 1.1 1-1.3 1.5.2 2.3-.7.6 2.3 2.2-.2 3 1.3v-.5c.2-.5.3.3.4.4 0-.4-.2-.5-.1-.8 1.8-.6 3.7.8 5.5 1.3.7.1.4-2.8 1.2-1.5l-.2 1c1.4-1.2 2.8 0 4.1-1-.1.2-.1.5-.2.5.3.7 1 0 1-.6l.2.8c.3.4.7-.9.9-.2l-.1.3c.2-.3.9.1.7-.7.5.4 1-.4 1.4.1.3-.9.9.4.9-.9 0 1.4.9 1.1 1.2.5-.1.4.3.4.2 1 .4 0 .7-.3.6-1 .7 1.6 1.3-1.3 1.7.8 1.1-.7 2.1-1.2 3-1.5 0 1.4-1.1.1-1 1.6.9-.6 1.4-1.7 2.3-1.4.2.2-.1.6-.2.8.9-.6 1.8.1 2.6-.6 0 .1-.1.3-.2.4.2 0 .4.2.4-.4l-.2.2c-.3-.9.6-1.9.7-2.3-.3 1.8.8.4.4 2.7.1-.1.2-.4.2-.8.2.1.2.4 0 .8.6-.3.4-1 .9-1 0 .3-.1.4-.2.8.3-.6.5-1.2 1-.9 0 .2 0 .4-.1.4.8-.1 1.3-1.5 2.1-1-.2 1.3.3.4.3 1.5l.4-.3-.2-.5c.4 0 .7-.8 1.1-.4l-.3.5.7-.2-.4-.4c.4-.6 0-1.4.5-1.1-.1.1.4 0 .6.7.2-.4.4-.7.7-.5.1.4-.1 1.2 0 1.5.2-.9.9-.3 1.2-1.3-.1.2-.1.8-.1.9l.2-.8c.2.2.2.4.2.8.5.1-.2-1.4.5-.8l-.1.3c.6.3 1.2-.5 1.8-.1.2 1.1-.5.3-.3 1.2.9-.2 1.8-1.4 2.6-1.1l-.2-.1c.1-1.6.6.8 1 0-.1.1-.1.9-.1.7.6.3 1.2-.4 2-.9l-.1.4c.3.4.9.2 1.2.4.1-.4.3-.3.2-.9 1.1 2.3 2.1-1.2 3.1.7-.1 0-.3.4-.2.4l.8-.4c-.1-.7-.1-.4-.3-1 .1-.4.3-.7.6-.7-.4.5 0 1.1.2 1.5v-.7c.4 1.2.1-1.4.7-.6v.4c.2-.2.4-.7.7-.6.1.8-.2.4-.3 1 .3 0 .7-1.5 1-.7l-.5.4c.3.9.4.7.6.9l.6.4-.1-.3c.4-2.1.9-.4 1.4-1.8-.6 1.3-.1.8-.1 1.7.1.3.4.5.3.8.3-.7.5.6.8-.5 0 .3.3 0 .2.8.4-.2-.1-.5-.1-.9.5-1 1.3 1.2 2.1-.2l1.4-2c.2.5-.2 1.1-.2 1.1.3.4.6.4.9 0-.1.3 0 .5.1.8.3-.1.2-1.1.5-.6-.1.3-.1.8-.3 1.2l.9-1.1c.1.5-.2.8-.3 1.1.4-.2.9-.5 1-1.3l-.2-.3c.1 0 .1.7 0 .8-.3.6-.4-.3-.5-.6l.2-.2c-.2-1.7-.9.3-1.3.2l.2-1.2-.5 1c-.1-.3-.2-1 .1-1.2l-.6-.2v-.2l-.3.4c.1-.3-.1-.9.1-.7-.6-.7-.9.9-1.1 0v-.1c-.8.4-.1.9-.7 2l-.4-2.3-.1.9c-.1 0-.2-.1-.2-.5-.3.6.1.4-.1 1-.4-.8-1.1.4-1.2-1.1-.1.7.4.5 0 1-.1-1.6-.5.3-.8-.5.1-.8.4-.4.1-1.1-.2 1.4-.7-.3-1 0 0 1.1-.7.5-1.2.8 0-.4-.9-.6-1.4-1v-.2c-.1 1.1-.6.9-.9 1.1 0-.7.1-.9.3-1.2h-.3c-.1.4-.2.5-.4.7l.1-.8c-.4 0-.9 1-1.5.4 0 .8.5 2.1-.1 2.7 0-.4 0-1.1.1-1.3-.1.1-.2.3-.3.2l.2-.7c-.3-.3-.1.6-.3.5 0-.6-.2-.4-.1-.9.1-.1.2.2.3 0-.2-.1-.5-.5-.6-.9 0 .3 0 .8-.2.9-.4 0-.2-.7-.4-1-.1.4-.4 0-.4.9-.1 0-.2-.4-.2-.7-.2.4-1.1.1-.8 1.1l.1.1c-.7.9-1.6-.5-2.3-.1v-.3c-.4.3-1 .2-1.3.8-.1 0-.3-.5-.3-.9-.3.2-.4.6-.9.1.3-.5-.1-.5.3-.4-.4-.3-.5-.7-1 .1.2-.8-.3-1-.5-.7l.3.5c-.2.1-.4 0-.6 0l.1-1c-.9-1.2-1.6 2.1-2.3 0-.2.7.5.5.3 1.3-.4-.1-.8-1.6-1-1.6-.6-.6-.5 1.5-1.1 1.1.1.4.1 1.3-.3 1.6-.4-.1-.5-1.5-.2-1.8.1 0 .1.1.1.2.1-.1.3-.3.1-.7l-.1.4c-.2-.4-.8-.3-.6-.9-.3.3-.1.6.1.8-.5-.5-.8 0-1.4-.4.1.2.2.6.1.6-.8-.4-.4.7-.9.8-.3-.5.1-1.3-.4-.8-.3-.4-.1-.9.1-1.2-.5.7-.9-.5-1.2-.6l.3-.3c-.2.2-.3.2-.4.2l.1.7c-.2-.1-.3-.1-.3-.4-.2.5.1 1.2-.2 1.8-.2-.4-.6.4-.7-.6.6.3-.1-.9.5-1.1-.1.1-.2.1-.4 0 0-.1 0-.2.1-.2-.6-.8-.3 1.1-.9 1 .1-.5-.1-1-.3-.9.3 0 .1.9-.1 1.3-.4-.4-.4.3-.7.3l.2.2c-.1.5-.3.5-.6.6 0-.4.3-.3.2-.5-.3.9-.7-1-1.2-.3l-.2-1.2c-.5.7-.5-.7-1.1-.2.2.7.2.5-.2 1.2l.9-.5-.6 1c.3 0 .5-.4.7-.3-.3.6-.2.4-.1 1-.4-1.1-.7.6-1.1-.1v-1.8c-.6-.8-1.1.9-1.9.5l.3.3c-.1.7-.5.1-.8.4 0-.6-.1-.8-.2-1.2 0 .4-.6 0-.7 1.1l-.4-.8c-.6-.3-.7 1.7-1.4 1.5.2-.6-.1-1.1.3-1.5-.2 0-.4-.1-.4.3-.1-.4-.6.8-.8.2-.1.3-.1.9-.3.8v-.3c0 .3-.4.4-.2 1.1-.6-1.8-1.8.1-2.3-1.5-.5.2-1 .4-1.4.4 0-.2 0-.3.1-.2-.6-.6-.3 1.7-1 1.1-.3-1 .3-.5.1-.9-.1-1.9-.8.3-1.2-.9l.1-.1c-.3-.7-.8.7-1.4.6v-.3c-.4 1-1.1 1.3-1.6 1.6.2-.8.2-.4.1-1.2-.2.1.1 1.2-.4 1.5-.2-.4-.5-.8-.5-1.6h.4c-.2-1.1-.6 0-.8-.1v-.5c-.7.2-.7 1.3-1.4 1.2l.1.4c-.4 1.2-.3-.7-.7.2l-.1-1.2c-.3.3-.9 1.1-1.4 1.4.3-.9.8-1.3 1.2-1.8-.3 0-.9.1-1 .7.1-.1.2-.4.3-.2-.3.9-.7 1.4-1.3 1.4.1-2.3-1.3-.6-1.7-2.4-.9.8-1.8-.4-2.9-.2.4 1.8-.3.1-.2 1.9-.2.1-.3.1-.4 0l-.8-1.1c-.2-.5.2-.4.2-.8-.5-.1-.2-.8-.6-1.3.1.7-.2.9-.5.7l.4.8c-.8 1-.7-1.5-1.4-.6l.2-.6c-.4.3-1.4 0-1.8 1.5-.1-.2-.2-.7 0-.8-.9-.2-2.1 1.6-2.8.7l.1-.4c-.2.1-.3.8-.5.4 0-.2.1-.4 0-.5-.1.2-.5.8-.7.5l.2-.5c-.9-.6-1.4 1.2-2.2 1.5 0-1.3-.7-1.7-1.1-2v-.2c-1.1-.2-1.8 1.1-2.8 1.6-.6-1.4-2.1-.6-3.1-1.4.2.2 0 1-.2 1.2-.2-.3-.6.9-.6-.3h.1c-.2-1.2-.6-.9-1-.9l-.1 1.6c-1-2.3-2.5.8-3.1-1.2-.2.4-.5.4-.8.8v-.8c-.6-.2-1-.3-1.8-.1l.2-.6c-.5-.1-.6 2.4-1 2.5l-.1-1.3c-.8 0-1.6-1.1-2.4.1 0-.2 0-.6.2-.6-.4 0-1.4-.9-1.3.9 0-1.1-.8-.1-1.2.4l.1-.8c-.4 1.1-.4 1.4-.9 1.7-.1-.1-.1-.7.1-.5-.4-.4-.3.8-.8.3l.2-.5c-.4-.1-.4.2-.6.8-.3.3-.8-.2-.8-1-.1.5-.3 1.1-.5.9 0-.3.1-.5.1-.5l-1.5.2c0-.3 0-.4-.1-.5.5 0 1 .1.9.1 0-.8-.4-.9-.1-2-.4.6-1 1.8-1.4 1.5 0-.1 0-.1-.1-.3v-.1c-.1-.1-.2 0-.3.1-.1-.1-.2-.2-.4-.2-.1-.6-.5-.3-.7-.4 0 .8-.3.7 0 1.4 0-.1 0-.1.2-.1 0 0 .1 0 .1-.1v.1c.1 0 .3 0 .5-.1-.2.4-.4.8-.6.3-.1.5-.2 1.1-.3 1.4-.3-1.2-.9-1.8-1-2.5-.7.5-1.6.3-2 1.9-.2.2-.2-.5-.3-.7.1-.2.2-.1.3-.4-.4.4-1.1.2-1.2 1.3-.5-.5.3-1-.4-.8l.1-.3c-1.3-1.8-2.1 2.8-3.5.6.1.1.1.2.2.4-1.6-1-3.4.9-5-.6-.5-.3-.5.4-.8.9l-.1-.9-.5 1c-.7.8-1.2-2.2-2-.8l.1.6c-.3-.1-1 .4-.9-.3 0 .1-.1.6-.2.3v-.5l-.8.8c-.6-.3.1-1.9-.8-2-.3.2-.9 1.4-.8 1.7.1 0 .3.3.3.8l-.3.2c-.1 1.4-.3 2.8.4 3.8l.5-.9.2.7h-.4c.2.6.4.1.6-.3 0 .4.1.6.2.7l.5-1.3c.1.5-.2 1.1.1 1.4.2-.6-.2-1.2.2-1.6.2.6.2 1.2.4.6 0 .4 0 .6-.1.7.2-.4.7-.2.8-.9.2.8.8-.2.8 1.1.1-.3.4-1 .7-1.1-.4 1.6.9.1.7 1.8.3-1.4 1.1-.6 1.7-1.4 0 .1-.1.3-.1.3.3.1.4.5.6.8 0-1.2.5-1.4.8-2.2.4 1.1-.2 1.4-.1 2.5 0-1 .7-1 .5-1.7.3.7.2.3.4 1.3.1-1.5.3-.2.5-1.2.4.7.1 1.4.6.9.6.4.2.9.2.9zm10.9-2.5c-.1 0-.2.1-.2.1.1-.1.1-.1.2-.1zm1 0h-.4c0-.3 0-.6.1-.6-.1.1.1.3.3.6zm-2-5.9c.1-.1.2 0 .2.2-.1 0-.1 0-.3.1v.1c.1-.1.1-.3.1-.4zm-.2 1.1c-.1 0-.1.1 0 0v.3-.3zm83.1 1.3v.1-.1zm-68.3 5.1v-.2l-.1.1zm73.3-2.2c0 .1 0 .2.1.2 0-.1 0-.1-.1-.2zm2.2.2l.3.3c-.1-.2-.2-.3-.3-.3zm1.7.4v-.4.4zm-26.7 1zm8-2c-.1.2-.2.3-.3.4.2.1.3.1.3-.4zm-16.8 3zm16.1-2.6c.1.2.3.1.4 0-.1-.1-.2-.1-.4 0zm26.7 1c.1 0 .1-.1.1-.1l-.1.1zm.1-.1zm.2-.4l-.2.2c.1.1.2.1.2-.2zm-2.5.1v.3c-.1-.1 0-.2 0-.3zm-.7.1c.2.1.4.7.6.5v-.2c-.1.3-.5-.9-.6-.3zm-2.8-3.8l.6.2c-.1-.3-.2-.8 0-.8-.8-1 .1.7-.6.6zm-1.8-.5c.3-.2 0-.5 0-.7-.2.3-.2.4 0 .7zm-12.7 0v-.8c-.2.1.1.3 0 .8zm-2.4 4l.2.4.2-.7zm-1.4-5.5l.1-.1-.4.3zm-21.3.3l.1.9c.1-.2.2-1.2-.1-.9zm-9.2.9c-.1-.5-.4-.8-.5-.3.2.1.4.5.5.3zm-27.5-1.5l.1-.3-.3.2zm84 50.6c.1-.3 0-.8-.1-.7l-.1 1 .2-.3zm-1.1-1.8c-.2.5-.4 1.3-.3 2.2.2-1 .3-.6.5-1.7.2-.1.3.3.3.7.1-.3.3.2.4-.4-.2-.8-.5-.8-.8-.2-.2-.2-.2-.4-.1-.6zm-17.2-1.6l.1.1c-.1 0-.1-.1-.1-.1zm-10.7-.5c.1 0 .1-.1.1-.2 0 0-.1.1-.1.2zm-1.8-1.1s.1 0 .1.1c0-.1-.1-.2-.1-.1zm12.5 1.6l-.3-.3c0 .3.1.3.3.3zm14.8 4c.1 0 .1-.1.2-.3l-.1.1c-.1.1-.1.1-.1.2zm-10.1-4.8l.2-.4-.2.4zm3.6-.1c-.1 0-.1.8-.1 1.2 0-.3.1-.5.2-.6-.1-.2-.1-.4-.1-.6zm5.7 1.5l.1-.1s-.1 0-.1.1zm-11.9-1.6v-.3c-.1.1 0 .2 0 .3zm-100.8 6.4v-.1.1zm-4.2-4.2c.1-.2.1-.4.1-.5l-.1.5zm87.1-3.9c.1-.1 0-.1 0 0zm-30.6.6c.3.8-.6 1 0 1.8-.1-.3.5-1.3 0-1.8zm61.1 6h-.1.1zm-61.1-4.2zm22.9-1.9c0 .1 0 .3.1.4 0-.1 0-.2-.1-.4zm5.7 1.2l-.1-.1c0 .1.1.1.1.1zm-8.7 0c-.1-.1-.1-.2-.2-.1v.1c.1-.1.2-.1.2 0zm-3 0c0 .1 0 .1.1.2h.1l-.2-.2zm-59.8 6c-.1-.2-.1-.5-.1-.8 0 .6-.5.8.1.8zm104.1-1.5c0 .2 0 .3-.1.4h.1v-.4zm-41.4 2.2l-.5-.1.5.1zm-40.6-.8l-.1.1c.1 0 .1-.1.1-.1zm38.7.8c-.1-.3-.2-.5-.3-.6 0 .1 0 .1-.1.2l.4.4zm-60.9-1.5zm-3.3 2c.5 0 .2-1.1.3-1.7.6-.3.3.8.4 1.4.3-.3.6-1.3.9-1.3 0 .2.1.2 0 .5.4-.9 1.1 0 1.5-1.1 0 .1 0 .2.1.3-.1-.6-.1-1.1-.1-1.5.2 0 .4-.7.5 0-.1 0-.1.3-.2.5l.2-.3c.2 1-.3.4-.3 1.1.4-.3.9-1.2 1.3-.9.1 1-.8.3-.3 1.2l-.5-.4c.4 1.6-.3-.1 0 1.6l1.4-.2c.2-.6 0-.8.1-1.4.9-1 .7 2.6 1.4 1.2.2-.7.3-2 .7-1.3l-.2 1.2c.6.1.4-1.7 1-.9-.1.5-.5.4-.4.5.4.9.3-.7.6-.7l.1 1c.7-.2 1.4-.9 2.2-1.1 0 .3-.2.6 0 .9 1-.5 2.1.1 3 .7l.4-.9c.1 0 .2.4.1.6.4.3 0-.6.2-.9.2-.1.3.5.1.8.6-.7 1.8-1.6 2.5-.7l-.1.3c.5.4.6-1.8 1.1-1l-.1.2c1.1.4 2.4-.4 3.3.9.2-1.3 1.1.6 1.2-1.2.6.9.5 1.2 1.4 1.8.2.1.4-1.1.7-1.3v.9l.4-1 .2 1.1.3-.2c-.1-.1-.2-.4-.2-.7.4-.4 1.1.6 1.1 1.1l1-.8c0 .4-.2.5-.3.7.6-.9.1 1 .6.1-.1-.2 0-.6 0-.7.3.6.8.6 1.3.3l-.1.6c.8.2 1.6-.3 2.5-.3-.3-.3-.2-1.4 0-1.5l.1 1c.2-.6-.3-.4.1-1.1.3.1.2 1.1 0 1.4l.4-.3c0 .3-.1.4-.1.8.2-.6.7 1 .9-.1v.3c.9 0 1.3-.3 2-.4 0-.8.3-.7.5-1.3.5.3 1.1.9 1.7.9.4-.4.1-.7.3-1.2 0 .8.7.7.3 1.2.8-.1 1-.2 1.9-.8-.1-.3-.2-.5-.2-.7.2-.1.4.3.4.7v.1c1.1-1.2 2.5 2.2 3.3.6v.1l.9-.8c.4.1-.2.6.1 1.1 1-1.3 1.5.2 2.3-.7.6 2.3 2.2-.2 3 1.3v-.5c.2-.5.3.3.4.4 0-.4-.2-.5-.1-.8 1.8-.6 3.7.8 5.5 1.3.7.1.4-2.8 1.2-1.5l-.2 1c1.4-1.2 2.8 0 4.1-1-.1.2-.1.5-.2.5.3.7 1 0 1-.6l.2.8c.3.4.7-.9.9-.2l-.1.3c.2-.3.9.1.7-.7.5.4 1-.4 1.4.1.3-.9.9.4.9-.9 0 1.4.9 1.1 1.2.5-.1.4.3.4.2 1 .4 0 .7-.3.6-1 .7 1.6 1.3-1.3 1.7.8 1.1-.7 2.1-1.2 3-1.5 0 1.4-1.1.1-1 1.6.9-.6 1.4-1.7 2.3-1.4.2.2-.1.6-.2.8.9-.6 1.8.1 2.6-.6 0 .1-.1.3-.2.4.2 0 .4.2.4-.4l-.2.2c-.3-.9.6-1.9.7-2.3-.3 1.8.8.4.4 2.7.1-.1.2-.4.2-.8.2.1.2.4 0 .8.6-.3.4-1 .9-1 0 .3-.1.4-.2.8.3-.6.5-1.2 1-.9 0 .2 0 .4-.1.4.8-.1 1.3-1.5 2.1-1-.2 1.3.3.4.3 1.5l.4-.3-.2-.5c.4 0 .7-.8 1.1-.4l-.3.5.7-.2-.4-.4c.4-.6 0-1.4.5-1.1-.1.1.4 0 .6.7.2-.4.4-.7.7-.5.1.4-.1 1.2 0 1.5.2-.9.9-.3 1.2-1.3-.1.2-.1.8-.1.9l.2-.8c.2.2.2.4.2.8.5.1-.2-1.4.5-.8l-.1.3c.6.3 1.2-.5 1.8-.1.2 1.1-.5.3-.3 1.2.9-.2 1.8-1.4 2.6-1.1l-.2-.1c.1-1.6.6.8 1 0-.1.1-.1.9-.1.7.6.3 1.2-.4 2-.9l-.1.4c.3.4.9.2 1.2.4.1-.4.3-.3.2-.9 1.1 2.3 2.1-1.2 3.1.7-.1 0-.3.4-.2.4l.8-.4c-.1-.7-.1-.4-.3-1 .1-.4.3-.7.6-.7-.4.5 0 1.1.2 1.5v-.7c.4 1.2.1-1.4.7-.6v.4c.2-.2.4-.7.7-.6.1.8-.2.4-.3 1 .3 0 .7-1.5 1-.7l-.5.4c.3.9.4.7.6.9l.6.4-.1-.3c.4-2.1.9-.4 1.4-1.8-.6 1.3-.1.8-.1 1.7.1.3.4.5.3.8.3-.7.5.6.8-.5 0 .3.3 0 .2.8.4-.2-.1-.5-.1-.9.5-1 1.3 1.2 2.1-.2l1.4-2c.2.5-.2 1.1-.2 1.1.3.4.6.4.9 0-.1.3 0 .5.1.8.3-.1.2-1.1.5-.6-.1.3-.1.8-.3 1.2l.9-1.1c.1.5-.2.8-.3 1.1.4-.2.9-.5 1-1.3l-.2-.3c.1 0 .1.7 0 .8-.3.6-.4-.3-.5-.6l.2-.2c-.2-1.7-.9.3-1.3.2l.2-1.2-.5 1c-.1-.3-.2-1 .1-1.2l-.6-.2v-.2l-.3.4c.1-.3-.1-.9.1-.7-.6-.7-.9.9-1.1 0v-.1c-.8.4-.1.9-.7 2l-.4-2.3-.1.9c-.1 0-.2-.1-.2-.5-.3.6.1.4-.1 1-.4-.8-1.1.4-1.2-1.1-.1.7.4.5 0 1-.1-1.6-.5.3-.8-.5.1-.8.4-.4.1-1.1-.2 1.4-.7-.3-1 0 0 1.1-.7.5-1.2.8 0-.4-.9-.6-1.4-1v-.2c-.1 1.1-.6.9-.9 1.1 0-.7.1-.9.3-1.2h-.3c-.1.4-.2.5-.4.7l.1-.8c-.4 0-.9 1-1.5.4 0 .8.5 2.1-.1 2.7 0-.4 0-1.1.1-1.3-.1.1-.2.3-.3.2l.2-.7c-.3-.3-.1.6-.3.5 0-.6-.2-.4-.1-.9.1-.1.2.2.3 0-.2-.1-.5-.5-.6-.9 0 .3 0 .8-.2.9-.4 0-.2-.7-.4-1-.1.4-.4 0-.4.9-.1 0-.2-.4-.2-.7-.2.4-1.1.1-.8 1.1l.1.1c-.7.9-1.6-.5-2.3-.1v-.3c-.4.3-1 .2-1.3.8-.1 0-.3-.5-.3-.9-.3.2-.4.6-.9.1.3-.5-.1-.5.3-.4-.4-.3-.5-.7-1 .1.2-.8-.3-1-.5-.7l.3.5c-.2.1-.4 0-.6 0l.1-1c-.9-1.2-1.6 2.1-2.3 0-.2.7.5.5.3 1.3-.4-.1-.8-1.6-1-1.6-.6-.6-.5 1.5-1.1 1.1.1.4.1 1.3-.3 1.6-.4-.1-.5-1.5-.2-1.8.1 0 .1.1.1.2.1-.1.3-.3.1-.7l-.1.4c-.2-.4-.8-.3-.6-.9-.3.3-.1.6.1.8-.5-.5-.8 0-1.4-.4.1.2.2.6.1.6-.8-.4-.4.7-.9.8-.3-.5.1-1.3-.4-.8-.3-.4-.1-.9.1-1.2-.5.7-.9-.5-1.2-.6l.3-.3c-.2.2-.3.2-.4.2l.1.7c-.2-.1-.3-.1-.3-.4-.2.5.1 1.2-.2 1.8-.2-.4-.6.4-.7-.6.6.3-.1-.9.5-1.1-.1.1-.2.1-.4 0 0-.1 0-.2.1-.2-.6-.8-.3 1.1-.9 1 .1-.5-.1-1-.3-.9.3 0 .1.9-.1 1.3-.4-.4-.4.3-.7.3l.2.2c-.1.5-.3.5-.6.6 0-.4.3-.3.2-.5-.3.9-.7-1-1.2-.3l-.2-1.2c-.5.7-.5-.7-1.1-.2.2.7.2.5-.2 1.2l.9-.5-.6 1c.3 0 .5-.4.7-.3-.3.6-.2.4-.1 1-.4-1.1-.7.6-1.1-.1v-1.8c-.6-.8-1.1.9-1.9.5l.3.3c-.1.7-.5.1-.8.4 0-.6-.1-.8-.2-1.2 0 .4-.6 0-.7 1.1l-.4-.8c-.6-.3-.7 1.7-1.4 1.5.2-.6-.1-1.1.3-1.5-.2 0-.4-.1-.4.3-.1-.4-.6.8-.8.2-.1.3-.1.9-.3.8v-.3c0 .3-.4.4-.2 1.1-.6-1.8-1.8.1-2.3-1.5-.5.2-1 .4-1.4.4 0-.2 0-.3.1-.2-.6-.6-.3 1.7-1 1.1-.3-1 .3-.5.1-.9-.1-1.9-.8.3-1.2-.9l.1-.1c-.3-.7-.8.7-1.4.6v-.3c-.4 1-1.1 1.3-1.6 1.6.2-.8.2-.4.1-1.2-.2.1.1 1.2-.4 1.5-.2-.4-.5-.8-.5-1.6h.4c-.2-1.1-.6 0-.8-.1v-.5c-.7.2-.7 1.3-1.4 1.2l.1.4c-.4 1.2-.3-.7-.7.2l-.1-1.2c-.3.3-.9 1.1-1.4 1.4.3-.9.8-1.3 1.2-1.8-.3 0-.9.1-1 .7.1-.1.2-.4.3-.2-.3.9-.7 1.4-1.3 1.4.1-2.3-1.3-.6-1.7-2.4-.9.8-1.8-.4-2.9-.2.4 1.8-.3.1-.2 1.9-.2.1-.3.1-.4 0l-.8-1.1c-.2-.5.2-.4.2-.8-.5-.1-.2-.8-.6-1.3.1.7-.2.9-.5.7l.4.8c-.8 1-.7-1.5-1.4-.6l.2-.6c-.4.3-1.4 0-1.8 1.5-.1-.2-.2-.7 0-.8-.9-.2-2.1 1.6-2.8.7l.1-.4c-.2.1-.3.8-.5.4 0-.2.1-.4 0-.5-.1.2-.5.8-.7.5l.2-.5c-.9-.6-1.4 1.2-2.2 1.5 0-1.3-.7-1.7-1.1-2v-.2c-1.1-.2-1.8 1.1-2.8 1.6-.6-1.4-2.1-.6-3.1-1.4.2.2 0 1-.2 1.2-.2-.3-.6.9-.6-.3h.1c-.2-1.2-.6-.9-1-.9l-.1 1.6c-1-2.3-2.5.8-3.1-1.2-.2.4-.5.4-.8.8v-.8c-.6-.2-1-.3-1.8-.1l.2-.6c-.5-.1-.6 2.4-1 2.5l-.1-1.3c-.8 0-1.6-1.1-2.4.1 0-.2 0-.6.2-.6-.4 0-1.4-.9-1.3.9 0-1.1-.8-.1-1.2.4l.1-.8c-.4 1.1-.4 1.4-.9 1.7-.1-.1-.1-.7.1-.5-.4-.4-.3.8-.8.3l.2-.5c-.4-.1-.4.2-.6.8-.3.3-.8-.2-.8-1-.1.5-.3 1.1-.5.9 0-.3.1-.5.1-.5l-1.5.2c0-.3 0-.4-.1-.5.5 0 1 .1.9.1 0-.8-.4-.9-.1-2-.4.6-1 1.8-1.4 1.5 0-.1 0-.1-.1-.3v-.1c-.1-.1-.2 0-.3.1-.1-.1-.2-.2-.4-.2-.1-.6-.5-.3-.7-.4 0 .8-.3.7 0 1.4 0-.1 0-.1.2-.1 0 0 .1 0 .1-.1v.1c.1 0 .3 0 .5-.1-.2.4-.4.8-.6.3-.1.5-.2 1.1-.3 1.4-.3-1.2-.9-1.8-1-2.5-.7.5-1.6.3-2 1.9-.2.2-.2-.5-.3-.7.1-.2.2-.1.3-.4-.4.4-1.1.2-1.2 1.3-.5-.5.3-1-.4-.8l.1-.3c-1.3-1.8-2.1 2.8-3.5.6.1.1.1.2.2.4-1.6-1-3.4.9-5-.6-.5-.3-.5.4-.8.9l-.1-.9-.5 1c-.7.8-1.2-2.2-2-.8l.1.6c-.3-.1-1 .4-.9-.3 0 .1-.1.6-.2.3v-.5l-.8.8c-.6-.3.1-1.9-.8-2-.3.2-.9 1.4-.8 1.7.1 0 .3.3.3.8l-.3.2c-.1 1.4-.3 2.8.4 3.8l.5-.9.2.7h-.4c.2.6.4.1.6-.3 0 .4.1.6.2.7l.5-1.3c.1.5-.2 1.1.1 1.4.2-.6-.2-1.2.2-1.6.2.6.2 1.2.4.6 0 .4 0 .6-.1.7.2-.4.7-.2.8-.9.2.8.8-.2.8 1.1.1-.3.4-1 .7-1.1-.4 1.6.9.1.7 1.8.3-1.4 1.1-.6 1.7-1.4 0 .1-.1.3-.1.3.3.1.4.5.6.8 0-1.2.5-1.4.8-2.2.4 1.1-.2 1.4-.1 2.5 0-1 .7-1 .5-1.7.3.7.2.3.4 1.3.1-1.5.3-.2.5-1.2.4.7.1 1.4.6.9.6.4.2.9.2.9zm10.9-2.5c-.1 0-.2.1-.2.1.1-.1.1-.1.2-.1zm1 0h-.4c0-.3 0-.6.1-.6-.1.1.1.3.3.6zm-2-5.9c.1-.1.2 0 .2.2-.1 0-.1 0-.3.1v.1c.1-.1.1-.3.1-.4zm-.2 1.1c-.1 0-.1.1 0 0v.3-.3zm83.1 1.3v.1-.1zm-68.3 5.1v-.2l-.1.1zm73.3-2.2c0 .1 0 .2.1.2 0-.1 0-.2-.1-.2zm2.2.1l.3.3-.3-.3zm1.7.5v-.4.4zm-26.7 1zm8-2c-.1.2-.2.3-.3.4.2.1.3.1.3-.4zm-16.8 3zm16.1-2.6c.1.2.3.1.4 0-.1-.1-.2-.2-.4 0zm26.7.9c.1 0 .1-.1.1-.1l-.1.1zm.1-.1zm.2-.3l-.2.2c.1.1.2.1.2-.2zm-2.5.1v.3c-.1-.1 0-.2 0-.3zm-.7 0c.2.1.4.7.6.5v-.2c-.1.4-.5-.8-.6-.3zm-2.8-3.7l.6.2c-.1-.3-.2-.8 0-.8-.8-1 .1.7-.6.6zm-1.8-.5c.3-.2 0-.5 0-.7-.2.3-.2.4 0 .7zm-12.7 0v-.8c-.2.1.1.3 0 .8zm-2.4 4l.2.4.2-.7zm-1.4-5.5l.1-.1-.4.3zm-21.3.3l.1.9c.1-.2.2-1.2-.1-.9zm-9.2.9c-.1-.5-.4-.8-.5-.3.2.1.4.4.5.3zm-27.5-1.5l.1-.3-.3.2zm84 54.1c.1-.3 0-.8-.1-.7l-.1 1 .2-.3zm-1.1-1.8c-.2.5-.4 1.3-.3 2.2.2-1 .3-.6.5-1.7.2-.1.3.3.3.7.1-.3.3.2.4-.4-.2-.8-.5-.8-.8-.2-.2-.2-.2-.5-.1-.6zm-17.2-1.6l.1.1c-.1 0-.1-.1-.1-.1zm-10.7-.5c.1 0 .1-.1.1-.2 0 0-.1.1-.1.2zm-1.8-1.1s.1 0 .1.1c0-.2-.1-.2-.1-.1zm12.5 1.6l-.3-.3c0 .3.1.2.3.3zm14.8 3.9c.1 0 .1-.1.2-.3l-.1.1c-.1.1-.1.2-.1.2zm-10.1-4.7l.2-.4-.2.4zm3.6-.2c-.1 0-.1.8-.1 1.2 0-.3.1-.5.2-.6-.1-.1-.1-.3-.1-.6zm5.7 1.5l.1-.1-.1.1zm-11.9-1.5v-.3c-.1.1 0 .2 0 .3zm-100.8 6.4v-.1.1zm-4.2-4.2c.1-.2.1-.4.1-.5l-.1.5zm87.1-3.9c.1-.1 0-.1 0 0zm-30.6.6c.3.8-.6 1 0 1.8-.1-.3.5-1.3 0-1.8zm61.1 5.9h-.1c0 .1.1.1.1 0zm-61.1-4.1zm22.9-1.9c0 .1 0 .3.1.4 0-.1 0-.2-.1-.4zm5.7 1.2l-.1-.1c0 .1.1.1.1.1zm-8.7 0c-.1-.1-.1-.2-.2-.1v.1c.1-.1.2-.2.2 0zm-3 0c0 .1 0 .1.1.2h.1l-.2-.2zm-59.8 5.9c-.1-.2-.1-.5-.1-.8 0 .7-.5.9.1.8zm104.1-1.4c0 .2 0 .3-.1.4h.1v-.4zm-41.4 2.1l-.5-.1c.2.1.3.1.5.1zm-40.6-.8l-.1.1c.1 0 .1 0 .1-.1zm38.7.8c-.1-.3-.2-.5-.3-.6 0 .1 0 .1-.1.2l.4.4zm-60.9-1.4zm-3.3 2c.5 0 .2-1.1.3-1.7.6-.3.3.8.4 1.4.3-.3.6-1.3.9-1.3 0 .2.1.2 0 .5.4-.9 1.1 0 1.5-1.1 0 .1 0 .2.1.3-.1-.6-.1-1.1-.1-1.5.2 0 .4-.7.5 0-.1 0-.1.3-.2.5l.2-.3c.2 1-.3.4-.3 1.1.4-.3.9-1.2 1.3-.9.1 1-.8.3-.3 1.2l-.5-.4c.4 1.6-.3-.1 0 1.6l1.4-.2c.2-.6 0-.8.1-1.4.9-1 .7 2.6 1.4 1.2.2-.7.3-2 .7-1.3l-.2 1.2c.6.1.4-1.7 1-.9-.1.5-.5.4-.4.5.4.9.3-.7.6-.7l.1 1c.7-.2 1.4-.9 2.2-1.1 0 .3-.2.6 0 .9 1-.5 2.1.1 3 .7l.4-.9c.1 0 .2.4.1.6.4.3 0-.6.2-.9.2-.1.3.5.1.8.6-.7 1.8-1.6 2.5-.7l-.1.3c.5.4.6-1.8 1.1-1l-.1.2c1.1.4 2.4-.4 3.3.9.2-1.3 1.1.6 1.2-1.2.6.9.5 1.2 1.4 1.8.2.1.4-1.1.7-1.3v.9l.4-1 .2 1.1.3-.2c-.1-.1-.2-.4-.2-.7.4-.4 1.1.6 1.1 1.1l1-.8c0 .4-.2.5-.3.7.6-.9.1 1 .6.1-.1-.2 0-.6 0-.7.3.6.8.6 1.3.3l-.1.6c.8.2 1.6-.3 2.5-.3-.3-.3-.2-1.4 0-1.5l.1 1c.2-.6-.3-.4.1-1.1.3.1.2 1.1 0 1.4l.4-.3c0 .3-.1.4-.1.8.2-.6.7 1 .9-.1v.3c.9 0 1.3-.3 2-.4 0-.8.3-.7.5-1.3.5.3 1.1.9 1.7.9.4-.4.1-.7.3-1.2 0 .8.7.7.3 1.2.8-.1 1-.2 1.9-.8-.1-.3-.2-.5-.2-.7.2-.1.4.3.4.7v.1c1.1-1.2 2.5 2.2 3.3.6v.1l.9-.8c.4.1-.2.6.1 1.1 1-1.3 1.5.2 2.3-.7.6 2.3 2.2-.2 3 1.3v-.5c.2-.5.3.3.4.4 0-.4-.2-.5-.1-.8 1.8-.6 3.7.8 5.5 1.3.7.1.4-2.8 1.2-1.5l-.2 1c1.4-1.2 2.8 0 4.1-1-.1.2-.1.5-.2.5.3.7 1 0 1-.6l.2.8c.3.4.7-.9.9-.2l-.1.3c.2-.3.9.1.7-.7.5.4 1-.4 1.4.1.3-.9.9.4.9-.9 0 1.4.9 1.1 1.2.5-.1.4.3.4.2 1 .4 0 .7-.3.6-1 .7 1.6 1.3-1.3 1.7.8 1.1-.7 2.1-1.2 3-1.5 0 1.4-1.1.1-1 1.6.9-.6 1.4-1.7 2.3-1.4.2.2-.1.6-.2.8.9-.6 1.8.1 2.6-.6 0 .1-.1.3-.2.4.2 0 .4.2.4-.4l-.2.2c-.3-.9.6-1.9.7-2.3-.3 1.8.8.4.4 2.7.1-.1.2-.4.2-.8.2.1.2.4 0 .8.6-.3.4-1 .9-1 0 .3-.1.4-.2.8.3-.6.5-1.2 1-.9 0 .2 0 .4-.1.4.8-.1 1.3-1.5 2.1-1-.2 1.3.3.4.3 1.5l.4-.3-.2-.5c.4 0 .7-.8 1.1-.4l-.3.5.7-.2-.4-.4c.4-.6 0-1.4.5-1.1-.1.1.4 0 .6.7.2-.4.4-.7.7-.5.1.4-.1 1.2 0 1.5.2-.9.9-.3 1.2-1.3-.1.2-.1.8-.1.9l.2-.8c.2.2.2.4.2.8.5.1-.2-1.4.5-.8l-.1.3c.6.3 1.2-.5 1.8-.1.2 1.1-.5.3-.3 1.2.9-.2 1.8-1.4 2.6-1.1l-.2-.1c.1-1.6.6.8 1 0-.1.1-.1.9-.1.7.6.3 1.2-.4 2-.9l-.1.4c.3.4.9.2 1.2.4.1-.4.3-.3.2-.9 1.1 2.3 2.1-1.2 3.1.7-.1 0-.3.4-.2.4l.8-.4c-.1-.7-.1-.4-.3-1 .1-.4.3-.7.6-.7-.4.5 0 1.1.2 1.5v-.7c.4 1.2.1-1.4.7-.6v.4c.2-.2.4-.7.7-.6.1.8-.2.4-.3 1 .3 0 .7-1.5 1-.7l-.5.4c.3.9.4.7.6.9l.6.4-.1-.3c.4-2.1.9-.4 1.4-1.8-.6 1.3-.1.8-.1 1.7.1.3.4.5.3.8.3-.7.5.6.8-.5 0 .3.3 0 .2.8.4-.2-.1-.5-.1-.9.5-1 1.3 1.2 2.1-.2l1.4-2c.2.5-.2 1.1-.2 1.1.3.4.6.4.9 0-.1.3 0 .5.1.8.3-.1.2-1.1.5-.6-.1.3-.1.8-.3 1.2l.9-1.1c.1.5-.2.8-.3 1.1.4-.2.9-.5 1-1.3l-.2-.3c.1 0 .1.7 0 .8-.3.6-.4-.3-.5-.6l.2-.2c-.2-1.7-.9.3-1.3.2l.2-1.2-.5 1c-.1-.3-.2-1 .1-1.2l-.6-.2v-.2l-.3.4c.1-.3-.1-.9.1-.7-.6-.7-.9.9-1.1 0v-.1c-.8.4-.1.9-.7 2l-.4-2.3-.1.9c-.1 0-.2-.1-.2-.5-.3.6.1.4-.1 1-.4-.8-1.1.4-1.2-1.1-.1.7.4.5 0 1-.1-1.6-.5.3-.8-.5.1-.8.4-.4.1-1.1-.2 1.4-.7-.3-1 0 0 1.1-.7.5-1.2.8 0-.4-.9-.6-1.4-1v-.2c-.1 1.1-.6.9-.9 1.1 0-.7.1-.9.3-1.2h-.3c-.1.4-.2.5-.4.7l.1-.8c-.4 0-.9 1-1.5.4 0 .8.5 2.1-.1 2.7 0-.4 0-1.1.1-1.3-.1.1-.2.3-.3.2l.2-.7c-.3-.3-.1.6-.3.5 0-.6-.2-.4-.1-.9.1-.1.2.2.3 0-.2-.1-.5-.5-.6-.9 0 .3 0 .8-.2.9-.4 0-.2-.7-.4-1-.1.4-.4 0-.4.9-.1 0-.2-.4-.2-.7-.2.4-1.1.1-.8 1.1l.1.1c-.7.9-1.6-.5-2.3-.1v-.3c-.4.3-1 .2-1.3.8-.1 0-.3-.5-.3-.9-.3.2-.4.6-.9.1.3-.5-.1-.5.3-.4-.4-.3-.5-.7-1 .1.2-.8-.3-1-.5-.7l.3.5c-.2.1-.4 0-.6 0l.1-1c-.9-1.2-1.6 2.1-2.3 0-.2.7.5.5.3 1.3-.4-.1-.8-1.6-1-1.6-.6-.6-.5 1.5-1.1 1.1.1.4.1 1.3-.3 1.6-.4-.1-.5-1.5-.2-1.8.1 0 .1.1.1.2.1-.1.3-.3.1-.7l-.1.4c-.2-.4-.8-.3-.6-.9-.3.3-.1.6.1.8-.5-.5-.8 0-1.4-.4.1.2.2.6.1.6-.8-.4-.4.7-.9.8-.3-.5.1-1.3-.4-.8-.3-.4-.1-.9.1-1.2-.5.7-.9-.5-1.2-.6l.3-.3c-.2.2-.3.2-.4.2l.1.7c-.2-.1-.3-.1-.3-.4-.2.5.1 1.2-.2 1.8-.2-.4-.6.4-.7-.6.6.3-.1-.9.5-1.1-.1.1-.2.1-.4 0 0-.1 0-.2.1-.2-.6-.8-.3 1.1-.9 1 .1-.5-.1-1-.3-.9.3 0 .1.9-.1 1.3-.4-.4-.4.3-.7.3l.2.2c-.1.5-.3.5-.6.6 0-.4.3-.3.2-.5-.3.9-.7-1-1.2-.3l-.2-1.2c-.5.7-.5-.7-1.1-.2.2.7.2.5-.2 1.2l.9-.5-.6 1c.3 0 .5-.4.7-.3-.3.6-.2.4-.1 1-.4-1.1-.7.6-1.1-.1v-1.8c-.6-.8-1.1.9-1.9.5l.3.3c-.1.7-.5.1-.8.4 0-.6-.1-.8-.2-1.2 0 .4-.6 0-.7 1.1l-.4-.8c-.6-.3-.7 1.7-1.4 1.5.2-.6-.1-1.1.3-1.5-.2 0-.4-.1-.4.3-.1-.4-.6.8-.8.2-.1.3-.1.9-.3.8v-.3c0 .3-.4.4-.2 1.1-.6-1.8-1.8.1-2.3-1.5-.5.2-1 .4-1.4.4 0-.2 0-.3.1-.2-.6-.6-.3 1.7-1 1.1-.3-1 .3-.5.1-.9-.1-1.9-.8.3-1.2-.9l.1-.1c-.3-.7-.8.7-1.4.6v-.3c-.4 1-1.1 1.3-1.6 1.6.2-.8.2-.4.1-1.2-.2.1.1 1.2-.4 1.5-.2-.4-.5-.8-.5-1.6h.4c-.2-1.1-.6 0-.8-.1v-.5c-.7.2-.7 1.3-1.4 1.2l.1.4c-.4 1.2-.3-.7-.7.2l-.1-1.2c-.3.3-.9 1.1-1.4 1.4.3-.9.8-1.3 1.2-1.8-.3 0-.9.1-1 .7.1-.1.2-.4.3-.2-.3.9-.7 1.4-1.3 1.4.1-2.3-1.3-.6-1.7-2.4-.9.8-1.8-.4-2.9-.2.4 1.8-.3.1-.2 1.9-.2.1-.3.1-.4 0l-.8-1.1c-.2-.5.2-.4.2-.8-.5-.1-.2-.8-.6-1.3.1.7-.2.9-.5.7l.4.8c-.8 1-.7-1.5-1.4-.6l.2-.6c-.4.3-1.4 0-1.8 1.5-.1-.2-.2-.7 0-.8-.9-.2-2.1 1.6-2.8.7l.1-.4c-.2.1-.3.8-.5.4 0-.2.1-.4 0-.5-.1.2-.5.8-.7.5l.2-.5c-.9-.6-1.4 1.2-2.2 1.5 0-1.3-.7-1.7-1.1-2v-.2c-1.1-.2-1.8 1.1-2.8 1.6-.6-1.4-2.1-.6-3.1-1.4.2.2 0 1-.2 1.2-.2-.3-.6.9-.6-.3h.1c-.2-1.2-.6-.9-1-.9l-.1 1.6c-1-2.3-2.5.8-3.1-1.2-.2.4-.5.4-.8.8v-.8c-.6-.2-1-.3-1.8-.1l.2-.6c-.5-.1-.6 2.4-1 2.5l-.1-1.3c-.8 0-1.6-1.1-2.4.1 0-.2 0-.6.2-.6-.4 0-1.4-.9-1.3.9 0-1.1-.8-.1-1.2.4l.1-.8c-.4 1.1-.4 1.4-.9 1.7-.1-.1-.1-.7.1-.5-.4-.4-.3.8-.8.3l.2-.5c-.4-.1-.4.2-.6.8-.3.3-.8-.2-.8-1-.1.5-.3 1.1-.5.9 0-.3.1-.5.1-.5l-1.5.2c0-.3 0-.4-.1-.5.5 0 1 .1.9.1 0-.8-.4-.9-.1-2-.4.6-1 1.8-1.4 1.5 0-.1 0-.1-.1-.3v-.1c-.1-.1-.2 0-.3.1-.1-.1-.2-.2-.4-.2-.1-.6-.5-.3-.7-.4 0 .8-.3.7 0 1.4 0-.1 0-.1.2-.1 0 0 .1 0 .1-.1v.1c.1 0 .3 0 .5-.1-.2.4-.4.8-.6.3-.1.5-.2 1.1-.3 1.4-.3-1.2-.9-1.8-1-2.5-.7.5-1.6.3-2 1.9-.2.2-.2-.5-.3-.7.1-.2.2-.1.3-.4-.4.4-1.1.2-1.2 1.3-.5-.5.3-1-.4-.8l.1-.3c-1.3-1.8-2.1 2.8-3.5.6.1.1.1.2.2.4-1.6-1-3.4.9-5-.6-.5-.3-.5.4-.8.9l-.1-.9-.5 1c-.7.8-1.2-2.2-2-.8l.1.6c-.3-.1-1 .4-.9-.3 0 .1-.1.6-.2.3v-.5l-.8.8c-.6-.3.1-1.9-.8-2-.3.2-.9 1.4-.8 1.7.1 0 .3.3.3.8l-.3.2c-.1 1.4-.3 2.8.4 3.8l.5-.9.2.7h-.4c.2.6.4.1.6-.3 0 .4.1.6.2.7l.5-1.3c.1.5-.2 1.1.1 1.4.2-.6-.2-1.2.2-1.6.2.6.2 1.2.4.6 0 .4 0 .6-.1.7.2-.4.7-.2.8-.9.2.8.8-.2.8 1.1.1-.3.4-1 .7-1.1-.4 1.6.9.1.7 1.8.3-1.4 1.1-.6 1.7-1.4 0 .1-.1.3-.1.3.3.1.4.5.6.8 0-1.2.5-1.4.8-2.2.4 1.1-.2 1.4-.1 2.5 0-1 .7-1 .5-1.7.3.7.2.3.4 1.3.1-1.5.3-.2.5-1.2.4.7.1 1.4.6.9.6.4.2.9.2.9zm10.9-2.6c-.1 0-.2.1-.2.1.1 0 .1 0 .2-.1zm1 0h-.4c0-.3 0-.6.1-.6-.1.2.1.4.3.6zm-2-5.8c.1-.1.2 0 .2.2-.1 0-.1 0-.3.1v.1c.1-.2.1-.3.1-.4zm-.2 1.1v.3-.3zm83.1 1.2v.1-.1zm-68.3 5.1v-.2l-.1.2zm73.3-2.2c0 .1 0 .2.1.2 0 0 0-.1-.1-.2zm2.2.2l.3.3-.3-.3zm1.7.4v-.4.4zm-26.7 1c-.2.2-.1.2 0 0zm8-1.9c-.1.2-.2.3-.3.4.2 0 .3 0 .3-.4zm-16.8 2.9zm16.1-2.6c.1.2.3.1.4 0-.1 0-.2-.1-.4 0zm26.7 1c.1 0 .1-.1.1-.1l-.1.1zm.1-.1zm.2-.3l-.2.2c.1 0 .2.1.2-.2zm-2.5 0v.3c-.1 0 0-.1 0-.3zm-.7.1c.2.1.4.7.6.5v-.2c-.1.4-.5-.8-.6-.3zm-2.8-3.8l.6.2c-.1-.3-.2-.8 0-.8-.8-.9.1.8-.6.6zm-1.8-.4c.3-.2 0-.5 0-.7-.2.3-.2.4 0 .7zm-12.7 0v-.8c-.2.1.1.3 0 .8zm-2.4 3.9l.2.5.2-.7zm-1.4-5.4l.1-.1-.4.2zm-21.3.2l.1.9c.1-.1.2-1.1-.1-.9zm-9.2 1c-.1-.5-.4-.8-.5-.3.2.1.4.4.5.3zm-27.5-1.5l.1-.4-.3.3z"/><text transform="matrix(1 -.028 .028 1 431.339 -91.643)" class="st2 st4" font-size="67.097">TEST</text><text transform="translate(370.741 171.574)" class="st3 st4 st5">TEST</text></svg>